<?xml version="1.0" encoding="UTF-8" standalone="no"?>
<!DOCTYPE svg PUBLIC "-//W3C//DTD SVG 1.1//EN" "http://www.w3.org/Graphics/SVG/1.1/DTD/svg11.dtd">
<svg width="100%" height="100%" viewBox="0 0 1819 416" version="1.1" xmlns="http://www.w3.org/2000/svg" xmlns:xlink="http://www.w3.org/1999/xlink" xml:space="preserve" xmlns:serif="http://www.serif.com/" style="fill-rule:evenodd;clip-rule:evenodd;stroke-linecap:round;stroke-linejoin:round;">
    <g transform="matrix(1,0,0,1,0,-535)">
        <rect x="0" y="0" width="1819" height="1286" style="fill:white;fill-rule:nonzero;"/>
    </g>
    <g transform="matrix(1,0,0,1,0,-535)">
        <rect x="686.3" y="845.9" width="29.5" height="25.7" style="fill:rgb(217,217,217);stroke:rgb(217,217,217);stroke-width:0.15px;"/>
    </g>
    <g transform="matrix(1,0,0,1,0,-535)">
        <rect x="655.4" y="845.9" width="29.5" height="25.7" style="fill:rgb(217,217,217);stroke:rgb(217,217,217);stroke-width:0.15px;"/>
    </g>
    <g transform="matrix(1,0,0,1,0,-535)">
        <clipPath id="_clip1">
            <rect x="52" y="872.3" width="1767.6" height="1.3"/>
        </clipPath>
        <g clip-path="url(#_clip1)">
            <rect x="52" y="872.3" width="1781.7" height="1.2" style="fill:rgb(166,166,166);stroke:rgb(166,166,166);stroke-width:0.15px;"/>
        </g>
    </g>
    <g transform="matrix(1,0,0,1,0,-535)">
        <rect x="717.2" y="845.9" width="29.6" height="25.7" style="fill:rgb(217,217,217);stroke:rgb(217,217,217);stroke-width:0.15px;"/>
    </g>
    <g transform="matrix(1,0,0,1,0,-535)">
        <rect x="1243.1" y="845.9" width="29.6" height="25.7" style="fill:none;stroke:rgb(166,166,166);stroke-width:1.56px;"/>
    </g>
    <g transform="matrix(1,0,0,1,0,-535)">
        <rect x="1212.2" y="845.9" width="29.5" height="25.7" style="fill:none;stroke:rgb(166,166,166);stroke-width:1.56px;"/>
    </g>
    <g transform="matrix(1,0,0,1,0,-535)">
        <rect x="748.1" y="845.9" width="29.6" height="25.7" style="fill:none;stroke:rgb(166,166,166);stroke-width:1.56px;"/>
    </g>
    <g transform="matrix(1,0,0,1,0,-535)">
        <rect x="1181.3" y="845.9" width="29.5" height="25.7" style="fill:none;stroke:rgb(166,166,166);stroke-width:1.56px;"/>
    </g>
    <g transform="matrix(1,0,0,1,0,-535)">
        <rect x="1150.3" y="845.9" width="29.5" height="25.7" style="fill:none;stroke:rgb(166,166,166);stroke-width:1.56px;"/>
    </g>
    <g transform="matrix(1,0,0,1,0,-535)">
        <rect x="717.2" y="845.9" width="29.6" height="25.7" style="fill:none;stroke:rgb(166,166,166);stroke-width:1.56px;"/>
    </g>
    <g transform="matrix(1,0,0,1,0,-535)">
        <rect x="500.7" y="845.9" width="29.5" height="25.7" style="fill:none;stroke:rgb(166,166,166);stroke-width:1.56px;"/>
    </g>
    <g transform="matrix(1,0,0,1,0,-535)">
        <rect x="1119.4" y="845.9" width="29.5" height="25.7" style="fill:none;stroke:rgb(166,166,166);stroke-width:1.56px;"/>
    </g>
    <g transform="matrix(1,0,0,1,0,-535)">
        <rect x="1088.4" y="845.9" width="29.5" height="25.7" style="fill:none;stroke:rgb(166,166,166);stroke-width:1.56px;"/>
    </g>
    <g transform="matrix(1,0,0,1,0,-535)">
        <rect x="686.3" y="845.9" width="29.5" height="25.7" style="fill:none;stroke:rgb(166,166,166);stroke-width:1.56px;"/>
    </g>
    <g transform="matrix(1,0,0,1,0,-535)">
        <rect x="1057.5" y="845.9" width="29.5" height="25.7" style="fill:none;stroke:rgb(166,166,166);stroke-width:1.56px;"/>
    </g>
    <g transform="matrix(1,0,0,1,0,-535)">
        <rect x="655.4" y="845.9" width="29.5" height="25.7" style="fill:none;stroke:rgb(166,166,166);stroke-width:1.56px;"/>
    </g>
    <g transform="matrix(1,0,0,1,0,-535)">
        <rect x="1026.5" y="845.9" width="29.5" height="25.7" style="fill:none;stroke:rgb(166,166,166);stroke-width:1.56px;"/>
    </g>
    <g transform="matrix(1,0,0,1,0,-535)">
        <rect x="469.7" y="845.9" width="29.6" height="25.7" style="fill:none;stroke:rgb(166,166,166);stroke-width:1.56px;"/>
    </g>
    <g transform="matrix(1,0,0,1,0,-535)">
        <rect x="376.5" y="845.9" width="29.5" height="25.7" style="fill:none;stroke:rgb(166,166,166);stroke-width:1.56px;"/>
    </g>
    <g transform="matrix(1,0,0,1,0,-535)">
        <rect x="346" y="845.9" width="29.5" height="25.7" style="fill:none;stroke:rgb(166,166,166);stroke-width:1.56px;"/>
    </g>
    <g transform="matrix(1,0,0,1,0,-535)">
        <rect x="995.6" y="845.9" width="29.6" height="25.7" style="fill:none;stroke:rgb(166,166,166);stroke-width:1.56px;"/>
    </g>
    <g transform="matrix(1,0,0,1,0,-535)">
        <rect x="624.5" y="845.9" width="29.4" height="25.7" style="fill:none;stroke:rgb(166,166,166);stroke-width:1.56px;"/>
    </g>
    <g transform="matrix(1,0,0,1,0,-535)">
        <rect x="964.7" y="845.9" width="29.5" height="25.7" style="fill:none;stroke:rgb(166,166,166);stroke-width:1.56px;"/>
    </g>
    <g transform="matrix(1,0,0,1,0,-535)">
        <rect x="438.9" y="845.9" width="29.5" height="25.7" style="fill:none;stroke:rgb(166,166,166);stroke-width:1.56px;"/>
    </g>
    <g transform="matrix(1,0,0,1,0,-535)">
        <rect x="1614.3" y="845.9" width="29.5" height="25.7" style="fill:none;stroke:rgb(166,166,166);stroke-width:1.56px;"/>
    </g>
    <g transform="matrix(1,0,0,1,0,-535)">
        <rect x="1583.4" y="845.9" width="29.5" height="25.7" style="fill:none;stroke:rgb(166,166,166);stroke-width:1.56px;"/>
    </g>
    <g transform="matrix(1,0,0,1,0,-535)">
        <rect x="933.8" y="845.9" width="29.5" height="25.7" style="fill:none;stroke:rgb(166,166,166);stroke-width:1.56px;"/>
    </g>
    <g transform="matrix(1,0,0,1,0,-535)">
        <rect x="1552.4" y="845.9" width="29.5" height="25.7" style="fill:none;stroke:rgb(166,166,166);stroke-width:1.56px;"/>
    </g>
    <g transform="matrix(1,0,0,1,0,-535)">
        <rect x="1521.5" y="845.9" width="29.5" height="25.7" style="fill:none;stroke:rgb(166,166,166);stroke-width:1.56px;"/>
    </g>
    <g transform="matrix(1,0,0,1,0,-535)">
        <rect x="902.9" y="845.9" width="29.5" height="25.7" style="fill:none;stroke:rgb(166,166,166);stroke-width:1.56px;"/>
    </g>
    <g transform="matrix(1,0,0,1,0,-535)">
        <rect x="593.5" y="845.9" width="29.5" height="25.7" style="fill:none;stroke:rgb(166,166,166);stroke-width:1.56px;"/>
    </g>
    <g transform="matrix(1,0,0,1,0,-535)">
        <rect x="1490.5" y="845.9" width="29.6" height="25.7" style="fill:none;stroke:rgb(166,166,166);stroke-width:1.56px;"/>
    </g>
    <g transform="matrix(1,0,0,1,0,-535)">
        <rect x="1459.7" y="845.9" width="29.5" height="25.7" style="fill:none;stroke:rgb(166,166,166);stroke-width:1.56px;"/>
    </g>
    <g transform="matrix(1,0,0,1,0,-535)">
        <rect x="871.9" y="845.9" width="29.5" height="25.7" style="fill:none;stroke:rgb(166,166,166);stroke-width:1.56px;"/>
    </g>
    <g transform="matrix(1,0,0,1,0,-535)">
        <rect x="1428.7" y="845.9" width="29.5" height="25.7" style="fill:none;stroke:rgb(166,166,166);stroke-width:1.56px;"/>
    </g>
    <g transform="matrix(1,0,0,1,0,-535)">
        <rect x="1397.8" y="845.9" width="29.5" height="25.7" style="fill:none;stroke:rgb(166,166,166);stroke-width:1.56px;"/>
    </g>
    <g transform="matrix(1,0,0,1,0,-535)">
        <rect x="841" y="845.9" width="29.5" height="25.7" style="fill:none;stroke:rgb(166,166,166);stroke-width:1.56px;"/>
    </g>
    <g transform="matrix(1,0,0,1,0,-535)">
        <rect x="562.6" y="845.9" width="29.5" height="25.7" style="fill:none;stroke:rgb(166,166,166);stroke-width:1.56px;"/>
    </g>
    <g transform="matrix(1,0,0,1,0,-535)">
        <rect x="1366.8" y="845.9" width="29.5" height="25.7" style="fill:none;stroke:rgb(166,166,166);stroke-width:1.56px;"/>
    </g>
    <g transform="matrix(1,0,0,1,0,-535)">
        <rect x="1335.9" y="845.9" width="29.5" height="25.7" style="fill:none;stroke:rgb(166,166,166);stroke-width:1.56px;"/>
    </g>
    <g transform="matrix(1,0,0,1,0,-535)">
        <rect x="810" y="845.9" width="29.5" height="25.7" style="fill:none;stroke:rgb(166,166,166);stroke-width:1.56px;"/>
    </g>
    <g transform="matrix(1,0,0,1,0,-535)">
        <rect x="1305" y="845.9" width="29.5" height="25.7" style="fill:none;stroke:rgb(166,166,166);stroke-width:1.56px;"/>
    </g>
    <g transform="matrix(1,0,0,1,0,-535)">
        <rect x="1274" y="845.9" width="29.5" height="25.7" style="fill:none;stroke:rgb(166,166,166);stroke-width:1.56px;"/>
    </g>
    <g transform="matrix(1,0,0,1,0,-535)">
        <rect x="779.1" y="845.9" width="29.5" height="25.7" style="fill:none;stroke:rgb(166,166,166);stroke-width:1.56px;"/>
    </g>
    <g transform="matrix(1,0,0,1,0,-535)">
        <rect x="531.6" y="845.9" width="29.5" height="25.7" style="fill:none;stroke:rgb(166,166,166);stroke-width:1.56px;"/>
    </g>
    <g transform="matrix(1,0,0,1,0,-535)">
        <rect x="407.9" y="845.9" width="29.5" height="25.7" style="fill:none;stroke:rgb(166,166,166);stroke-width:1.56px;"/>
    </g>
    <g transform="matrix(1,0,0,1,0,-535)">
        <clipPath id="_clip2">
            <rect x="51.1" y="872.6" width="1768.5" height="1.9"/>
        </clipPath>
        <g clip-path="url(#_clip2)">
            <path d="M52,873.5L1819.6,873.5" style="fill:none;stroke:black;stroke-width:1.56px;"/>
        </g>
    </g>
    <g transform="matrix(1,0,0,1,0,-535)">
        <path d="M1819.6,872.3L52,872.3L52,873.5" style="fill:none;stroke:black;stroke-width:1.56px;"/>
    </g>
    <g transform="matrix(1,0,0,1,0,-535)">
        <path d="M314.1,824L768.9,786.9" style="fill:none;stroke:black;stroke-width:1.56px;"/>
    </g>
    <g transform="matrix(1,0,0,1,0,-535)">
        <path d="M252.3,824L1644.9,824" style="fill:none;stroke:black;stroke-width:1.56px;"/>
    </g>
    <g transform="matrix(1,0,0,1,0,-535)">
        <path d="M252.3,845.4L252.3,824L768.9,786.9L1644.9,824L1644.9,845.4L252.3,845.4M252.3,824L252.3,845.4L314.1,845.4L314.1,824L252.3,824Z" style="fill:none;stroke:black;stroke-width:1.56px;"/>
    </g>
</svg>
