<?xml version="1.0" encoding="UTF-8" standalone="no"?>
<!DOCTYPE svg PUBLIC "-//W3C//DTD SVG 1.1//EN" "http://www.w3.org/Graphics/SVG/1.1/DTD/svg11.dtd">
<svg width="100%" height="100%" viewBox="0 0 1190.64 841.92" version="1.1" xmlns="http://www.w3.org/2000/svg">
  <path d="M973.8648,686.4216 C974.0195,680.603 971.3788,673.6031 966.5586,668.7828 C961.7383,663.9626 954.7385,661.322 948.9199,661.4767" stroke="#000000" stroke-width="0.24" fill-opacity="0" />
  <path d="M451.5813,614.9885 C451.4266,609.1699 454.0673,602.17 458.8875,597.3498 C463.7078,592.5295 470.7077,589.8889 476.5262,590.0436" stroke="#000000" stroke-width="0.24" fill-opacity="0" />
  <path d="M642.7073,449.1617 C648.5259,449.007 655.5258,451.6476 660.346,456.4679 C665.1663,461.2881 667.8069,468.288 667.6522,474.1066" stroke="#000000" stroke-width="0.24" fill-opacity="0" />
  <path d="M477.5183,578.705 L475.8176,578.705 L475.8176,480.3428 L477.5183,480.3428 z" stroke="#000000" stroke-width="0.24" fill-opacity="0" />
  <path d="M478.3687,578.705 L474.542,578.705 L474.542,478.642 L478.3687,478.642 z" stroke="#000000" stroke-width="0.24" fill-opacity="0" />
  <path d="M973.8648,481.4767 C974.0195,487.2952 971.3788,494.2951 966.5586,499.1154 C961.7383,503.9356 954.7385,506.5762 948.9199,506.4215" stroke="#000000" stroke-width="0.24" fill-opacity="0" />
  <path d="M154.0853,453.1269 L155.4151,453.1269 L162.0494,453.1269" stroke="#000000" stroke-width="0.24" fill-opacity="0" />
  <path d="M167.7187,453.1269 L173.388,453.1269" stroke="#000000" stroke-width="0.24" fill-opacity="0" />
  <path d="M179.0573,453.1269 L184.7266,453.1269" stroke="#000000" stroke-width="0.24" fill-opacity="0" />
  <path d="M190.3959,453.1269 L196.0651,453.1269" stroke="#000000" stroke-width="0.24" fill-opacity="0" />
  <path d="M201.7344,453.1269 L207.4037,453.1269" stroke="#000000" stroke-width="0.24" fill-opacity="0" />
  <path d="M213.073,453.1269 L218.7423,453.1269" stroke="#000000" stroke-width="0.24" fill-opacity="0" />
  <path d="M224.4116,453.1269 L230.0809,453.1269" stroke="#000000" stroke-width="0.24" fill-opacity="0" />
  <path d="M235.7502,453.1269 L241.4195,453.1269" stroke="#000000" stroke-width="0.24" fill-opacity="0" />
  <path d="M247.0888,453.1269 L252.7581,453.1269" stroke="#000000" stroke-width="0.24" fill-opacity="0" />
  <path d="M258.4273,453.1269 L264.0966,453.1269" stroke="#000000" stroke-width="0.24" fill-opacity="0" />
  <path d="M269.7659,453.1269 L275.4352,453.1269" stroke="#000000" stroke-width="0.24" fill-opacity="0" />
  <path d="M281.1045,453.1269 L286.7738,453.1269" stroke="#000000" stroke-width="0.24" fill-opacity="0" />
  <path d="M292.4431,453.1269 L298.1124,453.1269" stroke="#000000" stroke-width="0.24" fill-opacity="0" />
  <path d="M303.7817,453.1269 L309.451,453.1269" stroke="#000000" stroke-width="0.24" fill-opacity="0" />
  <path d="M315.1203,453.1269 L320.7896,453.1269" stroke="#000000" stroke-width="0.24" fill-opacity="0" />
  <path d="M326.4588,453.1269 L332.1281,453.1269" stroke="#000000" stroke-width="0.24" fill-opacity="0" />
  <path d="M337.7974,453.1269 L343.4667,453.1269" stroke="#000000" stroke-width="0.24" fill-opacity="0" />
  <path d="M349.136,453.1269 L354.8053,453.1269" stroke="#000000" stroke-width="0.24" fill-opacity="0" />
  <path d="M360.4746,453.1269 L366.1439,453.1269" stroke="#000000" stroke-width="0.24" fill-opacity="0" />
  <path d="M371.8132,453.1269 L377.4825,453.1269" stroke="#000000" stroke-width="0.24" fill-opacity="0" />
  <path d="M383.1518,453.1269 L388.821,453.1269" stroke="#000000" stroke-width="0.24" fill-opacity="0" />
  <path d="M394.4903,453.1269 L400.1596,453.1269" stroke="#000000" stroke-width="0.24" fill-opacity="0" />
  <path d="M405.8289,453.1269 L411.4982,453.1269" stroke="#000000" stroke-width="0.24" fill-opacity="0" />
  <path d="M417.1675,453.1269 L422.8368,453.1269" stroke="#000000" stroke-width="0.24" fill-opacity="0" />
  <path d="M428.5061,453.1269 L434.1754,453.1269" stroke="#000000" stroke-width="0.24" fill-opacity="0" />
  <path d="M439.8447,453.1269 L445.514,453.1269" stroke="#000000" stroke-width="0.24" fill-opacity="0" />
  <path d="M451.1833,453.1269 L456.8525,453.1269" stroke="#000000" stroke-width="0.24" fill-opacity="0" />
  <path d="M462.5219,453.1269 L468.1911,453.1269" stroke="#000000" stroke-width="0.24" fill-opacity="0" />
  <path d="M473.8604,453.1269 L479.5297,453.1269" stroke="#000000" stroke-width="0.24" fill-opacity="0" />
  <path d="M485.199,453.1269 L490.8683,453.1269" stroke="#000000" stroke-width="0.24" fill-opacity="0" />
  <path d="M496.5376,453.1269 L502.2069,453.1269" stroke="#000000" stroke-width="0.24" fill-opacity="0" />
  <path d="M507.8762,453.1269 L513.5455,453.1269" stroke="#000000" stroke-width="0.24" fill-opacity="0" />
  <path d="M519.2147,453.1269 L524.884,453.1269" stroke="#000000" stroke-width="0.24" fill-opacity="0" />
  <path d="M530.5533,453.1269 L536.2226,453.1269" stroke="#000000" stroke-width="0.24" fill-opacity="0" />
  <path d="M541.8919,453.1269 L547.5612,453.1269" stroke="#000000" stroke-width="0.24" fill-opacity="0" />
  <path d="M553.2305,453.1269 L558.8998,453.1269" stroke="#000000" stroke-width="0.24" fill-opacity="0" />
  <path d="M564.5691,453.1269 L570.2383,453.1269" stroke="#000000" stroke-width="0.24" fill-opacity="0" />
  <path d="M575.9077,453.1269 L581.577,453.1269" stroke="#000000" stroke-width="0.24" fill-opacity="0" />
  <path d="M587.2463,453.1269 L592.9155,453.1269" stroke="#000000" stroke-width="0.24" fill-opacity="0" />
  <path d="M598.5848,453.1269 L604.2542,453.1269" stroke="#000000" stroke-width="0.24" fill-opacity="0" />
  <path d="M609.9234,453.1269 L615.5927,453.1269" stroke="#000000" stroke-width="0.24" fill-opacity="0" />
  <path d="M621.262,453.1269 L626.9313,453.1269" stroke="#000000" stroke-width="0.24" fill-opacity="0" />
  <path d="M632.6006,453.1269 L638.2699,453.1269" stroke="#000000" stroke-width="0.24" fill-opacity="0" />
  <path d="M643.9391,453.1269 L649.6085,453.1269" stroke="#000000" stroke-width="0.24" fill-opacity="0" />
  <path d="M655.2778,453.1269 L660.947,453.1269" stroke="#000000" stroke-width="0.24" fill-opacity="0" />
  <path d="M666.6163,453.1269 L672.2856,453.1269" stroke="#000000" stroke-width="0.24" fill-opacity="0" />
  <path d="M677.9549,453.1269 L683.6242,453.1269" stroke="#000000" stroke-width="0.24" fill-opacity="0" />
  <path d="M689.2935,453.1269 L694.9628,453.1269" stroke="#000000" stroke-width="0.24" fill-opacity="0" />
  <path d="M700.6321,453.1269 L706.3014,453.1269" stroke="#000000" stroke-width="0.24" fill-opacity="0" />
  <path d="M711.9706,453.1269 L717.64,453.1269" stroke="#000000" stroke-width="0.24" fill-opacity="0" />
  <path d="M723.3093,453.1269 L728.9785,453.1269" stroke="#000000" stroke-width="0.24" fill-opacity="0" />
  <path d="M734.6478,453.1269 L740.3171,453.1269" stroke="#000000" stroke-width="0.24" fill-opacity="0" />
  <path d="M745.9864,453.1269 L751.6557,453.1269" stroke="#000000" stroke-width="0.24" fill-opacity="0" />
  <path d="M757.325,453.1269 L762.9943,453.1269" stroke="#000000" stroke-width="0.24" fill-opacity="0" />
  <path d="M768.6636,453.1269 L774.3329,453.1269" stroke="#000000" stroke-width="0.24" fill-opacity="0" />
  <path d="M780.0021,453.1269 L785.6714,453.1269" stroke="#000000" stroke-width="0.24" fill-opacity="0" />
  <path d="M791.3408,453.1269 L797.01,453.1269" stroke="#000000" stroke-width="0.24" fill-opacity="0" />
  <path d="M802.6793,453.1269 L808.3486,453.1269" stroke="#000000" stroke-width="0.24" fill-opacity="0" />
  <path d="M814.0179,453.1269 L819.6872,453.1269" stroke="#000000" stroke-width="0.24" fill-opacity="0" />
  <path d="M825.3565,453.1269 L831.0258,453.1269" stroke="#000000" stroke-width="0.24" fill-opacity="0" />
  <path d="M836.6951,453.1269 L842.3644,453.1269" stroke="#000000" stroke-width="0.24" fill-opacity="0" />
  <path d="M848.0336,453.1269 L853.7029,453.1269" stroke="#000000" stroke-width="0.24" fill-opacity="0" />
  <path d="M859.3723,453.1269 L865.0415,453.1269" stroke="#000000" stroke-width="0.24" fill-opacity="0" />
  <path d="M870.7108,453.1269 L876.3801,453.1269" stroke="#000000" stroke-width="0.24" fill-opacity="0" />
  <path d="M882.0494,453.1269 L887.7187,453.1269" stroke="#000000" stroke-width="0.24" fill-opacity="0" />
  <path d="M893.388,453.1269 L899.0573,453.1269" stroke="#000000" stroke-width="0.24" fill-opacity="0" />
  <path d="M904.7266,453.1269 L910.3959,453.1269" stroke="#000000" stroke-width="0.24" fill-opacity="0" />
  <path d="M916.0651,453.1269 L921.7344,453.1269" stroke="#000000" stroke-width="0.24" fill-opacity="0" />
  <path d="M927.4037,453.1269 L933.073,453.1269" stroke="#000000" stroke-width="0.24" fill-opacity="0" />
  <path d="M938.7423,453.1269 L944.4116,453.1269" stroke="#000000" stroke-width="0.24" fill-opacity="0" />
  <path d="M950.0809,453.1269 L955.7502,453.1269" stroke="#000000" stroke-width="0.24" fill-opacity="0" />
  <path d="M961.4195,453.1269 L967.0887,453.1269" stroke="#000000" stroke-width="0.24" fill-opacity="0" />
  <path d="M972.7581,453.1269 L978.4274,453.1269" stroke="#000000" stroke-width="0.24" fill-opacity="0" />
  <path d="M984.0966,453.1269 L989.7659,453.1269" stroke="#000000" stroke-width="0.24" fill-opacity="0" />
  <path d="M995.4352,453.1269 L1002.07,453.1269 L1002.07,456.245" stroke="#000000" stroke-width="0.24" fill-opacity="0" />
  <path d="M1002.07,461.9143 L1002.07,467.5836" stroke="#000000" stroke-width="0.24" fill-opacity="0" />
  <path d="M1002.07,473.2528 L1002.07,478.9221" stroke="#000000" stroke-width="0.24" fill-opacity="0" />
  <path d="M1002.07,484.5914 L1002.07,490.2607" stroke="#000000" stroke-width="0.24" fill-opacity="0" />
  <path d="M1002.07,495.93 L1002.07,501.5993" stroke="#000000" stroke-width="0.24" fill-opacity="0" />
  <path d="M1002.07,507.2686 L1002.07,512.9379" stroke="#000000" stroke-width="0.24" fill-opacity="0" />
  <path d="M1002.07,518.6072 L1002.07,524.2765" stroke="#000000" stroke-width="0.24" fill-opacity="0" />
  <path d="M1002.07,529.9457 L1002.07,535.6151" stroke="#000000" stroke-width="0.24" fill-opacity="0" />
  <path d="M1002.07,541.2844 L1002.07,546.9536" stroke="#000000" stroke-width="0.24" fill-opacity="0" />
  <path d="M1002.07,552.6229 L1002.07,558.2922" stroke="#000000" stroke-width="0.24" fill-opacity="0" />
  <path d="M1002.07,563.9615 L1002.07,569.6308" stroke="#000000" stroke-width="0.24" fill-opacity="0" />
  <path d="M1002.07,575.3001 L1002.07,580.9694" stroke="#000000" stroke-width="0.24" fill-opacity="0" />
  <path d="M1002.07,586.6387 L1002.07,592.308" stroke="#000000" stroke-width="0.24" fill-opacity="0" />
  <path d="M1002.07,597.9772 L1002.07,603.6465" stroke="#000000" stroke-width="0.24" fill-opacity="0" />
  <path d="M1002.07,609.3159 L1002.07,614.9851" stroke="#000000" stroke-width="0.24" fill-opacity="0" />
  <path d="M1002.07,620.6544 L1002.07,626.3237" stroke="#000000" stroke-width="0.24" fill-opacity="0" />
  <path d="M1002.07,631.993 L1002.07,637.6623" stroke="#000000" stroke-width="0.24" fill-opacity="0" />
  <path d="M1002.07,643.3316 L1002.07,649.0009" stroke="#000000" stroke-width="0.24" fill-opacity="0" />
  <path d="M1002.07,654.6702 L1002.07,660.3395" stroke="#000000" stroke-width="0.24" fill-opacity="0" />
  <path d="M1002.07,666.0087 L1002.07,671.678" stroke="#000000" stroke-width="0.24" fill-opacity="0" />
  <path d="M1002.07,677.3474 L1002.07,683.0166" stroke="#000000" stroke-width="0.24" fill-opacity="0" />
  <path d="M1002.07,688.6859 L1002.07,694.3552" stroke="#000000" stroke-width="0.24" fill-opacity="0" />
  <path d="M1002.07,700.0245 L1002.07,705.6938" stroke="#000000" stroke-width="0.24" fill-opacity="0" />
  <path d="M1002.07,711.3631 L1002.07,714.4812 L994.7703,714.4812" stroke="#000000" stroke-width="0.24" fill-opacity="0" />
  <path d="M989.101,714.4812 L983.4317,714.4812" stroke="#000000" stroke-width="0.24" fill-opacity="0" />
  <path d="M977.7625,714.4812 L972.0931,714.4812" stroke="#000000" stroke-width="0.24" fill-opacity="0" />
  <path d="M966.4238,714.4812 L960.7546,714.4812" stroke="#000000" stroke-width="0.24" fill-opacity="0" />
  <path d="M955.0853,714.4812 L949.416,714.4812" stroke="#000000" stroke-width="0.24" fill-opacity="0" />
  <path d="M943.7467,714.4812 L938.0774,714.4812" stroke="#000000" stroke-width="0.24" fill-opacity="0" />
  <path d="M932.4081,714.4812 L926.7388,714.4812" stroke="#000000" stroke-width="0.24" fill-opacity="0" />
  <path d="M921.0695,714.4812 L915.4002,714.4812" stroke="#000000" stroke-width="0.24" fill-opacity="0" />
  <path d="M909.731,714.4812 L904.0616,714.4812" stroke="#000000" stroke-width="0.24" fill-opacity="0" />
  <path d="M898.3923,714.4812 L892.7231,714.4812" stroke="#000000" stroke-width="0.24" fill-opacity="0" />
  <path d="M887.0538,714.4812 L881.3845,714.4812" stroke="#000000" stroke-width="0.24" fill-opacity="0" />
  <path d="M875.7152,714.4812 L870.0459,714.4812" stroke="#000000" stroke-width="0.24" fill-opacity="0" />
  <path d="M864.3766,714.4812 L858.7073,714.4812" stroke="#000000" stroke-width="0.24" fill-opacity="0" />
  <path d="M853.038,714.4812 L847.3687,714.4812" stroke="#000000" stroke-width="0.24" fill-opacity="0" />
  <path d="M841.6995,714.4812 L836.0302,714.4812" stroke="#000000" stroke-width="0.24" fill-opacity="0" />
  <path d="M830.3608,714.4812 L824.6916,714.4812" stroke="#000000" stroke-width="0.24" fill-opacity="0" />
  <path d="M819.0223,714.4812 L813.353,714.4812" stroke="#000000" stroke-width="0.24" fill-opacity="0" />
  <path d="M807.6837,714.4812 L802.0144,714.4812" stroke="#000000" stroke-width="0.24" fill-opacity="0" />
  <path d="M796.3451,714.4812 L790.6758,714.4812" stroke="#000000" stroke-width="0.24" fill-opacity="0" />
  <path d="M785.0065,714.4812 L779.3372,714.4812" stroke="#000000" stroke-width="0.24" fill-opacity="0" />
  <path d="M773.668,714.4812 L767.9987,714.4812" stroke="#000000" stroke-width="0.24" fill-opacity="0" />
  <path d="M762.3293,714.4812 L756.6601,714.4812" stroke="#000000" stroke-width="0.24" fill-opacity="0" />
  <path d="M750.9908,714.4812 L745.3215,714.4812" stroke="#000000" stroke-width="0.24" fill-opacity="0" />
  <path d="M739.6522,714.4812 L733.9829,714.4812" stroke="#000000" stroke-width="0.24" fill-opacity="0" />
  <path d="M728.3136,714.4812 L722.6443,714.4812" stroke="#000000" stroke-width="0.24" fill-opacity="0" />
  <path d="M716.975,714.4812 L711.3057,714.4812" stroke="#000000" stroke-width="0.24" fill-opacity="0" />
  <path d="M705.6365,714.4812 L699.9672,714.4812" stroke="#000000" stroke-width="0.24" fill-opacity="0" />
  <path d="M694.2979,714.4812 L688.6286,714.4812" stroke="#000000" stroke-width="0.24" fill-opacity="0" />
  <path d="M682.9593,714.4812 L677.29,714.4812" stroke="#000000" stroke-width="0.24" fill-opacity="0" />
  <path d="M671.6207,714.4812 L665.9514,714.4812" stroke="#000000" stroke-width="0.24" fill-opacity="0" />
  <path d="M660.2821,714.4812 L654.6129,714.4812" stroke="#000000" stroke-width="0.24" fill-opacity="0" />
  <path d="M648.9435,714.4812 L643.2742,714.4812" stroke="#000000" stroke-width="0.24" fill-opacity="0" />
  <path d="M637.605,714.4812 L631.9357,714.4812" stroke="#000000" stroke-width="0.24" fill-opacity="0" />
  <path d="M626.2664,714.4812 L620.5971,714.4812" stroke="#000000" stroke-width="0.24" fill-opacity="0" />
  <path d="M614.9278,714.4812 L609.2585,714.4812" stroke="#000000" stroke-width="0.24" fill-opacity="0" />
  <path d="M603.5892,714.4812 L597.9199,714.4812" stroke="#000000" stroke-width="0.24" fill-opacity="0" />
  <path d="M592.2506,714.4812 L586.5814,714.4812" stroke="#000000" stroke-width="0.24" fill-opacity="0" />
  <path d="M580.912,714.4812 L575.2427,714.4812" stroke="#000000" stroke-width="0.24" fill-opacity="0" />
  <path d="M569.5735,714.4812 L563.9042,714.4812" stroke="#000000" stroke-width="0.24" fill-opacity="0" />
  <path d="M558.2349,714.4812 L552.5656,714.4812" stroke="#000000" stroke-width="0.24" fill-opacity="0" />
  <path d="M546.8963,714.4812 L541.227,714.4812" stroke="#000000" stroke-width="0.24" fill-opacity="0" />
  <path d="M535.5577,714.4812 L529.8884,714.4812" stroke="#000000" stroke-width="0.24" fill-opacity="0" />
  <path d="M524.2191,714.4812 L518.5499,714.4812" stroke="#000000" stroke-width="0.24" fill-opacity="0" />
  <path d="M512.8806,714.4812 L507.2112,714.4812" stroke="#000000" stroke-width="0.24" fill-opacity="0" />
  <path d="M501.542,714.4812 L495.8727,714.4812" stroke="#000000" stroke-width="0.24" fill-opacity="0" />
  <path d="M490.2034,714.4812 L484.5341,714.4812" stroke="#000000" stroke-width="0.24" fill-opacity="0" />
  <path d="M478.8648,714.4812 L473.1955,714.4812" stroke="#000000" stroke-width="0.24" fill-opacity="0" />
  <path d="M467.5262,714.4812 L461.8569,714.4812" stroke="#000000" stroke-width="0.24" fill-opacity="0" />
  <path d="M456.1876,714.4812 L450.5183,714.4812" stroke="#000000" stroke-width="0.24" fill-opacity="0" />
  <path d="M444.8491,714.4812 L439.1797,714.4812" stroke="#000000" stroke-width="0.24" fill-opacity="0" />
  <path d="M433.5105,714.4812 L427.8412,714.4812" stroke="#000000" stroke-width="0.24" fill-opacity="0" />
  <path d="M422.1719,714.4812 L416.5026,714.4812" stroke="#000000" stroke-width="0.24" fill-opacity="0" />
  <path d="M410.8333,714.4812 L405.164,714.4812" stroke="#000000" stroke-width="0.24" fill-opacity="0" />
  <path d="M399.4947,714.4812 L393.8254,714.4812" stroke="#000000" stroke-width="0.24" fill-opacity="0" />
  <path d="M388.1561,714.4812 L382.4868,714.4812" stroke="#000000" stroke-width="0.24" fill-opacity="0" />
  <path d="M376.8176,714.4812 L371.1483,714.4812" stroke="#000000" stroke-width="0.24" fill-opacity="0" />
  <path d="M365.479,714.4812 L359.8097,714.4812" stroke="#000000" stroke-width="0.24" fill-opacity="0" />
  <path d="M354.1404,714.4812 L348.4711,714.4812" stroke="#000000" stroke-width="0.24" fill-opacity="0" />
  <path d="M342.8018,714.4812 L337.1325,714.4812" stroke="#000000" stroke-width="0.24" fill-opacity="0" />
  <path d="M331.4632,714.4812 L325.7939,714.4812" stroke="#000000" stroke-width="0.24" fill-opacity="0" />
  <path d="M320.1246,714.4812 L314.4554,714.4812" stroke="#000000" stroke-width="0.24" fill-opacity="0" />
  <path d="M308.7861,714.4812 L303.1168,714.4812" stroke="#000000" stroke-width="0.24" fill-opacity="0" />
  <path d="M297.4475,714.4812 L291.7782,714.4812" stroke="#000000" stroke-width="0.24" fill-opacity="0" />
  <path d="M286.1089,714.4812 L280.4396,714.4812" stroke="#000000" stroke-width="0.24" fill-opacity="0" />
  <path d="M274.7703,714.4812 L269.101,714.4812" stroke="#000000" stroke-width="0.24" fill-opacity="0" />
  <path d="M263.4317,714.4812 L257.7624,714.4812" stroke="#000000" stroke-width="0.24" fill-opacity="0" />
  <path d="M252.0931,714.4812 L246.4239,714.4812" stroke="#000000" stroke-width="0.24" fill-opacity="0" />
  <path d="M240.7546,714.4812 L235.0853,714.4812" stroke="#000000" stroke-width="0.24" fill-opacity="0" />
  <path d="M229.416,714.4812 L223.7467,714.4812" stroke="#000000" stroke-width="0.24" fill-opacity="0" />
  <path d="M218.0774,714.4812 L212.4081,714.4812" stroke="#000000" stroke-width="0.24" fill-opacity="0" />
  <path d="M206.7388,714.4812 L201.0695,714.4812" stroke="#000000" stroke-width="0.24" fill-opacity="0" />
  <path d="M195.4002,714.4812 L189.7309,714.4812" stroke="#000000" stroke-width="0.24" fill-opacity="0" />
  <path d="M184.0616,714.4812 L178.3924,714.4812" stroke="#000000" stroke-width="0.24" fill-opacity="0" />
  <path d="M172.7231,714.4812 L167.0538,714.4812" stroke="#000000" stroke-width="0.24" fill-opacity="0" />
  <path d="M161.3845,714.4812 L154.0853,714.4812 L154.0853,711.5082" stroke="#000000" stroke-width="0.24" fill-opacity="0" />
  <path d="M154.0853,705.8389 L154.0853,700.1696" stroke="#000000" stroke-width="0.24" fill-opacity="0" />
  <path d="M154.0853,694.5003 L154.0853,688.831" stroke="#000000" stroke-width="0.24" fill-opacity="0" />
  <path d="M154.0853,683.1617 L154.0853,677.4924" stroke="#000000" stroke-width="0.24" fill-opacity="0" />
  <path d="M154.0853,671.8231 L154.0853,666.1538" stroke="#000000" stroke-width="0.24" fill-opacity="0" />
  <path d="M154.0853,660.4846 L154.0853,654.8152" stroke="#000000" stroke-width="0.24" fill-opacity="0" />
  <path d="M154.0853,649.1459 L154.0853,643.4767" stroke="#000000" stroke-width="0.24" fill-opacity="0" />
  <path d="M154.0853,637.8074 L154.0853,632.1381" stroke="#000000" stroke-width="0.24" fill-opacity="0" />
  <path d="M154.0853,626.4688 L154.0853,620.7995" stroke="#000000" stroke-width="0.24" fill-opacity="0" />
  <path d="M154.0853,615.1302 L154.0853,609.4609" stroke="#000000" stroke-width="0.24" fill-opacity="0" />
  <path d="M154.0853,603.7916 L154.0853,598.1223" stroke="#000000" stroke-width="0.24" fill-opacity="0" />
  <path d="M154.0853,592.4531 L154.0853,586.7838" stroke="#000000" stroke-width="0.24" fill-opacity="0" />
  <path d="M154.0853,581.1144 L154.0853,575.4452" stroke="#000000" stroke-width="0.24" fill-opacity="0" />
  <path d="M154.0853,569.7759 L154.0853,564.1066" stroke="#000000" stroke-width="0.24" fill-opacity="0" />
  <path d="M154.0853,558.4373 L154.0853,552.768" stroke="#000000" stroke-width="0.24" fill-opacity="0" />
  <path d="M154.0853,547.0987 L154.0853,541.4294" stroke="#000000" stroke-width="0.24" fill-opacity="0" />
  <path d="M154.0853,535.7601 L154.0853,530.0908" stroke="#000000" stroke-width="0.24" fill-opacity="0" />
  <path d="M154.0853,524.4216 L154.0853,518.7523" stroke="#000000" stroke-width="0.24" fill-opacity="0" />
  <path d="M154.0853,513.0829 L154.0853,507.4137" stroke="#000000" stroke-width="0.24" fill-opacity="0" />
  <path d="M154.0853,501.7444 L154.0853,496.0751" stroke="#000000" stroke-width="0.24" fill-opacity="0" />
  <path d="M154.0853,490.4058 L154.0853,484.7365" stroke="#000000" stroke-width="0.24" fill-opacity="0" />
  <path d="M154.0853,479.0672 L154.0853,473.3979" stroke="#000000" stroke-width="0.24" fill-opacity="0" />
  <path d="M154.0853,467.7286 L154.0853,462.0593" stroke="#000000" stroke-width="0.24" fill-opacity="0" />
  <path d="M154.0853,456.39 L154.0853,453.417 L154.0853,453.1269" stroke="#000000" stroke-width="0.24" fill-opacity="0" />
  <path d="M789.0459,681.1104 L789.0459,689.2562 L804.9199,689.2562 L804.9199,681.0982 C805.3154,677.681 800.8904,673.8116 796.9861,674.1594 C793.0807,673.8145 788.6516,677.6903 789.046,681.1075 z" stroke="#000000" stroke-width="0.24" fill-opacity="0" />
  <path d="M802.9357,681.1042 C803.2326,684.0334 799.912,687.354 796.9829,687.057 C794.0538,687.354 790.7332,684.0334 791.0302,681.1042 C790.7332,678.1751 794.0538,674.8546 796.9829,675.1515 C799.912,674.8546 803.2326,678.1751 802.9357,681.1042 z" stroke="#000000" stroke-width="0.24" fill-opacity="0" />
  <path d="M668.0621,660.9096 L668.1483,583.5249 L670.9829,583.5167 L670.8968,660.9014 z" stroke="Black" stroke-width="0" fill="#000000" fill-opacity="1.0" />
  <path d="M474.542,689.2562 L604.9357,689.2562 L604.9357,695.7759 L474.542,695.7759 z" stroke="Black" stroke-width="0" fill="#000000" fill-opacity="1.0" />
  <path d="M611.4553,603.3664 L668.1483,603.3664 L668.1483,606.201 L611.4553,606.201 z" stroke="Black" stroke-width="0" fill="#000000" fill-opacity="1.0" />
  <path d="M669.5656,582.1066 C674.194,582.2296 679.7621,580.1292 683.5964,576.2949 C687.4307,572.4606 689.5311,566.8925 689.4081,562.264" stroke="#000000" stroke-width="0.24" fill-opacity="0" />
  <path d="M611.4553,552.3428 L670.9829,552.3428 L670.9829,555.1774 L611.4553,555.1774 z" stroke="Black" stroke-width="0" fill="#000000" fill-opacity="1.0" />
  <path d="M608.1955,511.2404 C612.8239,511.1174 618.392,513.2179 622.2263,517.0522 C626.0606,520.8865 628.1611,526.4545 628.038,531.0829" stroke="#000000" stroke-width="0.24" fill-opacity="0" />
  <path d="M611.4553,532.5003 L611.4553,626.0427 L604.9357,626.0427 L604.9357,532.5003 z" stroke="Black" stroke-width="0" fill="#000000" fill-opacity="1.0" />
  <path d="M608.1955,647.3026 C612.8239,647.4256 618.392,645.3251 622.2263,641.4908 C626.0606,637.6566 628.1611,632.0884 628.038,627.4601" stroke="#000000" stroke-width="0.24" fill-opacity="0" />
  <path d="M611.4553,648.7199 L611.4553,695.7759 L604.9357,695.7759 L604.9357,648.7199 z" stroke="Black" stroke-width="0" fill="#000000" fill-opacity="1.0" />
  <path d="M750.7782,626.894 L757.2979,626.894 L757.2979,695.7759 L750.7782,695.7759 z" stroke="Black" stroke-width="0" fill="#000000" fill-opacity="1.0" />
  <path d="M720.3341,660.9097 L750.7782,660.9097 L750.7782,667.4294 L720.3341,667.4294 z" stroke="Black" stroke-width="0" fill="#000000" fill-opacity="1.0" />
  <path d="M718.9171,665.2148 C719.0753,671.1657 716.3746,678.3248 711.4448,683.2546 C706.5149,688.1845 699.3558,690.8851 693.405,690.727" stroke="#000000" stroke-width="0.24" fill-opacity="0" />
  <path d="M515.4591,687.6536 C516.895,686.4821 516.895,683.5263 515.4591,682.3548 C514.2876,680.9189 511.3318,680.9189 510.1602,682.3548 C508.7244,683.5263 508.7244,686.4821 510.1602,687.6536 C511.3318,689.0895 514.2876,689.0895 515.4591,687.6536 z" stroke="#000000" stroke-width="0.24" fill-opacity="0" />
  <path d="M514.2418,675.0682 C515.0179,675.7014 515.0179,677.2991 514.2418,677.9324 C513.6085,678.7085 512.0109,678.7085 511.3776,677.9324 C510.6015,677.2991 510.6015,675.7014 511.3776,675.0682 C512.0109,674.2921 513.6085,674.2921 514.2418,675.0682 z" stroke="#000000" stroke-width="0.24" fill-opacity="0" />
  <path d="M519.8815,686.4363 C519.1054,685.803 519.1054,684.2054 519.8815,683.5721 C520.5148,682.796 522.1125,682.796 522.7457,683.5721 C523.5219,684.2054 523.5219,685.803 522.7457,686.4363 C522.1125,687.2125 520.5148,687.2125 519.8815,686.4363 z" stroke="#000000" stroke-width="0.24" fill-opacity="0" />
  <path d="M519.2662,674.4529 C518.1567,675.3582 518.1567,677.6423 519.2662,678.5476 C520.1716,679.6572 522.4557,679.6572 523.361,678.5476 C524.4705,677.6423 524.4705,675.3582 523.361,674.4529 C522.4557,673.3433 520.1716,673.3433 519.2662,674.4529 z" stroke="#000000" stroke-width="0.24" fill-opacity="0" />
  <path d="M839.5026,689.2562 L836.668,689.2562 L836.668,638.2325 L839.5026,638.2325 z" stroke="Black" stroke-width="0" fill="#000000" fill-opacity="1.0" />
  <path d="M839.5026,604.2168 L836.668,604.2168 L836.668,587.2089 L839.5026,587.2089 z" stroke="Black" stroke-width="0" fill="#000000" fill-opacity="1.0" />
  <path d="M836.668,638.2325 L836.668,641.0672 L808.3215,641.0672 L808.3215,638.2325 z" stroke="Black" stroke-width="0" fill="#000000" fill-opacity="1.0" />
  <path d="M785.6443,638.2325 L785.6443,641.0672 L757.2979,641.0672 L757.2979,638.2325 z" stroke="Black" stroke-width="0" fill="#000000" fill-opacity="1.0" />
  <path d="M750.7782,583.9491 L757.2979,583.9491 L757.2979,604.2168 L750.7782,604.2168 z" stroke="Black" stroke-width="0" fill="#000000" fill-opacity="1.0" />
  <path d="M750.7782,583.9491 L750.7782,563.6814 L757.2979,563.6814 L757.2979,583.9491 z" stroke="Black" stroke-width="0" fill="#000000" fill-opacity="1.0" />
  <path d="M763.6758,679.3346 C763.4562,674.4581 766.2396,668.9388 768.6713,669.4132 C771.1141,668.9013 773.8619,674.4164 773.5972,679.3002 L773.597,679.3348" stroke="#000000" stroke-width="0.24" fill-opacity="0" />
  <path d="M770.4974,689.2562 L766.7755,689.2562 C765.2502,689.4211 763.5212,687.5764 763.6758,685.949 L763.6758,682.6419 L773.597,682.6419 L773.597,685.949 C773.7517,687.5764 772.0226,689.4212 770.4974,689.2562 z" stroke="#000000" stroke-width="0.24" fill-opacity="0" />
  <path d="M789.0459,486.7879 L789.0459,478.642 L804.9199,478.642 L804.9199,486.8 C805.3154,490.2172 800.8904,494.0865 796.9861,493.7388 C793.0807,494.0837 788.6516,490.2079 789.046,486.7907 z" stroke="#000000" stroke-width="0.24" fill-opacity="0" />
  <path d="M802.9357,486.7939 C803.2326,483.8648 799.912,480.5442 796.9829,480.8412 C794.0538,480.5442 790.7332,483.8648 791.0302,486.7939 C790.7332,489.7231 794.0538,493.0436 796.9829,492.7467 C799.912,493.0436 803.2326,489.7231 802.9357,486.7939 z" stroke="#000000" stroke-width="0.24" fill-opacity="0" />
  <path d="M763.6758,488.5636 C763.4562,493.4402 766.2396,498.9594 768.6713,498.485 C771.1141,498.9969 773.8619,493.4818 773.5972,488.598 L773.597,488.5634" stroke="#000000" stroke-width="0.24" fill-opacity="0" />
  <path d="M770.4974,478.642 L766.7755,478.642 C765.2502,478.4771 763.5212,480.3219 763.6758,481.9492 L763.6758,485.2563 L773.597,485.2563 L773.5971,481.9492 C773.7517,480.3218 772.0226,478.477 770.4974,478.642 z" stroke="#000000" stroke-width="0.24" fill-opacity="0" />
  <path d="M839.5026,478.642 L839.5026,529.6656 L836.668,529.6656 L836.668,478.642 z" stroke="Black" stroke-width="0" fill="#000000" fill-opacity="1.0" />
  <path d="M839.5026,563.6814 L839.5026,580.6893 L836.668,580.6893 L836.668,563.6814 z" stroke="Black" stroke-width="0" fill="#000000" fill-opacity="1.0" />
  <path d="M836.668,529.6656 L808.3215,529.6656 L808.3215,526.831 L836.668,526.831 z" stroke="Black" stroke-width="0" fill="#000000" fill-opacity="1.0" />
  <path d="M785.6443,529.6656 L757.2979,529.6656 L757.2979,526.831 L785.6443,526.831 z" stroke="Black" stroke-width="0" fill="#000000" fill-opacity="1.0" />
  <path d="M866.4317,579.2719 C863.642,579.5547 860.4796,576.3923 860.7625,573.6027 C860.4796,570.813 863.642,567.6505 866.4317,567.9333 C869.2214,567.6505 872.3839,570.813 872.101,573.6027 C872.3839,576.3923 869.2214,579.5547 866.4317,579.2719 z" stroke="#000000" stroke-width="0.24" fill-opacity="0" />
  <path d="M931.6286,579.2719 C934.4183,579.5547 937.5807,576.3923 937.2979,573.6027 C937.5807,570.813 934.4183,567.6505 931.6286,567.9333 C928.8389,567.6505 925.6765,570.813 925.9593,573.6027 C925.6765,576.3923 928.8389,579.5547 931.6286,579.2719 z" stroke="#000000" stroke-width="0.24" fill-opacity="0" />
  <path d="M866.4317,588.6263 C863.642,588.3434 860.4796,591.5059 860.7625,594.2955 C860.4796,597.0852 863.642,600.2477 866.4317,599.9648 C869.2214,600.2477 872.3839,597.0852 872.101,594.2955 C872.3839,591.5059 869.2214,588.3434 866.4317,588.6263 z" stroke="#000000" stroke-width="0.24" fill-opacity="0" />
  <path d="M931.6286,588.6263 C934.4183,588.3434 937.5807,591.5059 937.2979,594.2955 C937.5807,597.0852 934.4183,600.2477 931.6286,599.9648 C928.8389,600.2477 925.6765,597.0852 925.9593,594.2955 C925.6765,591.5059 928.8389,588.3434 931.6286,588.6263 z" stroke="#000000" stroke-width="0.24" fill-opacity="0" />
  <path d="M611.4553,660.9097 L614.32,660.9097 L614.32,667.4294 L611.4553,667.4294 z" stroke="Black" stroke-width="0" fill="#000000" fill-opacity="1.0" />
  <path d="M642.6664,660.9097 L691.9876,660.9097 L691.9876,667.4294 L642.6664,667.4294 z" stroke="Black" stroke-width="0" fill="#000000" fill-opacity="1.0" />
  <path d="M641.2495,664.1696 C641.4077,670.1204 638.707,677.2795 633.7771,682.2094 C628.8473,687.1392 621.6882,689.8399 615.7374,689.6817" stroke="#000000" stroke-width="0.24" fill-opacity="0" />
  <path d="M754.038,625.4767 C749.4096,625.5997 743.8416,623.4992 740.0073,619.6649 C736.173,615.8306 734.0724,610.2625 734.1955,605.6342" stroke="#000000" stroke-width="0.24" fill-opacity="0" />
  <path d="M474.542,478.642 L474.542,472.1223 L640.1561,472.1223 L640.1561,478.642 z" stroke="Black" stroke-width="0" fill="#000000" fill-opacity="1.0" />
  <path d="M757.2979,541.0042 L750.7782,541.0042 L750.7782,478.642 L757.2979,478.642 z" stroke="Black" stroke-width="0" fill="#000000" fill-opacity="1.0" />
  <path d="M611.4553,478.642 L611.4553,509.8231 L604.9357,509.8231 L604.9357,478.642 z" stroke="Black" stroke-width="0" fill="#000000" fill-opacity="1.0" />
  <path d="M757.2979,689.2562 L950.9042,689.2562 L950.9042,695.7759 L757.2979,695.7759 z" stroke="Black" stroke-width="0" fill="#000000" fill-opacity="1.0" />
  <path d="M741.9199,478.642 L741.9199,472.1223 L950.9042,472.1223 L950.9042,478.642 z" stroke="Black" stroke-width="0" fill="#000000" fill-opacity="1.0" />
  <path d="M757.2979,587.2089 L757.2979,580.6893 L950.9042,580.6893 L950.9042,587.2089 z" stroke="Black" stroke-width="0" fill="#000000" fill-opacity="1.0" />
  <path d="M806.9042,528.2483 C807.0272,523.6199 804.9267,518.0518 801.0924,514.2175 C797.2581,510.3832 791.6901,508.2827 787.0616,508.4058" stroke="#000000" stroke-width="0.24" fill-opacity="0" />
  <path d="M806.9042,639.6499 C807.0272,644.2783 804.9267,649.8464 801.0924,653.6807 C797.2581,657.515 791.6901,659.6155 787.0616,659.4924" stroke="#000000" stroke-width="0.24" fill-opacity="0" />
  <path d="M754.038,542.4216 C749.4096,542.2985 743.8416,544.399 740.0073,548.2333 C736.173,552.0676 734.0724,557.6357 734.1955,562.264" stroke="#000000" stroke-width="0.24" fill-opacity="0" />
  <path d="M191.0774,478.642 L191.0774,472.1223 L335.6443,472.1223 L335.6443,478.642 z" stroke="Black" stroke-width="0" fill="#000000" fill-opacity="1.0" />
  <path d="M191.0774,695.7759 L191.0774,689.2562 L335.6443,689.2562 L335.6443,695.7759 z" stroke="Black" stroke-width="0" fill="#000000" fill-opacity="1.0" />
  <path d="M481.0616,580.6893 L481.0616,587.2089 L474.542,587.2089 L474.542,580.6893 z" stroke="Black" stroke-width="0" fill="#000000" fill-opacity="1.0" />
  <path d="M545.2743,482.2544 C545.5072,481.9977 546.0592,482.0267 546.2639,482.3063 C546.5206,482.5392 546.4917,483.0912 546.212,483.296 C545.9792,483.5526 545.4271,483.5237 545.2224,483.244 C544.9657,483.0112 544.9947,482.4591 545.2743,482.2544 z" stroke="#000000" stroke-width="0.24" fill-opacity="0" />
  <path d="M526.2758,482.2544 C526.0429,481.9977 525.4908,482.0267 525.2861,482.3063 C525.0294,482.5392 525.0583,483.0912 525.338,483.296 C525.5709,483.5526 526.1229,483.5237 526.3276,483.244 C526.5844,483.0112 526.5554,482.4591 526.2758,482.2544 z" stroke="#000000" stroke-width="0.24" fill-opacity="0" />
  <path d="M545.5282,503.3897 C545.761,503.133 546.3131,503.162 546.5178,503.4416 C546.7745,503.6744 546.7456,504.2265 546.4659,504.4312 C546.2331,504.6879 545.681,504.659 545.4763,504.3793 C545.2196,504.1465 545.2485,503.5944 545.5282,503.3897 z" stroke="#000000" stroke-width="0.24" fill-opacity="0" />
  <path d="M526.0219,503.3897 C525.789,503.133 525.2369,503.162 525.0322,503.4416 C524.7755,503.6744 524.8045,504.2265 525.0841,504.4312 C525.317,504.6879 525.869,504.659 526.0737,504.3793 C526.3304,504.1465 526.3015,503.5944 526.0219,503.3897 z" stroke="#000000" stroke-width="0.24" fill-opacity="0" />
  <path d="M544.3051,482.5285 C538.6822,481.6768 532.8679,481.6768 527.2449,482.5285 C526.7631,482.5848 526.2802,482.9778 526.127,483.438 C523.8922,489.4175 523.1359,496.134 523.9849,502.4608 C524.0301,503.0004 524.5197,503.5479 525.0509,503.6529 C531.9897,505.3867 539.5604,505.3867 546.4991,503.6529 C547.0303,503.5479 547.52,503.0004 547.5652,502.4608 C548.4142,496.134 547.6579,489.4175 545.4231,483.438 C545.2699,482.9778 544.7869,482.5848 544.3051,482.5285 z" stroke="#000000" stroke-width="0.24" fill-opacity="0" />
  <path d="M531.6333,486.1687 C534.2527,487.0522 537.2974,487.0522 539.9167,486.1687" stroke="#000000" stroke-width="0.24" fill-opacity="0" />
  <path d="M546.5126,487.9431 C544.2355,487.8942 541.9111,487.2688 539.9167,486.1687" stroke="#000000" stroke-width="0.24" fill-opacity="0" />
  <path d="M525.0374,487.9431 C527.3145,487.8942 529.639,487.2688 531.6333,486.1687" stroke="#000000" stroke-width="0.24" fill-opacity="0" />
  <path d="M513.6345,482.2544 C513.8674,481.9977 514.4194,482.0267 514.6242,482.3063 C514.8809,482.5392 514.8519,483.0912 514.5723,483.296 C514.3394,483.5526 513.7874,483.5237 513.5826,483.244 C513.3259,483.0112 513.3549,482.4591 513.6345,482.2544 z" stroke="#000000" stroke-width="0.24" fill-opacity="0" />
  <path d="M494.636,482.2544 C494.4031,481.9977 493.8511,482.0267 493.6464,482.3063 C493.3896,482.5392 493.4186,483.0912 493.6982,483.296 C493.9311,483.5526 494.4832,483.5237 494.6879,483.244 C494.9446,483.0112 494.9156,482.4591 494.636,482.2544 z" stroke="#000000" stroke-width="0.24" fill-opacity="0" />
  <path d="M513.8884,503.3897 C514.1213,503.133 514.6733,503.162 514.8781,503.4416 C515.1348,503.6744 515.1058,504.2265 514.8262,504.4312 C514.5933,504.6879 514.0413,504.659 513.8365,504.3793 C513.5798,504.1465 513.6088,503.5944 513.8884,503.3897 z" stroke="#000000" stroke-width="0.24" fill-opacity="0" />
  <path d="M494.3821,503.3897 C494.1492,503.133 493.5972,503.162 493.3925,503.4416 C493.1358,503.6744 493.1647,504.2265 493.4444,504.4312 C493.6772,504.6879 494.2292,504.659 494.434,504.3793 C494.6907,504.1465 494.6617,503.5944 494.3821,503.3897 z" stroke="#000000" stroke-width="0.24" fill-opacity="0" />
  <path d="M512.6654,482.5285 C507.0424,481.6768 501.2281,481.6768 495.6052,482.5285 C495.1234,482.5848 494.6404,482.9778 494.4872,483.438 C492.2524,489.4175 491.4961,496.134 492.3451,502.4608 C492.3903,503.0004 492.8799,503.5479 493.4111,503.6529 C500.3499,505.3867 507.9206,505.3867 514.8594,503.6529 C515.3906,503.5479 515.8802,503.0004 515.9254,502.4608 C516.7744,496.134 516.0181,489.4175 513.7834,483.438 C513.6301,482.9778 513.1472,482.5848 512.6654,482.5285 z" stroke="#000000" stroke-width="0.24" fill-opacity="0" />
  <path d="M499.9935,486.1687 C502.6129,487.0522 505.6576,487.0522 508.277,486.1687" stroke="#000000" stroke-width="0.24" fill-opacity="0" />
  <path d="M514.8729,487.9431 C512.5958,487.8942 510.2713,487.2688 508.277,486.1687" stroke="#000000" stroke-width="0.24" fill-opacity="0" />
  <path d="M493.3976,487.9431 C495.6747,487.8942 497.9992,487.2688 499.9935,486.1687" stroke="#000000" stroke-width="0.24" fill-opacity="0" />
  <path d="M541.6522,603.0532 C536.3626,602.9125 529.9991,605.3131 525.617,609.6951 C521.235,614.0772 518.8344,620.4407 518.975,625.7303 C518.8344,631.02 521.235,637.3835 525.617,641.7655 C529.9991,646.1476 536.3626,648.5481 541.6522,648.4075 C546.9418,648.5481 553.3054,646.1476 557.6874,641.7655 C562.0694,637.3835 564.47,631.02 564.3293,625.7303 C564.47,620.4407 562.0694,614.0772 557.6874,609.6951 C553.3054,605.3131 546.9418,602.9125 541.6522,603.0532 z" stroke="#000000" stroke-width="0.24" fill-opacity="0" />
  <path d="M514.1145,619.8503 L523.989,619.3113 L524.4097,619.4657 L524.5868,619.8774 L524.5868,630.774 L524.4097,631.1857 L523.989,631.3401 L514.1145,630.8011" stroke="#000000" stroke-width="0.24" fill-opacity="0" />
  <path d="M510.8702,632.3419 L513.812,631.9446 C513.9786,631.9257 514.147,631.8126 514.2275,631.6655 C514.3142,631.522 514.3274,631.3196 514.2601,631.166 C512.7197,627.5785 512.7197,623.0728 514.2601,619.4853 C514.3274,619.3317 514.3142,619.1294 514.2275,618.9858 C514.147,618.8387 513.9787,618.7257 513.8121,618.7067 L510.8702,618.3095" stroke="#000000" stroke-width="0.24" fill-opacity="0" />
  <path d="M513.7899,618.7761 L513.6854,618.7941 L513.5428,618.8127 L513.3602,618.834 L513.1423,618.8516 L512.9261,618.8736 L512.8402,618.8832 C512.6417,618.8982 512.4373,619.0568 512.3733,619.2453 C510.8907,623.0267 510.8907,627.6246 512.3733,631.4061 C512.4373,631.5946 512.6417,631.7531 512.8402,631.7681 L512.9261,631.7778 L513.1423,631.7997 L513.3602,631.8174 L513.5428,631.8386 L513.6854,631.8573 L513.7899,631.8753" stroke="#000000" stroke-width="0.24" fill-opacity="0" />
  <path d="M510.8702,618.3095 C510.6657,618.2604 510.3989,618.4637 510.3919,618.674 C510.3429,618.8785 510.5462,619.1453 510.7564,619.1522" stroke="#000000" stroke-width="0.24" fill-opacity="0" />
  <path d="M510.7564,631.4991 C510.5462,631.5061 510.3429,631.7729 510.3919,631.9774 C510.3989,632.1876 510.6657,632.3909 510.8702,632.3419" stroke="#000000" stroke-width="0.24" fill-opacity="0" />
  <path d="M523.8657,631.3334 L524.0532,631.7308 C524.1199,631.9166 524.4115,632.0256 524.5837,631.9291 C524.7712,631.8674 524.8879,631.5788 524.796,631.4041 L524.5868,630.8238" stroke="#000000" stroke-width="0.24" fill-opacity="0" />
  <path d="M523.8657,619.318 L524.0532,618.9205 C524.1199,618.7347 524.4115,618.6257 524.5837,618.7222 C524.7712,618.7839 524.8879,619.0725 524.796,619.2473 L524.5868,619.8276" stroke="#000000" stroke-width="0.24" fill-opacity="0" />
  <path d="M569.1899,619.8503 L559.3154,619.3113 L558.8947,619.4657 L558.7176,619.8774 L558.7176,630.774 L558.8947,631.1857 L559.3154,631.3401 L569.1899,630.8011" stroke="#000000" stroke-width="0.24" fill-opacity="0" />
  <path d="M572.4342,632.3419 L569.4924,631.9446 C569.3257,631.9257 569.1574,631.8126 569.0768,631.6655 C568.9902,631.522 568.977,631.3196 569.0444,631.166 C570.5848,627.5785 570.5848,623.0728 569.0444,619.4853 C568.977,619.3317 568.9902,619.1294 569.0768,618.9858 C569.1574,618.8387 569.3257,618.7257 569.4924,618.7067 L572.4342,618.3095" stroke="#000000" stroke-width="0.24" fill-opacity="0" />
  <path d="M569.5145,618.7761 L569.619,618.7941 L569.7616,618.8127 L569.9442,618.834 L570.162,618.8516 L570.3783,618.8736 L570.4642,618.8832 C570.6627,618.8982 570.8671,619.0568 570.9312,619.2453 C572.4137,623.0267 572.4137,627.6246 570.9312,631.4061 C570.8671,631.5946 570.6627,631.7531 570.4642,631.7681 L570.3783,631.7778 L570.162,631.7997 L569.9442,631.8174 L569.7616,631.8386 L569.619,631.8573 L569.5145,631.8753" stroke="#000000" stroke-width="0.24" fill-opacity="0" />
  <path d="M572.4342,618.3095 C572.6387,618.2604 572.9055,618.4637 572.9125,618.674 C572.9615,618.8785 572.7582,619.1453 572.548,619.1522" stroke="#000000" stroke-width="0.24" fill-opacity="0" />
  <path d="M572.548,631.4991 C572.7582,631.5061 572.9615,631.7729 572.9125,631.9774 C572.9055,632.1876 572.6387,632.3909 572.4342,632.3419" stroke="#000000" stroke-width="0.24" fill-opacity="0" />
  <path d="M559.4388,631.3334 L559.2512,631.7308 C559.1845,631.9166 558.8929,632.0256 558.7207,631.9291 C558.5332,631.8674 558.4165,631.5788 558.5084,631.4041 L558.7176,630.8238" stroke="#000000" stroke-width="0.24" fill-opacity="0" />
  <path d="M559.4388,619.318 L559.2512,618.9205 C559.1845,618.7347 558.8929,618.6257 558.7207,618.7222 C558.5332,618.7839 558.4165,619.0725 558.5084,619.2473 L558.7176,619.8276" stroke="#000000" stroke-width="0.24" fill-opacity="0" />
  <path d="M549.1778,598.681 L544.2456,607.2524 L544.1938,607.6975 L544.4814,608.0412 L554.2083,612.953 L554.6556,612.9805 L554.983,612.6746 L558.9529,603.6172" stroke="#000000" stroke-width="0.24" fill-opacity="0" />
  <path d="M561.7908,601.4157 L560.11,603.8627 C560.0181,604.0029 559.8412,604.1021 559.6736,604.1078 C559.5064,604.1204 559.3199,604.041 559.2131,603.9116 C556.7051,600.9195 552.6832,598.8885 548.7864,598.6464 C548.619,598.6373 548.4443,598.5343 548.3552,598.3922 C548.2603,598.254 548.2352,598.0528 548.2934,597.8955 L549.2648,595.0905" stroke="#000000" stroke-width="0.24" fill-opacity="0" />
  <path d="M548.3652,597.907 L548.4284,597.8218 L548.5093,597.7029 L548.6107,597.5495 L548.7246,597.363 L548.8417,597.1799 L548.889,597.1076 C548.9918,596.9371 549.2255,596.8261 549.4227,596.8539 C553.4664,597.235 557.5707,599.3076 560.2779,602.3356 C560.4174,602.4777 560.4667,602.7316 560.3906,602.9156 L560.3605,602.9966 L560.2826,603.1995 L560.2002,603.402 L560.1368,603.5745 L560.0892,603.7103 L560.0582,603.8116" stroke="#000000" stroke-width="0.24" fill-opacity="0" />
  <path d="M549.2648,595.0905 C549.3132,594.8858 549.615,594.7393 549.8058,594.8278 C550.0104,594.8762 550.1569,595.178 550.0684,595.3687" stroke="#000000" stroke-width="0.24" fill-opacity="0" />
  <path d="M561.0898,600.9343 C561.1907,600.7498 561.5206,600.6886 561.681,600.8245 C561.8655,600.9255 561.9267,601.2552 561.7908,601.4157" stroke="#000000" stroke-width="0.24" fill-opacity="0" />
  <path d="M555.0327,612.5614 L555.3029,612.908 C555.4387,613.0513 555.4045,613.3607 555.2408,613.4709 C555.1011,613.6105 554.791,613.5846 554.6764,613.4238 L554.2527,612.9755" stroke="#000000" stroke-width="0.24" fill-opacity="0" />
  <path d="M544.3073,607.1453 L543.8679,607.1336 C543.6719,607.1094 543.4432,607.3205 543.4517,607.5178 C543.4223,607.713 543.6273,607.9472 543.8247,607.9439 L544.437,608.0188" stroke="#000000" stroke-width="0.24" fill-opacity="0" />
  <path d="M534.1266,598.681 L539.0588,607.2524 L539.1106,607.6975 L538.8229,608.0412 L529.0961,612.953 L528.6488,612.9805 L528.3214,612.6746 L524.3514,603.6172" stroke="#000000" stroke-width="0.24" fill-opacity="0" />
  <path d="M521.5137,601.4157 L523.1943,603.8627 C523.2864,604.0029 523.4631,604.1021 523.6307,604.1078 C523.798,604.1204 523.9845,604.041 524.0912,603.9116 C526.5993,600.9195 530.6212,598.8885 534.518,598.6464 C534.6854,598.6373 534.8601,598.5343 534.9492,598.3922 C535.0442,598.254 535.0692,598.0528 535.011,597.8955 L534.0396,595.0905" stroke="#000000" stroke-width="0.24" fill-opacity="0" />
  <path d="M534.9392,597.907 L534.876,597.8218 L534.795,597.7029 L534.6938,597.5495 L534.5798,597.363 L534.4627,597.1799 L534.4155,597.1076 C534.3126,596.9371 534.0789,596.8261 533.8818,596.8539 C529.838,597.235 525.7337,599.3076 523.0265,602.3356 C522.887,602.4777 522.8377,602.7316 522.9138,602.9156 L522.9439,602.9966 L523.0218,603.1995 L523.1042,603.402 L523.1676,603.5745 L523.2152,603.7103 L523.2462,603.8116" stroke="#000000" stroke-width="0.24" fill-opacity="0" />
  <path d="M534.0396,595.0905 C533.9911,594.8858 533.6894,594.7393 533.4987,594.8278 C533.294,594.8762 533.1475,595.178 533.236,595.3687" stroke="#000000" stroke-width="0.24" fill-opacity="0" />
  <path d="M522.2146,600.9343 C522.1136,600.7498 521.7839,600.6886 521.6234,600.8245 C521.4389,600.9255 521.3777,601.2552 521.5137,601.4157" stroke="#000000" stroke-width="0.24" fill-opacity="0" />
  <path d="M528.2718,612.5614 L528.0015,612.908 C527.8657,613.0513 527.8998,613.3607 528.0636,613.4709 C528.2032,613.6105 528.5134,613.5846 528.628,613.4238 L529.0517,612.9755" stroke="#000000" stroke-width="0.24" fill-opacity="0" />
  <path d="M538.9972,607.1453 L539.4365,607.1336 C539.6324,607.1094 539.8612,607.3205 539.8527,607.5178 C539.8821,607.713 539.6771,607.9472 539.4797,607.9439 L538.8674,608.0188" stroke="#000000" stroke-width="0.24" fill-opacity="0" />
  <path d="M534.1266,651.9703 L539.0588,643.3989 L539.1106,642.9538 L538.8229,642.6101 L529.0961,637.6984 L528.6488,637.6709 L528.3214,637.9768 L524.3514,647.0341" stroke="#000000" stroke-width="0.24" fill-opacity="0" />
  <path d="M521.5137,649.2356 L523.1943,646.7887 C523.2864,646.6485 523.4631,646.5492 523.6307,646.5436 C523.798,646.5309 523.9845,646.6104 524.0912,646.7397 C526.5993,649.7319 530.6212,651.7629 534.518,652.005 C534.6854,652.0141 534.8601,652.1171 534.9492,652.2591 C535.0442,652.3973 535.0692,652.5985 535.011,652.7558 L534.0396,655.5609" stroke="#000000" stroke-width="0.24" fill-opacity="0" />
  <path d="M534.9392,652.7443 L534.876,652.8295 L534.795,652.9484 L534.6938,653.1019 L534.5798,653.2883 L534.4627,653.4714 L534.4155,653.5438 C534.3126,653.7142 534.0789,653.8253 533.8818,653.7974 C529.838,653.4163 525.7337,651.3437 523.0265,648.3157 C522.887,648.1736 522.8377,647.9197 522.9138,647.7357 L522.9439,647.6547 L523.0218,647.4518 L523.1042,647.2494 L523.1676,647.0768 L523.2152,646.9411 L523.2462,646.8397" stroke="#000000" stroke-width="0.24" fill-opacity="0" />
  <path d="M534.0396,655.5609 C533.9911,655.7656 533.6894,655.912 533.4987,655.8235 C533.294,655.7751 533.1475,655.4734 533.236,655.2826" stroke="#000000" stroke-width="0.24" fill-opacity="0" />
  <path d="M522.2146,649.7171 C522.1136,649.9016 521.7839,649.9628 521.6234,649.8268 C521.4389,649.7259 521.3777,649.3961 521.5137,649.2356" stroke="#000000" stroke-width="0.24" fill-opacity="0" />
  <path d="M528.2718,638.0899 L528.0015,637.7433 C527.8657,637.6 527.8998,637.2906 528.0636,637.1804 C528.2032,637.0408 528.5134,637.0668 528.628,637.2275 L529.0517,637.6759" stroke="#000000" stroke-width="0.24" fill-opacity="0" />
  <path d="M538.9972,643.506 L539.4365,643.5178 C539.6324,643.542 539.8612,643.3308 539.8527,643.1336 C539.8821,642.9384 539.6771,642.7041 539.4797,642.7074 L538.8674,642.6326" stroke="#000000" stroke-width="0.24" fill-opacity="0" />
  <path d="M549.1778,651.9703 L544.2456,643.3989 L544.1938,642.9538 L544.4814,642.6101 L554.2083,637.6984 L554.6556,637.6709 L554.983,637.9768 L558.9529,647.0341" stroke="#000000" stroke-width="0.24" fill-opacity="0" />
  <path d="M561.7908,649.2356 L560.11,646.7887 C560.0181,646.6485 559.8412,646.5492 559.6736,646.5436 C559.5064,646.5309 559.3199,646.6104 559.2131,646.7397 C556.7051,649.7319 552.6832,651.7629 548.7864,652.005 C548.619,652.0141 548.4443,652.1171 548.3552,652.2591 C548.2603,652.3973 548.2352,652.5985 548.2934,652.7558 L549.2648,655.5609" stroke="#000000" stroke-width="0.24" fill-opacity="0" />
  <path d="M548.3652,652.7443 L548.4284,652.8295 L548.5093,652.9484 L548.6107,653.1019 L548.7246,653.2883 L548.8417,653.4714 L548.889,653.5438 C548.9918,653.7142 549.2255,653.8253 549.4227,653.7974 C553.4664,653.4163 557.5707,651.3437 560.2779,648.3157 C560.4174,648.1736 560.4667,647.9197 560.3906,647.7357 L560.3605,647.6547 L560.2826,647.4518 L560.2002,647.2494 L560.1368,647.0768 L560.0892,646.9411 L560.0582,646.8397" stroke="#000000" stroke-width="0.24" fill-opacity="0" />
  <path d="M549.2648,655.5609 C549.3132,655.7656 549.615,655.912 549.8058,655.8235 C550.0104,655.7751 550.1569,655.4734 550.0684,655.2826" stroke="#000000" stroke-width="0.24" fill-opacity="0" />
  <path d="M561.0898,649.7171 C561.1907,649.9016 561.5206,649.9628 561.681,649.8268 C561.8655,649.7259 561.9267,649.3961 561.7908,649.2356" stroke="#000000" stroke-width="0.24" fill-opacity="0" />
  <path d="M555.0327,638.0899 L555.3029,637.7433 C555.4387,637.6 555.4045,637.2906 555.2408,637.1804 C555.1011,637.0408 554.791,637.0668 554.6764,637.2275 L554.2527,637.6759" stroke="#000000" stroke-width="0.24" fill-opacity="0" />
  <path d="M544.3073,643.506 L543.8679,643.5178 C543.6719,643.542 543.4432,643.3308 543.4517,643.1336 C543.4223,642.9384 543.6273,642.7041 543.8247,642.7074 L544.437,642.6326" stroke="#000000" stroke-width="0.24" fill-opacity="0" />
  <path d="M533.4849,522.079 C534.1019,515.9921 527.2017,509.0918 521.1148,509.7089 C515.028,509.0918 508.1277,515.9921 508.7448,522.079 C508.1277,528.1658 515.028,535.0661 521.1148,534.449 C527.2017,535.0661 534.1019,528.1658 533.4849,522.079 z" stroke="#000000" stroke-width="0.24" fill-opacity="0" />
  <path d="M513.6345,561.9035 C513.8674,562.1602 514.4194,562.1312 514.6242,561.8516 C514.8809,561.6187 514.8519,561.0667 514.5723,560.8619 C514.3394,560.6053 513.7874,560.6342 513.5826,560.9139 C513.3259,561.1467 513.3549,561.6988 513.6345,561.9035 z" stroke="#000000" stroke-width="0.24" fill-opacity="0" />
  <path d="M494.636,561.9035 C494.4031,562.1602 493.8511,562.1312 493.6464,561.8516 C493.3896,561.6187 493.4186,561.0667 493.6982,560.8619 C493.9311,560.6053 494.4832,560.6342 494.6879,560.9139 C494.9446,561.1467 494.9156,561.6988 494.636,561.9035 z" stroke="#000000" stroke-width="0.24" fill-opacity="0" />
  <path d="M513.8884,540.7682 C514.1213,541.0249 514.6733,540.996 514.8781,540.7163 C515.1348,540.4835 515.1058,539.9314 514.8262,539.7267 C514.5933,539.47 514.0413,539.499 513.8365,539.7786 C513.5798,540.0115 513.6088,540.5635 513.8884,540.7682 z" stroke="#000000" stroke-width="0.24" fill-opacity="0" />
  <path d="M494.3821,540.7682 C494.1492,541.0249 493.5972,540.996 493.3925,540.7163 C493.1358,540.4835 493.1647,539.9314 493.4444,539.7267 C493.6772,539.47 494.2292,539.499 494.434,539.7786 C494.6907,540.0115 494.6617,540.5635 494.3821,540.7682 z" stroke="#000000" stroke-width="0.24" fill-opacity="0" />
  <path d="M512.6654,561.6295 C507.0424,562.4811 501.2281,562.4811 495.6052,561.6295 C495.1234,561.5731 494.6404,561.1802 494.4872,560.7199 C492.2524,554.7404 491.4961,548.0239 492.3451,541.6971 C492.3903,541.1575 492.8799,540.61 493.4111,540.5051 C500.3499,538.7712 507.9206,538.7712 514.8594,540.5051 C515.3906,540.61 515.8802,541.1575 515.9254,541.6971 C516.7744,548.0239 516.0181,554.7404 513.7834,560.7199 C513.6301,561.1802 513.1472,561.5731 512.6654,561.6295 z" stroke="#000000" stroke-width="0.24" fill-opacity="0" />
  <path d="M499.9935,557.9893 C502.6129,557.1058 505.6576,557.1058 508.277,557.9893" stroke="#000000" stroke-width="0.24" fill-opacity="0" />
  <path d="M514.8729,556.2148 C512.5958,556.2637 510.2713,556.8891 508.277,557.9893" stroke="#000000" stroke-width="0.24" fill-opacity="0" />
  <path d="M493.3976,556.2148 C495.6747,556.2637 497.9992,556.8891 499.9935,557.9893" stroke="#000000" stroke-width="0.24" fill-opacity="0" />
  <path d="M545.2743,561.9035 C545.5072,562.1602 546.0592,562.1312 546.2639,561.8516 C546.5206,561.6187 546.4917,561.0667 546.212,560.8619 C545.9792,560.6053 545.4271,560.6342 545.2224,560.9139 C544.9657,561.1467 544.9947,561.6988 545.2743,561.9035 z" stroke="#000000" stroke-width="0.24" fill-opacity="0" />
  <path d="M526.2758,561.9035 C526.0429,562.1602 525.4908,562.1312 525.2861,561.8516 C525.0294,561.6187 525.0583,561.0667 525.338,560.8619 C525.5709,560.6053 526.1229,560.6342 526.3276,560.9139 C526.5844,561.1467 526.5554,561.6988 526.2758,561.9035 z" stroke="#000000" stroke-width="0.24" fill-opacity="0" />
  <path d="M545.5282,540.7682 C545.761,541.0249 546.3131,540.996 546.5178,540.7163 C546.7745,540.4835 546.7456,539.9314 546.4659,539.7267 C546.2331,539.47 545.681,539.499 545.4763,539.7786 C545.2196,540.0115 545.2485,540.5635 545.5282,540.7682 z" stroke="#000000" stroke-width="0.24" fill-opacity="0" />
  <path d="M526.0219,540.7682 C525.789,541.0249 525.2369,540.996 525.0322,540.7163 C524.7755,540.4835 524.8045,539.9314 525.0841,539.7267 C525.317,539.47 525.869,539.499 526.0737,539.7786 C526.3304,540.0115 526.3015,540.5635 526.0219,540.7682 z" stroke="#000000" stroke-width="0.24" fill-opacity="0" />
  <path d="M544.3051,561.6295 C538.6822,562.4811 532.8679,562.4811 527.2449,561.6295 C526.7631,561.5731 526.2802,561.1802 526.127,560.7199 C523.8922,554.7404 523.1359,548.0239 523.9849,541.6971 C524.0301,541.1575 524.5197,540.61 525.0509,540.5051 C531.9897,538.7712 539.5604,538.7712 546.4991,540.5051 C547.0303,540.61 547.52,541.1575 547.5652,541.6971 C548.4142,548.0239 547.6579,554.7404 545.4231,560.7199 C545.2699,561.1802 544.7869,561.5731 544.3051,561.6295 z" stroke="#000000" stroke-width="0.24" fill-opacity="0" />
  <path d="M531.6333,557.9893 C534.2527,557.1058 537.2974,557.1058 539.9167,557.9893" stroke="#000000" stroke-width="0.24" fill-opacity="0" />
  <path d="M546.5126,556.2148 C544.2355,556.2637 541.9111,556.8891 539.9167,557.9893" stroke="#000000" stroke-width="0.24" fill-opacity="0" />
  <path d="M525.0374,556.2148 C527.3145,556.2637 529.639,556.8891 531.6333,557.9893" stroke="#000000" stroke-width="0.24" fill-opacity="0" />
  <path d="M474.542,472.1223 L191.0774,472.1223 L191.0774,695.7759 L474.542,695.7759" stroke="#000000" stroke-width="0.24" fill-opacity="0" />
  <path d="M668.1483,560.8467 L668.1483,535.3349 L670.9829,535.3349 L670.9829,560.8467 z" stroke="Black" stroke-width="0" fill="#000000" fill-opacity="1.0" />
  <path d="M257.8855,532.9585 L257.3465,542.8329 L257.5009,543.2536 L257.9125,543.4307 L268.8092,543.4307 L269.2208,543.2536 L269.3753,542.8329 L268.8363,532.9585" stroke="#000000" stroke-width="0.24" fill-opacity="0" />
  <path d="M270.377,529.7142 L269.9798,532.656 C269.9608,532.8226 269.8478,532.9909 269.7007,533.0715 C269.5571,533.1581 269.3548,533.1713 269.2012,533.104 C265.6137,531.5636 261.108,531.5636 257.5205,533.104 C257.3669,533.1713 257.1646,533.1582 257.021,533.0715 C256.8739,532.9909 256.7609,532.8226 256.7419,532.656 L256.3447,529.7142" stroke="#000000" stroke-width="0.24" fill-opacity="0" />
  <path d="M256.8112,532.6339 L256.8292,532.5294 L256.8479,532.3867 L256.8691,532.2041 L256.8868,531.9863 L256.9088,531.77 L256.9184,531.6842 C256.9334,531.4857 257.0919,531.2812 257.2805,531.2172 C261.0619,529.7346 265.6598,529.7346 269.4413,531.2172 C269.6298,531.2812 269.7883,531.4857 269.8033,531.6842 L269.8129,531.77 L269.8349,531.9863 L269.8526,532.2041 L269.8738,532.3867 L269.8925,532.5294 L269.9105,532.6339" stroke="#000000" stroke-width="0.24" fill-opacity="0" />
  <path d="M256.3447,529.7142 C256.2957,529.5096 256.499,529.2429 256.7091,529.2359 C256.9136,529.1869 257.1804,529.3901 257.1874,529.6003" stroke="#000000" stroke-width="0.24" fill-opacity="0" />
  <path d="M269.5343,529.6003 C269.5413,529.3901 269.8081,529.1869 270.0126,529.2359 C270.2228,529.2429 270.4261,529.5096 270.377,529.7142" stroke="#000000" stroke-width="0.24" fill-opacity="0" />
  <path d="M269.3685,542.7096 L269.766,542.8972 C269.9518,542.9639 270.0608,543.2554 269.9643,543.4277 C269.9026,543.6152 269.614,543.7319 269.4393,543.64 L268.8589,543.4307" stroke="#000000" stroke-width="0.24" fill-opacity="0" />
  <path d="M257.3532,542.7096 L256.9557,542.8972 C256.7699,542.9639 256.6609,543.2554 256.7574,543.4277 C256.8191,543.6152 257.1077,543.7319 257.2824,543.64 L257.8628,543.4307" stroke="#000000" stroke-width="0.24" fill-opacity="0" />
  <path d="M290.7685,556.7915 L281.6739,560.6753 L281.2257,560.6741 L280.9185,560.3478 L277.1916,550.1083 L277.2173,549.6609 L277.5598,549.3719 L287.023,546.5012" stroke="#000000" stroke-width="0.24" fill-opacity="0" />
  <path d="M289.5447,543.9437 L286.9162,545.3231 C286.7661,545.3979 286.6466,545.5617 286.6212,545.7275 C286.5888,545.892 286.6457,546.0867 286.7615,546.2079 C289.436,549.0523 290.977,553.2862 290.7565,557.1843 C290.7458,557.3516 290.8273,557.5372 290.9579,557.6425 C291.0839,557.7532 291.2807,557.8018 291.4438,557.7626 L294.3441,557.1298" stroke="#000000" stroke-width="0.24" fill-opacity="0" />
  <path d="M291.4409,557.6899 L291.5329,557.6373 L291.6606,557.5709 L291.8249,557.4885 L292.0236,557.3974 L292.2193,557.3028 L292.2967,557.2645 C292.4781,557.1824 292.616,556.9636 292.6116,556.7645 C292.7115,552.704 291.1389,548.3834 288.4524,545.3371 C288.3278,545.1818 288.0815,545.1027 287.8897,545.1566 L287.8058,545.1769 L287.5951,545.2302 L287.3843,545.2881 L287.2054,545.3306 L287.065,545.3618 L286.9607,545.3807" stroke="#000000" stroke-width="0.24" fill-opacity="0" />
  <path d="M294.3441,557.1298 C294.553,557.1059 294.7342,556.8236 294.6689,556.6237 C294.645,556.4148 294.3627,556.2336 294.1628,556.299" stroke="#000000" stroke-width="0.24" fill-opacity="0" />
  <path d="M289.9399,544.6967 C290.135,544.6182 290.2348,544.298 290.1188,544.1226 C290.0404,543.9274 289.7201,543.8276 289.5447,543.9437" stroke="#000000" stroke-width="0.24" fill-opacity="0" />
  <path d="M277.6779,549.3361 L277.3658,549.0267 C277.2395,548.8749 276.9283,548.8722 276.7994,549.0218 C276.6443,549.1439 276.6334,549.455 276.7795,549.5878 L277.1746,550.0615" stroke="#000000" stroke-width="0.24" fill-opacity="0" />
  <path d="M281.7874,560.6268 L281.7471,561.0645 C281.748,561.2618 281.5113,561.464 281.3165,561.4322 C281.1191,561.4384 280.9108,561.2071 280.9374,561.0115 L280.9355,560.3946" stroke="#000000" stroke-width="0.24" fill-opacity="0" />
  <path d="M235.9533,556.7915 L245.0479,560.6753 L245.496,560.6741 L245.8033,560.3478 L249.5301,550.1083 L249.5045,549.6609 L249.162,549.3719 L239.6987,546.5012" stroke="#000000" stroke-width="0.24" fill-opacity="0" />
  <path d="M237.177,543.9437 L239.8055,545.3231 C239.9556,545.3979 240.0751,545.5617 240.1005,545.7275 C240.1329,545.892 240.076,546.0867 239.9602,546.2079 C237.2857,549.0523 235.7447,553.2862 235.9652,557.1843 C235.9759,557.3516 235.8944,557.5372 235.7638,557.6425 C235.6378,557.7532 235.441,557.8018 235.2779,557.7626 L232.3776,557.1298" stroke="#000000" stroke-width="0.24" fill-opacity="0" />
  <path d="M235.2808,557.6899 L235.1888,557.6373 L235.0612,557.5709 L234.8968,557.4885 L234.6982,557.3974 L234.5025,557.3028 L234.4251,557.2645 C234.2436,557.1824 234.1057,556.9636 234.1101,556.7645 C234.0103,552.704 235.5828,548.3834 238.2693,545.3371 C238.3939,545.1818 238.6403,545.1027 238.832,545.1566 L238.9159,545.1769 L239.1267,545.2302 L239.3374,545.2881 L239.5163,545.3306 L239.6567,545.3618 L239.761,545.3807" stroke="#000000" stroke-width="0.24" fill-opacity="0" />
  <path d="M232.3776,557.1298 C232.1687,557.1059 231.9875,556.8236 232.0529,556.6237 C232.0767,556.4148 232.359,556.2336 232.5589,556.299" stroke="#000000" stroke-width="0.24" fill-opacity="0" />
  <path d="M236.7818,544.6967 C236.5867,544.6182 236.4869,544.298 236.6029,544.1226 C236.6814,543.9274 237.0016,543.8276 237.177,543.9437" stroke="#000000" stroke-width="0.24" fill-opacity="0" />
  <path d="M249.0438,549.3361 L249.356,549.0267 C249.4822,548.8749 249.7935,548.8722 249.9223,549.0218 C250.0774,549.1439 250.0883,549.455 249.9422,549.5878 L249.5471,550.0615" stroke="#000000" stroke-width="0.24" fill-opacity="0" />
  <path d="M244.9343,560.6268 L244.9746,561.0645 C244.9737,561.2618 245.2104,561.464 245.4053,561.4322 C245.6026,561.4384 245.8109,561.2071 245.7843,561.0115 L245.7862,560.3946" stroke="#000000" stroke-width="0.24" fill-opacity="0" />
  <path d="M235.9533,611.1067 L245.0479,607.2229 L245.496,607.2241 L245.8033,607.5504 L249.5301,617.7899 L249.5045,618.2373 L249.162,618.5263 L239.6987,621.3971" stroke="#000000" stroke-width="0.24" fill-opacity="0" />
  <path d="M237.177,623.9546 L239.8055,622.5751 C239.9556,622.5003 240.0751,622.3365 240.1005,622.1707 C240.1329,622.0062 240.076,621.8115 239.9602,621.6902 C237.2857,618.8459 235.7447,614.612 235.9652,610.7139 C235.9759,610.5466 235.8944,610.361 235.7638,610.2557 C235.6378,610.1451 235.441,610.0964 235.2779,610.1356 L232.3776,610.7684" stroke="#000000" stroke-width="0.24" fill-opacity="0" />
  <path d="M235.2808,610.2083 L235.1888,610.2609 L235.0612,610.3273 L234.8968,610.4097 L234.6982,610.5008 L234.5025,610.5954 L234.4251,610.6338 C234.2436,610.7158 234.1057,610.9346 234.1101,611.1337 C234.0103,615.1942 235.5828,619.5148 238.2693,622.5611 C238.3939,622.7164 238.6403,622.7955 238.832,622.7416 L238.9159,622.7213 L239.1267,622.668 L239.3374,622.6101 L239.5163,622.5676 L239.6567,622.5364 L239.761,622.5175" stroke="#000000" stroke-width="0.24" fill-opacity="0" />
  <path d="M232.3776,610.7684 C232.1687,610.7923 231.9875,611.0746 232.0529,611.2745 C232.0767,611.4835 232.359,611.6646 232.5589,611.5992" stroke="#000000" stroke-width="0.24" fill-opacity="0" />
  <path d="M236.7818,623.2015 C236.5867,623.28 236.4869,623.6002 236.6029,623.7756 C236.6814,623.9708 237.0016,624.0706 237.177,623.9546" stroke="#000000" stroke-width="0.24" fill-opacity="0" />
  <path d="M249.0438,618.5621 L249.356,618.8715 C249.4822,619.0233 249.7935,619.026 249.9223,618.8764 C250.0774,618.7543 250.0883,618.4432 249.9422,618.3104 L249.5471,617.8367" stroke="#000000" stroke-width="0.24" fill-opacity="0" />
  <path d="M244.9343,607.2714 L244.9746,606.8337 C244.9737,606.6364 245.2104,606.4342 245.4053,606.466 C245.6026,606.4598 245.8109,606.6912 245.7843,606.8867 L245.7862,607.5036" stroke="#000000" stroke-width="0.24" fill-opacity="0" />
  <path d="M290.7685,611.1067 L281.6739,607.2229 L281.2257,607.2241 L280.9185,607.5504 L277.1916,617.7899 L277.2173,618.2373 L277.5598,618.5263 L287.023,621.3971" stroke="#000000" stroke-width="0.24" fill-opacity="0" />
  <path d="M289.5447,623.9546 L286.9162,622.5751 C286.7661,622.5003 286.6466,622.3365 286.6212,622.1707 C286.5888,622.0062 286.6457,621.8115 286.7615,621.6902 C289.436,618.8459 290.977,614.612 290.7565,610.7139 C290.7458,610.5466 290.8273,610.361 290.9579,610.2557 C291.0839,610.1451 291.2807,610.0964 291.4438,610.1356 L294.3441,610.7684" stroke="#000000" stroke-width="0.24" fill-opacity="0" />
  <path d="M291.4409,610.2083 L291.5329,610.2609 L291.6606,610.3273 L291.8249,610.4097 L292.0236,610.5008 L292.2193,610.5954 L292.2967,610.6338 C292.4781,610.7158 292.616,610.9346 292.6116,611.1337 C292.7115,615.1942 291.1389,619.5148 288.4524,622.5611 C288.3278,622.7164 288.0815,622.7955 287.8897,622.7416 L287.8058,622.7213 L287.5951,622.668 L287.3843,622.6101 L287.2054,622.5676 L287.065,622.5364 L286.9607,622.5175" stroke="#000000" stroke-width="0.24" fill-opacity="0" />
  <path d="M294.3441,610.7684 C294.553,610.7923 294.7342,611.0746 294.6689,611.2745 C294.645,611.4835 294.3627,611.6646 294.1628,611.5992" stroke="#000000" stroke-width="0.24" fill-opacity="0" />
  <path d="M289.9399,623.2015 C290.135,623.28 290.2348,623.6002 290.1188,623.7756 C290.0404,623.9708 289.7201,624.0706 289.5447,623.9546" stroke="#000000" stroke-width="0.24" fill-opacity="0" />
  <path d="M277.6779,618.5621 L277.3658,618.8715 C277.2395,619.0233 276.9283,619.026 276.7994,618.8764 C276.6443,618.7543 276.6334,618.4432 276.7795,618.3104 L277.1746,617.8367" stroke="#000000" stroke-width="0.24" fill-opacity="0" />
  <path d="M281.7874,607.2714 L281.7471,606.8337 C281.748,606.6364 281.5113,606.4342 281.3165,606.466 C281.1191,606.4598 280.9108,606.6912 280.9374,606.8867 L280.9355,607.5036" stroke="#000000" stroke-width="0.24" fill-opacity="0" />
  <path d="M257.8855,634.9398 L257.3465,625.0653 L257.5009,624.6446 L257.9125,624.4675 L268.8092,624.4675 L269.2208,624.6446 L269.3753,625.0653 L268.8363,634.9398" stroke="#000000" stroke-width="0.24" fill-opacity="0" />
  <path d="M270.377,638.184 L269.9798,635.2422 C269.9608,635.0756 269.8478,634.9073 269.7007,634.8267 C269.5571,634.7401 269.3548,634.7269 269.2012,634.7942 C265.6137,636.3346 261.108,636.3346 257.5205,634.7942 C257.3669,634.7269 257.1646,634.7401 257.021,634.8267 C256.8739,634.9073 256.7609,635.0756 256.7419,635.2422 L256.3447,638.184" stroke="#000000" stroke-width="0.24" fill-opacity="0" />
  <path d="M256.8112,635.2643 L256.8292,635.3688 L256.8479,635.5115 L256.8691,635.6941 L256.8868,635.9119 L256.9088,636.1282 L256.9184,636.2141 C256.9334,636.4125 257.0919,636.617 257.2805,636.681 C261.0619,638.1636 265.6598,638.1636 269.4413,636.681 C269.6298,636.617 269.7883,636.4125 269.8033,636.2141 L269.8129,636.1282 L269.8349,635.9119 L269.8526,635.6941 L269.8738,635.5115 L269.8925,635.3688 L269.9105,635.2643" stroke="#000000" stroke-width="0.24" fill-opacity="0" />
  <path d="M256.3447,638.184 C256.2957,638.3885 256.499,638.6553 256.7091,638.6623 C256.9136,638.7114 257.1804,638.5081 257.1874,638.2979" stroke="#000000" stroke-width="0.24" fill-opacity="0" />
  <path d="M269.5343,638.2979 C269.5413,638.5081 269.8081,638.7114 270.0126,638.6623 C270.2228,638.6553 270.4261,638.3885 270.377,638.184" stroke="#000000" stroke-width="0.24" fill-opacity="0" />
  <path d="M269.3685,625.1886 L269.766,625.001 C269.9518,624.9343 270.0608,624.6428 269.9643,624.4705 C269.9026,624.283 269.614,624.1663 269.4393,624.2582 L268.8589,624.4675" stroke="#000000" stroke-width="0.24" fill-opacity="0" />
  <path d="M257.3532,625.1886 L256.9557,625.001 C256.7699,624.9343 256.6609,624.6428 256.7574,624.4705 C256.8191,624.283 257.1077,624.1663 257.2824,624.2582 L257.8628,624.4675" stroke="#000000" stroke-width="0.24" fill-opacity="0" />
  <path d="M290.8985,578.4737 L281.0241,577.9347 L280.6034,578.0891 L280.4263,578.5008 L280.4263,589.3974 L280.6034,589.8091 L281.0241,589.9635 L290.8985,589.4245" stroke="#000000" stroke-width="0.24" fill-opacity="0" />
  <path d="M294.1429,590.9653 L291.201,590.568 C291.0344,590.5491 290.8661,590.436 290.7855,590.2889 C290.6988,590.1454 290.6857,589.9431 290.753,589.7895 C292.2934,586.2019 292.2934,581.6963 290.753,578.1087 C290.6857,577.9551 290.6988,577.7528 290.7855,577.6093 C290.8661,577.4622 291.0344,577.3491 291.201,577.3302 L294.1429,576.9329" stroke="#000000" stroke-width="0.24" fill-opacity="0" />
  <path d="M291.2231,577.3995 L291.3276,577.4175 L291.4702,577.4362 L291.6529,577.4574 L291.8707,577.475 L292.087,577.497 L292.1728,577.5067 C292.3714,577.5216 292.5758,577.6802 292.6398,577.8687 C294.1224,581.6501 294.1224,586.248 292.6398,590.0295 C292.5758,590.218 292.3714,590.3766 292.1728,590.3915 L292.087,590.4012 L291.8707,590.4232 L291.6529,590.4408 L291.4702,590.462 L291.3276,590.4807 L291.2231,590.4987" stroke="#000000" stroke-width="0.24" fill-opacity="0" />
  <path d="M294.1429,576.9329 C294.3474,576.8839 294.6141,577.0872 294.6211,577.2974 C294.6701,577.5019 294.4668,577.7687 294.2567,577.7756" stroke="#000000" stroke-width="0.24" fill-opacity="0" />
  <path d="M294.2567,590.1226 C294.4668,590.1295 294.6701,590.3963 294.6211,590.6008 C294.6141,590.811 294.3474,591.0143 294.1429,590.9653" stroke="#000000" stroke-width="0.24" fill-opacity="0" />
  <path d="M281.1474,589.9568 L280.9598,590.3542 C280.8932,590.54 280.6016,590.649 280.4294,590.5526 C280.2418,590.4908 280.1252,590.2022 280.217,590.0275 L280.4263,589.4472" stroke="#000000" stroke-width="0.24" fill-opacity="0" />
  <path d="M281.1474,577.9414 L280.9598,577.5439 C280.8932,577.3582 280.6016,577.2491 280.4294,577.3456 C280.2418,577.4073 280.1252,577.696 280.217,577.8707 L280.4263,578.451" stroke="#000000" stroke-width="0.24" fill-opacity="0" />
  <path d="M235.8232,578.4737 L245.6976,577.9347 L246.1183,578.0891 L246.2955,578.5008 L246.2955,589.3974 L246.1183,589.8091 L245.6976,589.9635 L235.8232,589.4245" stroke="#000000" stroke-width="0.24" fill-opacity="0" />
  <path d="M232.5789,590.9653 L235.5207,590.568 C235.6873,590.5491 235.8556,590.436 235.9362,590.2889 C236.0229,590.1454 236.036,589.9431 235.9687,589.7895 C234.4283,586.2019 234.4283,581.6963 235.9687,578.1087 C236.0361,577.9551 236.0229,577.7528 235.9362,577.6093 C235.8557,577.4622 235.6873,577.3491 235.5207,577.3302 L232.5789,576.9329" stroke="#000000" stroke-width="0.24" fill-opacity="0" />
  <path d="M235.4986,577.3995 L235.3941,577.4175 L235.2515,577.4362 L235.0688,577.4574 L234.851,577.475 L234.6347,577.497 L234.5489,577.5067 C234.3504,577.5216 234.1459,577.6802 234.0819,577.8687 C232.5993,581.6501 232.5993,586.248 234.0819,590.0295 C234.1459,590.218 234.3504,590.3766 234.5489,590.3915 L234.6347,590.4012 L234.851,590.4232 L235.0688,590.4408 L235.2515,590.462 L235.3941,590.4807 L235.4986,590.4987" stroke="#000000" stroke-width="0.24" fill-opacity="0" />
  <path d="M232.5789,576.9329 C232.3744,576.8839 232.1076,577.0872 232.1006,577.2974 C232.0516,577.5019 232.2549,577.7687 232.4651,577.7756" stroke="#000000" stroke-width="0.24" fill-opacity="0" />
  <path d="M232.4651,590.1226 C232.2549,590.1295 232.0516,590.3963 232.1006,590.6008 C232.1076,590.811 232.3744,591.0143 232.5789,590.9653" stroke="#000000" stroke-width="0.24" fill-opacity="0" />
  <path d="M245.5743,589.9568 L245.7619,590.3542 C245.8286,590.54 246.1201,590.649 246.2924,590.5526 C246.4799,590.4908 246.5966,590.2022 246.5047,590.0275 L246.2955,589.4472" stroke="#000000" stroke-width="0.24" fill-opacity="0" />
  <path d="M245.5743,577.9414 L245.7619,577.5439 C245.8286,577.3582 246.1201,577.2491 246.2924,577.3456 C246.4799,577.4073 246.5966,577.696 246.5047,577.8707 L246.2955,578.451" stroke="#000000" stroke-width="0.24" fill-opacity="0" />
  <path d="M240.6837,606.6263 C240.5431,611.9159 242.9436,618.2794 247.3257,622.6614 C251.7077,627.0435 258.0713,629.444 263.3609,629.3034 C268.6505,629.444 275.014,627.0435 279.396,622.6614 C283.7781,618.2794 286.1786,611.9159 286.038,606.6263 L286.038,561.2719 C286.1786,555.9824 283.7781,549.6188 279.396,545.2368 C275.014,540.8547 268.6505,538.4542 263.3609,538.5948 C258.0713,538.4542 251.7077,540.8547 247.3257,545.2368 C242.9436,549.6188 240.5431,555.9824 240.6837,561.2719 z" stroke="#000000" stroke-width="0.24" fill-opacity="0" />
  <path d="M657.7621,593.4448 C657.9817,588.5683 655.1983,583.0491 652.7665,583.5234 C650.3237,583.0115 647.576,588.5267 647.8406,593.4104 L647.8408,593.445" stroke="#000000" stroke-width="0.24" fill-opacity="0" />
  <path d="M650.9405,603.3665 L654.6624,603.3664 C656.1876,603.5314 657.9167,601.6866 657.7621,600.0592 L657.7621,596.7521 L647.8408,596.7521 L647.8408,600.0592 C647.6862,601.6866 649.4152,603.5314 650.9405,603.3665 z" stroke="#000000" stroke-width="0.24" fill-opacity="0" />
  <path d="M619.6012,577.0407 L611.4553,577.0408 L611.4553,561.1667 L619.6133,561.1667 C623.0305,560.7712 626.8999,565.1962 626.5521,569.1005 C626.897,573.0059 623.0212,577.4351 619.604,577.0407 z" stroke="#000000" stroke-width="0.24" fill-opacity="0" />
  <path d="M619.6072,563.151 C616.6781,562.854 613.3575,566.1746 613.6545,569.1038 C613.3575,572.0329 616.6781,575.3535 619.6072,575.0565 C622.5364,575.3535 625.857,572.0329 625.56,569.1038 C625.857,566.1746 622.5364,562.854 619.6072,563.151 z" stroke="#000000" stroke-width="0.24" fill-opacity="0" />
  <path d="M947.0774,658.9255 L950.9042,658.9255 L950.9042,587.209 L947.0774,587.209 z" stroke="#000000" stroke-width="0.24" fill-opacity="0" />
  <path d="M947.0774,689.2562 L950.9042,689.2562 L950.9042,687.272 L947.0774,687.272 z" stroke="#000000" stroke-width="0.24" fill-opacity="0" />
  <path d="M947.0774,588.9097 L950.7625,588.9097 L950.7625,587.209 L947.0774,587.209 z" stroke="#000000" stroke-width="0.24" fill-opacity="0" />
  <path d="M947.0774,688.9728 L950.7625,688.9728 L950.7625,687.272 L947.0774,687.272 z" stroke="#000000" stroke-width="0.24" fill-opacity="0" />
  <path d="M947.0774,660.6263 L950.7625,660.6263 L950.7625,658.9255 L947.0774,658.9255 z" stroke="#000000" stroke-width="0.24" fill-opacity="0" />
  <path d="M947.9278,658.9255 L949.6286,658.9255 L949.6286,588.9097 L947.9278,588.9097 z" stroke="#000000" stroke-width="0.24" fill-opacity="0" />
  <path d="M947.3609,687.272 L950.479,687.272 L950.479,686.4216 L947.3609,686.4216 z" stroke="#000000" stroke-width="0.24" fill-opacity="0" />
  <path d="M947.3609,661.4767 L950.479,661.4767 L950.479,660.6263 L947.3609,660.6263 z" stroke="#000000" stroke-width="0.24" fill-opacity="0" />
  <path d="M478.0853,614.9885 L474.9672,614.9885 L474.9672,615.8389 L478.0853,615.8389 z" stroke="#000000" stroke-width="0.24" fill-opacity="0" />
  <path d="M478.0853,589.1932 L474.9672,589.1932 L474.9672,590.0436 L478.0853,590.0436 z" stroke="#000000" stroke-width="0.24" fill-opacity="0" />
  <path d="M477.5184,617.5397 L475.8176,617.5397 L475.8176,687.5554 L477.5184,687.5554 z" stroke="#000000" stroke-width="0.24" fill-opacity="0" />
  <path d="M478.3687,615.8389 L474.6837,615.8389 L474.6837,617.5397 L478.3687,617.5397 z" stroke="#000000" stroke-width="0.24" fill-opacity="0" />
  <path d="M478.3687,587.4924 L474.6837,587.4924 L474.6837,589.1932 L478.3687,589.1932 z" stroke="#000000" stroke-width="0.24" fill-opacity="0" />
  <path d="M478.3687,687.5554 L474.6837,687.5554 L474.6837,689.2562 L478.3687,689.2562 z" stroke="#000000" stroke-width="0.24" fill-opacity="0" />
  <path d="M478.3687,587.209 L474.542,587.209 L474.542,589.1932 L478.3687,589.1932 z" stroke="#000000" stroke-width="0.24" fill-opacity="0" />
  <path d="M478.3687,617.5397 L474.542,617.5397 L474.542,689.2562 L478.3687,689.2562 z" stroke="#000000" stroke-width="0.24" fill-opacity="0" />
  <path d="M670.2034,475.9491 L670.2034,472.1223 L741.9199,472.1223 L741.9199,475.9491 z" stroke="#000000" stroke-width="0.24" fill-opacity="0" />
  <path d="M639.8727,475.9491 L639.8727,472.1223 L641.8569,472.1223 L641.8569,475.9491 z" stroke="#000000" stroke-width="0.24" fill-opacity="0" />
  <path d="M740.2192,475.9491 L740.2192,472.2641 L741.9199,472.2641 L741.9199,475.9491 z" stroke="#000000" stroke-width="0.24" fill-opacity="0" />
  <path d="M640.1562,475.9491 L640.1562,472.2641 L641.8569,472.2641 L641.8569,475.9491 z" stroke="#000000" stroke-width="0.24" fill-opacity="0" />
  <path d="M668.5026,475.9491 L668.5026,472.2641 L670.2034,472.2641 L670.2034,475.9491 z" stroke="#000000" stroke-width="0.24" fill-opacity="0" />
  <path d="M670.2034,475.0987 L670.2034,473.3979 L740.2192,473.3979 L740.2192,475.0987 z" stroke="#000000" stroke-width="0.24" fill-opacity="0" />
  <path d="M641.8569,475.6656 L641.8569,472.5475 L642.7073,472.5475 L642.7073,475.6656 z" stroke="#000000" stroke-width="0.24" fill-opacity="0" />
  <path d="M667.6522,475.6656 L667.6522,472.5475 L668.5026,472.5475 L668.5026,475.6656 z" stroke="#000000" stroke-width="0.24" fill-opacity="0" />
  <path d="M478.3687,580.4058 L474.6837,580.4058 L474.6837,578.705 L478.3687,578.705 z" stroke="#000000" stroke-width="0.24" fill-opacity="0" />
  <path d="M478.3687,480.3428 L474.6837,480.3428 L474.6837,478.642 L478.3687,478.642 z" stroke="#000000" stroke-width="0.24" fill-opacity="0" />
  <path d="M478.3687,580.6893 L474.542,580.6893 L474.542,578.705 L478.3687,578.705 z" stroke="#000000" stroke-width="0.24" fill-opacity="0" />
  <path d="M947.0774,508.9727 L950.9042,508.9727 L950.9042,580.6893 L947.0774,580.6893 z" stroke="#000000" stroke-width="0.24" fill-opacity="0" />
  <path d="M947.0774,478.642 L950.9042,478.642 L950.9042,480.6263 L947.0774,480.6263 z" stroke="#000000" stroke-width="0.24" fill-opacity="0" />
  <path d="M947.0774,578.9885 L950.7625,578.9885 L950.7625,580.6893 L947.0774,580.6893 z" stroke="#000000" stroke-width="0.24" fill-opacity="0" />
  <path d="M947.0774,478.9255 L950.7625,478.9255 L950.7625,480.6263 L947.0774,480.6263 z" stroke="#000000" stroke-width="0.24" fill-opacity="0" />
  <path d="M947.0774,507.272 L950.7625,507.272 L950.7625,508.9727 L947.0774,508.9727 z" stroke="#000000" stroke-width="0.24" fill-opacity="0" />
  <path d="M947.9278,508.9727 L949.6286,508.9727 L949.6286,578.9885 L947.9278,578.9885 z" stroke="#000000" stroke-width="0.24" fill-opacity="0" />
  <path d="M947.3609,480.6263 L950.479,480.6263 L950.479,481.4767 L947.3609,481.4767 z" stroke="#000000" stroke-width="0.24" fill-opacity="0" />
  <path d="M947.3609,506.4216 L950.479,506.4216 L950.479,507.272 L947.3609,507.272 z" stroke="#000000" stroke-width="0.24" fill-opacity="0" />
  <path d="M508.5577,672.2484 L491.5499,672.2484 L491.5499,689.2562 L508.5577,689.2562 z" stroke="#000000" stroke-width="0.24" fill-opacity="0" />
  <path d="M648.3058,660.9097 L665.3137,660.9097 L665.3137,643.9019 L648.3058,643.9019 z" stroke="#000000" stroke-width="0.24" fill-opacity="0" />
  <path d="M614.29,623.209 L631.2979,623.209 L631.2979,606.2011 L614.29,606.2011 z" stroke="#000000" stroke-width="0.24" fill-opacity="0" />
  <path d="M631.2979,623.209 L648.3058,623.209 L648.3058,606.2011 L631.2979,606.2011 z" stroke="#000000" stroke-width="0.24" fill-opacity="0" />
  <path d="M648.3058,623.209 L665.3137,623.209 L665.3137,606.2011 L648.3058,606.2011 z" stroke="#000000" stroke-width="0.24" fill-opacity="0" />
  <path d="M668.0622,660.9097 L670.8969,660.9014 L670.9829,583.5167 L668.1483,583.5249 z" stroke="#000000" stroke-width="0.24" fill-opacity="0" />
  <path d="M474.542,689.2562 L474.542,695.7759 L604.9357,695.7759 L604.9357,689.2562 z" stroke="#000000" stroke-width="0.24" fill-opacity="0" />
  <path d="M611.4554,603.3665 L611.4554,606.2011 L668.1483,606.2011 L668.1483,603.3665 z" stroke="#000000" stroke-width="0.24" fill-opacity="0" />
  <path d="M670.2743,562.2641 L670.2743,560.8467 L668.8569,560.8467 L668.8569,562.2641 z" stroke="#000000" stroke-width="0.24" fill-opacity="0" />
  <path d="M670.2743,583.5239 L670.2743,582.1066 L668.8569,582.1066 L668.8569,583.5239 z" stroke="#000000" stroke-width="0.24" fill-opacity="0" />
  <path d="M611.4554,552.3428 L611.4554,555.1775 L670.9829,555.1775 L670.9829,552.3428 z" stroke="#000000" stroke-width="0.24" fill-opacity="0" />
  <path d="M608.9042,531.083 L608.9042,532.5003 L607.4869,532.5003 L607.4869,531.083 z" stroke="#000000" stroke-width="0.24" fill-opacity="0" />
  <path d="M608.9042,509.8232 L608.9042,511.2404 L607.4869,511.2404 L607.4869,509.8232 z" stroke="#000000" stroke-width="0.24" fill-opacity="0" />
  <path d="M611.4554,532.5003 L604.9357,532.5003 L604.9357,626.0428 L611.4554,626.0428 z" stroke="#000000" stroke-width="0.24" fill-opacity="0" />
  <path d="M608.9042,627.4601 L608.9042,626.0428 L607.4869,626.0428 L607.4869,627.4601 z" stroke="#000000" stroke-width="0.24" fill-opacity="0" />
  <path d="M608.9042,648.7199 L608.9042,647.3026 L607.4869,647.3026 L607.4869,648.7199 z" stroke="#000000" stroke-width="0.24" fill-opacity="0" />
  <path d="M611.4554,648.7199 L604.9357,648.7199 L604.9357,695.7759 L611.4554,695.7759 z" stroke="#000000" stroke-width="0.24" fill-opacity="0" />
  <path d="M750.7782,626.894 L757.2979,626.894 L757.2979,695.7759 L750.7782,695.7759 z" stroke="#000000" stroke-width="0.24" fill-opacity="0" />
  <path d="M720.3341,660.9097 L720.3341,667.4294 L750.7782,667.4294 L750.7782,660.9097 z" stroke="#000000" stroke-width="0.24" fill-opacity="0" />
  <path d="M720.3341,666.7208 L720.3341,663.4609 L718.9168,663.4609 L718.9168,666.7208 z" stroke="#000000" stroke-width="0.24" fill-opacity="0" />
  <path d="M691.9877,666.7208 L691.9877,663.4609 L693.405,663.4609 L693.405,666.7208 z" stroke="#000000" stroke-width="0.24" fill-opacity="0" />
  <path d="M604.9357,672.2484 L587.9278,672.2484 L587.9278,689.2562 L604.9357,689.2562 z" stroke="#000000" stroke-width="0.24" fill-opacity="0" />
  <path d="M556.7467,672.2484 L525.5656,672.2484 L525.5656,689.2562 L556.7467,689.2562 z" stroke="#000000" stroke-width="0.24" fill-opacity="0" />
  <path d="M525.5656,672.2484 L508.5577,672.2484 L508.5577,689.2562 L525.5656,689.2562 z" stroke="#000000" stroke-width="0.24" fill-opacity="0" />
  <path d="M558.731,685.0042 L565.8176,685.0042 L565.8176,673.6656 L558.731,673.6656 z" stroke="#000000" stroke-width="0.24" fill-opacity="0" />
  <path d="M575.7388,673.6656 L558.731,673.6656 L558.731,685.0042 L575.7388,685.0042 z" stroke="#000000" stroke-width="0.24" fill-opacity="0" />
  <path d="M587.9278,672.2484 L556.7467,672.2484 L556.7467,689.2562 L587.9278,689.2562 z" stroke="#000000" stroke-width="0.24" fill-opacity="0" />
  <path d="M839.5026,689.2562 L836.668,689.2562 L836.668,638.2326 L839.5026,638.2326 z" stroke="#000000" stroke-width="0.24" fill-opacity="0" />
  <path d="M839.5026,604.2169 L836.668,604.2169 L836.668,587.209 L839.5026,587.209 z" stroke="#000000" stroke-width="0.24" fill-opacity="0" />
  <path d="M836.668,638.2326 L836.668,641.0673 L808.3215,641.0673 L808.3215,638.2326 z" stroke="#000000" stroke-width="0.24" fill-opacity="0" />
  <path d="M785.6443,638.2326 L785.6443,641.0673 L757.2979,641.0673 L757.2979,638.2326 z" stroke="#000000" stroke-width="0.24" fill-opacity="0" />
  <path d="M750.7782,583.9491 L757.2979,583.9491 L757.2979,604.2169 L750.7782,604.2169 L750.7782,583.9491 L757.2979,583.9491 L757.2979,563.6814 L750.7782,563.6814 z" stroke="#000000" stroke-width="0.24" fill-opacity="0" />
  <path d="M773.5971,679.3348 L773.5971,682.6419 L763.6758,682.6419 L763.6758,679.3348 z" stroke="#000000" stroke-width="0.24" fill-opacity="0" />
  <path d="M836.668,655.2405 L814.3876,655.2405 L814.3876,689.2562 L836.668,689.2562 z" stroke="#000000" stroke-width="0.24" fill-opacity="0" />
  <path d="M773.5971,488.5635 L773.5971,485.2563 L763.6758,485.2563 L763.6758,488.5635 z" stroke="#000000" stroke-width="0.24" fill-opacity="0" />
  <path d="M836.668,512.6578 L814.3876,512.6578 L814.3876,478.642 L836.668,478.642 z" stroke="#000000" stroke-width="0.24" fill-opacity="0" />
  <path d="M839.5026,478.642 L836.668,478.642 L836.668,529.6656 L839.5026,529.6656 z" stroke="#000000" stroke-width="0.24" fill-opacity="0" />
  <path d="M839.5026,563.6814 L836.668,563.6814 L836.668,580.6893 L839.5026,580.6893 z" stroke="#000000" stroke-width="0.24" fill-opacity="0" />
  <path d="M836.668,529.6656 L836.668,526.831 L808.3215,526.831 L808.3215,529.6656 z" stroke="#000000" stroke-width="0.24" fill-opacity="0" />
  <path d="M785.6443,529.6656 L785.6443,526.831 L757.2979,526.831 L757.2979,529.6656 z" stroke="#000000" stroke-width="0.24" fill-opacity="0" />
  <path d="M873.5184,580.6893 L873.5184,522.579 L924.542,522.579 L924.542,580.6893 z" stroke="#000000" stroke-width="0.24" fill-opacity="0" />
  <path d="M873.5184,587.209 L873.5184,645.3192 L924.542,645.3192 L924.542,587.209 z" stroke="#000000" stroke-width="0.24" fill-opacity="0" />
  <path d="M611.4554,660.9097 L611.4554,667.4294 L614.32,667.4294 L614.32,660.9097 z" stroke="#000000" stroke-width="0.24" fill-opacity="0" />
  <path d="M642.6665,660.9097 L642.6665,667.4294 L691.9877,667.4294 L691.9877,660.9097 z" stroke="#000000" stroke-width="0.24" fill-opacity="0" />
  <path d="M642.6665,665.6755 L642.6665,662.4156 L641.2491,662.4156 L641.2491,665.6755 z" stroke="#000000" stroke-width="0.24" fill-opacity="0" />
  <path d="M614.32,665.6755 L614.32,662.4156 L615.7374,662.4156 L615.7374,665.6755 z" stroke="#000000" stroke-width="0.24" fill-opacity="0" />
  <path d="M753.3294,605.6342 L753.3294,604.2169 L754.7467,604.2169 L754.7467,605.6342 z" stroke="#000000" stroke-width="0.24" fill-opacity="0" />
  <path d="M753.3294,626.894 L753.3294,625.4767 L754.7467,625.4767 L754.7467,626.894 z" stroke="#000000" stroke-width="0.24" fill-opacity="0" />
  <path d="M474.542,478.642 L474.542,472.1223 L640.1562,472.1223 L640.1562,478.642 z" stroke="#000000" stroke-width="0.24" fill-opacity="0" />
  <path d="M757.2979,541.0042 L750.7782,541.0042 L750.7782,478.642 L757.2979,478.642 z" stroke="#000000" stroke-width="0.24" fill-opacity="0" />
  <path d="M611.4554,478.642 L604.9357,478.642 L604.9357,509.8232 L611.4554,509.8232 z" stroke="#000000" stroke-width="0.24" fill-opacity="0" />
  <path d="M757.2979,689.2562 L757.2979,695.7759 L950.9042,695.7759 L950.9042,689.2562 z" stroke="#000000" stroke-width="0.24" fill-opacity="0" />
  <path d="M741.9199,478.642 L741.9199,472.1223 L950.9042,472.1223 L950.9042,478.642 z" stroke="#000000" stroke-width="0.24" fill-opacity="0" />
  <path d="M757.2979,587.209 L757.2979,580.6893 L950.9042,580.6893 L950.9042,587.209 z" stroke="#000000" stroke-width="0.24" fill-opacity="0" />
  <path d="M787.0616,527.5397 L785.6443,527.5397 L785.6443,528.957 L787.0616,528.957 z" stroke="#000000" stroke-width="0.24" fill-opacity="0" />
  <path d="M808.3215,527.5397 L806.9042,527.5397 L806.9042,528.957 L808.3215,528.957 z" stroke="#000000" stroke-width="0.24" fill-opacity="0" />
  <path d="M787.0616,640.3586 L785.6443,640.3586 L785.6443,638.9413 L787.0616,638.9413 z" stroke="#000000" stroke-width="0.24" fill-opacity="0" />
  <path d="M808.3215,640.3586 L806.9042,640.3586 L806.9042,638.9413 L808.3215,638.9413 z" stroke="#000000" stroke-width="0.24" fill-opacity="0" />
  <path d="M753.3294,562.2641 L753.3294,563.6814 L754.7467,563.6814 L754.7467,562.2641 z" stroke="#000000" stroke-width="0.24" fill-opacity="0" />
  <path d="M753.3294,541.0042 L753.3294,542.4216 L754.7467,542.4216 L754.7467,541.0042 z" stroke="#000000" stroke-width="0.24" fill-opacity="0" />
  <path d="M191.0774,478.642 L191.0774,472.1223 L335.6443,472.1223 L335.6443,478.642 z" stroke="#000000" stroke-width="0.24" fill-opacity="0" />
  <path d="M191.0774,695.7759 L191.0774,689.2562 L335.6443,689.2562 L335.6443,695.7759 z" stroke="#000000" stroke-width="0.24" fill-opacity="0" />
  <path d="M481.0617,580.6893 L474.542,580.6893 L474.542,587.209 L481.0617,587.209 z" stroke="#000000" stroke-width="0.24" fill-opacity="0" />
  <path d="M668.1483,560.8467 L670.9829,560.8467 L670.9829,535.335 L668.1483,535.335 z" stroke="#000000" stroke-width="0.24" fill-opacity="0" />
  <path d="M611.4554,535.335 L611.4554,552.3428 L668.1483,552.3428 L668.1483,535.335 z" stroke="#000000" stroke-width="0.24" fill-opacity="0" />
  <path d="M647.8408,593.445 L647.8408,596.7522 L657.7621,596.7521 L657.7621,593.445 z" stroke="#000000" stroke-width="0.24" fill-opacity="0" />
  <path d="M948.9199,686.4216 L973.8648,686.4216" stroke="#000000" stroke-width="0.24" fill-opacity="0" />
  <path d="M476.5262,614.9885 L451.5814,614.9885" stroke="#000000" stroke-width="0.24" fill-opacity="0" />
  <path d="M642.7073,474.1066 L642.7073,449.1617" stroke="#000000" stroke-width="0.24" fill-opacity="0" />
  <path d="M948.9199,481.4767 L973.8648,481.4767" stroke="#000000" stroke-width="0.24" fill-opacity="0" />
  <path d="M796.9829,687.0571 L796.9829,689.2562" stroke="#000000" stroke-width="0.24" fill-opacity="0" />
  <path d="M679.5548,614.1381 L670.9489,614.1631" stroke="#000000" stroke-width="0.24" fill-opacity="0" />
  <path d="M679.5548,614.1381 L679.5548,660.9097" stroke="#000000" stroke-width="0.24" fill-opacity="0" />
  <path d="M685.9138,654.5341 L673.1226,654.5341" stroke="#000000" stroke-width="0.24" fill-opacity="0" />
  <path d="M685.9138,620.548 L673.1226,620.548" stroke="#000000" stroke-width="0.24" fill-opacity="0" />
  <path d="M685.9504,633.6465 L673.1592,633.6465" stroke="#000000" stroke-width="0.24" fill-opacity="0" />
  <path d="M685.9138,629.6229 L673.1226,629.6229" stroke="#000000" stroke-width="0.24" fill-opacity="0" />
  <path d="M685.8679,625.5956 L673.2417,623.5477" stroke="#000000" stroke-width="0.24" fill-opacity="0" />
  <path d="M685.9504,639.0914 L673.1592,639.0914" stroke="#000000" stroke-width="0.24" fill-opacity="0" />
  <path d="M685.8679,642.2352 L673.2417,644.2831" stroke="#000000" stroke-width="0.24" fill-opacity="0" />
  <path d="M685.8679,649.1686 L673.2417,651.2165" stroke="#000000" stroke-width="0.24" fill-opacity="0" />
  <path d="M685.9504,646.0248 L673.1592,646.0248" stroke="#000000" stroke-width="0.24" fill-opacity="0" />
  <path d="M669.5656,562.2641 L689.4081,562.2641" stroke="#000000" stroke-width="0.24" fill-opacity="0" />
  <path d="M608.1956,531.083 L628.038,531.083" stroke="#000000" stroke-width="0.24" fill-opacity="0" />
  <path d="M608.1956,627.4601 L628.038,627.4601" stroke="#000000" stroke-width="0.24" fill-opacity="0" />
  <path d="M693.405,665.2148 L693.405,690.727" stroke="#000000" stroke-width="0.24" fill-opacity="0" />
  <path d="M474.542,478.642 L604.9357,478.642" stroke="#000000" stroke-width="0.24" fill-opacity="0" />
  <path d="M474.542,689.2562 L604.9357,689.2562" stroke="#000000" stroke-width="0.24" fill-opacity="0" />
  <path d="M796.9829,480.8412 L796.9829,478.642" stroke="#000000" stroke-width="0.24" fill-opacity="0" />
  <path d="M615.7374,664.1696 L615.7374,689.6817" stroke="#000000" stroke-width="0.24" fill-opacity="0" />
  <path d="M754.0381,605.6342 L734.1956,605.6342" stroke="#000000" stroke-width="0.24" fill-opacity="0" />
  <path d="M812.5446,565.7897 L812.5446,578.581" stroke="#000000" stroke-width="0.24" fill-opacity="0" />
  <path d="M809.4008,565.8723 L807.3529,578.4985" stroke="#000000" stroke-width="0.24" fill-opacity="0" />
  <path d="M816.3342,565.8723 L814.2863,578.4985" stroke="#000000" stroke-width="0.24" fill-opacity="0" />
  <path d="M819.4779,565.7897 L819.4779,578.581" stroke="#000000" stroke-width="0.24" fill-opacity="0" />
  <path d="M832.9738,565.8723 L835.0216,578.4985" stroke="#000000" stroke-width="0.24" fill-opacity="0" />
  <path d="M828.9465,565.8264 L828.9465,578.6176" stroke="#000000" stroke-width="0.24" fill-opacity="0" />
  <path d="M824.9229,565.7897 L824.9229,578.581" stroke="#000000" stroke-width="0.24" fill-opacity="0" />
  <path d="M804.0353,565.8264 L804.0353,578.6176" stroke="#000000" stroke-width="0.24" fill-opacity="0" />
  <path d="M836.668,572.1854 L757.2979,572.1854" stroke="#000000" stroke-width="0.24" fill-opacity="0" />
  <path d="M763.6736,565.8264 L763.6736,578.6176" stroke="#000000" stroke-width="0.24" fill-opacity="0" />
  <path d="M797.6596,565.8264 L797.6596,578.6176" stroke="#000000" stroke-width="0.24" fill-opacity="0" />
  <path d="M784.5611,565.7897 L784.5611,578.581" stroke="#000000" stroke-width="0.24" fill-opacity="0" />
  <path d="M788.5848,565.8264 L788.5848,578.6176" stroke="#000000" stroke-width="0.24" fill-opacity="0" />
  <path d="M792.6121,565.8723 L794.6599,578.4985" stroke="#000000" stroke-width="0.24" fill-opacity="0" />
  <path d="M779.1162,565.7897 L779.1162,578.581" stroke="#000000" stroke-width="0.24" fill-opacity="0" />
  <path d="M775.9724,565.8723 L773.9246,578.4985" stroke="#000000" stroke-width="0.24" fill-opacity="0" />
  <path d="M769.039,565.8723 L766.9911,578.4985" stroke="#000000" stroke-width="0.24" fill-opacity="0" />
  <path d="M772.1828,565.7897 L772.1828,578.581" stroke="#000000" stroke-width="0.24" fill-opacity="0" />
  <path d="M812.5446,602.1085 L812.5446,589.3173" stroke="#000000" stroke-width="0.24" fill-opacity="0" />
  <path d="M809.4008,602.026 L807.3529,589.3998" stroke="#000000" stroke-width="0.24" fill-opacity="0" />
  <path d="M816.3342,602.026 L814.2863,589.3998" stroke="#000000" stroke-width="0.24" fill-opacity="0" />
  <path d="M819.4779,602.1085 L819.4779,589.3173" stroke="#000000" stroke-width="0.24" fill-opacity="0" />
  <path d="M832.9738,602.026 L835.0216,589.3998" stroke="#000000" stroke-width="0.24" fill-opacity="0" />
  <path d="M828.9465,602.0719 L828.9465,589.2807" stroke="#000000" stroke-width="0.24" fill-opacity="0" />
  <path d="M824.9229,602.1085 L824.9229,589.3173" stroke="#000000" stroke-width="0.24" fill-opacity="0" />
  <path d="M804.0353,602.0719 L804.0353,589.2807" stroke="#000000" stroke-width="0.24" fill-opacity="0" />
  <path d="M836.668,595.7129 L757.2979,595.7129" stroke="#000000" stroke-width="0.24" fill-opacity="0" />
  <path d="M763.6736,602.0719 L763.6736,589.2807" stroke="#000000" stroke-width="0.24" fill-opacity="0" />
  <path d="M797.6596,602.0719 L797.6596,589.2807" stroke="#000000" stroke-width="0.24" fill-opacity="0" />
  <path d="M784.5611,602.1085 L784.5611,589.3173" stroke="#000000" stroke-width="0.24" fill-opacity="0" />
  <path d="M788.5848,602.0719 L788.5848,589.2807" stroke="#000000" stroke-width="0.24" fill-opacity="0" />
  <path d="M792.6121,602.026 L794.6599,589.3998" stroke="#000000" stroke-width="0.24" fill-opacity="0" />
  <path d="M779.1162,602.1085 L779.1162,589.3173" stroke="#000000" stroke-width="0.24" fill-opacity="0" />
  <path d="M775.9724,602.026 L773.9246,589.3998" stroke="#000000" stroke-width="0.24" fill-opacity="0" />
  <path d="M769.039,602.026 L766.9911,589.3998" stroke="#000000" stroke-width="0.24" fill-opacity="0" />
  <path d="M772.1828,602.1085 L772.1828,589.3173" stroke="#000000" stroke-width="0.24" fill-opacity="0" />
  <path d="M787.0616,528.2484 L787.0616,508.4058" stroke="#000000" stroke-width="0.24" fill-opacity="0" />
  <path d="M787.0616,639.6499 L787.0616,659.4924" stroke="#000000" stroke-width="0.24" fill-opacity="0" />
  <path d="M754.0381,562.2641 L734.1956,562.2641" stroke="#000000" stroke-width="0.24" fill-opacity="0" />
  <path d="M510.7564,619.1522 L512.3285,619.3646" stroke="#000000" stroke-width="0.24" fill-opacity="0" />
  <path d="M510.7564,631.4991 L512.3285,631.2869" stroke="#000000" stroke-width="0.24" fill-opacity="0" />
  <path d="M572.548,619.1522 L570.976,619.3646" stroke="#000000" stroke-width="0.24" fill-opacity="0" />
  <path d="M572.548,631.4991 L570.976,631.2869" stroke="#000000" stroke-width="0.24" fill-opacity="0" />
  <path d="M550.0684,595.3688 L549.5493,596.8677" stroke="#000000" stroke-width="0.24" fill-opacity="0" />
  <path d="M561.0898,600.9343 L560.1917,602.2419" stroke="#000000" stroke-width="0.24" fill-opacity="0" />
  <path d="M533.236,595.3688 L533.7551,596.8677" stroke="#000000" stroke-width="0.24" fill-opacity="0" />
  <path d="M522.2147,600.9343 L523.1128,602.2419" stroke="#000000" stroke-width="0.24" fill-opacity="0" />
  <path d="M533.236,655.2827 L533.7551,653.7836" stroke="#000000" stroke-width="0.24" fill-opacity="0" />
  <path d="M522.2147,649.7171 L523.1128,648.4095" stroke="#000000" stroke-width="0.24" fill-opacity="0" />
  <path d="M550.0684,655.2827 L549.5493,653.7836" stroke="#000000" stroke-width="0.24" fill-opacity="0" />
  <path d="M561.0898,649.7171 L560.1917,648.4095" stroke="#000000" stroke-width="0.24" fill-opacity="0" />
  <path d="M611.4554,695.7759 L750.7782,695.7759" stroke="#000000" stroke-width="0.24" fill-opacity="0" />
  <path d="M257.1874,529.6003 L257.3997,531.1724" stroke="#000000" stroke-width="0.24" fill-opacity="0" />
  <path d="M269.5343,529.6003 L269.322,531.1724" stroke="#000000" stroke-width="0.24" fill-opacity="0" />
  <path d="M294.1628,556.299 L292.6129,556.6371" stroke="#000000" stroke-width="0.24" fill-opacity="0" />
  <path d="M289.9399,544.6967 L288.5353,545.4338" stroke="#000000" stroke-width="0.24" fill-opacity="0" />
  <path d="M232.5589,556.299 L234.1088,556.6371" stroke="#000000" stroke-width="0.24" fill-opacity="0" />
  <path d="M236.7818,544.6967 L238.1865,545.4338" stroke="#000000" stroke-width="0.24" fill-opacity="0" />
  <path d="M232.5589,611.5993 L234.1088,611.2611" stroke="#000000" stroke-width="0.24" fill-opacity="0" />
  <path d="M236.7818,623.2016 L238.1865,622.4644" stroke="#000000" stroke-width="0.24" fill-opacity="0" />
  <path d="M294.1628,611.5993 L292.6129,611.2611" stroke="#000000" stroke-width="0.24" fill-opacity="0" />
  <path d="M289.9399,623.2016 L288.5353,622.4644" stroke="#000000" stroke-width="0.24" fill-opacity="0" />
  <path d="M257.1874,638.2979 L257.3997,636.7258" stroke="#000000" stroke-width="0.24" fill-opacity="0" />
  <path d="M269.5343,638.2979 L269.322,636.7258" stroke="#000000" stroke-width="0.24" fill-opacity="0" />
  <path d="M294.2567,577.7757 L292.6846,577.988" stroke="#000000" stroke-width="0.24" fill-opacity="0" />
  <path d="M294.2567,590.1226 L292.6846,589.9103" stroke="#000000" stroke-width="0.24" fill-opacity="0" />
  <path d="M232.4651,577.7757 L234.0372,577.988" stroke="#000000" stroke-width="0.24" fill-opacity="0" />
  <path d="M232.4651,590.1226 L234.0372,589.9103" stroke="#000000" stroke-width="0.24" fill-opacity="0" />
  <path d="M613.6545,569.1038 L611.4554,569.1038" stroke="#000000" stroke-width="0.24" fill-opacity="0" />
</svg>