<?xml version="1.0" encoding="UTF-8" standalone="no"?>
<!DOCTYPE svg PUBLIC "-//W3C//DTD SVG 1.1//EN" "http://www.w3.org/Graphics/SVG/1.1/DTD/svg11.dtd">
<svg width="100%" height="100%" viewBox="0 0 1190.64 841.92" version="1.1" xmlns="http://www.w3.org/2000/svg">
  <path d="M270.5033,477.5406 L270.5033,456.3083" stroke="#C2C2C2" stroke-width="0.24" fill-opacity="0" />
  <path d="M454.2332,277.5034 L454.2332,216.1862" stroke="#C2C2C2" stroke-width="0.24" fill-opacity="0" />
  <path d="M799.6354,361.6666 L1019.84,361.6666" stroke="#C2C2C2" stroke-width="0.24" fill-opacity="0" />
  <path d="M948.8907,253.0971 L948.8907,216.1862" stroke="#C2C2C2" stroke-width="0.24" fill-opacity="0" />
  <path d="M909.2322,419.1784 L1019.84,419.1784" stroke="#C2C2C2" stroke-width="0.24" fill-opacity="0" />
  <path d="M853.8937,390.139 L1019.84,390.139" stroke="#C2C2C2" stroke-width="0.24" fill-opacity="0" />
  <path d="M185.7049,477.5406 L185.7049,474.8091" stroke="#C2C2C2" stroke-width="0.24" fill-opacity="0" />
  <path d="M892.3585,282.7628 L892.3585,216.1862" stroke="#C2C2C2" stroke-width="0.24" fill-opacity="0" />
  <path d="M920.6246,267.93 L920.6246,216.1862" stroke="#C2C2C2" stroke-width="0.24" fill-opacity="0" />
  <path d="M666.2293,323.7553 L666.2293,216.1862" stroke="#C2C2C2" stroke-width="0.24" fill-opacity="0" />
  <path d="M397.701,477.5406 L397.701,428.5572" stroke="#C2C2C2" stroke-width="0.24" fill-opacity="0" />
  <path d="M384.1348,477.5406 L384.1348,431.517" stroke="#C2C2C2" stroke-width="0.24" fill-opacity="0" />
  <path d="M539.5986,477.5406 L539.5986,397.599" stroke="#C2C2C2" stroke-width="0.24" fill-opacity="0" />
  <path d="M666.7963,477.5406 L666.7963,369.8478" stroke="#C2C2C2" stroke-width="0.24" fill-opacity="0" />
  <path d="M854.974,390.7059 L1019.84,390.7059" stroke="#C2C2C2" stroke-width="0.24" fill-opacity="0" />
  <path d="M737.4616,339.2962 L737.4616,216.1862" stroke="#C2C2C2" stroke-width="0.24" fill-opacity="0" />
  <path d="M228.671,477.5406 L228.671,465.435" stroke="#C2C2C2" stroke-width="0.24" fill-opacity="0" />
  <path d="M638.5301,477.5406 L638.5301,376.0148" stroke="#C2C2C2" stroke-width="0.24" fill-opacity="0" />
  <path d="M965.6512,448.7847 L1019.84,448.7847" stroke="#C2C2C2" stroke-width="0.24" fill-opacity="0" />
  <path d="M438.0294,274.5484 L171.8553,274.5484" stroke="#C2C2C2" stroke-width="0.24" fill-opacity="0" />
  <path d="M779.8608,341.7969 L779.8608,216.1862" stroke="#C2C2C2" stroke-width="0.24" fill-opacity="0" />
  <path d="M214.538,477.5406 L214.538,468.5185" stroke="#C2C2C2" stroke-width="0.24" fill-opacity="0" />
  <path d="M849.9592,477.5406 L849.9592,388.7146" stroke="#C2C2C2" stroke-width="0.24" fill-opacity="0" />
  <path d="M468.3663,477.5406 L468.3663,413.1399" stroke="#C2C2C2" stroke-width="0.24" fill-opacity="0" />
  <path d="M666.7963,323.879 L666.7963,216.1862" stroke="#C2C2C2" stroke-width="0.24" fill-opacity="0" />
  <path d="M504.5806,289.0681 L171.8553,289.0681" stroke="#C2C2C2" stroke-width="0.24" fill-opacity="0" />
  <path d="M501.9821,288.5012 L171.8553,288.5012" stroke="#C2C2C2" stroke-width="0.24" fill-opacity="0" />
  <path d="M771.9661,346.5799 L1019.84,346.5799" stroke="#C2C2C2" stroke-width="0.24" fill-opacity="0" />
  <path d="M256.3702,477.5406 L256.3702,459.3918" stroke="#C2C2C2" stroke-width="0.24" fill-opacity="0" />
  <path d="M1005.99,477.5406 L1005.99,470.593" stroke="#C2C2C2" stroke-width="0.24" fill-opacity="0" />
  <path d="M242.8041,477.5406 L242.8041,462.3516" stroke="#C2C2C2" stroke-width="0.24" fill-opacity="0" />
  <path d="M751.0277,342.256 L751.0277,216.1862" stroke="#C2C2C2" stroke-width="0.24" fill-opacity="0" />
  <path d="M369.4348,259.0027 L369.4348,216.1862" stroke="#C2C2C2" stroke-width="0.24" fill-opacity="0" />
  <path d="M949.4576,477.5406 L949.4576,440.9272" stroke="#C2C2C2" stroke-width="0.24" fill-opacity="0" />
  <path d="M991.8569,230.5502 L991.8569,216.1862" stroke="#C2C2C2" stroke-width="0.24" fill-opacity="0" />
  <path d="M525.4655,477.5406 L525.4655,400.6824" stroke="#C2C2C2" stroke-width="0.24" fill-opacity="0" />
  <path d="M186.2718,219.0414 L186.2718,216.1862" stroke="#C2C2C2" stroke-width="0.24" fill-opacity="0" />
  <path d="M882.6433,405.2256 L1019.84,405.2256" stroke="#C2C2C2" stroke-width="0.24" fill-opacity="0" />
  <path d="M637.9631,477.5406 L637.9631,376.1385" stroke="#C2C2C2" stroke-width="0.24" fill-opacity="0" />
  <path d="M199.838,222.0012 L199.838,216.1862" stroke="#C2C2C2" stroke-width="0.24" fill-opacity="0" />
  <path d="M213.971,477.5406 L213.971,468.6422" stroke="#C2C2C2" stroke-width="0.24" fill-opacity="0" />
  <path d="M228.671,228.2918 L228.671,216.1862" stroke="#C2C2C2" stroke-width="0.24" fill-opacity="0" />
  <path d="M384.1348,262.2098 L384.1348,216.1862" stroke="#C2C2C2" stroke-width="0.24" fill-opacity="0" />
  <path d="M751.5947,342.3797 L751.5947,216.1862" stroke="#C2C2C2" stroke-width="0.24" fill-opacity="0" />
  <path d="M213.971,225.0846 L213.971,216.1862" stroke="#C2C2C2" stroke-width="0.24" fill-opacity="0" />
  <path d="M799.6354,332.0602 L1019.84,332.0602" stroke="#C2C2C2" stroke-width="0.24" fill-opacity="0" />
  <path d="M355.3018,255.9192 L355.3018,216.1862" stroke="#C2C2C2" stroke-width="0.24" fill-opacity="0" />
  <path d="M468.9332,477.5406 L468.9332,413.0162" stroke="#C2C2C2" stroke-width="0.24" fill-opacity="0" />
  <path d="M567.2978,302.1711 L567.2978,216.1862" stroke="#C2C2C2" stroke-width="0.24" fill-opacity="0" />
  <path d="M511.3325,477.5406 L511.3325,403.7659" stroke="#C2C2C2" stroke-width="0.24" fill-opacity="0" />
  <path d="M370.0017,477.5406 L370.0017,434.6005" stroke="#C2C2C2" stroke-width="0.24" fill-opacity="0" />
  <path d="M355.3018,477.5406 L355.3018,437.8076" stroke="#C2C2C2" stroke-width="0.24" fill-opacity="0" />
  <path d="M920.6246,477.5406 L920.6246,425.7968" stroke="#C2C2C2" stroke-width="0.24" fill-opacity="0" />
  <path d="M910.3126,419.7453 L1019.84,419.7453" stroke="#C2C2C2" stroke-width="0.24" fill-opacity="0" />
  <path d="M440.1002,477.5406 L440.1002,419.3069" stroke="#C2C2C2" stroke-width="0.24" fill-opacity="0" />
  <path d="M826.2244,318.1075 L1019.84,318.1075" stroke="#C2C2C2" stroke-width="0.24" fill-opacity="0" />
  <path d="M539.5986,296.1278 L539.5986,216.1862" stroke="#C2C2C2" stroke-width="0.24" fill-opacity="0" />
  <path d="M327.0356,477.5406 L327.0356,443.9745" stroke="#C2C2C2" stroke-width="0.24" fill-opacity="0" />
  <path d="M398.2679,265.2933 L398.2679,216.1862" stroke="#C2C2C2" stroke-width="0.24" fill-opacity="0" />
  <path d="M411.834,477.5406 L411.834,425.4738" stroke="#C2C2C2" stroke-width="0.24" fill-opacity="0" />
  <path d="M736.8947,339.1725 L736.8947,216.1862" stroke="#C2C2C2" stroke-width="0.24" fill-opacity="0" />
  <path d="M567.2978,477.5406 L567.2978,391.5557" stroke="#C2C2C2" stroke-width="0.24" fill-opacity="0" />
  <path d="M850.5261,304.7147 L850.5261,216.1862" stroke="#C2C2C2" stroke-width="0.24" fill-opacity="0" />
  <path d="M993.3205,230.4225 L1019.84,230.4225" stroke="#C2C2C2" stroke-width="0.24" fill-opacity="0" />
  <path d="M440.6671,477.5406 L440.6671,419.1832" stroke="#C2C2C2" stroke-width="0.24" fill-opacity="0" />
  <path d="M355.8687,256.0429 L355.8687,216.1862" stroke="#C2C2C2" stroke-width="0.24" fill-opacity="0" />
  <path d="M779.8608,477.5406 L779.8608,351.9299" stroke="#C2C2C2" stroke-width="0.24" fill-opacity="0" />
  <path d="M854.974,303.0209 L1019.84,303.0209" stroke="#C2C2C2" stroke-width="0.24" fill-opacity="0" />
  <path d="M882.6433,288.5012 L1019.84,288.5012" stroke="#C2C2C2" stroke-width="0.24" fill-opacity="0" />
  <path d="M496.6324,286.7538 L496.6324,216.1862" stroke="#C2C2C2" stroke-width="0.24" fill-opacity="0" />
  <path d="M511.3325,289.9609 L511.3325,216.1862" stroke="#C2C2C2" stroke-width="0.24" fill-opacity="0" />
  <path d="M327.0356,249.7523 L327.0356,216.1862" stroke="#C2C2C2" stroke-width="0.24" fill-opacity="0" />
  <path d="M793.4269,477.5406 L793.4269,359.0488" stroke="#C2C2C2" stroke-width="0.24" fill-opacity="0" />
  <path d="M835.8262,477.5406 L835.8262,381.2982" stroke="#C2C2C2" stroke-width="0.24" fill-opacity="0" />
  <path d="M709.1954,477.5406 L709.1954,360.5975" stroke="#C2C2C2" stroke-width="0.24" fill-opacity="0" />
  <path d="M610.264,311.5451 L610.264,216.1862" stroke="#C2C2C2" stroke-width="0.24" fill-opacity="0" />
  <path d="M525.4655,293.0444 L525.4655,216.1862" stroke="#C2C2C2" stroke-width="0.24" fill-opacity="0" />
  <path d="M595.564,477.5406 L595.564,385.3888" stroke="#C2C2C2" stroke-width="0.24" fill-opacity="0" />
  <path d="M497.1994,477.5406 L497.1994,406.8493" stroke="#C2C2C2" stroke-width="0.24" fill-opacity="0" />
  <path d="M581.9978,305.3782 L581.9978,216.1862" stroke="#C2C2C2" stroke-width="0.24" fill-opacity="0" />
  <path d="M510.7655,289.8372 L510.7655,216.1862" stroke="#C2C2C2" stroke-width="0.24" fill-opacity="0" />
  <path d="M808.127,327.4329 L808.127,326.964" stroke="#C2C2C2" stroke-width="0.24" fill-opacity="0" />
  <path d="M836.3931,477.5406 L836.3931,381.5957" stroke="#C2C2C2" stroke-width="0.24" fill-opacity="0" />
  <path d="M623.8301,477.5406 L623.8301,379.2219" stroke="#C2C2C2" stroke-width="0.24" fill-opacity="0" />
  <path d="M807.56,327.2615 L807.56,216.1862" stroke="#C2C2C2" stroke-width="0.24" fill-opacity="0" />
  <path d="M666.2293,477.5406 L666.2293,369.9715" stroke="#C2C2C2" stroke-width="0.24" fill-opacity="0" />
  <path d="M821.6931,477.5406 L821.6931,373.8817" stroke="#C2C2C2" stroke-width="0.24" fill-opacity="0" />
  <path d="M568.5333,390.7059 L171.8553,390.7059" stroke="#C2C2C2" stroke-width="0.24" fill-opacity="0" />
  <path d="M370.0017,259.1263 L370.0017,216.1862" stroke="#C2C2C2" stroke-width="0.24" fill-opacity="0" />
  <path d="M256.9372,234.4587 L256.9372,216.1862" stroke="#C2C2C2" stroke-width="0.24" fill-opacity="0" />
  <path d="M808.127,477.5406 L808.127,366.7628" stroke="#C2C2C2" stroke-width="0.24" fill-opacity="0" />
  <path d="M680.9293,477.5406 L680.9293,366.7644" stroke="#C2C2C2" stroke-width="0.24" fill-opacity="0" />
  <path d="M680.3624,477.5406 L680.3624,366.8881" stroke="#C2C2C2" stroke-width="0.24" fill-opacity="0" />
  <path d="M238.3759,462.7374 L171.8553,462.7374" stroke="#C2C2C2" stroke-width="0.24" fill-opacity="0" />
  <path d="M751.0277,477.5406 L751.0277,351.4708" stroke="#C2C2C2" stroke-width="0.24" fill-opacity="0" />
  <path d="M850.5261,477.5406 L850.5261,389.0121" stroke="#C2C2C2" stroke-width="0.24" fill-opacity="0" />
  <path d="M910.3126,273.9815 L1019.84,273.9815" stroke="#C2C2C2" stroke-width="0.24" fill-opacity="0" />
  <path d="M808.127,326.964 L808.127,216.1862" stroke="#C2C2C2" stroke-width="0.24" fill-opacity="0" />
  <path d="M736.8947,477.5406 L736.8947,354.5542" stroke="#C2C2C2" stroke-width="0.24" fill-opacity="0" />
  <path d="M695.0624,330.0459 L695.0624,216.1862" stroke="#C2C2C2" stroke-width="0.24" fill-opacity="0" />
  <path d="M934.7577,477.5406 L934.7577,433.2133" stroke="#C2C2C2" stroke-width="0.24" fill-opacity="0" />
  <path d="M864.0923,477.5406 L864.0923,396.1311" stroke="#C2C2C2" stroke-width="0.24" fill-opacity="0" />
  <path d="M504.5806,404.6587 L171.8553,404.6587" stroke="#C2C2C2" stroke-width="0.24" fill-opacity="0" />
  <path d="M327.6025,249.876 L327.6025,216.1862" stroke="#C2C2C2" stroke-width="0.24" fill-opacity="0" />
  <path d="M822.26,319.5476 L822.26,216.1862" stroke="#C2C2C2" stroke-width="0.24" fill-opacity="0" />
  <path d="M341.1687,477.5406 L341.1687,440.8911" stroke="#C2C2C2" stroke-width="0.24" fill-opacity="0" />
  <path d="M454.8002,277.6271 L454.8002,216.1862" stroke="#C2C2C2" stroke-width="0.24" fill-opacity="0" />
  <path d="M793.9939,334.3805 L793.9939,216.1862" stroke="#C2C2C2" stroke-width="0.24" fill-opacity="0" />
  <path d="M694.4954,329.9222 L694.4954,216.1862" stroke="#C2C2C2" stroke-width="0.24" fill-opacity="0" />
  <path d="M798.5551,361.0996 L1019.84,361.0996" stroke="#C2C2C2" stroke-width="0.24" fill-opacity="0" />
  <path d="M482.4994,477.5406 L482.4994,410.0565" stroke="#C2C2C2" stroke-width="0.24" fill-opacity="0" />
  <path d="M440.1002,274.42 L440.1002,216.1862" stroke="#C2C2C2" stroke-width="0.24" fill-opacity="0" />
  <path d="M701.6356,361.6666 L171.8553,361.6666" stroke="#C2C2C2" stroke-width="0.24" fill-opacity="0" />
  <path d="M779.2939,342.0944 L779.2939,216.1862" stroke="#C2C2C2" stroke-width="0.24" fill-opacity="0" />
  <path d="M185.7049,218.9177 L185.7049,216.1862" stroke="#C2C2C2" stroke-width="0.24" fill-opacity="0" />
  <path d="M581.4309,305.2545 L581.4309,216.1862" stroke="#C2C2C2" stroke-width="0.24" fill-opacity="0" />
  <path d="M284.6364,240.5019 L284.6364,216.1862" stroke="#C2C2C2" stroke-width="0.24" fill-opacity="0" />
  <path d="M568.5333,303.0209 L171.8553,303.0209" stroke="#C2C2C2" stroke-width="0.24" fill-opacity="0" />
  <path d="M426.534,477.5406 L426.534,422.2666" stroke="#C2C2C2" stroke-width="0.24" fill-opacity="0" />
  <path d="M412.4009,268.3767 L412.4009,216.1862" stroke="#C2C2C2" stroke-width="0.24" fill-opacity="0" />
  <path d="M779.2939,477.5406 L779.2939,351.6324" stroke="#C2C2C2" stroke-width="0.24" fill-opacity="0" />
  <path d="M200.4049,477.5406 L200.4049,471.6019" stroke="#C2C2C2" stroke-width="0.24" fill-opacity="0" />
  <path d="M835.8262,312.4286 L835.8262,216.1862" stroke="#C2C2C2" stroke-width="0.24" fill-opacity="0" />
  <path d="M186.2718,477.5406 L186.2718,474.6854" stroke="#C2C2C2" stroke-width="0.24" fill-opacity="0" />
  <path d="M435.4309,273.9815 L171.8553,273.9815" stroke="#C2C2C2" stroke-width="0.24" fill-opacity="0" />
  <path d="M299.3364,243.7091 L299.3364,216.1862" stroke="#C2C2C2" stroke-width="0.24" fill-opacity="0" />
  <path d="M963.0238,245.6806 L963.0238,216.1862" stroke="#C2C2C2" stroke-width="0.24" fill-opacity="0" />
  <path d="M864.0923,297.5957 L864.0923,216.1862" stroke="#C2C2C2" stroke-width="0.24" fill-opacity="0" />
  <path d="M652.6631,320.7955 L652.6631,216.1862" stroke="#C2C2C2" stroke-width="0.24" fill-opacity="0" />
  <path d="M571.1318,303.5878 L171.8553,303.5878" stroke="#C2C2C2" stroke-width="0.24" fill-opacity="0" />
  <path d="M907.0585,275.0489 L907.0585,216.1862" stroke="#C2C2C2" stroke-width="0.24" fill-opacity="0" />
  <path d="M892.3585,477.5406 L892.3585,410.964" stroke="#C2C2C2" stroke-width="0.24" fill-opacity="0" />
  <path d="M807.56,327.4329 L807.56,327.2615" stroke="#C2C2C2" stroke-width="0.24" fill-opacity="0" />
  <path d="M235.7774,230.4225 L171.8553,230.4225" stroke="#C2C2C2" stroke-width="0.24" fill-opacity="0" />
  <path d="M909.2322,274.5484 L1019.84,274.5484" stroke="#C2C2C2" stroke-width="0.24" fill-opacity="0" />
  <path d="M567.8647,302.2948 L567.8647,216.1862" stroke="#C2C2C2" stroke-width="0.24" fill-opacity="0" />
  <path d="M937.9819,259.4618 L1019.84,259.4618" stroke="#C2C2C2" stroke-width="0.24" fill-opacity="0" />
  <path d="M977.7238,237.9667 L977.7238,216.1862" stroke="#C2C2C2" stroke-width="0.24" fill-opacity="0" />
  <path d="M937.9819,434.265 L1019.84,434.265" stroke="#C2C2C2" stroke-width="0.24" fill-opacity="0" />
  <path d="M722.7616,477.5406 L722.7616,357.6377" stroke="#C2C2C2" stroke-width="0.24" fill-opacity="0" />
  <path d="M652.6631,477.5406 L652.6631,372.9313" stroke="#C2C2C2" stroke-width="0.24" fill-opacity="0" />
  <path d="M878.2253,477.5406 L878.2253,403.5475" stroke="#C2C2C2" stroke-width="0.24" fill-opacity="0" />
  <path d="M341.1687,252.8358 L341.1687,216.1862" stroke="#C2C2C2" stroke-width="0.24" fill-opacity="0" />
  <path d="M383.5679,262.0861 L383.5679,216.1862" stroke="#C2C2C2" stroke-width="0.24" fill-opacity="0" />
  <path d="M304.9271,245.5091 L171.8553,245.5091" stroke="#C2C2C2" stroke-width="0.24" fill-opacity="0" />
  <path d="M771.9661,347.1469 L1019.84,347.1469" stroke="#C2C2C2" stroke-width="0.24" fill-opacity="0" />
  <path d="M285.2033,240.6256 L285.2033,216.1862" stroke="#C2C2C2" stroke-width="0.24" fill-opacity="0" />
  <path d="M765.1608,477.5406 L765.1608,348.3873" stroke="#C2C2C2" stroke-width="0.24" fill-opacity="0" />
  <path d="M701.6356,332.0602 L171.8553,332.0602" stroke="#C2C2C2" stroke-width="0.24" fill-opacity="0" />
  <path d="M723.3285,477.5406 L723.3285,357.514" stroke="#C2C2C2" stroke-width="0.24" fill-opacity="0" />
  <path d="M907.0585,477.5406 L907.0585,418.6779" stroke="#C2C2C2" stroke-width="0.24" fill-opacity="0" />
  <path d="M313.4695,477.5406 L313.4695,446.9343" stroke="#C2C2C2" stroke-width="0.24" fill-opacity="0" />
  <path d="M383.5679,477.5406 L383.5679,431.6407" stroke="#C2C2C2" stroke-width="0.24" fill-opacity="0" />
  <path d="M483.0663,477.5406 L483.0663,409.9328" stroke="#C2C2C2" stroke-width="0.24" fill-opacity="0" />
  <path d="M270.5033,237.4185 L270.5033,216.1862" stroke="#C2C2C2" stroke-width="0.24" fill-opacity="0" />
  <path d="M949.4576,252.7996 L949.4576,216.1862" stroke="#C2C2C2" stroke-width="0.24" fill-opacity="0" />
  <path d="M235.7774,463.3044 L171.8553,463.3044" stroke="#C2C2C2" stroke-width="0.24" fill-opacity="0" />
  <path d="M238.3759,230.9894 L171.8553,230.9894" stroke="#C2C2C2" stroke-width="0.24" fill-opacity="0" />
  <path d="M341.7356,477.5406 L341.7356,440.7674" stroke="#C2C2C2" stroke-width="0.24" fill-opacity="0" />
  <path d="M765.7277,477.5406 L765.7277,348.2636" stroke="#C2C2C2" stroke-width="0.24" fill-opacity="0" />
  <path d="M368.8797,434.265 L171.8553,434.265" stroke="#C2C2C2" stroke-width="0.24" fill-opacity="0" />
  <path d="M826.2244,375.6193 L1019.84,375.6193" stroke="#C2C2C2" stroke-width="0.24" fill-opacity="0" />
  <path d="M921.1915,477.5406 L921.1915,426.0943" stroke="#C2C2C2" stroke-width="0.24" fill-opacity="0" />
  <path d="M454.2332,477.5406 L454.2332,416.2234" stroke="#C2C2C2" stroke-width="0.24" fill-opacity="0" />
  <path d="M524.8986,292.9207 L524.8986,216.1862" stroke="#C2C2C2" stroke-width="0.24" fill-opacity="0" />
  <path d="M963.0238,477.5406 L963.0238,448.0462" stroke="#C2C2C2" stroke-width="0.24" fill-opacity="0" />
  <path d="M992.2401,230.9894 L1019.84,230.9894" stroke="#C2C2C2" stroke-width="0.24" fill-opacity="0" />
  <path d="M341.7356,252.9594 L341.7356,216.1862" stroke="#C2C2C2" stroke-width="0.24" fill-opacity="0" />
  <path d="M371.4783,433.6981 L171.8553,433.6981" stroke="#C2C2C2" stroke-width="0.24" fill-opacity="0" />
  <path d="M694.4954,477.5406 L694.4954,363.8046" stroke="#C2C2C2" stroke-width="0.24" fill-opacity="0" />
  <path d="M906.4915,275.3464 L906.4915,216.1862" stroke="#C2C2C2" stroke-width="0.24" fill-opacity="0" />
  <path d="M539.0317,477.5406 L539.0317,397.7227" stroke="#C2C2C2" stroke-width="0.24" fill-opacity="0" />
  <path d="M807.56,477.5406 L807.56,366.4653" stroke="#C2C2C2" stroke-width="0.24" fill-opacity="0" />
  <path d="M199.838,477.5406 L199.838,471.7256" stroke="#C2C2C2" stroke-width="0.24" fill-opacity="0" />
  <path d="M285.2033,477.5406 L285.2033,453.1012" stroke="#C2C2C2" stroke-width="0.24" fill-opacity="0" />
  <path d="M256.9372,477.5406 L256.9372,459.2681" stroke="#C2C2C2" stroke-width="0.24" fill-opacity="0" />
  <path d="M635.0845,317.5406 L171.8553,317.5406" stroke="#C2C2C2" stroke-width="0.24" fill-opacity="0" />
  <path d="M581.9978,477.5406 L581.9978,388.3486" stroke="#C2C2C2" stroke-width="0.24" fill-opacity="0" />
  <path d="M892.9254,477.5406 L892.9254,411.2614" stroke="#C2C2C2" stroke-width="0.24" fill-opacity="0" />
  <path d="M892.9254,282.4654 L892.9254,216.1862" stroke="#C2C2C2" stroke-width="0.24" fill-opacity="0" />
  <path d="M652.0963,320.6718 L652.0963,216.1862" stroke="#C2C2C2" stroke-width="0.24" fill-opacity="0" />
  <path d="M964.5708,245.5091 L1019.84,245.5091" stroke="#C2C2C2" stroke-width="0.24" fill-opacity="0" />
  <path d="M482.4994,283.6703 L482.4994,216.1862" stroke="#C2C2C2" stroke-width="0.24" fill-opacity="0" />
  <path d="M355.8687,477.5406 L355.8687,437.6839" stroke="#C2C2C2" stroke-width="0.24" fill-opacity="0" />
  <path d="M709.1954,333.1293 L709.1954,216.1862" stroke="#C2C2C2" stroke-width="0.24" fill-opacity="0" />
  <path d="M977.1569,238.2642 L977.1569,216.1862" stroke="#C2C2C2" stroke-width="0.24" fill-opacity="0" />
  <path d="M609.697,477.5406 L609.697,382.3054" stroke="#C2C2C2" stroke-width="0.24" fill-opacity="0" />
  <path d="M313.4695,246.7925 L313.4695,216.1862" stroke="#C2C2C2" stroke-width="0.24" fill-opacity="0" />
  <path d="M242.2372,477.5406 L242.2372,462.4753" stroke="#C2C2C2" stroke-width="0.24" fill-opacity="0" />
  <path d="M836.3931,312.1311 L836.3931,216.1862" stroke="#C2C2C2" stroke-width="0.24" fill-opacity="0" />
  <path d="M468.9332,280.7105 L468.9332,216.1862" stroke="#C2C2C2" stroke-width="0.24" fill-opacity="0" />
  <path d="M304.9271,448.2177 L171.8553,448.2177" stroke="#C2C2C2" stroke-width="0.24" fill-opacity="0" />
  <path d="M496.6324,477.5406 L496.6324,406.973" stroke="#C2C2C2" stroke-width="0.24" fill-opacity="0" />
  <path d="M411.834,268.253 L411.834,216.1862" stroke="#C2C2C2" stroke-width="0.24" fill-opacity="0" />
  <path d="M553.1647,299.0876 L553.1647,216.1862" stroke="#C2C2C2" stroke-width="0.24" fill-opacity="0" />
  <path d="M737.4616,477.5406 L737.4616,354.4306" stroke="#C2C2C2" stroke-width="0.24" fill-opacity="0" />
  <path d="M878.7923,289.8818 L878.7923,216.1862" stroke="#C2C2C2" stroke-width="0.24" fill-opacity="0" />
  <path d="M412.4009,477.5406 L412.4009,425.3501" stroke="#C2C2C2" stroke-width="0.24" fill-opacity="0" />
  <path d="M768.1868,346.5799 L171.8553,346.5799" stroke="#C2C2C2" stroke-width="0.24" fill-opacity="0" />
  <path d="M369.4348,477.5406 L369.4348,434.7242" stroke="#C2C2C2" stroke-width="0.24" fill-opacity="0" />
  <path d="M271.0703,237.5421 L271.0703,216.1862" stroke="#C2C2C2" stroke-width="0.24" fill-opacity="0" />
  <path d="M524.8986,477.5406 L524.8986,400.8061" stroke="#C2C2C2" stroke-width="0.24" fill-opacity="0" />
  <path d="M765.7277,345.4632 L765.7277,216.1862" stroke="#C2C2C2" stroke-width="0.24" fill-opacity="0" />
  <path d="M571.1318,390.139 L171.8553,390.139" stroke="#C2C2C2" stroke-width="0.24" fill-opacity="0" />
  <path d="M553.1647,477.5406 L553.1647,394.6392" stroke="#C2C2C2" stroke-width="0.24" fill-opacity="0" />
  <path d="M327.6025,477.5406 L327.6025,443.8508" stroke="#C2C2C2" stroke-width="0.24" fill-opacity="0" />
  <path d="M298.7695,243.5854 L298.7695,216.1862" stroke="#C2C2C2" stroke-width="0.24" fill-opacity="0" />
  <path d="M765.1608,345.3395 L765.1608,216.1862" stroke="#C2C2C2" stroke-width="0.24" fill-opacity="0" />
  <path d="M596.1309,308.4617 L596.1309,216.1862" stroke="#C2C2C2" stroke-width="0.24" fill-opacity="0" />
  <path d="M991.2899,230.8477 L991.2899,216.1862" stroke="#C2C2C2" stroke-width="0.24" fill-opacity="0" />
  <path d="M821.6931,319.8451 L821.6931,216.1862" stroke="#C2C2C2" stroke-width="0.24" fill-opacity="0" />
  <path d="M963.5908,477.5406 L963.5908,448.3437" stroke="#C2C2C2" stroke-width="0.24" fill-opacity="0" />
  <path d="M1005.423,477.5406 L1005.423,470.2955" stroke="#C2C2C2" stroke-width="0.24" fill-opacity="0" />
  <path d="M284.6364,477.5406 L284.6364,453.2249" stroke="#C2C2C2" stroke-width="0.24" fill-opacity="0" />
  <path d="M906.4915,477.5406 L906.4915,418.3804" stroke="#C2C2C2" stroke-width="0.24" fill-opacity="0" />
  <path d="M991.2899,477.5406 L991.2899,462.8791" stroke="#C2C2C2" stroke-width="0.24" fill-opacity="0" />
  <path d="M1005.423,223.4313 L1005.423,216.1862" stroke="#C2C2C2" stroke-width="0.24" fill-opacity="0" />
  <path d="M635.0845,376.1862 L171.8553,376.1862" stroke="#C2C2C2" stroke-width="0.24" fill-opacity="0" />
  <path d="M302.3286,244.9421 L171.8553,244.9421" stroke="#C2C2C2" stroke-width="0.24" fill-opacity="0" />
  <path d="M435.4309,419.7453 L171.8553,419.7453" stroke="#C2C2C2" stroke-width="0.24" fill-opacity="0" />
  <path d="M368.8797,259.4618 L171.8553,259.4618" stroke="#C2C2C2" stroke-width="0.24" fill-opacity="0" />
  <path d="M610.264,477.5406 L610.264,382.1817" stroke="#C2C2C2" stroke-width="0.24" fill-opacity="0" />
  <path d="M864.6592,477.5406 L864.6592,396.4286" stroke="#C2C2C2" stroke-width="0.24" fill-opacity="0" />
  <path d="M822.26,477.5406 L822.26,374.1792" stroke="#C2C2C2" stroke-width="0.24" fill-opacity="0" />
  <path d="M921.1915,267.6325 L921.1915,216.1862" stroke="#C2C2C2" stroke-width="0.24" fill-opacity="0" />
  <path d="M298.7695,477.5406 L298.7695,450.1414" stroke="#C2C2C2" stroke-width="0.24" fill-opacity="0" />
  <path d="M596.1309,477.5406 L596.1309,385.2651" stroke="#C2C2C2" stroke-width="0.24" fill-opacity="0" />
  <path d="M977.1569,477.5406 L977.1569,455.4626" stroke="#C2C2C2" stroke-width="0.24" fill-opacity="0" />
  <path d="M934.7577,260.5135 L934.7577,216.1862" stroke="#C2C2C2" stroke-width="0.24" fill-opacity="0" />
  <path d="M623.8301,314.5049 L623.8301,216.1862" stroke="#C2C2C2" stroke-width="0.24" fill-opacity="0" />
  <path d="M936.9016,260.0287 L1019.84,260.0287" stroke="#C2C2C2" stroke-width="0.24" fill-opacity="0" />
  <path d="M936.9016,433.6981 L1019.84,433.6981" stroke="#C2C2C2" stroke-width="0.24" fill-opacity="0" />
  <path d="M553.7317,477.5406 L553.7317,394.5155" stroke="#C2C2C2" stroke-width="0.24" fill-opacity="0" />
  <path d="M312.9025,477.5406 L312.9025,447.058" stroke="#C2C2C2" stroke-width="0.24" fill-opacity="0" />
  <path d="M200.4049,222.1249 L200.4049,216.1862" stroke="#C2C2C2" stroke-width="0.24" fill-opacity="0" />
  <path d="M793.4269,334.6779 L793.4269,216.1862" stroke="#C2C2C2" stroke-width="0.24" fill-opacity="0" />
  <path d="M637.683,375.6193 L171.8553,375.6193" stroke="#C2C2C2" stroke-width="0.24" fill-opacity="0" />
  <path d="M637.9631,317.5883 L637.9631,216.1862" stroke="#C2C2C2" stroke-width="0.24" fill-opacity="0" />
  <path d="M695.0624,477.5406 L695.0624,363.6809" stroke="#C2C2C2" stroke-width="0.24" fill-opacity="0" />
  <path d="M501.9821,405.2256 L171.8553,405.2256" stroke="#C2C2C2" stroke-width="0.24" fill-opacity="0" />
  <path d="M483.0663,283.794 L483.0663,216.1862" stroke="#C2C2C2" stroke-width="0.24" fill-opacity="0" />
  <path d="M398.2679,477.5406 L398.2679,428.4335" stroke="#C2C2C2" stroke-width="0.24" fill-opacity="0" />
  <path d="M992.2401,462.7374 L1019.84,462.7374" stroke="#C2C2C2" stroke-width="0.24" fill-opacity="0" />
  <path d="M881.5629,404.6587 L1019.84,404.6587" stroke="#C2C2C2" stroke-width="0.24" fill-opacity="0" />
  <path d="M965.6512,244.9421 L1019.84,244.9421" stroke="#C2C2C2" stroke-width="0.24" fill-opacity="0" />
  <path d="M768.1868,347.1469 L171.8553,347.1469" stroke="#C2C2C2" stroke-width="0.24" fill-opacity="0" />
  <path d="M454.8002,477.5406 L454.8002,416.0997" stroke="#C2C2C2" stroke-width="0.24" fill-opacity="0" />
  <path d="M426.534,271.4602 L426.534,216.1862" stroke="#C2C2C2" stroke-width="0.24" fill-opacity="0" />
  <path d="M853.8937,303.5878 L1019.84,303.5878" stroke="#C2C2C2" stroke-width="0.24" fill-opacity="0" />
  <path d="M438.0294,419.1784 L171.8553,419.1784" stroke="#C2C2C2" stroke-width="0.24" fill-opacity="0" />
  <path d="M963.5908,245.3831 L963.5908,216.1862" stroke="#C2C2C2" stroke-width="0.24" fill-opacity="0" />
  <path d="M242.2372,231.2516 L242.2372,216.1862" stroke="#C2C2C2" stroke-width="0.24" fill-opacity="0" />
  <path d="M497.1994,286.8775 L497.1994,216.1862" stroke="#C2C2C2" stroke-width="0.24" fill-opacity="0" />
  <path d="M302.3286,448.7847 L171.8553,448.7847" stroke="#C2C2C2" stroke-width="0.24" fill-opacity="0" />
  <path d="M881.5629,289.0681 L1019.84,289.0681" stroke="#C2C2C2" stroke-width="0.24" fill-opacity="0" />
  <path d="M553.7317,299.2113 L553.7317,216.1862" stroke="#C2C2C2" stroke-width="0.24" fill-opacity="0" />
  <path d="M864.6592,297.2982 L864.6592,216.1862" stroke="#C2C2C2" stroke-width="0.24" fill-opacity="0" />
  <path d="M567.8647,477.5406 L567.8647,391.432" stroke="#C2C2C2" stroke-width="0.24" fill-opacity="0" />
  <path d="M652.0963,477.5406 L652.0963,373.055" stroke="#C2C2C2" stroke-width="0.24" fill-opacity="0" />
  <path d="M991.8569,477.5406 L991.8569,463.1765" stroke="#C2C2C2" stroke-width="0.24" fill-opacity="0" />
  <path d="M708.6285,333.0056 L708.6285,216.1862" stroke="#C2C2C2" stroke-width="0.24" fill-opacity="0" />
  <path d="M595.564,308.338 L595.564,216.1862" stroke="#C2C2C2" stroke-width="0.24" fill-opacity="0" />
  <path d="M638.5301,317.712 L638.5301,216.1862" stroke="#C2C2C2" stroke-width="0.24" fill-opacity="0" />
  <path d="M609.697,311.4214 L609.697,216.1862" stroke="#C2C2C2" stroke-width="0.24" fill-opacity="0" />
  <path d="M849.9592,305.0122 L849.9592,216.1862" stroke="#C2C2C2" stroke-width="0.24" fill-opacity="0" />
  <path d="M256.3702,234.335 L256.3702,216.1862" stroke="#C2C2C2" stroke-width="0.24" fill-opacity="0" />
  <path d="M722.7616,336.0891 L722.7616,216.1862" stroke="#C2C2C2" stroke-width="0.24" fill-opacity="0" />
  <path d="M468.3663,280.5869 L468.3663,216.1862" stroke="#C2C2C2" stroke-width="0.24" fill-opacity="0" />
  <path d="M977.7238,477.5406 L977.7238,455.7601" stroke="#C2C2C2" stroke-width="0.24" fill-opacity="0" />
  <path d="M798.5551,332.6272 L1019.84,332.6272" stroke="#C2C2C2" stroke-width="0.24" fill-opacity="0" />
  <path d="M680.9293,326.9624 L680.9293,216.1862" stroke="#C2C2C2" stroke-width="0.24" fill-opacity="0" />
  <path d="M935.3246,260.216 L935.3246,216.1862" stroke="#C2C2C2" stroke-width="0.24" fill-opacity="0" />
  <path d="M581.4309,477.5406 L581.4309,388.4723" stroke="#C2C2C2" stroke-width="0.24" fill-opacity="0" />
  <path d="M708.6285,477.5406 L708.6285,360.7212" stroke="#C2C2C2" stroke-width="0.24" fill-opacity="0" />
  <path d="M680.3624,326.8387 L680.3624,216.1862" stroke="#C2C2C2" stroke-width="0.24" fill-opacity="0" />
  <path d="M948.8907,477.5406 L948.8907,440.6297" stroke="#C2C2C2" stroke-width="0.24" fill-opacity="0" />
  <path d="M993.3205,463.3044 L1019.84,463.3044" stroke="#C2C2C2" stroke-width="0.24" fill-opacity="0" />
  <path d="M624.397,477.5406 L624.397,379.0982" stroke="#C2C2C2" stroke-width="0.24" fill-opacity="0" />
  <path d="M397.701,265.1696 L397.701,216.1862" stroke="#C2C2C2" stroke-width="0.24" fill-opacity="0" />
  <path d="M878.7923,477.5406 L878.7923,403.845" stroke="#C2C2C2" stroke-width="0.24" fill-opacity="0" />
  <path d="M723.3285,336.2128 L723.3285,216.1862" stroke="#C2C2C2" stroke-width="0.24" fill-opacity="0" />
  <path d="M371.4783,260.0287 L171.8553,260.0287" stroke="#C2C2C2" stroke-width="0.24" fill-opacity="0" />
  <path d="M214.538,225.2083 L214.538,216.1862" stroke="#C2C2C2" stroke-width="0.24" fill-opacity="0" />
  <path d="M827.3047,376.1862 L1019.84,376.1862" stroke="#C2C2C2" stroke-width="0.24" fill-opacity="0" />
  <path d="M299.3364,477.5406 L299.3364,450.0177" stroke="#C2C2C2" stroke-width="0.24" fill-opacity="0" />
  <path d="M228.1041,228.1681 L228.1041,216.1862" stroke="#C2C2C2" stroke-width="0.24" fill-opacity="0" />
  <path d="M228.1041,477.5406 L228.1041,465.5587" stroke="#C2C2C2" stroke-width="0.24" fill-opacity="0" />
  <path d="M751.5947,477.5406 L751.5947,351.3471" stroke="#C2C2C2" stroke-width="0.24" fill-opacity="0" />
  <path d="M425.9671,477.5406 L425.9671,422.3903" stroke="#C2C2C2" stroke-width="0.24" fill-opacity="0" />
  <path d="M242.8041,231.3752 L242.8041,216.1862" stroke="#C2C2C2" stroke-width="0.24" fill-opacity="0" />
  <path d="M1005.99,223.1338 L1005.99,216.1862" stroke="#C2C2C2" stroke-width="0.24" fill-opacity="0" />
  <path d="M425.9671,271.3365 L425.9671,216.1862" stroke="#C2C2C2" stroke-width="0.24" fill-opacity="0" />
  <path d="M312.9025,246.6688 L312.9025,216.1862" stroke="#C2C2C2" stroke-width="0.24" fill-opacity="0" />
  <path d="M624.397,314.6286 L624.397,216.1862" stroke="#C2C2C2" stroke-width="0.24" fill-opacity="0" />
  <path d="M704.2342,332.6272 L171.8553,332.6272" stroke="#C2C2C2" stroke-width="0.24" fill-opacity="0" />
  <path d="M539.0317,296.0042 L539.0317,216.1862" stroke="#C2C2C2" stroke-width="0.24" fill-opacity="0" />
  <path d="M827.3047,317.5406 L1019.84,317.5406" stroke="#C2C2C2" stroke-width="0.24" fill-opacity="0" />
  <path d="M271.0703,477.5406 L271.0703,456.1847" stroke="#C2C2C2" stroke-width="0.24" fill-opacity="0" />
  <path d="M935.3246,477.5406 L935.3246,433.5108" stroke="#C2C2C2" stroke-width="0.24" fill-opacity="0" />
  <path d="M637.683,318.1075 L171.8553,318.1075" stroke="#C2C2C2" stroke-width="0.24" fill-opacity="0" />
  <path d="M878.2253,290.1793 L878.2253,216.1862" stroke="#C2C2C2" stroke-width="0.24" fill-opacity="0" />
  <path d="M793.9939,477.5406 L793.9939,359.3463" stroke="#C2C2C2" stroke-width="0.24" fill-opacity="0" />
  <path d="M440.6671,274.5436 L440.6671,216.1862" stroke="#C2C2C2" stroke-width="0.24" fill-opacity="0" />
  <path d="M704.2342,361.0996 L171.8553,361.0996" stroke="#C2C2C2" stroke-width="0.24" fill-opacity="0" />
  <path d="M964.5708,448.2177 L1019.84,448.2177" stroke="#C2C2C2" stroke-width="0.24" fill-opacity="0" />
  <path d="M510.7655,477.5406 L510.7655,403.8896" stroke="#C2C2C2" stroke-width="0.24" fill-opacity="0" />
  <path d="M770.7756,346.5645 L770.7756,347.1624" stroke="#000000" stroke-width="0.24" fill-opacity="0" />
  <path d="M771.9661,347.1469 L1019.971,477.2896 L1019.708,477.7915 L770.7755,347.1623 L171.9157,477.8175 L171.7948,477.2636 L769.4861,346.8634 L171.7948,216.4632 L171.9157,215.9093 L770.7755,346.5644 L1019.708,215.9352 L1019.971,216.4372 L771.9661,346.5799" stroke="#000000" stroke-width="0.24" fill-opacity="0" />
  <path d="M171.8553,216.1862 L173.1851,216.1862 L1019.84,216.1862 L1019.84,477.5405 L171.8553,477.5405 L171.8553,216.4763 z" stroke="#000000" stroke-width="1.44" fill-opacity="0" />
</svg>