<?xml version="1.0" encoding="UTF-8" standalone="no"?>
<!DOCTYPE svg PUBLIC "-//W3C//DTD SVG 1.1//EN" "http://www.w3.org/Graphics/SVG/1.1/DTD/svg11.dtd">
<svg width="100%" height="100%" viewBox="0 0 1190.64 841.92" version="1.1" xmlns="http://www.w3.org/2000/svg">
  <path d="M555.8539,402.7015 L555.8539,385.8114 L555.2869,385.8114 L555.2869,402.7015" stroke="#000000" stroke-width="0.24" fill-opacity="0" />
  <path d="M81.81026,503.9566 L81.81026,501.122 L1087.947,501.122 L1087.947,503.9566 z" stroke="Black" stroke-width="0" fill="#000000" fill-opacity="1.0" />
  <path d="M657.4917,402.7015 L657.4917,382.5185 L656.9247,382.5185 L656.9247,402.7015" stroke="#000000" stroke-width="0.24" fill-opacity="0" />
  <path d="M730.0901,402.7015 L730.0901,398.9833 L729.5232,398.9833 L729.5232,402.7015" stroke="#000000" stroke-width="0.24" fill-opacity="0" />
  <path d="M541.3342,402.7015 L541.3342,389.1044 L540.7673,389.1044 L540.7673,402.7015" stroke="#000000" stroke-width="0.24" fill-opacity="0" />
  <path d="M686.5311,402.7015 L686.5311,389.1044 L685.9641,389.1044 L685.9641,402.7015" stroke="#000000" stroke-width="0.24" fill-opacity="0" />
  <path d="M497.7751,402.7015 L497.7751,402.2763 L497.7751,398.9833 L497.2082,398.9833 L497.2082,402.2763 L497.2082,402.7015" stroke="#000000" stroke-width="0.24" fill-opacity="0" />
  <path d="M613.3657,402.7015 L613.3657,372.6396 L613.9326,372.6396 L613.9326,402.7015" stroke="#000000" stroke-width="0.24" fill-opacity="0" />
  <path d="M598.846,375.9968 L584.7261,379.1991 L584.6098,379.2255" stroke="#000000" stroke-width="0.24" fill-opacity="0" />
  <path d="M526.8145,402.7015 L526.8145,392.3974 L526.2476,392.3974 L526.2476,402.7015" stroke="#000000" stroke-width="0.24" fill-opacity="0" />
  <path d="M642.972,402.7015 L642.972,379.2255 L642.4051,379.2255 L642.4051,402.7015" stroke="#000000" stroke-width="0.24" fill-opacity="0" />
  <path d="M744.3263,402.3553 L744.3263,402.2763 L730.0901,399.0476" stroke="#000000" stroke-width="0.24" fill-opacity="0" />
  <path d="M715.5704,402.7015 L715.5704,395.6904 L715.0035,395.6904 L715.0035,402.7015" stroke="#000000" stroke-width="0.24" fill-opacity="0" />
  <path d="M642.6885,379.2255 L642.5722,379.1991 L628.4523,375.9968" stroke="#000000" stroke-width="0.24" fill-opacity="0" />
  <path d="M672.0114,402.7015 L672.0114,385.8114 L671.4445,385.8114 L671.4445,402.7015" stroke="#000000" stroke-width="0.24" fill-opacity="0" />
  <path d="M584.8932,402.7015 L584.8932,379.2255 L584.3263,379.2255 L584.3263,402.7015" stroke="#000000" stroke-width="0.24" fill-opacity="0" />
  <path d="M570.3735,402.7015 L570.3735,382.5185 L569.8066,382.5185 L569.8066,402.7015" stroke="#000000" stroke-width="0.24" fill-opacity="0" />
  <path d="M701.0507,402.7015 L701.0507,392.3974 L700.4838,392.3974 L700.4838,402.7015" stroke="#000000" stroke-width="0.24" fill-opacity="0" />
  <path d="M628.4523,402.7015 L628.4523,375.9325 L627.8854,375.9325 L627.8854,402.7015" stroke="#000000" stroke-width="0.24" fill-opacity="0" />
  <path d="M512.2948,402.7015 L512.2948,402.2763 L512.2948,395.6904 L511.7279,395.6904 L511.7279,402.2763 L511.7279,402.7015" stroke="#000000" stroke-width="0.24" fill-opacity="0" />
  <path d="M599.413,402.7015 L599.413,375.9325 L598.846,375.9325 L598.846,402.7015" stroke="#000000" stroke-width="0.24" fill-opacity="0" />
  <path d="M81.81028,503.9567 L1087.947,503.9567 L1087.947,501.122 L81.81028,501.122 z" stroke="#000000" stroke-width="0.24" fill-opacity="0" />
  <path d="M642.972,379.3687 L656.9247,382.5331" stroke="#000000" stroke-width="0.24" fill-opacity="0" />
  <path d="M500.5468,501.122 L500.5468,499.1378" stroke="#000000" stroke-width="0.24" fill-opacity="0" />
  <path d="M717.2555,429.9724 L717.2555,496.3031" stroke="#000000" stroke-width="0.24" fill-opacity="0" />
  <path d="M715.5704,395.8336 L729.5232,398.998" stroke="#000000" stroke-width="0.24" fill-opacity="0" />
  <path d="M511.7279,395.8336 L497.7752,398.998" stroke="#000000" stroke-width="0.24" fill-opacity="0" />
  <path d="M730.0901,399.2522 L744.0494,402.4181" stroke="#000000" stroke-width="0.24" fill-opacity="0" />
  <path d="M555.287,386.0803 L541.3342,389.2447" stroke="#000000" stroke-width="0.24" fill-opacity="0" />
  <path d="M613.3657,372.7039 L599.1295,375.9326" stroke="#000000" stroke-width="0.24" fill-opacity="0" />
  <path d="M582.6098,430.8228 L607.5547,430.8228" stroke="#000000" stroke-width="0.24" fill-opacity="0" />
  <path d="M642.972,379.4944 L656.9247,382.6588" stroke="#000000" stroke-width="0.24" fill-opacity="0" />
  <path d="M497.2082,399.2522 L483.249,402.4181" stroke="#000000" stroke-width="0.24" fill-opacity="0" />
  <path d="M584.3264,379.3687 L570.3736,382.5331" stroke="#000000" stroke-width="0.24" fill-opacity="0" />
  <path d="M526.2476,392.4617 L512.0114,395.6904" stroke="#000000" stroke-width="0.24" fill-opacity="0" />
  <path d="M509.646,428.2716 L609.0854,428.2716" stroke="#000000" stroke-width="0.24" fill-opacity="0" />
  <path d="M715.0035,396.1141 L701.0508,392.9497" stroke="#000000" stroke-width="0.24" fill-opacity="0" />
  <path d="M608.4051,496.3031 L608.4051,429.9724" stroke="#000000" stroke-width="0.24" fill-opacity="0" />
  <path d="M618.8932,496.3031 L618.8932,429.9724" stroke="#000000" stroke-width="0.24" fill-opacity="0" />
  <path d="M744.0494,402.4181 L744.0494,402.7015" stroke="#000000" stroke-width="0.24" fill-opacity="0" />
  <path d="M599.413,376.3563 L613.3657,373.1919" stroke="#000000" stroke-width="0.24" fill-opacity="0" />
  <path d="M613.9326,372.9084 L627.8854,376.0728" stroke="#000000" stroke-width="0.24" fill-opacity="0" />
  <path d="M657.2083,382.5185 L642.972,379.2898" stroke="#000000" stroke-width="0.24" fill-opacity="0" />
  <path d="M744.0494,402.7015 L730.0901,399.5357" stroke="#000000" stroke-width="0.24" fill-opacity="0" />
  <path d="M581.7594,496.3031 L581.7594,429.9724" stroke="#000000" stroke-width="0.24" fill-opacity="0" />
  <path d="M607.5547,495.4527 L582.6098,495.4527" stroke="#000000" stroke-width="0.24" fill-opacity="0" />
  <path d="M608.4051,429.9724 L608.4051,496.3031" stroke="#000000" stroke-width="0.24" fill-opacity="0" />
  <path d="M618.8932,429.9724 L717.2555,429.9724" stroke="#000000" stroke-width="0.24" fill-opacity="0" />
  <path d="M726.7515,501.122 L726.7515,499.1378" stroke="#000000" stroke-width="0.24" fill-opacity="0" />
  <path d="M500.5468,501.122 L726.7515,501.122" stroke="#000000" stroke-width="0.24" fill-opacity="0" />
  <path d="M598.846,376.2014 L584.8932,379.3658" stroke="#000000" stroke-width="0.24" fill-opacity="0" />
  <path d="M541.3342,389.5282 L555.287,386.3638" stroke="#000000" stroke-width="0.24" fill-opacity="0" />
  <path d="M715.5704,395.9592 L729.5232,399.1236" stroke="#000000" stroke-width="0.24" fill-opacity="0" />
  <path d="M717.2555,496.5866 L509.9295,496.5866" stroke="#000000" stroke-width="0.24" fill-opacity="0" />
  <path d="M584.3264,379.2898 L570.0901,382.5185" stroke="#000000" stroke-width="0.24" fill-opacity="0" />
  <path d="M628.4523,376.0757 L642.4051,379.2401" stroke="#000000" stroke-width="0.24" fill-opacity="0" />
  <path d="M607.5547,430.8228 L607.5547,495.4527" stroke="#000000" stroke-width="0.24" fill-opacity="0" />
  <path d="M672.0114,385.9547 L685.9642,389.1191" stroke="#000000" stroke-width="0.24" fill-opacity="0" />
  <path d="M628.4523,376.2014 L642.4051,379.3658" stroke="#000000" stroke-width="0.24" fill-opacity="0" />
  <path d="M482.6951,402.7015 L483.249,402.7015" stroke="#000000" stroke-width="0.24" fill-opacity="0" />
  <path d="M540.7673,389.1687 L526.5311,392.3974" stroke="#000000" stroke-width="0.24" fill-opacity="0" />
  <path d="M540.7673,389.2477 L526.8145,392.412" stroke="#000000" stroke-width="0.24" fill-opacity="0" />
  <path d="M686.5311,389.2477 L700.4838,392.412" stroke="#000000" stroke-width="0.24" fill-opacity="0" />
  <path d="M744.0494,402.7015 L744.6033,402.7015" stroke="#000000" stroke-width="0.24" fill-opacity="0" />
  <path d="M540.7673,389.3733 L526.8145,392.5377" stroke="#000000" stroke-width="0.24" fill-opacity="0" />
  <path d="M686.5311,389.3733 L700.4838,392.5377" stroke="#000000" stroke-width="0.24" fill-opacity="0" />
  <path d="M569.8066,382.6617 L555.8539,385.8261" stroke="#000000" stroke-width="0.24" fill-opacity="0" />
  <path d="M701.0508,392.6663 L715.0035,395.8307" stroke="#000000" stroke-width="0.24" fill-opacity="0" />
  <path d="M497.2082,399.0477 L482.972,402.2763" stroke="#000000" stroke-width="0.24" fill-opacity="0" />
  <path d="M555.8539,386.2352 L569.8066,383.0708" stroke="#000000" stroke-width="0.24" fill-opacity="0" />
  <path d="M555.287,385.9547 L541.3342,389.1191" stroke="#000000" stroke-width="0.24" fill-opacity="0" />
  <path d="M511.7279,395.9592 L497.7752,399.1236 L511.7279,396.2427" stroke="#000000" stroke-width="0.24" fill-opacity="0" />
  <path d="M482.6951,402.4181 L482.6951,402.7015" stroke="#000000" stroke-width="0.24" fill-opacity="0" />
  <path d="M613.3657,372.9084 L599.413,376.0728" stroke="#000000" stroke-width="0.24" fill-opacity="0" />
  <path d="M497.2082,399.1266 L482.6951,402.4181" stroke="#000000" stroke-width="0.24" fill-opacity="0" />
  <path d="M730.0901,399.1266 L744.6033,402.4181" stroke="#000000" stroke-width="0.24" fill-opacity="0" />
  <path d="M627.8854,376.3563 L613.9326,373.1919" stroke="#000000" stroke-width="0.24" fill-opacity="0" />
  <path d="M729.5232,399.4071 L715.5704,396.2427" stroke="#000000" stroke-width="0.24" fill-opacity="0" />
  <path d="M569.8066,382.7873 L555.8539,385.9517" stroke="#000000" stroke-width="0.24" fill-opacity="0" />
  <path d="M744.6033,402.4181 L744.0494,402.4181" stroke="#000000" stroke-width="0.24" fill-opacity="0" />
  <path d="M717.5389,428.2716 L618.0429,428.2716" stroke="#000000" stroke-width="0.24" fill-opacity="0" />
  <path d="M656.9247,382.9422 L642.972,379.7778" stroke="#000000" stroke-width="0.24" fill-opacity="0" />
  <path d="M570.3736,382.9422 L584.3264,379.7778" stroke="#000000" stroke-width="0.24" fill-opacity="0" />
  <path d="M717.5389,428.1299 L618.0429,428.1299" stroke="#000000" stroke-width="0.24" fill-opacity="0" />
  <path d="M700.7673,392.3974 L686.5311,389.1687" stroke="#000000" stroke-width="0.24" fill-opacity="0" />
  <path d="M509.646,428.1299 L609.0854,428.1299" stroke="#000000" stroke-width="0.24" fill-opacity="0" />
  <path d="M526.8145,392.8211 L540.7673,389.6567" stroke="#000000" stroke-width="0.24" fill-opacity="0" />
  <path d="M700.4838,392.8211 L686.5311,389.6567" stroke="#000000" stroke-width="0.24" fill-opacity="0" />
  <path d="M686.2476,389.1044 L672.0114,385.8758" stroke="#000000" stroke-width="0.24" fill-opacity="0" />
  <path d="M657.4917,382.7873 L671.4445,385.9517" stroke="#000000" stroke-width="0.24" fill-opacity="0" />
  <path d="M512.2949,396.1141 L526.2476,392.9497" stroke="#000000" stroke-width="0.24" fill-opacity="0" />
  <path d="M510.0429,429.9724 L510.0429,496.3031" stroke="#000000" stroke-width="0.24" fill-opacity="0" />
  <path d="M715.287,395.6904 L701.0508,392.4617" stroke="#000000" stroke-width="0.24" fill-opacity="0" />
  <path d="M613.3657,372.7828 L599.413,375.9472" stroke="#000000" stroke-width="0.24" fill-opacity="0" />
  <path d="M483.249,402.4181 L483.249,402.7015" stroke="#000000" stroke-width="0.24" fill-opacity="0" />
  <path d="M555.287,385.8758 L541.0508,389.1044" stroke="#000000" stroke-width="0.24" fill-opacity="0" />
  <path d="M526.2476,392.5406 L512.2949,395.705" stroke="#000000" stroke-width="0.24" fill-opacity="0" />
  <path d="M642.4051,379.6492 L628.4523,376.4848" stroke="#000000" stroke-width="0.24" fill-opacity="0" />
  <path d="M613.9326,372.7828 L627.8854,375.9472" stroke="#000000" stroke-width="0.24" fill-opacity="0" />
  <path d="M483.249,402.7015 L497.2082,399.5357" stroke="#000000" stroke-width="0.24" fill-opacity="0" />
  <path d="M526.2476,392.6663 L512.2949,395.8307" stroke="#000000" stroke-width="0.24" fill-opacity="0" />
  <path d="M580.0587,496.3031 L580.0587,429.9724" stroke="#000000" stroke-width="0.24" fill-opacity="0" />
  <path d="M744.6033,402.4181 L744.6033,402.7015" stroke="#000000" stroke-width="0.24" fill-opacity="0" />
  <path d="M509.9295,496.3031 L717.2555,496.3031" stroke="#000000" stroke-width="0.24" fill-opacity="0" />
  <path d="M608.4051,429.9724 L510.0429,429.9724" stroke="#000000" stroke-width="0.24" fill-opacity="0" />
  <path d="M582.6098,495.4527 L582.6098,430.8228" stroke="#000000" stroke-width="0.24" fill-opacity="0" />
  <path d="M511.7279,395.7547 L497.4917,398.9834" stroke="#000000" stroke-width="0.24" fill-opacity="0" />
  <path d="M729.8066,398.9834 L715.5704,395.7547" stroke="#000000" stroke-width="0.24" fill-opacity="0" />
  <path d="M671.7279,385.8115 L657.4917,382.5828" stroke="#000000" stroke-width="0.24" fill-opacity="0" />
  <path d="M569.8066,382.5828 L555.5704,385.8115" stroke="#000000" stroke-width="0.24" fill-opacity="0" />
  <path d="M657.4917,382.6617 L671.4445,385.8261" stroke="#000000" stroke-width="0.24" fill-opacity="0" />
  <path d="M584.3264,379.4944 L570.3736,382.6588" stroke="#000000" stroke-width="0.24" fill-opacity="0" />
  <path d="M482.972,402.2763 z" stroke="#000000" stroke-width="0.24" fill-opacity="0" />
  <path d="M701.0508,392.5406 L715.0035,395.705" stroke="#000000" stroke-width="0.24" fill-opacity="0" />
  <path d="M685.9642,389.5282 L672.0114,386.3638" stroke="#000000" stroke-width="0.24" fill-opacity="0" />
  <path d="M671.4445,386.2352 L657.4917,383.0708" stroke="#000000" stroke-width="0.24" fill-opacity="0" />
  <path d="M584.8932,379.6492 L598.846,376.4848 L584.8932,379.2401" stroke="#000000" stroke-width="0.24" fill-opacity="0" />
  <path d="M672.0114,386.0803 L685.9642,389.2447" stroke="#000000" stroke-width="0.24" fill-opacity="0" />
  <path d="M483.249,402.4181 L482.6951,402.4181" stroke="#000000" stroke-width="0.24" fill-opacity="0" />
  <path d="M628.1689,375.9326 L613.9496,372.7077" stroke="#000000" stroke-width="0.24" fill-opacity="0" />
  <path d="M691.1768,425.437 L691.1768,411.2637" stroke="#D2D2D2" stroke-width="0.24" fill-opacity="0" />
  <path d="M707.6177,425.437 L707.6177,411.2637" stroke="#D2D2D2" stroke-width="0.24" fill-opacity="0" />
  <path d="M720.3169,499.1378 L720.3169,411.2637" stroke="#D2D2D2" stroke-width="0.24" fill-opacity="0" />
  <path d="M718.3893,425.437 L718.3893,411.2637" stroke="#D2D2D2" stroke-width="0.24" fill-opacity="0" />
  <path d="M693.1043,425.437 L693.1043,411.2637" stroke="#D2D2D2" stroke-width="0.24" fill-opacity="0" />
  <path d="M633.2366,425.437 L633.2366,411.2637" stroke="#D2D2D2" stroke-width="0.24" fill-opacity="0" />
  <path d="M687.6618,425.437 L687.6618,411.2637" stroke="#D2D2D2" stroke-width="0.24" fill-opacity="0" />
  <path d="M678.5909,425.437 L678.5909,411.2637" stroke="#D2D2D2" stroke-width="0.24" fill-opacity="0" />
  <path d="M611.4665,425.437 L611.4665,411.2637" stroke="#D2D2D2" stroke-width="0.24" fill-opacity="0" />
  <path d="M620.5374,425.437 L620.5374,411.2637" stroke="#D2D2D2" stroke-width="0.24" fill-opacity="0" />
  <path d="M722.0177,499.1378 L722.0177,411.2637" stroke="#D2D2D2" stroke-width="0.24" fill-opacity="0" />
  <path d="M676.6633,425.437 L676.6633,411.2637" stroke="#D2D2D2" stroke-width="0.24" fill-opacity="0" />
  <path d="M587.8823,425.437 L587.8823,411.2637" stroke="#D2D2D2" stroke-width="0.24" fill-opacity="0" />
  <path d="M602.2822,425.437 L602.2822,411.2637" stroke="#D2D2D2" stroke-width="0.24" fill-opacity="0" />
  <path d="M664.0775,425.437 L664.0775,411.2637" stroke="#D2D2D2" stroke-width="0.24" fill-opacity="0" />
  <path d="M562.4838,425.437 L562.4838,411.2637" stroke="#D2D2D2" stroke-width="0.24" fill-opacity="0" />
  <path d="M553.2996,425.437 L553.2996,411.2637" stroke="#D2D2D2" stroke-width="0.24" fill-opacity="0" />
  <path d="M644.0082,425.437 L644.0082,411.2637" stroke="#D2D2D2" stroke-width="0.24" fill-opacity="0" />
  <path d="M671.3342,425.437 L671.3342,411.2637" stroke="#D2D2D2" stroke-width="0.24" fill-opacity="0" />
  <path d="M529.7153,425.437 L529.7153,411.2637" stroke="#D2D2D2" stroke-width="0.24" fill-opacity="0" />
  <path d="M538.8996,425.437 L538.8996,411.2637" stroke="#D2D2D2" stroke-width="0.24" fill-opacity="0" />
  <path d="M576.8839,425.437 L576.8839,411.2637" stroke="#D2D2D2" stroke-width="0.24" fill-opacity="0" />
  <path d="M509.7594,425.437 L509.7594,411.2637" stroke="#D2D2D2" stroke-width="0.24" fill-opacity="0" />
  <path d="M515.202,425.437 L515.202,411.2637" stroke="#D2D2D2" stroke-width="0.24" fill-opacity="0" />
  <path d="M575.0696,425.437 L575.0696,411.2637" stroke="#D2D2D2" stroke-width="0.24" fill-opacity="0" />
  <path d="M616.3421,496.3031 L616.3421,425.437" stroke="#D2D2D2" stroke-width="0.24" fill-opacity="0" />
  <path d="M567.813,425.437 L567.813,411.2637" stroke="#D2D2D2" stroke-width="0.24" fill-opacity="0" />
  <path d="M716.5751,425.437 L716.5751,411.2637" stroke="#D2D2D2" stroke-width="0.24" fill-opacity="0" />
  <path d="M522.4586,425.437 L522.4586,411.2637" stroke="#D2D2D2" stroke-width="0.24" fill-opacity="0" />
  <path d="M569.7405,425.437 L569.7405,411.2637" stroke="#D2D2D2" stroke-width="0.24" fill-opacity="0" />
  <path d="M540.6003,425.437 L540.6003,411.2637" stroke="#D2D2D2" stroke-width="0.24" fill-opacity="0" />
  <path d="M538.7862,425.437 L538.7862,411.2637" stroke="#D2D2D2" stroke-width="0.24" fill-opacity="0" />
  <path d="M658.5216,425.437 L658.5216,411.2637" stroke="#D2D2D2" stroke-width="0.24" fill-opacity="0" />
  <path d="M566.1122,425.437 L566.1122,411.2637" stroke="#D2D2D2" stroke-width="0.24" fill-opacity="0" />
  <path d="M520.6445,425.437 L520.6445,411.2637" stroke="#D2D2D2" stroke-width="0.24" fill-opacity="0" />
  <path d="M551.4854,425.437 L551.4854,411.2637" stroke="#D2D2D2" stroke-width="0.24" fill-opacity="0" />
  <path d="M665.8917,425.437 L665.8917,411.2637" stroke="#D2D2D2" stroke-width="0.24" fill-opacity="0" />
  <path d="M589.6964,425.437 L589.6964,411.2637" stroke="#D2D2D2" stroke-width="0.24" fill-opacity="0" />
  <path d="M529.8287,425.437 L529.8287,411.2637" stroke="#D2D2D2" stroke-width="0.24" fill-opacity="0" />
  <path d="M564.298,425.437 L564.298,411.2637" stroke="#D2D2D2" stroke-width="0.24" fill-opacity="0" />
  <path d="M604.0964,425.437 L604.0964,411.2637" stroke="#D2D2D2" stroke-width="0.24" fill-opacity="0" />
  <path d="M640.4933,425.437 L640.4933,411.2637" stroke="#D2D2D2" stroke-width="0.24" fill-opacity="0" />
  <path d="M602.3956,425.437 L602.3956,411.2637" stroke="#D2D2D2" stroke-width="0.24" fill-opacity="0" />
  <path d="M627.6807,425.437 L627.6807,411.2637" stroke="#D2D2D2" stroke-width="0.24" fill-opacity="0" />
  <path d="M636.7515,425.437 L636.7515,411.2637" stroke="#D2D2D2" stroke-width="0.24" fill-opacity="0" />
  <path d="M624.1657,425.437 L624.1657,411.2637" stroke="#D2D2D2" stroke-width="0.24" fill-opacity="0" />
  <path d="M671.2208,425.437 L671.2208,411.2637" stroke="#D2D2D2" stroke-width="0.24" fill-opacity="0" />
  <path d="M604.2098,425.437 L604.2098,411.2637" stroke="#D2D2D2" stroke-width="0.24" fill-opacity="0" />
  <path d="M578.8114,425.437 L578.8114,411.2637" stroke="#D2D2D2" stroke-width="0.24" fill-opacity="0" />
  <path d="M685.8476,425.437 L685.8476,411.2637" stroke="#D2D2D2" stroke-width="0.24" fill-opacity="0" />
  <path d="M578.698,425.437 L578.698,411.2637" stroke="#D2D2D2" stroke-width="0.24" fill-opacity="0" />
  <path d="M645.8224,425.437 L645.8224,411.2637" stroke="#D2D2D2" stroke-width="0.24" fill-opacity="0" />
  <path d="M714.761,425.437 L714.761,411.2637" stroke="#D2D2D2" stroke-width="0.24" fill-opacity="0" />
  <path d="M586.0681,425.437 L586.0681,411.2637" stroke="#D2D2D2" stroke-width="0.24" fill-opacity="0" />
  <path d="M511.687,425.437 L511.687,411.2637" stroke="#D2D2D2" stroke-width="0.24" fill-opacity="0" />
  <path d="M505.2807,499.1378 L505.2807,411.2637" stroke="#D2D2D2" stroke-width="0.24" fill-opacity="0" />
  <path d="M518.8303,425.437 L518.8303,411.2637" stroke="#D2D2D2" stroke-width="0.24" fill-opacity="0" />
  <path d="M536.972,425.437 L536.972,411.2637" stroke="#D2D2D2" stroke-width="0.24" fill-opacity="0" />
  <path d="M569.6271,425.437 L569.6271,411.2637" stroke="#D2D2D2" stroke-width="0.24" fill-opacity="0" />
  <path d="M698.4334,425.437 L698.4334,411.2637" stroke="#D2D2D2" stroke-width="0.24" fill-opacity="0" />
  <path d="M725.7594,499.1378 L725.7594,411.2637" stroke="#D2D2D2" stroke-width="0.24" fill-opacity="0" />
  <path d="M638.6791,425.437 L638.6791,411.2637" stroke="#D2D2D2" stroke-width="0.24" fill-opacity="0" />
  <path d="M722.131,499.1378 L722.131,411.2637" stroke="#D2D2D2" stroke-width="0.24" fill-opacity="0" />
  <path d="M584.1405,425.437 L584.1405,411.2637" stroke="#D2D2D2" stroke-width="0.24" fill-opacity="0" />
  <path d="M680.2917,425.437 L680.2917,411.2637" stroke="#D2D2D2" stroke-width="0.24" fill-opacity="0" />
  <path d="M600.4681,425.437 L600.4681,411.2637" stroke="#D2D2D2" stroke-width="0.24" fill-opacity="0" />
  <path d="M598.7673,425.437 L598.7673,411.2637" stroke="#D2D2D2" stroke-width="0.24" fill-opacity="0" />
  <path d="M669.52,425.437 L669.52,411.2637" stroke="#D2D2D2" stroke-width="0.24" fill-opacity="0" />
  <path d="M698.5468,425.437 L698.5468,411.2637" stroke="#D2D2D2" stroke-width="0.24" fill-opacity="0" />
  <path d="M691.2901,425.437 L691.2901,411.2637" stroke="#D2D2D2" stroke-width="0.24" fill-opacity="0" />
  <path d="M683.92,425.437 L683.92,411.2637" stroke="#D2D2D2" stroke-width="0.24" fill-opacity="0" />
  <path d="M674.9626,425.437 L674.9626,411.2637" stroke="#D2D2D2" stroke-width="0.24" fill-opacity="0" />
  <path d="M616.909,425.437 L616.909,411.2637" stroke="#D2D2D2" stroke-width="0.24" fill-opacity="0" />
  <path d="M555.1138,425.437 L555.1138,411.2637" stroke="#D2D2D2" stroke-width="0.24" fill-opacity="0" />
  <path d="M560.6697,425.437 L560.6697,411.2637" stroke="#D2D2D2" stroke-width="0.24" fill-opacity="0" />
  <path d="M656.8209,425.437 L656.8209,411.2637" stroke="#D2D2D2" stroke-width="0.24" fill-opacity="0" />
  <path d="M527.9011,425.437 L527.9011,411.2637" stroke="#D2D2D2" stroke-width="0.24" fill-opacity="0" />
  <path d="M654.8932,425.437 L654.8932,411.2637" stroke="#D2D2D2" stroke-width="0.24" fill-opacity="0" />
  <path d="M540.7137,425.437 L540.7137,411.2637" stroke="#D2D2D2" stroke-width="0.24" fill-opacity="0" />
  <path d="M524.3862,425.437 L524.3862,411.2637" stroke="#D2D2D2" stroke-width="0.24" fill-opacity="0" />
  <path d="M524.2728,425.437 L524.2728,411.2637" stroke="#D2D2D2" stroke-width="0.24" fill-opacity="0" />
  <path d="M503.4665,499.1378 L503.4665,411.2637" stroke="#D2D2D2" stroke-width="0.24" fill-opacity="0" />
  <path d="M517.0161,425.437 L517.0161,411.2637" stroke="#D2D2D2" stroke-width="0.24" fill-opacity="0" />
  <path d="M503.3531,499.1378 L503.3531,411.2637" stroke="#D2D2D2" stroke-width="0.24" fill-opacity="0" />
  <path d="M501.6523,499.1378 L501.6523,411.2637" stroke="#D2D2D2" stroke-width="0.24" fill-opacity="0" />
  <path d="M718.5027,425.437 L718.5027,411.2637" stroke="#D2D2D2" stroke-width="0.24" fill-opacity="0" />
  <path d="M614.5279,496.3031 L614.5279,425.437" stroke="#D2D2D2" stroke-width="0.24" fill-opacity="0" />
  <path d="M612.7137,496.3031 L612.7137,425.437" stroke="#D2D2D2" stroke-width="0.24" fill-opacity="0" />
  <path d="M653.1925,425.437 L653.1925,411.2637" stroke="#D2D2D2" stroke-width="0.24" fill-opacity="0" />
  <path d="M612.6003,496.3031 L612.6003,425.437" stroke="#D2D2D2" stroke-width="0.24" fill-opacity="0" />
  <path d="M714.8744,425.437 L714.8744,411.2637" stroke="#D2D2D2" stroke-width="0.24" fill-opacity="0" />
  <path d="M658.635,425.437 L658.635,411.2637" stroke="#D2D2D2" stroke-width="0.24" fill-opacity="0" />
  <path d="M716.6885,425.437 L716.6885,411.2637" stroke="#D2D2D2" stroke-width="0.24" fill-opacity="0" />
  <path d="M694.9185,425.437 L694.9185,411.2637" stroke="#D2D2D2" stroke-width="0.24" fill-opacity="0" />
  <path d="M636.8649,425.437 L636.8649,411.2637" stroke="#D2D2D2" stroke-width="0.24" fill-opacity="0" />
  <path d="M684.0334,425.437 L684.0334,411.2637" stroke="#D2D2D2" stroke-width="0.24" fill-opacity="0" />
  <path d="M624.0523,425.437 L624.0523,411.2637" stroke="#D2D2D2" stroke-width="0.24" fill-opacity="0" />
  <path d="M682.1059,425.437 L682.1059,411.2637" stroke="#D2D2D2" stroke-width="0.24" fill-opacity="0" />
  <path d="M613.1673,425.437 L613.1673,411.2637" stroke="#D2D2D2" stroke-width="0.24" fill-opacity="0" />
  <path d="M673.035,425.437 L673.035,411.2637" stroke="#D2D2D2" stroke-width="0.24" fill-opacity="0" />
  <path d="M613.2807,425.437 L613.2807,411.2637" stroke="#D2D2D2" stroke-width="0.24" fill-opacity="0" />
  <path d="M580.6255,425.437 L580.6255,411.2637" stroke="#D2D2D2" stroke-width="0.24" fill-opacity="0" />
  <path d="M660.4492,425.437 L660.4492,411.2637" stroke="#D2D2D2" stroke-width="0.24" fill-opacity="0" />
  <path d="M544.3421,425.437 L544.3421,411.2637" stroke="#D2D2D2" stroke-width="0.24" fill-opacity="0" />
  <path d="M582.3264,425.437 L582.3264,411.2637" stroke="#D2D2D2" stroke-width="0.24" fill-opacity="0" />
  <path d="M622.2382,425.437 L622.2382,411.2637" stroke="#D2D2D2" stroke-width="0.24" fill-opacity="0" />
  <path d="M556.9279,425.437 L556.9279,411.2637" stroke="#D2D2D2" stroke-width="0.24" fill-opacity="0" />
  <path d="M573.2555,425.437 L573.2555,411.2637" stroke="#D2D2D2" stroke-width="0.24" fill-opacity="0" />
  <path d="M567.9263,425.437 L567.9263,411.2637" stroke="#D2D2D2" stroke-width="0.24" fill-opacity="0" />
  <path d="M573.3688,425.437 L573.3688,411.2637" stroke="#D2D2D2" stroke-width="0.24" fill-opacity="0" />
  <path d="M555.2271,425.437 L555.2271,411.2637" stroke="#D2D2D2" stroke-width="0.24" fill-opacity="0" />
  <path d="M533.3437,425.437 L533.3437,411.2637" stroke="#D2D2D2" stroke-width="0.24" fill-opacity="0" />
  <path d="M508.7957,499.1378 L508.7957,411.2637" stroke="#D2D2D2" stroke-width="0.24" fill-opacity="0" />
  <path d="M526.2004,425.437 L526.2004,411.2637" stroke="#D2D2D2" stroke-width="0.24" fill-opacity="0" />
  <path d="M518.9437,425.437 L518.9437,411.2637" stroke="#D2D2D2" stroke-width="0.24" fill-opacity="0" />
  <path d="M513.3878,425.437 L513.3878,411.2637" stroke="#D2D2D2" stroke-width="0.24" fill-opacity="0" />
  <path d="M547.8571,425.437 L547.8571,411.2637" stroke="#D2D2D2" stroke-width="0.24" fill-opacity="0" />
  <path d="M558.7421,425.437 L558.7421,411.2637" stroke="#D2D2D2" stroke-width="0.24" fill-opacity="0" />
  <path d="M662.2634,425.437 L662.2634,411.2637" stroke="#D2D2D2" stroke-width="0.24" fill-opacity="0" />
  <path d="M669.4067,425.437 L669.4067,411.2637" stroke="#D2D2D2" stroke-width="0.24" fill-opacity="0" />
  <path d="M587.7689,425.437 L587.7689,411.2637" stroke="#D2D2D2" stroke-width="0.24" fill-opacity="0" />
  <path d="M584.2539,425.437 L584.2539,411.2637" stroke="#D2D2D2" stroke-width="0.24" fill-opacity="0" />
  <path d="M676.7767,425.437 L676.7767,411.2637" stroke="#D2D2D2" stroke-width="0.24" fill-opacity="0" />
  <path d="M667.7059,425.437 L667.7059,411.2637" stroke="#D2D2D2" stroke-width="0.24" fill-opacity="0" />
  <path d="M606.024,425.437 L606.024,411.2637" stroke="#D2D2D2" stroke-width="0.24" fill-opacity="0" />
  <path d="M615.0948,425.437 L615.0948,411.2637" stroke="#D2D2D2" stroke-width="0.24" fill-opacity="0" />
  <path d="M687.5484,425.437 L687.5484,411.2637" stroke="#D2D2D2" stroke-width="0.24" fill-opacity="0" />
  <path d="M629.4949,425.437 L629.4949,411.2637" stroke="#D2D2D2" stroke-width="0.24" fill-opacity="0" />
  <path d="M685.7342,425.437 L685.7342,411.2637" stroke="#D2D2D2" stroke-width="0.24" fill-opacity="0" />
  <path d="M640.3799,425.437 L640.3799,411.2637" stroke="#D2D2D2" stroke-width="0.24" fill-opacity="0" />
  <path d="M531.6429,425.437 L531.6429,411.2637" stroke="#D2D2D2" stroke-width="0.24" fill-opacity="0" />
  <path d="M551.5988,425.437 L551.5988,411.2637" stroke="#D2D2D2" stroke-width="0.24" fill-opacity="0" />
  <path d="M656.7075,425.437 L656.7075,411.2637" stroke="#D2D2D2" stroke-width="0.24" fill-opacity="0" />
  <path d="M614.4146,496.3031 L614.4146,425.437" stroke="#D2D2D2" stroke-width="0.24" fill-opacity="0" />
  <path d="M700.361,425.437 L700.361,411.2637" stroke="#D2D2D2" stroke-width="0.24" fill-opacity="0" />
  <path d="M709.4319,425.437 L709.4319,411.2637" stroke="#D2D2D2" stroke-width="0.24" fill-opacity="0" />
  <path d="M546.1563,425.437 L546.1563,411.2637" stroke="#D2D2D2" stroke-width="0.24" fill-opacity="0" />
  <path d="M655.0067,425.437 L655.0067,411.2637" stroke="#D2D2D2" stroke-width="0.24" fill-opacity="0" />
  <path d="M520.7579,425.437 L520.7579,411.2637" stroke="#D2D2D2" stroke-width="0.24" fill-opacity="0" />
  <path d="M711.246,425.437 L711.246,411.2637" stroke="#D2D2D2" stroke-width="0.24" fill-opacity="0" />
  <path d="M616.2287,496.3031 L616.2287,425.437" stroke="#D2D2D2" stroke-width="0.24" fill-opacity="0" />
  <path d="M522.572,425.437 L522.572,411.2637" stroke="#D2D2D2" stroke-width="0.24" fill-opacity="0" />
  <path d="M610.8996,496.3031 L610.8996,425.437" stroke="#D2D2D2" stroke-width="0.24" fill-opacity="0" />
  <path d="M610.7862,496.3031 L610.7862,425.437" stroke="#D2D2D2" stroke-width="0.24" fill-opacity="0" />
  <path d="M501.5389,499.1378 L501.5389,411.2637" stroke="#D2D2D2" stroke-width="0.24" fill-opacity="0" />
  <path d="M508.909,425.437 L508.909,411.2637" stroke="#D2D2D2" stroke-width="0.24" fill-opacity="0" />
  <path d="M507.0948,499.1378 L507.0948,411.2637" stroke="#D2D2D2" stroke-width="0.24" fill-opacity="0" />
  <path d="M506.9815,499.1378 L506.9815,411.2637" stroke="#D2D2D2" stroke-width="0.24" fill-opacity="0" />
  <path d="M509.8728,425.437 L509.8728,411.2637" stroke="#D2D2D2" stroke-width="0.24" fill-opacity="0" />
  <path d="M515.3153,425.437 L515.3153,411.2637" stroke="#D2D2D2" stroke-width="0.24" fill-opacity="0" />
  <path d="M542.5279,425.437 L542.5279,411.2637" stroke="#D2D2D2" stroke-width="0.24" fill-opacity="0" />
  <path d="M533.457,425.437 L533.457,411.2637" stroke="#D2D2D2" stroke-width="0.24" fill-opacity="0" />
  <path d="M542.4146,425.437 L542.4146,411.2637" stroke="#D2D2D2" stroke-width="0.24" fill-opacity="0" />
  <path d="M575.183,425.437 L575.183,411.2637" stroke="#D2D2D2" stroke-width="0.24" fill-opacity="0" />
  <path d="M571.5547,425.437 L571.5547,411.2637" stroke="#D2D2D2" stroke-width="0.24" fill-opacity="0" />
  <path d="M660.3358,425.437 L660.3358,411.2637" stroke="#D2D2D2" stroke-width="0.24" fill-opacity="0" />
  <path d="M526.087,425.437 L526.087,411.2637" stroke="#D2D2D2" stroke-width="0.24" fill-opacity="0" />
  <path d="M562.3704,425.437 L562.3704,411.2637" stroke="#D2D2D2" stroke-width="0.24" fill-opacity="0" />
  <path d="M557.0413,425.437 L557.0413,411.2637" stroke="#D2D2D2" stroke-width="0.24" fill-opacity="0" />
  <path d="M564.1846,425.437 L564.1846,411.2637" stroke="#D2D2D2" stroke-width="0.24" fill-opacity="0" />
  <path d="M549.7846,425.437 L549.7846,411.2637" stroke="#D2D2D2" stroke-width="0.24" fill-opacity="0" />
  <path d="M596.9531,425.437 L596.9531,411.2637" stroke="#D2D2D2" stroke-width="0.24" fill-opacity="0" />
  <path d="M596.8397,425.437 L596.8397,411.2637" stroke="#D2D2D2" stroke-width="0.24" fill-opacity="0" />
  <path d="M662.15,425.437 L662.15,411.2637" stroke="#D2D2D2" stroke-width="0.24" fill-opacity="0" />
  <path d="M565.9988,425.437 L565.9988,411.2637" stroke="#D2D2D2" stroke-width="0.24" fill-opacity="0" />
  <path d="M535.1578,425.437 L535.1578,411.2637" stroke="#D2D2D2" stroke-width="0.24" fill-opacity="0" />
  <path d="M547.9705,425.437 L547.9705,411.2637" stroke="#D2D2D2" stroke-width="0.24" fill-opacity="0" />
  <path d="M593.2114,425.437 L593.2114,411.2637" stroke="#D2D2D2" stroke-width="0.24" fill-opacity="0" />
  <path d="M585.9547,425.437 L585.9547,411.2637" stroke="#D2D2D2" stroke-width="0.24" fill-opacity="0" />
  <path d="M591.5106,425.437 L591.5106,411.2637" stroke="#D2D2D2" stroke-width="0.24" fill-opacity="0" />
  <path d="M618.6098,425.437 L618.6098,411.2637" stroke="#D2D2D2" stroke-width="0.24" fill-opacity="0" />
  <path d="M605.9106,425.437 L605.9106,411.2637" stroke="#D2D2D2" stroke-width="0.24" fill-opacity="0" />
  <path d="M600.5815,425.437 L600.5815,411.2637" stroke="#D2D2D2" stroke-width="0.24" fill-opacity="0" />
  <path d="M593.3248,425.437 L593.3248,411.2637" stroke="#D2D2D2" stroke-width="0.24" fill-opacity="0" />
  <path d="M607.7248,425.437 L607.7248,411.2637" stroke="#D2D2D2" stroke-width="0.24" fill-opacity="0" />
  <path d="M614.9814,425.437 L614.9814,411.2637" stroke="#D2D2D2" stroke-width="0.24" fill-opacity="0" />
  <path d="M678.4775,425.437 L678.4775,411.2637" stroke="#D2D2D2" stroke-width="0.24" fill-opacity="0" />
  <path d="M618.7232,425.437 L618.7232,411.2637" stroke="#D2D2D2" stroke-width="0.24" fill-opacity="0" />
  <path d="M625.8665,425.437 L625.8665,411.2637" stroke="#D2D2D2" stroke-width="0.24" fill-opacity="0" />
  <path d="M622.3516,425.437 L622.3516,411.2637" stroke="#D2D2D2" stroke-width="0.24" fill-opacity="0" />
  <path d="M609.6523,425.437 L609.6523,411.2637" stroke="#D2D2D2" stroke-width="0.24" fill-opacity="0" />
  <path d="M595.1389,425.437 L595.1389,411.2637" stroke="#D2D2D2" stroke-width="0.24" fill-opacity="0" />
  <path d="M633.1232,425.437 L633.1232,411.2637" stroke="#D2D2D2" stroke-width="0.24" fill-opacity="0" />
  <path d="M696.6193,425.437 L696.6193,411.2637" stroke="#D2D2D2" stroke-width="0.24" fill-opacity="0" />
  <path d="M631.4224,425.437 L631.4224,411.2637" stroke="#D2D2D2" stroke-width="0.24" fill-opacity="0" />
  <path d="M720.2035,499.1378 L720.2035,411.2637" stroke="#D2D2D2" stroke-width="0.24" fill-opacity="0" />
  <path d="M725.6461,499.1378 L725.6461,411.2637" stroke="#D2D2D2" stroke-width="0.24" fill-opacity="0" />
  <path d="M692.9909,425.437 L692.9909,411.2637" stroke="#D2D2D2" stroke-width="0.24" fill-opacity="0" />
  <path d="M629.6082,425.437 L629.6082,411.2637" stroke="#D2D2D2" stroke-width="0.24" fill-opacity="0" />
  <path d="M634.9374,425.437 L634.9374,411.2637" stroke="#D2D2D2" stroke-width="0.24" fill-opacity="0" />
  <path d="M517.1295,425.437 L517.1295,411.2637" stroke="#D2D2D2" stroke-width="0.24" fill-opacity="0" />
  <path d="M511.5736,425.437 L511.5736,411.2637" stroke="#D2D2D2" stroke-width="0.24" fill-opacity="0" />
  <path d="M505.1673,499.1378 L505.1673,411.2637" stroke="#D2D2D2" stroke-width="0.24" fill-opacity="0" />
  <path d="M591.3972,425.437 L591.3972,411.2637" stroke="#D2D2D2" stroke-width="0.24" fill-opacity="0" />
  <path d="M535.2712,425.437 L535.2712,411.2637" stroke="#D2D2D2" stroke-width="0.24" fill-opacity="0" />
  <path d="M528.0145,425.437 L528.0145,411.2637" stroke="#D2D2D2" stroke-width="0.24" fill-opacity="0" />
  <path d="M595.0256,425.437 L595.0256,411.2637" stroke="#D2D2D2" stroke-width="0.24" fill-opacity="0" />
  <path d="M598.6539,425.437 L598.6539,411.2637" stroke="#D2D2D2" stroke-width="0.24" fill-opacity="0" />
  <path d="M665.7783,425.437 L665.7783,411.2637" stroke="#D2D2D2" stroke-width="0.24" fill-opacity="0" />
  <path d="M723.9453,499.1378 L723.9453,411.2637" stroke="#D2D2D2" stroke-width="0.24" fill-opacity="0" />
  <path d="M689.3625,425.437 L689.3625,411.2637" stroke="#D2D2D2" stroke-width="0.24" fill-opacity="0" />
  <path d="M694.8051,425.437 L694.8051,411.2637" stroke="#D2D2D2" stroke-width="0.24" fill-opacity="0" />
  <path d="M680.4051,425.437 L680.4051,411.2637" stroke="#D2D2D2" stroke-width="0.24" fill-opacity="0" />
  <path d="M707.5043,425.437 L707.5043,411.2637" stroke="#D2D2D2" stroke-width="0.24" fill-opacity="0" />
  <path d="M653.0791,425.437 L653.0791,411.2637" stroke="#D2D2D2" stroke-width="0.24" fill-opacity="0" />
  <path d="M712.9468,425.437 L712.9468,411.2637" stroke="#D2D2D2" stroke-width="0.24" fill-opacity="0" />
  <path d="M620.424,425.437 L620.424,411.2637" stroke="#D2D2D2" stroke-width="0.24" fill-opacity="0" />
  <path d="M673.1484,425.437 L673.1484,411.2637" stroke="#D2D2D2" stroke-width="0.24" fill-opacity="0" />
  <path d="M682.2192,425.437 L682.2192,411.2637" stroke="#D2D2D2" stroke-width="0.24" fill-opacity="0" />
  <path d="M702.0618,425.437 L702.0618,411.2637" stroke="#D2D2D2" stroke-width="0.24" fill-opacity="0" />
  <path d="M651.3783,425.437 L651.3783,411.2637" stroke="#D2D2D2" stroke-width="0.24" fill-opacity="0" />
  <path d="M705.8035,425.437 L705.8035,411.2637" stroke="#D2D2D2" stroke-width="0.24" fill-opacity="0" />
  <path d="M705.6901,425.437 L705.6901,411.2637" stroke="#D2D2D2" stroke-width="0.24" fill-opacity="0" />
  <path d="M667.5925,425.437 L667.5925,411.2637" stroke="#D2D2D2" stroke-width="0.24" fill-opacity="0" />
  <path d="M702.1752,425.437 L702.1752,411.2637" stroke="#D2D2D2" stroke-width="0.24" fill-opacity="0" />
  <path d="M645.9358,425.437 L645.9358,411.2637" stroke="#D2D2D2" stroke-width="0.24" fill-opacity="0" />
  <path d="M649.4507,425.437 L649.4507,411.2637" stroke="#D2D2D2" stroke-width="0.24" fill-opacity="0" />
  <path d="M647.6366,425.437 L647.6366,411.2637" stroke="#D2D2D2" stroke-width="0.24" fill-opacity="0" />
  <path d="M709.3185,425.437 L709.3185,411.2637" stroke="#D2D2D2" stroke-width="0.24" fill-opacity="0" />
  <path d="M546.0429,425.437 L546.0429,411.2637" stroke="#D2D2D2" stroke-width="0.24" fill-opacity="0" />
  <path d="M642.3074,425.437 L642.3074,411.2637" stroke="#D2D2D2" stroke-width="0.24" fill-opacity="0" />
  <path d="M635.0508,425.437 L635.0508,411.2637" stroke="#D2D2D2" stroke-width="0.24" fill-opacity="0" />
  <path d="M642.1941,425.437 L642.1941,411.2637" stroke="#D2D2D2" stroke-width="0.24" fill-opacity="0" />
  <path d="M607.8381,425.437 L607.8381,411.2637" stroke="#D2D2D2" stroke-width="0.24" fill-opacity="0" />
  <path d="M611.3531,425.437 L611.3531,411.2637" stroke="#D2D2D2" stroke-width="0.24" fill-opacity="0" />
  <path d="M544.2287,425.437 L544.2287,411.2637" stroke="#D2D2D2" stroke-width="0.24" fill-opacity="0" />
  <path d="M663.9641,425.437 L663.9641,411.2637" stroke="#D2D2D2" stroke-width="0.24" fill-opacity="0" />
  <path d="M560.5563,425.437 L560.5563,411.2637" stroke="#D2D2D2" stroke-width="0.24" fill-opacity="0" />
  <path d="M711.1326,425.437 L711.1326,411.2637" stroke="#D2D2D2" stroke-width="0.24" fill-opacity="0" />
  <path d="M571.4413,425.437 L571.4413,411.2637" stroke="#D2D2D2" stroke-width="0.24" fill-opacity="0" />
  <path d="M576.9972,425.437 L576.9972,411.2637" stroke="#D2D2D2" stroke-width="0.24" fill-opacity="0" />
  <path d="M513.5012,425.437 L513.5012,411.2637" stroke="#D2D2D2" stroke-width="0.24" fill-opacity="0" />
  <path d="M537.0854,425.437 L537.0854,411.2637" stroke="#D2D2D2" stroke-width="0.24" fill-opacity="0" />
  <path d="M531.5295,425.437 L531.5295,411.2637" stroke="#D2D2D2" stroke-width="0.24" fill-opacity="0" />
  <path d="M558.8555,425.437 L558.8555,411.2637" stroke="#D2D2D2" stroke-width="0.24" fill-opacity="0" />
  <path d="M553.413,425.437 L553.413,411.2637" stroke="#D2D2D2" stroke-width="0.24" fill-opacity="0" />
  <path d="M549.6712,425.437 L549.6712,411.2637" stroke="#D2D2D2" stroke-width="0.24" fill-opacity="0" />
  <path d="M703.9893,425.437 L703.9893,411.2637" stroke="#D2D2D2" stroke-width="0.24" fill-opacity="0" />
  <path d="M589.583,425.437 L589.583,411.2637" stroke="#D2D2D2" stroke-width="0.24" fill-opacity="0" />
  <path d="M582.4398,425.437 L582.4398,411.2637" stroke="#D2D2D2" stroke-width="0.24" fill-opacity="0" />
  <path d="M580.5121,425.437 L580.5121,411.2637" stroke="#D2D2D2" stroke-width="0.24" fill-opacity="0" />
  <path d="M674.8492,425.437 L674.8492,411.2637" stroke="#D2D2D2" stroke-width="0.24" fill-opacity="0" />
  <path d="M609.5389,425.437 L609.5389,411.2637" stroke="#D2D2D2" stroke-width="0.24" fill-opacity="0" />
  <path d="M616.7957,425.437 L616.7957,411.2637" stroke="#D2D2D2" stroke-width="0.24" fill-opacity="0" />
  <path d="M627.7941,425.437 L627.7941,411.2637" stroke="#D2D2D2" stroke-width="0.24" fill-opacity="0" />
  <path d="M625.9799,425.437 L625.9799,411.2637" stroke="#D2D2D2" stroke-width="0.24" fill-opacity="0" />
  <path d="M631.309,425.437 L631.309,411.2637" stroke="#D2D2D2" stroke-width="0.24" fill-opacity="0" />
  <path d="M638.5657,425.437 L638.5657,411.2637" stroke="#D2D2D2" stroke-width="0.24" fill-opacity="0" />
  <path d="M649.5641,425.437 L649.5641,411.2637" stroke="#D2D2D2" stroke-width="0.24" fill-opacity="0" />
  <path d="M703.876,425.437 L703.876,411.2637" stroke="#D2D2D2" stroke-width="0.24" fill-opacity="0" />
  <path d="M723.8318,499.1378 L723.8318,411.2637" stroke="#D2D2D2" stroke-width="0.24" fill-opacity="0" />
  <path d="M700.2476,425.437 L700.2476,411.2637" stroke="#D2D2D2" stroke-width="0.24" fill-opacity="0" />
  <path d="M651.265,425.437 L651.265,411.2637" stroke="#D2D2D2" stroke-width="0.24" fill-opacity="0" />
  <path d="M644.1216,425.437 L644.1216,411.2637" stroke="#D2D2D2" stroke-width="0.24" fill-opacity="0" />
  <path d="M713.0602,425.437 L713.0602,411.2637" stroke="#D2D2D2" stroke-width="0.24" fill-opacity="0" />
  <path d="M696.7327,425.437 L696.7327,411.2637" stroke="#D2D2D2" stroke-width="0.24" fill-opacity="0" />
  <path d="M689.476,425.437 L689.476,411.2637" stroke="#D2D2D2" stroke-width="0.24" fill-opacity="0" />
  <path d="M647.7499,425.437 L647.7499,411.2637" stroke="#D2D2D2" stroke-width="0.24" fill-opacity="0" />
  <path d="M499.8381,499.1377 L501.5389,499.1377 L501.6523,499.1377 L503.3531,499.1377 L503.4665,499.1377 L505.1673,499.1377 L505.2806,499.1377 L506.9814,499.1377 L507.0948,499.1377 L508.7956,499.1377 L508.909,499.1377 L509.646,499.1377 L717.5389,499.1377 L718.3893,499.1377 L718.5027,499.1377 L720.2035,499.1377 L720.3169,499.1377 L722.0176,499.1377 L722.131,499.1377 L723.8318,499.1377 L723.9452,499.1377 L725.646,499.1377 L725.7594,499.1377 L727.4601,499.1377" stroke="#000000" stroke-width="1.44" fill-opacity="0" />
  <path d="M508.909,425.437 L509.646,425.437 L509.7594,425.437 L509.8728,425.437 L511.5736,425.437 L511.687,425.437 L513.3878,425.437 L513.5011,425.437 L515.2019,425.437 L515.3153,425.437 L517.0161,425.437 L517.1295,425.437 L518.8303,425.437 L518.9437,425.437 L520.6444,425.437 L520.7578,425.437 L522.4586,425.437 L522.572,425.437 L524.2728,425.437 L524.3862,425.437 L526.087,425.437 L526.2003,425.437 L527.9011,425.437 L528.0145,425.437 L529.7153,425.437 L529.8287,425.437 L531.5295,425.437 L531.6429,425.437 L533.3436,425.437 L533.457,425.437 L535.1578,425.437 L535.2712,425.437 L536.972,425.437 L537.0854,425.437 L538.7862,425.437 L538.8995,425.437 L540.6003,425.437 L540.7137,425.437 L542.4145,425.437 L542.5279,425.437 L544.2287,425.437 L544.342,425.437 L546.0428,425.437 L546.1563,425.437 L547.8571,425.437 L547.9704,425.437 L549.6712,425.437 L549.7846,425.437 L551.4854,425.437 L551.5988,425.437 L553.2996,425.437 L553.413,425.437 L555.1137,425.437 L555.2271,425.437 L556.9279,425.437 L557.0413,425.437 L558.7421,425.437 L558.8555,425.437 L560.5562,425.437 L560.6696,425.437 L562.3704,425.437 L562.4838,425.437 L564.1846,425.437 L564.298,425.437 L565.9988,425.437 L566.1121,425.437 L567.8129,425.437 L567.9263,425.437 L569.6271,425.437 L569.7405,425.437 L571.4413,425.437 L571.5547,425.437 L573.2554,425.437 L573.3688,425.437 L575.0696,425.437 L575.183,425.437 L576.8838,425.437 L576.9972,425.437 L578.698,425.437 L578.8113,425.437 L580.5121,425.437 L580.6255,425.437 L582.3263,425.437 L582.4397,425.437 L584.1405,425.437 L584.2539,425.437 L585.9547,425.437 L586.0681,425.437 L587.7689,425.437 L587.8822,425.437 L589.583,425.437 L589.6964,425.437 L591.3972,425.437 L591.5106,425.437 L593.2114,425.437 L593.3248,425.437 L595.0255,425.437 L595.1389,425.437 L596.8397,425.437 L596.9531,425.437 L598.6539,425.437 L598.7673,425.437 L600.4681,425.437 L600.5814,425.437 L602.2822,425.437 L602.3956,425.437 L604.0964,425.437 L604.2098,425.437 L605.9106,425.437 L606.024,425.437 L607.7247,425.437 L607.8381,425.437 L609.5389,425.437 L609.6523,425.437 L611.3531,425.437 L611.4665,425.437 L613.1672,425.437 L613.2806,425.437 L614.9814,425.437 L615.0948,425.437 L616.7956,425.437 L616.909,425.437 L618.6098,425.437 L618.7231,425.437 L620.424,425.437 L620.5374,425.437 L622.2382,425.437 L622.3515,425.437 L624.0523,425.437 L624.1657,425.437 L625.8665,425.437 L625.9799,425.437 L627.6807,425.437 L627.7941,425.437 L629.4948,425.437 L629.6082,425.437 L631.309,425.437 L631.4224,425.437 L633.1232,425.437 L633.2366,425.437 L634.9373,425.437 L635.0507,425.437 L636.7515,425.437 L636.8649,425.437 L638.5657,425.437 L638.6791,425.437 L640.3799,425.437 L640.4932,425.437 L642.194,425.437 L642.3074,425.437 L644.0082,425.437 L644.1216,425.437 L645.8224,425.437 L645.9358,425.437 L647.6365,425.437 L647.7499,425.437 L649.4507,425.437 L649.5641,425.437 L651.2649,425.437 L651.3783,425.437 L653.0791,425.437 L653.1924,425.437 L654.8932,425.437 L655.0067,425.437 L656.7074,425.437 L656.8208,425.437 L658.5216,425.437 L658.635,425.437 L660.3358,425.437 L660.4492,425.437 L662.15,425.437 L662.2633,425.437 L663.9641,425.437 L664.0775,425.437 L665.7783,425.437 L665.8917,425.437 L667.5925,425.437 L667.7059,425.437 L669.4066,425.437 L669.52,425.437 L671.2208,425.437 L671.3342,425.437 L673.035,425.437 L673.1484,425.437 L674.8492,425.437 L674.9625,425.437 L676.6633,425.437 L676.7767,425.437 L678.4775,425.437 L678.5909,425.437 L680.2917,425.437 L680.4051,425.437 L682.1058,425.437 L682.2192,425.437 L683.92,425.437 L684.0334,425.437 L685.7342,425.437 L685.8476,425.437 L687.5483,425.437 L687.6617,425.437 L689.3625,425.437 L689.476,425.437 L691.1767,425.437 L691.2901,425.437 L692.9909,425.437 L693.1042,425.437 L694.8051,425.437 L694.9185,425.437 L696.6193,425.437 L696.7326,425.437 L698.4334,425.437 L698.5468,425.437 L700.2476,425.437 L700.361,425.437 L702.0618,425.437 L702.1751,425.437 L703.8759,425.437 L703.9893,425.437 L705.6901,425.437 L705.8035,425.437 L707.5043,425.437 L707.6177,425.437 L709.3184,425.437 L709.4318,425.437 L711.1326,425.437 L711.246,425.437 L712.9468,425.437 L713.0602,425.437 L714.761,425.437 L714.8743,425.437 L716.5751,425.437 L716.6885,425.437 L718.3893,425.437 L718.5027,425.437" stroke="#000000" stroke-width="1.44" fill-opacity="0" />
  <path d="M744.3263,402.7015 L744.0494,402.7015 L482.972,402.7015 L482.972,411.2637 L744.3263,411.2637 z" stroke="#000000" stroke-width="1.44" fill-opacity="0" />
  <path d="M508.909,499.1378 L508.909,425.437" stroke="#000000" stroke-width="1.44" fill-opacity="0" />
  <path d="M718.5027,499.1378 L718.5027,425.437" stroke="#000000" stroke-width="1.44" fill-opacity="0" />
  <path d="M727.4602,499.1378 L727.4602,411.2637" stroke="#000000" stroke-width="1.44" fill-opacity="0" />
  <path d="M499.8382,499.1378 L499.8382,411.2637" stroke="#000000" stroke-width="1.44" fill-opacity="0" />
  <path d="M609.0854,496.3031 L609.0854,425.437" stroke="#000000" stroke-width="0.24" fill-opacity="0" />
  <path d="M618.0429,496.3031 L618.0429,425.437" stroke="#000000" stroke-width="0.24" fill-opacity="0" />
</svg>