<?xml version="1.0" encoding="UTF-8" standalone="no"?>
<!DOCTYPE svg PUBLIC "-//W3C//DTD SVG 1.1//EN"
"http://www.w3.org/Graphics/SVG/1.1/DTD/svg11.dtd">


<!-- Page 1 -->
<svg x="0" y="0" width="1819" height="1286" viewBox="0 0 1819 1286" version="1.1" xmlns="http://www.w3.org/2000/svg" xmlns:xlink="http://www.w3.org/1999/xlink"
style="display: block;margin-left: auto;margin-right: auto;">
<defs>
<clipPath id="c0_1"><path d="M52,872.3l1767.6,0l0,1.3L52,873.6Z" /></clipPath>
<clipPath id="c1_1"><path d="M51.1,872.6l1768.5,0l0,1.9l-1768.5,0Z" /></clipPath>

<style type="text/css"><![CDATA[

.g1_1{
fill: #D9D9D9;
stroke: #D9D9D9;
stroke-width: 0.15277778;
stroke-linecap: round;
stroke-linejoin: round;
}
.g2_1{
fill: #A6A6A6;
stroke: #A6A6A6;
stroke-width: 0.15277778;
stroke-linecap: round;
stroke-linejoin: round;
}
.g3_1{
fill: none;
stroke: #A6A6A6;
stroke-width: 1.5583333;
stroke-linecap: round;
stroke-linejoin: round;
}
.g4_1{
fill: none;
stroke: #000000;
stroke-width: 1.5583333;
stroke-linecap: round;
stroke-linejoin: round;
}


]]></style>

</defs>
<path d="M0,0
L0,1286
L1819,1286
L1819,0 Z " 
fill="#FFFFFF" stroke="none" />
<path fill-rule="evenodd" d="M686.3,845.9l0,25.7l29.5,0l0,-25.7l-29.5,0Z" class="g1_1" />
<path fill-rule="evenodd" d="M655.4,845.9l0,25.7l29.5,0l0,-25.7l-29.5,0Z" class="g1_1" />
<g clip-path="url(#c0_1)">
<path fill-rule="evenodd" d="M52,872.3l0,1.2l1781.7,0l0,-1.2L52,872.3Z" class="g2_1" />
</g>
<path fill-rule="evenodd" d="M717.2,845.9l0,25.7l29.6,0l0,-25.7l-29.6,0Z" class="g1_1" />
<path d="M1243.1,845.9l0,25.7l29.6,0l0,-25.7l-29.6,0Z" class="g3_1" />
<path d="M1212.2,845.9l0,25.7l29.5,0l0,-25.7l-29.5,0Z" class="g3_1" />
<path d="M748.1,845.9l0,25.7l29.6,0l0,-25.7l-29.6,0Z" class="g3_1" />
<path d="M1181.3,845.9l0,25.7l29.5,0l0,-25.7l-29.5,0Z" class="g3_1" />
<path d="M1150.3,845.9l0,25.7l29.5,0l0,-25.7l-29.5,0Z" class="g3_1" />
<path d="M717.2,845.9l0,25.7l29.6,0l0,-25.7l-29.6,0Z" class="g3_1" />
<path d="M500.7,845.9l0,25.7l29.5,0l0,-25.7l-29.5,0Z" class="g3_1" />
<path d="M1119.4,845.9l0,25.7l29.5,0l0,-25.7l-29.5,0Z" class="g3_1" />
<path d="M1088.4,845.9l0,25.7l29.5,0l0,-25.7l-29.5,0Z" class="g3_1" />
<path d="M686.3,845.9l0,25.7l29.5,0l0,-25.7l-29.5,0Z" class="g3_1" />
<path d="M1057.5,845.9l0,25.7l29.5,0l0,-25.7l-29.5,0Z" class="g3_1" />
<path d="M655.4,845.9l0,25.7l29.5,0l0,-25.7l-29.5,0Z" class="g3_1" />
<path d="M1026.5,845.9l0,25.7l29.5,0l0,-25.7l-29.5,0Z" class="g3_1" />
<path d="M469.7,845.9l0,25.7l29.6,0l0,-25.7l-29.6,0Z" class="g3_1" />
<path d="M376.5,845.9l0,25.7l29.5,0l0,-25.7l-29.5,0Z" class="g3_1" />
<path d="M346,845.9l0,25.7l29.5,0l0,-25.7l-29.5,0Z" class="g3_1" />
<path d="M995.6,845.9l0,25.7l29.6,0l0,-25.7l-29.6,0Z" class="g3_1" />
<path d="M624.5,845.9l0,25.7l29.4,0l0,-25.7l-29.4,0Z" class="g3_1" />
<path d="M964.7,845.9l0,25.7l29.5,0l0,-25.7l-29.5,0Z" class="g3_1" />
<path d="M438.9,845.9l0,25.7l29.5,0l0,-25.7l-29.5,0Z" class="g3_1" />
<path d="M1614.3,845.9l0,25.7l29.5,0l0,-25.7l-29.5,0Z" class="g3_1" />
<path d="M1583.4,845.9l0,25.7l29.5,0l0,-25.7l-29.5,0Z" class="g3_1" />
<path d="M933.8,845.9l0,25.7l29.5,0l0,-25.7l-29.5,0Z" class="g3_1" />
<path d="M1552.4,845.9l0,25.7l29.5,0l0,-25.7l-29.5,0Z" class="g3_1" />
<path d="M1521.5,845.9l0,25.7l29.5,0l0,-25.7l-29.5,0Z" class="g3_1" />
<path d="M902.9,845.9l0,25.7l29.5,0l0,-25.7l-29.5,0Z" class="g3_1" />
<path d="M593.5,845.9l0,25.7l29.5,0l0,-25.7l-29.5,0Z" class="g3_1" />
<path d="M1490.5,845.9l0,25.7l29.6,0l0,-25.7l-29.6,0Z" class="g3_1" />
<path d="M1459.7,845.9l0,25.7l29.5,0l0,-25.7l-29.5,0Z" class="g3_1" />
<path d="M871.9,845.9l0,25.7l29.5,0l0,-25.7l-29.5,0Z" class="g3_1" />
<path d="M1428.7,845.9l0,25.7l29.5,0l0,-25.7l-29.5,0Z" class="g3_1" />
<path d="M1397.8,845.9l0,25.7l29.5,0l0,-25.7l-29.5,0Z" class="g3_1" />
<path d="M841,845.9l0,25.7l29.5,0l0,-25.7l-29.5,0Z" class="g3_1" />
<path d="M562.6,845.9l0,25.7l29.5,0l0,-25.7l-29.5,0Z" class="g3_1" />
<path d="M1366.8,845.9l0,25.7l29.5,0l0,-25.7l-29.5,0Z" class="g3_1" />
<path d="M1335.9,845.9l0,25.7l29.5,0l0,-25.7l-29.5,0Z" class="g3_1" />
<path d="M810,845.9l0,25.7l29.5,0l0,-25.7l-29.5,0Z" class="g3_1" />
<path d="M1305,845.9l0,25.7l29.5,0l0,-25.7l-29.5,0Z" class="g3_1" />
<path d="M1274,845.9l0,25.7l29.5,0l0,-25.7l-29.5,0Z" class="g3_1" />
<path d="M779.1,845.9l0,25.7l29.5,0l0,-25.7l-29.5,0Z" class="g3_1" />
<path d="M531.6,845.9l0,25.7l29.5,0l0,-25.7l-29.5,0Z" class="g3_1" />
<path d="M407.9,845.9l0,25.7l29.5,0l0,-25.7l-29.5,0Z" class="g3_1" />
<g clip-path="url(#c1_1)">
<path d="M52,873.5l1767.6,0" class="g4_1" />
</g>
<path d="M1819.6,872.3L52,872.3l0,1.2" class="g4_1" />
<path d="M314.1,824L768.9,786.9" class="g4_1" />
<path d="M252.3,824l1392.6,0" class="g4_1" />
<path d="M252.3,845.4l0,-21.4L768.9,786.9l876,37.1l0,21.4l-1392.6,0m0,-21.4l0,21.4l61.8,0l0,-21.4l-61.8,0Z" class="g4_1" />

</svg>
