<?xml version="1.0" encoding="UTF-8" standalone="no"?>
<!DOCTYPE svg PUBLIC "-//W3C//DTD SVG 1.1//EN"
"http://www.w3.org/Graphics/SVG/1.1/DTD/svg11.dtd">


<!-- Page 1 -->
<svg x="0" y="0" width="1819" height="1286" viewBox="0 0 1819 1286" version="1.1" xmlns="http://www.w3.org/2000/svg" xmlns:xlink="http://www.w3.org/1999/xlink"
style="display: block;margin-left: auto;margin-right: auto;">
<defs>

<style type="text/css"><![CDATA[

.g1_1{
fill: none;
stroke: #989898;
stroke-width: 1.7416667;
stroke-linecap: round;
stroke-linejoin: round;
}
.g2_1{
fill: none;
stroke: #000000;
stroke-width: 1.7416667;
stroke-linecap: round;
stroke-linejoin: round;
}
.g3_1{
fill: none;
stroke: #586971;
stroke-width: 1.7416667;
stroke-linecap: round;
stroke-linejoin: round;
}
.g4_1{
fill: none;
stroke: #CACACA;
stroke-width: 1.7416667;
stroke-linecap: round;
stroke-linejoin: round;
}


]]></style>

</defs>
<path d="M0,0
L0,1286
L1819,1286
L1819,0 Z " 
fill="#FFFFFF" stroke="none" />
<path d="M532,410.5L463.4,571.6" class="g1_1" />
<path d="M518.1,408.6l-69.7,163" class="g1_1" />
<path d="M575.9,1095.3l7,-18.1" class="g1_1" />
<path d="M448.8,399.3L373.1,571.5" class="g1_1" />
<path d="M1258.4,507.7l-20,64.9" class="g1_1" />
<path d="M966.8,468.7L929.9,572.3" class="g1_1" />
<path d="M1037.5,478.1l-32.4,94.3" class="g1_1" />
<path d="M579.7,1104.9l-0.6,-17.8" class="g1_1" />
<path d="M1030.5,477.2l-32.9,95.2" class="g1_1" />
<path d="M1380.5,524.1l-14.2,48.7" class="g1_1" />
<path d="M1344.5,519.3l-15.8,53.5" class="g1_1" />
<path d="M1358.9,521.2l-15.1,51.6" class="g1_1" />
<path d="M594.6,418.8L531.2,571.7" class="g1_1" />
<path d="M1087.3,484.8l-29.5,87.7" class="g1_1" />
<path d="M620.4,999.1l6.7,-17.7L627,981.1" class="g1_1" />
<path d="M434.9,397.5l-76.8,174" class="g1_1" />
<path d="M867.9,455.4L824.6,572.1" class="g1_1" />
<path d="M687.8,1103.9l6.8,-18.2" class="g1_1" />
<path d="M1002.1,473.5l-34.6,98.8" class="g1_1" />
<path d="M706.3,433.8L651.5,571.9" class="g1_1" />
<path d="M469.6,402L395.7,571.5" class="g1_1" />
<path d="M1130,490.5l-27,82" class="g1_1" />
<path d="M1517.5,542.5l-8.2,30.5" class="g1_1" />
<path d="M1387.7,525.1l-13.8,47.7" class="g1_1" />
<path d="M575.4,1083.3l7,-18.1" class="g1_1" />
<path d="M1215.5,502l-22.2,70.6" class="g1_1" />
<path d="M903.1,460.2l-40.9,112" class="g1_1" />
<path d="M1560.9,548.3l-6.5,24.8" class="g1_1" />
<path d="M490.4,404.9L418.3,571.6" class="g1_1" />
<path d="M1373.3,523.1l-14.5,49.7" class="g1_1" />
<path d="M1073.1,482.9l-30.3,89.5" class="g1_1" />
<path d="M836.7,1029.8l5.4,-17.9" class="g1_1" />
<path d="M691.4,1113.5l-0.5,-17.9" class="g1_1" />
<path d="M910.2,461.1L869.7,572.2" class="g1_1" />
<path d="M626.1,951.7l-6.8,17.6" class="g1_1" />
<path d="M685.3,431L629,571.9" class="g1_1" />
<path d="M1023.4,476.3L990,572.4" class="g1_1" />
<path d="M1137.1,491.5l-26.6,81" class="g1_1" />
<path d="M462.6,401.1L388.2,571.5" class="g1_1" />
<path d="M731.4,1004.5L731,986.7" class="g1_1" />
<path d="M804.6,447L756.8,572" class="g1_1" />
<path d="M1016.3,475.3l-33.8,97.1" class="g1_1" />
<path d="M1575.4,550.2l-5.9,22.9" class="g1_1" />
<path d="M1503.1,540.5l-8.9,32.5" class="g1_1" />
<path d="M539,411.4L470.9,571.6" class="g1_1" />
<path d="M455.6,400.2l-75,171.3" class="g1_1" />
<path d="M1101.5,486.7l-28.7,85.8" class="g1_1" />
<path d="M427.9,396.5l-77.3,175" class="g1_1" />
<path d="M692.4,431.9l-55.9,140" class="g1_1" />
<path d="M874.9,456.4L832.1,572.1" class="g1_1" />
<path d="M808.8,1025.7l6.3,-17.6" class="g1_1" />
<path d="M839.6,1020.1l-0.2,-17.8" class="g1_1" />
<path d="M629.5,423.5L568.7,571.8" class="g1_1" />
<path d="M1187,498.2l-23.9,74.3" class="g1_1" />
<path d="M1510.3,541.5l-8.5,31.5" class="g1_1" />
<path d="M1201.2,500.1l-23.1,72.4" class="g1_1" />
<path d="M1430.9,530.8L1419,572.9" class="g1_1" />
<path d="M769.4,442.3L719.2,572" class="g1_1" />
<path d="M441.8,398.4L365.6,571.5" class="g1_1" />
<path d="M360.6,435l20,-44.8" class="g1_1" />
<path d="M1194.2,499.1l-23.6,73.5" class="g1_1" />
<path d="M1094.4,485.7l-29.1,86.8" class="g1_1" />
<path d="M917.3,462.1L877.2,572.2" class="g1_1" />
<path d="M1553.7,547.2l-6.8,25.9" class="g1_1" />
<path d="M624,989.5l-0.6,-17.8" class="g1_1" />
<path d="M882,457.3L839.6,572.2" class="g1_1" />
<path d="M511.2,407.6l-70.3,164" class="g1_1" />
<path d="M1481.4,537.6l-9.7,35.4" class="g1_1" />
<path d="M776.5,443.2L726.8,572" class="g1_1" />
<path d="M678.4,430.1L621.5,571.9" class="g1_1" />
<path d="M995.1,472.5L960,572.3" class="g1_1" />
<path d="M1272.8,509.7l-19.4,62.9" class="g1_1" />
<path d="M812.3,1016.1l-0.4,-17.8" class="g1_1" />
<path d="M1265.7,508.8l-19.8,63.8" class="g1_1" />
<path d="M1151.4,493.4l-25.9,79.2" class="g1_1" />
<path d="M1108.7,487.7l-28.4,84.8" class="g1_1" />
<path d="M841.6,994.8l0.3,17.8" class="g1_1" />
<path d="M695.1,1103.5l-6.7,18.3l-0.9,-29.9l6.7,-18.2l0,0.3" class="g1_1" />
<path d="M583.6,1095.1l-7,18.1l-0.1,-0.3" class="g1_1" />
<path d="M959.6,467.7L922.4,572.3" class="g1_1" />
<path d="M573.7,416.1L508.5,571.7" class="g1_1" />
<path d="M1532,544.4l-7.6,28.6" class="g1_1" />
<path d="M727.9,1014.2l6.5,-17.8" class="g1_1" />
<path d="M945.5,465.8L907.3,572.3" class="g1_1" />
<path d="M889,458.2l-41.9,114" class="g1_1" />
<path d="M931.4,463.9L892.2,572.2" class="g1_1" />
<path d="M1611.7,555l-4.6,18.1" class="g1_1" />
<path d="M650.4,426.3L591.3,571.8" class="g1_1" />
<path d="M357.7,457.6l29.9,-66.5" class="g1_1" />
<path d="M363.3,412.4l10.5,-23.2" class="g1_1" />
<path d="M1337.4,518.3l-16.3,54.4" class="g1_1" />
<path d="M1626.3,557l-4.1,16.2" class="g1_1" />
<path d="M924.3,463L884.7,572.2" class="g1_1" />
<path d="M346.4,549.9L415.2,394.8" class="g1_1" />
<path d="M1208.4,501l-22.6,71.5" class="g1_1" />
<path d="M1251.3,506.8l-20.4,65.8" class="g1_1" />
<path d="M1488.6,538.5l-9.4,34.5" class="g1_1" />
<path d="M497.2,405.8L425.8,571.6" class="g1_1" />
<path d="M741.4,438.5L689.1,571.9" class="g1_1" />
<path d="M636.5,424.4L576.3,571.8" class="g1_1" />
<path d="M748.4,439.4L696.6,572" class="g1_1" />
<path d="M734.4,437.5L681.6,571.9" class="g1_1" />
<path d="M1287.1,511.6l-18.6,61.1" class="g1_1" />
<path d="M587.6,417.9l-64,153.8" class="g1_1" />
<path d="M733.7,979.4l0.4,17.7" class="g1_1" />
<path d="M643.5,425.3L583.8,571.8" class="g1_1" />
<path d="M1165.6,495.3l-25,77.2" class="g1_1" />
<path d="M841.7,982.5l0,-0.4l-5.4,17.9l0,0.4" class="g1_1" />
<path d="M657.4,427.3L598.8,571.8" class="g1_1" />
<path d="M1244.1,505.8l-20.8,66.8" class="g1_1" />
<path d="M545.9,412.3L478.5,571.6" class="g1_1" />
<path d="M1416.5,528.9l-12.6,44" class="g1_1" />
<path d="M1158.4,494.4L1133,572.5" class="g1_1" />
<path d="M1229.8,503.9l-21.5,68.7" class="g1_1" />
<path d="M1402.1,527l-13.2,45.8" class="g1_1" />
<path d="M1315.8,515.4l-17.2,57.3" class="g1_1" />
<path d="M580.7,417L516.1,571.7" class="g1_1" />
<path d="M1058.9,481l-31.2,91.4" class="g1_1" />
<path d="M1474.1,536.6l-10,36.3" class="g1_1" />
<path d="M1280,510.6l-19.1,62.1" class="g1_1" />
<path d="M1619,556l-4.3,17.2" class="g1_1" />
<path d="M476.4,403L403.3,571.5" class="g1_1" />
<path d="M1459.7,534.7l-10.6,38.2" class="g1_1" />
<path d="M811.6,447.9L764.4,572.1" class="g1_1" />
<path d="M1445.4,532.8l-11.3,40.1" class="g1_1" />
<path d="M1568.2,549.3l-6.2,23.8" class="g1_1" />
<path d="M1301.4,513.5l-17.8,59.2" class="g1_1" />
<path d="M354.9,480.4l39.6,-88.3" class="g1_1" />
<path d="M1438.1,531.8l-11.5,41.1" class="g1_1" />
<path d="M352,503.4L401.5,393" class="g1_1" />
<path d="M601.6,419.7l-62.9,152" class="g1_1" />
<path d="M483.4,404L410.8,571.6" class="g1_1" />
<path d="M620.4,998.7l0,0.4" class="g1_1" />
<path d="M626.5,963.6l-6.8,17.7" class="g1_1" />
<path d="M1604.5,554.1l-4.9,19" class="g1_1" />
<path d="M525,409.5L455.9,571.6" class="g1_1" />
<path d="M566.8,415.1L501,571.7" class="g1_1" />
<path d="M608.5,420.7l-62.3,151" class="g1_1" />
<path d="M664.4,428.2L606.3,571.8" class="g1_1" />
<path d="M1044.7,479.1l-32,93.3" class="g1_1" />
<path d="M720.4,435.7L666.6,571.9" class="g1_1" />
<path d="M762.4,441.3L711.7,572" class="g1_1" />
<path d="M814.6,990.9l0.3,17.8" class="g1_1" />
<path d="M818.6,448.8L771.9,572.1" class="g1_1" />
<path d="M1330.2,517.4l-16.6,55.3" class="g1_1" />
<path d="M733.7,967.1l0,-0.4l-6.6,17.7l0,0.4" class="g1_1" />
<path d="M814.7,978.6l0,-0.3L808.4,996l0,0.3" class="g1_1" />
<path d="M1172.7,496.3l-24.6,76.2" class="g1_1" />
<path d="M987.9,471.5L952.5,572.3" class="g1_1" />
<path d="M1590,552.1l-5.4,21" class="g1_1" />
<path d="M1222.7,503l-21.9,69.6" class="g1_1" />
<path d="M344.3,571.5L422.2,395.7" class="g1_1" />
<path d="M688.1,1103.2l0.5,17.9" class="g1_1" />
<path d="M576.2,1094.6l0.7,17.9" class="g1_1" />
<path d="M938.4,464.8L899.8,572.2" class="g1_1" />
<path d="M1080.2,483.9l-29.9,88.6" class="g1_1" />
<path d="M755.4,440.4L704.1,572" class="g1_1" />
<path d="M980.9,470.5l-36,101.8" class="g1_1" />
<path d="M841.9,994.1l-5.5,17.9" class="g1_1" />
<path d="M583.6,1094.7l0,0.3" class="g1_1" />
<path d="M713.4,434.8L659,571.9" class="g1_1" />
<path d="M699.4,432.8L644,571.9" class="g1_1" />
<path d="M1308.7,514.4l-17.6,58.3" class="g1_1" />
<path d="M973.8,469.6L937.4,572.3" class="g1_1" />
<path d="M814.9,990.3l-6.4,17.7" class="g1_1" />
<path d="M1495.9,539.5l-9.2,33.5" class="g1_1" />
<path d="M1144.2,492.4L1118,572.5" class="g1_1" />
<path d="M846.8,452.6L801.9,572.1" class="g1_1" />
<path d="M1115.7,488.7l-27.8,83.8" class="g1_1" />
<path d="M860.9,454.5L817,572.1" class="g1_1" />
<path d="M1597.2,553.1l-5.1,20" class="g1_1" />
<path d="M790.5,445L741.8,572" class="g1_1" />
<path d="M733.9,978.6l-6.5,17.7" class="g1_1" />
<path d="M832.7,450.7L786.9,572.1" class="g1_1" />
<path d="M1452.5,533.8l-10.9,39.1" class="g1_1" />
<path d="M797.5,446L749.3,572" class="g1_1" />
<path d="M1051.7,480.1l-31.5,92.3" class="g1_1" />
<path d="M1546.5,546.3l-7.1,26.7" class="g1_1" />
<path d="M1539.2,545.3l-7.3,27.7" class="g1_1" />
<path d="M622.6,422.6L561.2,571.8" class="g1_1" />
<path d="M1633.5,558l-3.8,15.2" class="g1_1" />
<path d="M552.9,413.2L486,571.7" class="g1_1" />
<path d="M1394.8,526l-13.4,46.8" class="g1_1" />
<path d="M1423.7,529.8l-12.3,43.1" class="g1_1" />
<path d="M1366.1,522.1l-14.8,50.7" class="g1_1" />
<path d="M853.8,453.6L809.5,572.1" class="g1_1" />
<path d="M1323,516.4l-16.9,56.3" class="g1_1" />
<path d="M825.7,449.8L779.4,572.1" class="g1_1" />
<path d="M349.2,526.6L408.3,393.9" class="g1_1" />
<path d="M626.2,964.3l0.7,17.8" class="g1_1" />
<path d="M404.1,1112.7l-1,-17.9" class="g2_1" />
<path d="M818.2,999.4l-0.5,-29.3" class="g2_1" />
<path d="M815.1,1008.1l-0.4,-29.5" class="g2_1" />
<path d="M842.1,1011.9l-0.4,-29.4" class="g2_1" />
<path d="M403.1,1094.8l8.2,-20" class="g2_1" />
<path d="M467.1,958.1l-0.9,-17.7" class="g2_1" />
<path d="M448.8,1003l1.8,-4.4" class="g2_1" />
<path d="M640.2,1087.2l-0.3,-9.5" class="g2_1" />
<path d="M414.1,1088.1l-1,-17.8" class="g2_1" />
<path d="M720.6,1002.6L704,1047.4" class="g2_1" />
<path d="M845.1,1003.3L844.8,974" class="g2_1" />
<path d="M402.5,1083.1L465.6,928.8" class="g2_1" />
<path d="M721.1,1023.6l-0.2,-9.5" class="g2_1" />
<path d="M799.9,1091.2l-0.4,-29.5" class="g2_1" />
<path d="M432.4,1043.1l-0.9,-17.8" class="g2_1" />
<path d="M630.4,1009l29.1,4.1" class="g2_1" />
<path d="M670.9,1014.8l-20,52.9" class="g2_1" />
<path d="M640.4,1095.6l54.7,7.9" class="g2_1" />
<path d="M804.2,1122.2l-0.4,-29.6" class="g2_1" />
<path d="M734.4,996.4l-0.7,-29.3" class="g2_1" />
<path d="M448.8,1003l-1,-17.8" class="g2_1" />
<path d="M670.9,1014.8l-1,-29.5" class="g2_1" />
<path d="M629.4,979.6l94.7,13.5" class="g2_1" />
<path d="M822.1,1028.2l4.1,0.7" class="g2_1" />
<path d="M803.8,1092.6l32.5,-92.2" class="g2_1" />
<path d="M814,1063.8l-14.5,-2.1" class="g2_1" />
<path d="M694.6,1085.7L694.2,1074" class="g2_1" />
<path d="M704,1047.4l-9.8,26.6" class="g2_1" />
<path d="M599.8,1089.6l40.6,6" class="g2_1" />
<path d="M669.9,985.3l-30.5,80.8" class="g2_1" />
<path d="M619.3,969.3l-36.9,95.9" class="g2_1" />
<path d="M821.7,998.8l14.4,2.1" class="g2_1" />
<path d="M574.4,1086l-13.6,-2" class="g2_1" />
<path d="M585.1,1058.2l-25.6,-3.8" class="g2_1" />
<path d="M571.5,1056.2l20,-51.7" class="g2_1" />
<path d="M430.6,1047.6l-0.9,-17.8" class="g2_1" />
<path d="M575.4,1083.3l-3.4,8.9" class="g2_1" />
<path d="M576.5,1112.9l-1.1,-29.6" class="g2_1" />
<path d="M519.1,1112.8l-3.4,8.8" class="g2_1" />
<path d="M413.1,1070.3l7.4,-18.1" class="g2_1" />
<path d="M457.7,981l1.9,-4.4" class="g2_1" />
<path d="M461.6,1112.7l-3.5,8.8" class="g2_1" />
<path d="M404.1,1112.7l-3.6,8.8" class="g2_1" />
<path d="M630.4,1009l-1,-29.4" class="g2_1" />
<path d="M441.5,1020.8L440.6,1003" class="g2_1" />
<path d="M520.3,965.8l3.3,-8.5" class="g2_1" />
<path d="M519,936.4l3.4,-8.5" class="g2_1" />
<path d="M572.5,944.1l3.3,-8.5" class="g2_1" />
<path d="M737.5,987.9l-3.1,8.5" class="g2_1" />
<path d="M736.9,958.6l-3.2,8.5" class="g2_1" />
<path d="M683.1,950.9l-3.3,8.5" class="g2_1" />
<path d="M630.3,972.6l-3.3,8.5" class="g2_1" />
<path d="M629.3,943.3l-3.2,8.4" class="g2_1" />
<path d="M808.8,1025.8l-0.4,-29.5" class="g2_1" />
<path d="M431.5,1025.3l7.3,-17.9" class="g2_1" />
<path d="M822.1,1028.2l-0.4,-29.4" class="g2_1" />
<path d="M844.8,974l-3.1,8.5" class="g2_1" />
<path d="M808.8,1025.8l-6.3,17.8" class="g2_1" />
<path d="M802.2,1025.8l-16,45.1" class="g2_1" />
<path d="M620.4,998.7l-1.1,-29.4" class="g2_1" />
<path d="M836.5,1030.3l-0.4,-29.4" class="g2_1" />
<path d="M802.3,1035.3l-0.1,-9.5" class="g2_1" />
<path d="M420.5,1052.2l1.9,-4.5" class="g2_1" />
<path d="M802.3,1035.3l-15.9,45" class="g2_1" />
<path d="M583.6,1094.7l-1.2,-29.5" class="g2_1" />
<path d="M721.1,1023.6l-16.5,44.9" class="g2_1" />
<path d="M450.6,998.6l-0.9,-17.8" class="g2_1" />
<path d="M447.8,985.2l1.9,-4.4" class="g2_1" />
<path d="M802.5,1043.6l-16,45.1" class="g2_1" />
<path d="M808.4,996.3l-6.4,17.9" class="g2_1" />
<path d="M620.4,998.7l-36.8,96" class="g2_1" />
<path d="M439.7,1025.2l-0.9,-17.8" class="g2_1" />
<path d="M421.4,1070l-0.9,-17.8" class="g2_1" />
<path d="M727.9,1014.2l-6.5,17.8" class="g2_1" />
<path d="M457.7,981l-0.9,-17.8" class="g2_1" />
<path d="M727.1,984.8l-6.5,17.8" class="g2_1" />
<path d="M773.9,1124.2l-0.6,-29.5" class="g2_1" />
<path d="M560.8,1084l-1.3,-29.6" class="g2_1" />
<path d="M449.7,980.8l16.5,-40.4" class="g2_1" />
<path d="M727.9,1014.2l-0.8,-29.4" class="g2_1" />
<path d="M459.6,976.6l-0.9,-17.8" class="g2_1" />
<path d="M786.5,1088.7l-12.6,35.5" class="g2_1" />
<path d="M422.4,1047.7l7.3,-17.9" class="g2_1" />
<path d="M412.3,1092.7l-1,-17.9" class="g2_1" />
<path d="M440.6,1003l7.2,-17.8" class="g2_1" />
<path d="M704.6,1068.5l-0.2,-9.5" class="g2_1" />
<path d="M591.5,1004.5l-1.1,-29.4" class="g2_1" />
<path d="M439.7,1025.2l1.8,-4.4" class="g2_1" />
<path d="M423.3,1065.5l-0.9,-17.8" class="g2_1" />
<path d="M438.8,1007.4l1.8,-4.4" class="g2_1" />
<path d="M802,1014.2l-16,45" class="g2_1" />
<path d="M737.5,987.9l-0.6,-29.3" class="g2_1" />
<path d="M421.4,1070l1.9,-4.5" class="g2_1" />
<path d="M412.3,1092.7l1.8,-4.6" class="g2_1" />
<path d="M558,1090.9l2.8,-6.9" class="g2_1" />
<path d="M411.3,1074.8l1.8,-4.5" class="g2_1" />
<path d="M845.1,1003.3l-3,8.6" class="g2_1" />
<path d="M576.9,965l-1.1,-29.4" class="g2_1" />
<path d="M818.2,999.4l-3.1,8.7" class="g2_1" />
<path d="M683.9,980.3l-2.6,6.7" class="g2_1" />
<path d="M583.2,1087.3l-7.7,-1.1" class="g2_1" />
<path d="M558,1090.9l-1.2,-29.5" class="g2_1" />
<path d="M720.9,1014.1L704.4,1059" class="g2_1" />
<path d="M430.6,1047.6l1.8,-4.5" class="g2_1" />
<path d="M470.5,949.7L469,920.3" class="g2_1" />
<path d="M573.6,973.4l3.3,-8.4" class="g2_1" />
<path d="M573.2,1121.7L572,1092.2" class="g2_1" />
<path d="M460.1,1083.2l-3.6,8.8" class="g2_1" />
<path d="M517.8,1083.2l-3.5,8.9" class="g2_1" />
<path d="M556.8,1061.4L594,965.7" class="g2_1" />
<path d="M576.5,1112.9l-3.3,8.8" class="g2_1" />
<path d="M605,1006.4l-13.5,-1.9" class="g2_1" />
<path d="M598.7,1060.1l40.7,6" class="g2_1" />
<path d="M615.7,978.7l-25.3,-3.6" class="g2_1" />
<path d="M786,1059.2l-12.7,35.5" class="g2_1" />
<path d="M429.7,1029.8l1.8,-4.5" class="g2_1" />
<path d="M817.7,970.1l-3,8.5" class="g2_1" />
<path d="M646.8,1078.7l-3.3,8.9" class="g2_1" />
<path d="M523.6,957.3l-1.2,-29.4" class="g2_1" />
<path d="M804.1,1091.8l-4.2,-0.6" class="g2_1" />
<path d="M461.6,1112.7l-1.5,-29.5" class="g2_1" />
<path d="M836.7,1029.8l-0.4,-29.4" class="g2_1" />
<path d="M670.9,1014.8l43,6.1" class="g2_1" />
<path d="M400.5,1121.5l-1.7,-29.6" class="g2_1" />
<path d="M467.1,958.1l3.4,-8.4" class="g2_1" />
<path d="M594.4,975.6L594,965.7" class="g2_1" />
<path d="M520.3,965.8L519,936.4" class="g2_1" />
<path d="M458.1,1121.5L456.5,1092" class="g2_1" />
<path d="M786.4,1080.3l-0.2,-9.4" class="g2_1" />
<path d="M519.1,1112.8l-1.3,-29.6" class="g2_1" />
<path d="M663.3,1041.4l40.7,6" class="g2_1" />
<path d="M664.1,1069.7l-0.8,-28.3" class="g2_1" />
<path d="M718.2,1021.5l2.9,0.5" class="g2_1" />
<path d="M630.3,972.6l-1,-29.3" class="g2_1" />
<path d="M599.8,1089.6l-1.1,-29.5" class="g2_1" />
<path d="M515.7,1121.6l-1.4,-29.5" class="g2_1" />
<path d="M680.6,986.9l-0.8,-27.5" class="g2_1" />
<path d="M640.2,1087.2l54.6,7.9" class="g2_1" />
<path d="M639.4,1066.1l54.8,7.9" class="g2_1" />
<path d="M804.2,1122.2l32.5,-92.4" class="g2_1" />
<path d="M465.6,928.8l3.4,-8.5" class="g2_1" />
<path d="M402.5,1083.1l-3.7,8.8" class="g2_1" />
<path d="M683.9,980.3l-0.8,-29.4" class="g2_1" />
<path d="M639.9,1077.7l54.7,8" class="g2_1" />
<path d="M704.9,1076.9l-9.8,26.6" class="g2_1" />
<path d="M573.6,973.4l-1.1,-29.3" class="g2_1" />
<path d="M627,981.1l-0.9,-29.4" class="g2_1" />
<path d="M695.1,1103.5l-0.5,-17.8" class="g2_1" />
<path d="M721.4,1032l-16.5,44.9" class="g2_1" />
<path d="M805.7,203.7L353.5,112.9" class="g3_1" />
<path d="M331,309.7l1320.3,1.7" class="g3_1" />
<path d="M1650.2,295.4L330,293.7L353.5,112.9" class="g3_1" />
<path d="M331,309.7l-1,-16" class="g3_1" />
<path d="M353.5,112.9l1296,167.6" class="g3_1" />
<path d="M1650.2,295.4L805.7,203.7" class="g3_1" />
<path d="M1652.3,295.4l-2.1,0" class="g3_1" />
<path d="M1649.5,280.5l6.4,1.1" class="g3_1" />
<path d="M805.7,203.7l843.2,76.7l0.6,0.1" class="g3_1" />
<path d="M1652.3,295.4l-1,16" class="g3_1" />
<path d="M1655.9,281.6l-3.6,13.8" class="g3_1" />
<path d="M1654.9,297.5l1,-15.9" class="g3_1" />
<path d="M1651.3,311.4l3.6,-13.9" class="g3_1" />
<path d="M330,293.7l475.7,-90" class="g3_1" />
<path d="M519.8,954.2L498.2,951l-26.5,-3.7l-0.9,-18.2l26.5,3.9l0.9,18" class="g4_1" />
<path d="M403.8,1093l1,17.8" class="g4_1" />
<path d="M749.2,1113.1l24.5,3.6" class="g4_1" />
<path d="M414.1,1088.1l7.3,-18.1" class="g4_1" />
<path d="M522.7,936.6l1.3,0.1l0.7,18.2" class="g4_1" />
<path d="M439.7,1025.2l-7.3,17.9" class="g4_1" />
<path d="M466.6,959l-7,17.6" class="g4_1" />
<path d="M423.3,1065.5l7.3,-17.9" class="g4_1" />
<path d="M1391.9,1060.7l27.7,3.9l-0.8,18.2" class="g4_1" />
<path d="M486,1124.1l-28.8,0" class="g4_1" />
<path d="M514.8,1124.2L486,1124.1L485.1,1106l28.8,0" class="g4_1" />
<path d="M1465.9,1107.2l-0.9,18.3l-28.8,0" class="g4_1" />
<path d="M1465.9,1107.2l28.9,0.1" class="g4_1" />
<path d="M1523.6,1107.3l28.8,0.1" class="g4_1" />
<path d="M687,1106.2l0.5,18.2l-28.7,0l-0.6,-18.3l28.8,0.1" class="g4_1" />
<path d="M630,1124.3l-28.8,0l-0.7,-18.2l28.8,0" class="g4_1" />
<path d="M456.3,1105.9l0.9,18.2L428.4,1124" class="g4_1" />
<path d="M427.4,1105.9l28.9,0" class="g4_1" />
<path d="M427.4,1105.9l1,18.1l-28.8,0l-1,-18.2l28.8,0.1" class="g4_1" />
<path d="M658.8,1124.4L630,1124.3l-0.7,-18.2l28.9,0" class="g4_1" />
<path d="M1474.9,1072.5l27.7,3.9l-1,18.2" class="g4_1" />
<path d="M601.2,1124.3l-28.9,0l-0.6,-18.2l28.8,0" class="g4_1" />
<path d="M572.3,1124.3l-28.8,-0.1L542.8,1106l28.9,0.1" class="g4_1" />
<path d="M543.5,1124.2l-28.7,0L513.9,1106l28.9,0" class="g4_1" />
<path d="M1581.3,1107.4l28.9,0" class="g4_1" />
<path d="M456.3,1105.9l28.8,0.1" class="g4_1" />
<path d="M1530.3,1080.4l27.8,3.9l-1,18.3" class="g4_1" />
<path d="M604.7,966.3L578,962.5" class="g4_1" />
<path d="M1612.6,1110.5l-27.7,-4" class="g4_1" />
<path d="M1281.7,1044.9l27.5,4l-0.5,18.1" class="g4_1" />
<path d="M1226.8,1037.1l27.5,3.9l-0.5,18.1" class="g4_1" />
<path d="M465.8,941.3l0.8,17.7" class="g4_1" />
<path d="M457.7,981l-7.1,17.6" class="g4_1" />
<path d="M448.8,1003l-7.3,17.8" class="g4_1" />
<path d="M404.8,1110.8l7.5,-18.1" class="g4_1" />
<path d="M1172.1,1029.2l27.3,4l-0.4,18.1" class="g4_1" />
<path d="M695.4,1105.2l26.5,3.9l-0.4,-18.2l-26.6,-3.8l0.5,18.1" class="g4_1" />
<path d="M773.3,1098.4l-24.5,-3.5l0.4,18.2" class="g4_1" />
<path d="M524.7,954.9l-1.1,-0.2" class="g4_1" />
<path d="M497.3,933l21.9,3.1" class="g4_1" />
<path d="M1117.4,1021.4l27.3,4l-0.3,18.1" class="g4_1" />
<path d="M551.4,958.7l-26.7,-3.8" class="g4_1" />
<path d="M524,936.7l26.7,3.9l0.7,18.1" class="g4_1" />
<path d="M578,962.5l-1.2,-0.2" class="g4_1" />
<path d="M1199.4,1033.2l27.4,3.9l-0.4,18.2" class="g4_1" />
<path d="M631.4,970.1l-1.1,-0.2" class="g4_1" />
<path d="M1062.8,1013.7l27.3,3.9l-0.2,18.1" class="g4_1" />
<path d="M629.6,951.9l1.2,0.2l0.6,18" class="g4_1" />
<path d="M630.8,952.1l26.8,3.7l0.5,18.2" class="g4_1" />
<path d="M1035.6,1009.8l27.2,3.9l-0.1,18.1" class="g4_1" />
<path d="M683.2,959.5l1.2,0.2l0.5,18.1" class="g4_1" />
<path d="M1008.5,1006l27.1,3.8l-0.1,18.2" class="g4_1" />
<path d="M684.4,959.7l26.9,3.8l0.4,18.1" class="g4_1" />
<path d="M738.5,985.4l-1.1,-0.1" class="g4_1" />
<path d="M734.1,984.8l-22.4,-3.2" class="g4_1" />
<path d="M1090.1,1017.6l27.3,3.8l-0.2,18.2" class="g4_1" />
<path d="M738.1,967.4l26.9,3.8l0.4,18.1" class="g4_1" />
<path d="M954.1,998.2l27.1,3.8l0,18.2" class="g4_1" />
<path d="M765,971.2l27,3.8l0.2,18.1" class="g4_1" />
<path d="M815,996.3l-22.8,-3.2" class="g4_1" />
<path d="M817.9,978.7l1,0.1l0.3,18.2" class="g4_1" />
<path d="M846.1,1000.8l-1,-0.1" class="g4_1" />
<path d="M842,1000.3L819.2,997" class="g4_1" />
<path d="M844.8,982.6l1.1,0.1l0.2,18.1" class="g4_1" />
<path d="M873.1,1004.7l-27,-3.9" class="g4_1" />
<path d="M845.9,982.7l27,3.9l0.2,18.1" class="g4_1" />
<path d="M981.2,1002l27.3,4l-0.1,18" class="g4_1" />
<path d="M1584.9,1106.5l-27.8,-3.9" class="g4_1" />
<path d="M1349.8,1125.3l-28.8,0l0.6,-18.2l28.9,0" class="g4_1" />
<path d="M1292.2,1125.2l-28.8,0l0.5,-18.2l28.9,0.1" class="g4_1" />
<path d="M1234.6,1125.2l-28.8,-0.1l0.5,-18.2l28.8,0.1" class="g4_1" />
<path d="M1119.4,1125l-28.8,-0.1l0.3,-18.1l28.8,0" class="g4_1" />
<path d="M860.2,1124.7l-28.7,-0.1l-0.3,-18.2l28.9,0" class="g4_1" />
<path d="M1061.8,1124.9l-28.8,-0.1l0.1,-18.1l28.9,0" class="g4_1" />
<path d="M1033,1124.8l-28.7,0l0,-18.2l28.8,0.1" class="g4_1" />
<path d="M1004.3,1124.8l-28.8,0l0,-18.2l28.8,0" class="g4_1" />
<path d="M872.9,986.6l27,3.9l0.2,18" class="g4_1" />
<path d="M946.7,1124.8l-28.8,0l-0.1,-18.3l28.8,0" class="g4_1" />
<path d="M889,1124.7l-28.8,0l-0.1,-18.3l28.8,0.1" class="g4_1" />
<path d="M975.5,1124.8l-28.8,0l-0.1,-18.3l28.9,0.1" class="g4_1" />
<path d="M831.5,1124.6l-28.8,0l-0.3,-18.3l28.8,0.1" class="g4_1" />
<path d="M802.7,1124.6l-28.8,0l0,-0.4" class="g4_1" />
<path d="M773.5,1106.3l28.9,0" class="g4_1" />
<path d="M900.1,1008.5l-27,-3.8" class="g4_1" />
<path d="M927.2,1012.5l-27.1,-4" class="g4_1" />
<path d="M1090.6,1124.9l-28.8,0l0.2,-18.2l28.9,0.1" class="g4_1" />
<path d="M899.9,990.5l27.2,3.8l0.1,18.2" class="g4_1" />
<path d="M954.2,1016.3l-27,-3.8" class="g4_1" />
<path d="M927.1,994.3l27,3.9l0.1,18.1" class="g4_1" />
<path d="M981.2,1020.2l-27,-3.9" class="g4_1" />
<path d="M917.9,1124.7l-28.9,0l-0.1,-18.2l28.9,0" class="g4_1" />
<path d="M1008.4,1024l-27.2,-3.8" class="g4_1" />
<path d="M1035.5,1027.9l-27.1,-3.9" class="g4_1" />
<path d="M1205.8,1125.1l-28.8,0l0.4,-18.2l28.9,0" class="g4_1" />
<path d="M1062.7,1031.8l-27.2,-3.9" class="g4_1" />
<path d="M1089.9,1035.7l-27.2,-3.9" class="g4_1" />
<path d="M1263.4,1125.2l-28.8,0l0.5,-18.2l28.8,0" class="g4_1" />
<path d="M1177,1125.1l-28.7,-0.1l0.2,-18.1l28.9,0" class="g4_1" />
<path d="M1117.2,1039.6l-27.3,-3.9" class="g4_1" />
<path d="M1144.4,1043.5l-27.2,-3.9" class="g4_1" />
<path d="M1321,1125.3l-28.8,-0.1l0.6,-18.1l28.8,0" class="g4_1" />
<path d="M1171.7,1047.4l-27.3,-3.9" class="g4_1" />
<path d="M1144.7,1025.4l27.4,3.8l-0.4,18.2" class="g4_1" />
<path d="M1199,1051.3l-27.3,-3.9" class="g4_1" />
<path d="M1148.3,1125l-28.9,0l0.3,-18.2l28.8,0.1" class="g4_1" />
<path d="M1226.4,1055.3l-27.4,-4" class="g4_1" />
<path d="M1253.8,1059.1l-27.4,-3.8" class="g4_1" />
<path d="M1437,1107.2l-0.8,18.3l-28.8,-0.1l0.8,-18.3l28.8,0.1" class="g4_1" />
<path d="M1281.2,1063.1l-27.4,-4" class="g4_1" />
<path d="M1254.3,1041l27.4,3.9l-0.5,18.2" class="g4_1" />
<path d="M1308.7,1067l-27.5,-3.9" class="g4_1" />
<path d="M1407.4,1125.4l-28.8,0l0.8,-18.3l28.8,0" class="g4_1" />
<path d="M1336.2,1070.9l-27.5,-3.9" class="g4_1" />
<path d="M1309.2,1048.8l27.6,4l-0.6,18.1" class="g4_1" />
<path d="M1363.7,1074.9l-27.5,-4" class="g4_1" />
<path d="M1336.8,1052.8l27.5,3.9l-0.6,18.2" class="g4_1" />
<path d="M1391.2,1078.8l-27.5,-3.9" class="g4_1" />
<path d="M1612.6,1110.8l-3.5,14.6l1.2,-18.3l3.4,-14.5l-1.1,18.2" class="g4_1" />
<path d="M1378.6,1125.4l-28.8,-0.1l0.7,-18.2l28.9,0" class="g4_1" />
<path d="M577.4,944.3l26.6,3.9" class="g4_1" />
<path d="M748.8,1094.9l-27.3,-4" class="g4_1" />
<path d="M1419.6,1064.6l27.6,4l-0.8,18.1" class="g4_1" />
<path d="M721.9,1109.1l27.3,4" class="g4_1" />
<path d="M1610.2,1107.4l-1.2,18.3l-28.8,0" class="g4_1" />
<path d="M1501.6,1094.6l-27.6,-4l-27.6,-3.9" class="g4_1" />
<path d="M1529.3,1098.6l-27.7,-4" class="g4_1" />
<path d="M1552.4,1107.4l28.9,0" class="g4_1" />
<path d="M1586,1088.4l27.7,3.9l-1.1,18.2" class="g4_1" />
<path d="M1558.1,1084.3l27.9,4.1l-1.1,18.1" class="g4_1" />
<path d="M1581.3,1107.4l-1.1,18.3l-28.8,-0.1" class="g4_1" />
<path d="M1552.4,1107.4l-1,18.2l-28.8,0" class="g4_1" />
<path d="M1364.3,1056.7l27.6,4l-0.7,18.1" class="g4_1" />
<path d="M1523.6,1107.3l-1,18.3l-28.8,-0.1" class="g4_1" />
<path d="M819.2,997l-1,-0.2" class="g4_1" />
<path d="M765.4,989.3l-26.9,-3.9" class="g4_1" />
<path d="M1494.8,1107.3l28.8,0" class="g4_1" />
<path d="M792.2,993.1l-26.8,-3.8" class="g4_1" />
<path d="M792,975l22.8,3.3" class="g4_1" />
<path d="M1502.6,1076.4l27.7,4l-1,18.2" class="g4_1" />
<path d="M1557.1,1102.6l-27.8,-4" class="g4_1" />
<path d="M711.3,963.5l22.5,3.2" class="g4_1" />
<path d="M1447.2,1068.6l27.7,3.9l-0.9,18.1" class="g4_1" />
<path d="M1494.8,1107.3l-1,18.2l-28.8,0" class="g4_1" />
<path d="M737,967.2l1.1,0.2l0.4,18" class="g4_1" />
<path d="M818.9,978.8l22.9,3.3" class="g4_1" />
<path d="M680.3,977.1L658.1,974" class="g4_1" />
<path d="M657.6,955.8l22.3,3.2" class="g4_1" />
<path d="M658.1,974l-26.7,-3.9" class="g4_1" />
<path d="M684.9,977.8l-1.1,-0.2" class="g4_1" />
<path d="M711.7,981.6l-26.8,-3.8" class="g4_1" />
<path d="M576.2,944.2l1.2,0.1l0.6,18.2" class="g4_1" />
<path d="M550.7,940.6l21.9,3.1" class="g4_1" />
<path d="M1446.4,1086.7l-27.6,-3.9" class="g4_1" />
<path d="M626.7,969.5l-22,-3.2L604,948.2l22.2,3.1" class="g4_1" />
<path d="M1418.8,1082.8l-27.6,-4" class="g4_1" />
<path d="M573.1,961.8l-21.7,-3.2" class="g4_1" />
<path d="M1437,1107.2l28.9,0" class="g4_1" />
<path d="M857.6,837.8l0.4,30.8" class="g2_1" />
<path d="M1504.6,869.5l0.5,-2.2" class="g2_1" />
<path d="M975.6,868.8l0.7,-2.3" class="g2_1" />
<path d="M976.3,836.9l0,-1.2" class="g2_1" />
<path d="M1094.2,837l0,-1.1" class="g2_1" />
<path d="M1151.8,869l0.8,-2.2" class="g2_1" />
<path d="M1093.8,866.7l0.2,-17.1" class="g2_1" />
<path d="M1152.6,866.8l0.2,-17.1" class="g2_1" />
<path d="M1093.1,868.9l0.7,-2.2" class="g2_1" />
<path d="M1093.4,838.1l-0.3,30.8" class="g2_1" />
<path d="M1153,837.1l0.1,-1.1" class="g2_1" />
<path d="M1034.5,838.1l-0.2,30.7" class="g2_1" />
<path d="M1035.2,836.9l0,-1.1" class="g2_1" />
<path d="M1152.4,838.2l-0.6,30.8" class="g2_1" />
<path d="M1211.3,866.9l0.4,-17.1" class="g2_1" />
<path d="M1035.1,866.6l0,-17.1" class="g2_1" />
<path d="M1212,837.2l0.1,-1.1" class="g2_1" />
<path d="M1034.3,868.8l0.8,-2.2" class="g2_1" />
<path d="M1210.6,869.1l0.7,-2.2" class="g2_1" />
<path d="M1447.2,838.7l-1.4,30.7" class="g2_1" />
<path d="M975.6,838l0,30.8" class="g2_1" />
<path d="M1563.3,869.6l0.6,-2.2l1,-17.2" class="g2_1" />
<path d="M976.3,866.5l0,-17.1" class="g2_1" />
<path d="M460.4,695.7l-1.5,-30.6" class="g2_1" />
<path d="M1565.6,837.7l0.1,-1.1" class="g2_1" />
<path d="M1447.7,837.5l0.1,-1.1" class="g2_1" />
<path d="M1565.2,838.8l-1.9,30.8" class="g2_1" />
<path d="M916.6,837.9l0.1,30.8" class="g2_1" />
<path d="M917.4,836.8l0,-1.1" class="g2_1" />
<path d="M1505.1,867.3l0.9,-17.2" class="g2_1" />
<path d="M917.5,866.4l-0.1,-17.1" class="g2_1" />
<path d="M916.7,868.7l0.8,-2.3" class="g2_1" />
<path d="M1506.7,837.6l0.1,-1.1" class="g2_1" />
<path d="M1506.1,838.7l-1.5,30.8" class="g2_1" />
<path d="M858.4,836.7l0,-1.1" class="g2_1" />
<path d="M858.8,866.4l-0.2,-17.2" class="g2_1" />
<path d="M858,868.6l0.8,-2.2" class="g2_1" />
<path d="M798.6,837.7l0.6,30.8" class="g2_1" />
<path d="M799.5,836.6l0,-1.1" class="g2_1" />
<path d="M800,866.3l-0.3,-17.2" class="g2_1" />
<path d="M799.2,868.5l0.8,-2.2" class="g2_1" />
<path d="M680.8,837.6l0.9,30.8" class="g2_1" />
<path d="M681.7,836.5l0,-1.1" class="g2_1" />
<path d="M682.5,866.2L682,849" class="g2_1" />
<path d="M681.7,868.4l0.8,-2.2" class="g2_1" />
<path d="M621.8,837.6l1.1,30.7" class="g2_1" />
<path d="M622.7,836.4l0,-1.1" class="g2_1" />
<path d="M623.7,866.1l-0.5,-17.2" class="g2_1" />
<path d="M622.9,868.3l0.8,-2.2" class="g2_1" />
<path d="M1569.9,830.3l-0.4,7.4" class="g2_1" />
<path d="M1570.8,816.7l-0.1,1.1" class="g2_1" />
<path d="M1569.1,837.7l1.1,-18.8" class="g2_1" />
<path d="M1513.3,822.4l-0.8,15.2" class="g2_1" />
<path d="M1514,808.9l-0.1,1.1" class="g2_1" />
<path d="M1512,837.6l1.4,-26.6" class="g2_1" />
<path d="M1456.7,814.6l-0.8,17.2" class="g2_1" />
<path d="M1457.4,801l-0.1,1.1" class="g2_1" />
<path d="M1455.3,833.9l1.5,-30.7" class="g2_1" />
<path d="M1455.9,831.8l-0.6,2.1" class="g2_1" />
<path d="M1400.3,806.8l-0.7,17.1" class="g2_1" />
<path d="M1400.9,793.2l-0.1,1.1" class="g2_1" />
<path d="M1399,826.1l1.3,-30.8" class="g2_1" />
<path d="M1399.6,823.9l-0.6,2.2" class="g2_1" />
<path d="M1344,799l-0.6,17.1" class="g2_1" />
<path d="M1344.5,785.4l-0.1,1.1" class="g2_1" />
<path d="M1342.8,818.2l1.1,-30.7" class="g2_1" />
<path d="M1343.4,816.1l-0.6,2.1" class="g2_1" />
<path d="M1287.9,791.2l-0.6,17.1" class="g2_1" />
<path d="M1288.2,777.6l0,1.1" class="g2_1" />
<path d="M1286.7,810.4l0.9,-30.6" class="g2_1" />
<path d="M1287.3,808.3l-0.6,2.1" class="g2_1" />
<path d="M1231.9,783.5l-0.5,17" class="g2_1" />
<path d="M1232.1,769.9l0,1.1" class="g2_1" />
<path d="M1230.8,802.7l0.7,-30.7" class="g2_1" />
<path d="M1231.4,800.5l-0.6,2.2" class="g2_1" />
<path d="M1175.9,775.7l-0.3,17.1" class="g2_1" />
<path d="M1176.2,762.1l-0.1,1.1" class="g2_1" />
<path d="M1174.9,794.9l0.6,-30.7" class="g2_1" />
<path d="M1175.6,792.8l-0.7,2.1" class="g2_1" />
<path d="M1120.1,768l-0.3,17" class="g2_1" />
<path d="M1120.3,754.4l0,1.1" class="g2_1" />
<path d="M1119.2,787.1l0.5,-30.6" class="g2_1" />
<path d="M1119.8,785l-0.6,2.1" class="g2_1" />
<path d="M1064.5,760.3l-0.2,17" class="g2_1" />
<path d="M1064.6,746.7l0,1.1" class="g2_1" />
<path d="M1063.7,779.4l0.2,-30.6" class="g2_1" />
<path d="M1064.3,777.3l-0.6,2.1" class="g2_1" />
<path d="M1008.9,752.6l0,17" class="g2_1" />
<path d="M1009,739l0,1.1" class="g2_1" />
<path d="M1008.2,771.7l0.1,-30.6" class="g2_1" />
<path d="M1008.9,769.6l-0.7,2.1" class="g2_1" />
<path d="M953.6,744.9l0,17" class="g2_1" />
<path d="M953.6,731.3l0,1.1" class="g2_1" />
<path d="M952.8,764l0,-30.6" class="g2_1" />
<path d="M953.6,761.9l-0.8,2.1" class="g2_1" />
<path d="M898.3,737.2l0.1,17.1" class="g2_1" />
<path d="M898.2,723.7l0,1.1" class="g2_1" />
<path d="M897.6,756.4l-0.1,-30.6" class="g2_1" />
<path d="M898.4,754.3l-0.8,2.1" class="g2_1" />
<path d="M843.1,729.6l0.2,17" class="g2_1" />
<path d="M842.9,716l0,1.1" class="g2_1" />
<path d="M842.6,748.7l-0.4,-30.6" class="g2_1" />
<path d="M843.3,746.6l-0.7,2.1" class="g2_1" />
<path d="M733.2,714.4l0.4,17" class="g2_1" />
<path d="M732.8,700.8l0.1,1.1" class="g2_1" />
<path d="M732.7,733.5l-0.6,-30.6" class="g2_1" />
<path d="M733.6,731.4l-0.9,2.1" class="g2_1" />
<path d="M678.4,706.7l0.4,17.1" class="g2_1" />
<path d="M678,693.2l0,1.2" class="g2_1" />
<path d="M678.1,725.9l-0.9,-30.6" class="g2_1" />
<path d="M678.8,723.8l-0.7,2.1" class="g2_1" />
<path d="M623.7,699.1l0.6,17.1" class="g2_1" />
<path d="M623.3,685.7l0,1.1" class="g2_1" />
<path d="M623.5,718.3l-1,-30.5" class="g2_1" />
<path d="M624.3,716.2l-0.8,2.1" class="g2_1" />
<path d="M569.2,691.6l0.6,17.1" class="g2_1" />
<path d="M568.7,678.1l0,1.1" class="g2_1" />
<path d="M569,710.7l-1.2,-30.5" class="g2_1" />
<path d="M569.8,708.7l-0.8,2" class="g2_1" />
<path d="M514.8,684.1l0.7,17" class="g2_1" />
<path d="M514.2,670.5l0,1.1" class="g2_1" />
<path d="M514.7,703.2l-1.4,-30.6" class="g2_1" />
<path d="M515.5,701.1l-0.8,2.1" class="g2_1" />
<path d="M460.5,676.6l0.8,16.9" class="g2_1" />
<path d="M387.1,836.1L387,835" class="g2_1" />
<path d="M447.5,865.9l-0.9,-17.3" class="g2_1" />
<path d="M504.9,836.3l0,-1.1" class="g2_1" />
<path d="M505.4,868.2l0.8,-2.2l-0.7,-17.3" class="g2_1" />
<path d="M503.9,837.4l1.5,30.8" class="g2_1" />
<path d="M445,837.3l1.6,30.8" class="g2_1" />
<path d="M564.2,868.2l0.8,-2.1" class="g2_1" />
<path d="M446,836.2l-0.1,-1.1" class="g2_1" />
<path d="M563.8,836.4l0,-1.1" class="g2_1" />
<path d="M565,866.1l-0.7,-17.3" class="g2_1" />
<path d="M446.6,868.1l0.9,-2.2" class="g2_1" />
<path d="M461.3,693.5l-0.9,2.2" class="g2_1" />
<path d="M386.1,837.2l1.8,30.8" class="g2_1" />
<path d="M562.9,837.5l1.3,30.7" class="g2_1" />
<path d="M459.8,663l0,1.1" class="g2_1" />
<path d="M1270.1,867l0.4,-17.3" class="g2_1" />
<path d="M1270.9,837.3l0.1,-1.1" class="g2_1" />
<path d="M1328.2,869.3l0.6,-2.3l0.6,-17.2" class="g2_1" />
<path d="M1329.9,837.4l0,-1.1" class="g2_1" />
<path d="M1270.3,838.4l-0.9,30.8" class="g2_1" />
<path d="M1387,869.4l0.6,-2.3l0.7,-17.2" class="g2_1" />
<path d="M1211.3,838.3l-0.7,30.8" class="g2_1" />
<path d="M1329.3,838.5l-1.1,30.8" class="g2_1" />
<path d="M1445.8,869.4l0.6,-2.2" class="g2_1" />
<path d="M387.9,868l0.9,-2.2" class="g2_1" />
<path d="M1388.2,838.6l-1.2,30.8" class="g2_1" />
<path d="M388.8,865.8l-1,-17.2" class="g2_1" />
<path d="M1446.4,867.2l0.8,-17.2" class="g2_1" />
<path d="M1388.8,837.5l0.1,-1.2" class="g2_1" />
<path d="M1269.4,869.2l0.7,-2.2" class="g2_1" />
<path d="M1176.2,762.1l0,-2.6" class="g2_1" />
<path d="M1152.4,838.2l23.8,-76.1" class="g2_1" />
<path d="M1152.5,835.5l-0.1,2.7" class="g2_1" />
<path d="M563.5,690.8l48.8,6.8" class="g2_1" />
<path d="M1163.9,784.8l-11.4,50.7" class="g2_1" />
<path d="M1166,778.4l-2.1,6.4" class="g2_1" />
<path d="M1176.2,759.5L1166,778.4" class="g2_1" />
<path d="M1232.1,769.9l0.1,-2.7" class="g2_1" />
<path d="M508.9,683.3l48.8,6.8" class="g2_1" />
<path d="M1211.3,838.3l20.8,-68.4" class="g2_1" />
<path d="M953.2,732.4l53.7,7.4" class="g2_1" />
<path d="M1211.4,835.6l-0.1,2.7" class="g2_1" />
<path d="M1270.4,837.3l-58.7,-0.1" class="g2_1" />
<path d="M1221.3,791.3l-9.9,44.3" class="g2_1" />
<path d="M1223.5,783.8l-2.2,7.5" class="g2_1" />
<path d="M1211.4,837.2l-58.6,-0.1" class="g2_1" />
<path d="M1329.3,837.4l-58.7,-0.1" class="g2_1" />
<path d="M454.4,675.8l50,6.8" class="g2_1" />
<path d="M1232.2,767.2l-8.7,16.6" class="g2_1" />
<path d="M1400.9,793.2l0.1,-2.7" class="g2_1" />
<path d="M1388.2,837.5l-58.6,-0.1" class="g2_1" />
<path d="M1388.2,838.6l12.7,-45.4" class="g2_1" />
<path d="M916.6,836.8L858,836.7" class="g2_1" />
<path d="M1388.3,835.9l-0.1,2.7" class="g2_1" />
<path d="M513.7,671.6l52.3,7.2" class="g2_1" />
<path d="M1447.3,837.5l-58.8,0" class="g2_1" />
<path d="M380.7,665.5l70.5,9.8" class="g2_1" />
<path d="M1393.7,810.6l-5.4,25.3" class="g2_1" />
<path d="M897.8,724.7l53.6,7.4" class="g2_1" />
<path d="M1396.6,800l-2.9,10.6" class="g2_1" />
<path d="M360.7,836.1l20,-170.6" class="g2_1" />
<path d="M1064.7,744.1l-13.9,23.6" class="g2_1" />
<path d="M1506.2,837.6l-58.7,-0.1" class="g2_1" />
<path d="M842.6,717.1l53.3,7.3" class="g2_1" />
<path d="M1401,790.5l-4.4,9.5" class="g2_1" />
<path d="M459.4,664.1l52.1,7.2" class="g2_1" />
<path d="M1344.5,785.4l0.1,-2.7" class="g2_1" />
<path d="M1565.2,837.6l-58.7,0" class="g2_1" />
<path d="M1329.3,838.5l15.2,-53.1" class="g2_1" />
<path d="M1626.5,825.5l-0.8,12.5" class="g2_1" />
<path d="M1329.4,835.8l-0.1,2.7" class="g2_1" />
<path d="M1336.1,804.1l-6.7,31.7" class="g2_1" />
<path d="M1623.5,837.7l-58.1,-0.1" class="g2_1" />
<path d="M1338.8,794.7l-2.7,9.4" class="g2_1" />
<path d="M1344.6,782.7l-5.8,12" class="g2_1" />
<path d="M1625.7,838l-3,12.3" class="g2_1" />
<path d="M1570.5,817.8l56,7.7" class="g2_1" />
<path d="M1514,808.9l0.1,-2.7" class="g2_1" />
<path d="M953.6,731.3l0,-2.6" class="g2_1" />
<path d="M916.6,837.9l37,-106.6" class="g2_1" />
<path d="M1506.1,838.7l7.9,-29.8" class="g2_1" />
<path d="M1623.5,837.7l-0.8,12.6" class="g2_1" />
<path d="M916.6,835.3l0,2.6" class="g2_1" />
<path d="M935.1,759.1l-18.5,76.2" class="g2_1" />
<path d="M1506.3,836.1l-0.2,2.6" class="g2_1" />
<path d="M935.9,756.9l-0.8,2.2" class="g2_1" />
<path d="M953.6,728.7l-17.7,28.2" class="g2_1" />
<path d="M1508.8,823.5l-2.5,12.6" class="g2_1" />
<path d="M1626.5,825.5l-3,12.2" class="g2_1" />
<path d="M1513.6,809.9l56.1,7.8" class="g2_1" />
<path d="M1288.2,777.6l0.1,-2.7" class="g2_1" />
<path d="M1270.4,838.4l17.8,-60.8" class="g2_1" />
<path d="M1512.2,810.8l-3.4,12.7" class="g2_1" />
<path d="M1270.4,835.7l0,2.7" class="g2_1" />
<path d="M1278.7,797.7l-8.3,38" class="g2_1" />
<path d="M1514.1,806.2l-1.9,4.6" class="g2_1" />
<path d="M1567.4,829.9l56.1,7.8" class="g2_1" />
<path d="M1281.2,789.2l-2.5,8.5" class="g2_1" />
<path d="M1288.3,774.9l-7.1,14.3" class="g2_1" />
<path d="M1457.4,801l0.1,-2.7" class="g2_1" />
<path d="M568.7,678.1l-0.1,-2.6" class="g2_1" />
<path d="M503.9,837.4L568.7,678.1" class="g2_1" />
<path d="M1447.2,838.7L1457.4,801" class="g2_1" />
<path d="M1510.5,822.1l56,7.8" class="g2_1" />
<path d="M1457.1,802.1l55.5,7.7" class="g2_1" />
<path d="M787.5,709.5l53.1,7.3" class="g2_1" />
<path d="M1152.4,837.1L1093.8,837" class="g2_1" />
<path d="M503.8,834.7l0.1,2.7" class="g2_1" />
<path d="M512.3,804.1l-8.5,30.6" class="g2_1" />
<path d="M1447.4,836l-0.2,2.7" class="g2_1" />
<path d="M558.1,689.1l-45.8,115" class="g2_1" />
<path d="M568.6,675.5l-10.5,13.6" class="g2_1" />
<path d="M1451.2,817l-3.8,19" class="g2_1" />
<path d="M1453.8,814.2l55.4,7.7" class="g2_1" />
<path d="M459.8,663l-0.1,-2.5" class="g2_1" />
<path d="M386.1,837.2L459.8,663" class="g2_1" />
<path d="M1454.3,805.4l-3.1,11.6" class="g2_1" />
<path d="M386,834.5l0.1,2.7" class="g2_1" />
<path d="M387.7,828.4l-1.7,6.1" class="g2_1" />
<path d="M1457.5,798.3l-3.2,7.1" class="g2_1" />
<path d="M1397.2,806.4L1452,814" class="g2_1" />
<path d="M1400.5,794.3l55.4,7.6" class="g2_1" />
<path d="M455,666.1L387.7,828.4" class="g2_1" />
<path d="M459.7,660.5l-4.7,5.6" class="g2_1" />
<path d="M787.8,708.4L739.7,837.7" class="g2_1" />
<path d="M623.3,685.7L623.2,683" class="g2_1" />
<path d="M562.9,837.5L623.3,685.7" class="g2_1" />
<path d="M787.8,705.8l0,2.6" class="g2_1" />
<path d="M1340.8,798.5l54.1,7.5" class="g2_1" />
<path d="M562.8,834.8l0.1,2.7" class="g2_1" />
<path d="M574.3,791.9l-11.5,42.9" class="g2_1" />
<path d="M767.5,735.4l20.3,-29.6" class="g2_1" />
<path d="M610.1,700.5l-35.8,91.4" class="g2_1" />
<path d="M623.2,683l-13.1,17.5" class="g2_1" />
<path d="M760.1,755.6l7.4,-20.2" class="g2_1" />
<path d="M1284.4,790.7l53.4,7.4" class="g2_1" />
<path d="M1344.2,786.5l55.1,7.6" class="g2_1" />
<path d="M732.5,701.9l52.9,7.3" class="g2_1" />
<path d="M1120.3,754.4l0.1,-2.6" class="g2_1" />
<path d="M1093.4,838.1l26.9,-83.7" class="g2_1" />
<path d="M739.7,835l20.4,-79.4" class="g2_1" />
<path d="M1093.4,835.5l0,2.6" class="g2_1" />
<path d="M1106.6,778.3l-13.2,57.2" class="g2_1" />
<path d="M739.7,837.7l0,-2.7" class="g2_1" />
<path d="M1228.2,782.9l52.7,7.4" class="g2_1" />
<path d="M1108.4,773l-1.8,5.3" class="g2_1" />
<path d="M1120.4,751.8l-12,21.2" class="g2_1" />
<path d="M514.2,670.5L514,668" class="g2_1" />
<path d="M732.8,700.8l0,-2.6" class="g2_1" />
<path d="M680.8,837.6l52,-136.8" class="g2_1" />
<path d="M445,837.3L514.2,670.5" class="g2_1" />
<path d="M1172.1,775.1l52.2,7.3" class="g2_1" />
<path d="M1288,778.7l54.9,7.6" class="g2_1" />
<path d="M680.8,835l0,2.6" class="g2_1" />
<path d="M698.3,767.7L680.8,835" class="g2_1" />
<path d="M444.9,834.6l0.1,2.7" class="g2_1" />
<path d="M714.8,723.7l-16.5,44" class="g2_1" />
<path d="M732.8,698.2l-18,25.5" class="g2_1" />
<path d="M450,816.2l-5.1,18.4" class="g2_1" />
<path d="M1116.2,767.4l51.9,7.2" class="g2_1" />
<path d="M678,693.2l-0.1,-2.6" class="g2_1" />
<path d="M621.8,837.6L678,693.2" class="g2_1" />
<path d="M506.4,677.6L450,816.2" class="g2_1" />
<path d="M621.7,834.9l0.1,2.7" class="g2_1" />
<path d="M636.4,779.8l-14.7,55.1" class="g2_1" />
<path d="M514,668l-7.6,9.6" class="g2_1" />
<path d="M1060.4,759.6l51.5,7.2" class="g2_1" />
<path d="M1231.9,770.9l54.7,7.6" class="g2_1" />
<path d="M677.6,694.3l52.8,7.3" class="g2_1" />
<path d="M380,653.1l77,10.7" class="g2_1" />
<path d="M662.2,712.1l-25.8,67.7" class="g2_1" />
<path d="M677.9,690.6l-15.7,21.5" class="g2_1" />
<path d="M386.7,848.6l-27.5,0" class="g2_1" />
<path d="M898.2,723.7l0,-2.7" class="g2_1" />
<path d="M857.7,837.8L898.2,723.7" class="g2_1" />
<path d="M445.6,848.6l-57.8,0" class="g2_1" />
<path d="M1004.6,751.9l51.3,7.2" class="g2_1" />
<path d="M857.6,835.2l0.1,2.6" class="g2_1" />
<path d="M878,752.8l-20.4,82.4" class="g2_1" />
<path d="M504.5,848.7l-57.9,-0.1" class="g2_1" />
<path d="M984.5,1125l0,0.2" class="g2_1" />
<path d="M878.5,751.6l-0.5,1.2" class="g2_1" />
<path d="M898.2,721l-19.7,30.6" class="g2_1" />
<path d="M563.3,848.8l-57.8,-0.1" class="g2_1" />
<path d="M949.1,744.2l50.8,7.1" class="g2_1" />
<path d="M1175.9,763.2l54.5,7.5" class="g2_1" />
<path d="M842.9,716l0,-2.6" class="g2_1" />
<path d="M798.7,837.7L842.9,716" class="g2_1" />
<path d="M1622.7,850.3L564.3,848.8" class="g2_1" />
<path d="M798.6,835.1l0.1,2.6" class="g2_1" />
<path d="M821,746.3l-22.4,88.8" class="g2_1" />
<path d="M386.1,836.1l-27.6,0" class="g2_1" />
<path d="M893.6,736.5l50.6,7.1" class="g2_1" />
<path d="M821.1,746.2l-0.1,0.1" class="g2_1" />
<path d="M842.9,713.4l-21.8,32.8" class="g2_1" />
<path d="M445,836.2l-58.4,-0.1" class="g2_1" />
<path d="M1570.8,816.7l0,-2.7" class="g2_1" />
<path d="M503.9,836.3l-58.4,-0.1" class="g2_1" />
<path d="M1565.2,838.7l5.6,-22" class="g2_1" />
<path d="M838.2,728.9l50.4,7" class="g2_1" />
<path d="M1120,755.4l54.3,7.5" class="g2_1" />
<path d="M622.8,686.7l52.6,7.3" class="g2_1" />
<path d="M673.1,706l49.4,6.9" class="g2_1" />
<path d="M1565.3,836.1l-0.1,2.6" class="g2_1" />
<path d="M1566.5,829.9l-1.2,6.2" class="g2_1" />
<path d="M1570,816.2l-3.5,13.7" class="g2_1" />
<path d="M783.1,721.2l50,7" class="g2_1" />
<path d="M1570.8,814l-0.8,2.2" class="g2_1" />
<path d="M1064.6,746.7l0.1,-2.6" class="g2_1" />
<path d="M680.8,836.5l-58.5,-0.1" class="g2_1" />
<path d="M621.8,836.4l-58.5,0" class="g2_1" />
<path d="M728,713.6l49.7,6.9" class="g2_1" />
<path d="M1034.5,838.1l30.1,-91.4" class="g2_1" />
<path d="M562.9,836.4l-58.5,-0.1" class="g2_1" />
<path d="M1034.5,835.4l0,2.7" class="g2_1" />
<path d="M739.7,836.5l-58.5,0" class="g2_1" />
<path d="M1064.3,747.7l54.1,7.5" class="g2_1" />
<path d="M1049.4,771.9l-14.9,63.5" class="g2_1" />
<path d="M568.2,679.2l52.4,7.2" class="g2_1" />
<path d="M358.5,836.1L380,653.1l0.7,12.4" class="g2_1" />
<path d="M1008.7,740l53.9,7.5" class="g2_1" />
<path d="M1050.8,767.7l-1.4,4.2" class="g2_1" />
<path d="M358.5,836.1l0.7,12.5" class="g2_1" />
<path d="M798.6,836.6l-58.4,-0.1" class="g2_1" />
<path d="M1093.4,837l-58.5,-0.1" class="g2_1" />
<path d="M1009,739l0,-2.6" class="g2_1" />
<path d="M857.6,836.7l-58.5,-0.1" class="g2_1" />
<path d="M975.6,838L1009,739" class="g2_1" />
<path d="M1034.5,836.9l-58.6,0" class="g2_1" />
<path d="M975.6,835.4l0,2.6" class="g2_1" />
<path d="M992.2,765.5l-16.6,69.9" class="g2_1" />
<path d="M993.3,762.3l-1.1,3.2" class="g2_1" />
<path d="M975.6,836.9L917,836.8" class="g2_1" />
<path d="M618.2,698.4l49.1,6.8" class="g2_1" />
<path d="M1009,736.4l-15.7,25.9" class="g2_1" />
<path d="M399.6,1124l1209.5,1.4l3.5,-14.6L471.7,947.3L399.6,1124" class="g2_1" />

</svg>
