<?xml version="1.0" encoding="UTF-8" standalone="no"?>
<!DOCTYPE svg PUBLIC "-//W3C//DTD SVG 1.1//EN" "http://www.w3.org/Graphics/SVG/1.1/DTD/svg11.dtd">
<svg width="100%" height="100%" viewBox="0 0 612 792" version="1.1" xmlns="http://www.w3.org/2000/svg">
  <path d="M4.767608,22.25217 L32.19967,9.192804 L219.056,9.192804 L219.056,258.4464 L203.7139,266.3387 L203.7139,273.4934 L240.5201,273.4934 L240.5201,297.9079 L255.9948,297.9079 L255.9948,351.2024 L231.9686,363.2007 L231.9686,454.821 L233.8483,454.821 L233.8483,475.58 L227.1466,479.0943 L217.4209,479.0943 L217.4209,487.8392 L199.9507,496.1562 L199.9507,470.0793 L197.897,470.0793 L197.897,483.3511 L193.2184,486.7664 L193.2184,409.501 L186.1531,409.501 L186.153,381.0979 L193.2184,381.0979 L193.2184,326.2188 L177.4507,326.2188 L177.4507,301.6711 L6.620758,301.6711 L50.59756,282.6782 L184.5373,282.6782 L184.5373,272.0482 L191.6239,272.0482 L191.6239,22.25217 z" stroke="#D1D1D1" stroke-width="0.24" fill-opacity="0" />
  <path d="M260.1633,249.7811 L284.1895,237.7828 L340.5799,237.7828 L340.5799,365.098 L338.6292,374.6732 L342.5872,373.7515 L342.4121,380.916 L343.4052,396.7135 L345.2852,396.7595 L344.2689,438.3477 L347.9884,438.4386 L347.7108,449.6083 L335.3794,455.4803 L335.0764,476.3102 L321.1082,482.9307 L321.1082,249.7811 z" stroke="#D1D1D1" stroke-width="0.24" fill-opacity="0" />
  <path d="M4.767608,22.25217 L32.19967,9.192804 L219.056,9.192804 L219.056,258.4464 L203.7139,266.3387 L203.7139,273.4934 L240.5201,273.4934 L240.5201,297.9079 L255.9948,297.9079 L255.9948,351.2024 L231.9686,363.2007 L231.9686,454.821 L233.8483,454.821 L233.8483,475.58 L227.1466,479.0943 L217.4209,479.0943 L217.4209,487.8392 L199.9507,496.1562 L199.9507,470.0793 L197.897,470.0793 L197.897,483.3511 L193.2184,486.7664 L193.2184,409.501 L186.1531,409.501 L186.153,381.0979 L193.2184,381.0979 L193.2184,326.2188 L177.4507,326.2188 L177.4507,301.6711 L6.620758,301.6711 L50.59756,282.6782 L184.5373,282.6782 L184.5373,272.0482 L191.6239,272.0482 L191.6239,22.25217 z" stroke="Black" stroke-width="0" fill="#D1D1D1" fill-opacity="1.0" />
  <path d="M395.801,476.959 L382.0463,483.6135 L382.0636,482.905 L381.5322,482.892 L382.598,439.2844 L377.6386,439.1632 L378.1379,418.7334 L382.3913,418.7334 L383.5985,369.3394 L379.3476,369.2355 L381.8394,281.3784 L392.5291,281.6396 L391.0956,364.486 L395.073,364.486 L395.073,412.6519 L392.9308,414.4517 L392.9308,433.3176 L395.801,433.3176 z" stroke="Black" stroke-width="0" fill="#D1D1D1" fill-opacity="1.0" />
  <path d="M347.075,251.4411 L357.4387,246.2657 L392.6623,246.2657 L420.232,233.6517 L535.7513,233.6517 L535.7513,237.0588 L575.6282,237.0588 L575.6282,263.1973 L571.7587,266.2152 L571.7587,324.526 L575.6574,324.526 L575.6574,345.1236 L572.0674,347.3225 L572.0674,447.7853 L576.5322,447.7853 L576.5322,445.5244 L595.2094,445.5244 L595.2094,462.9895 L586.7247,462.9895 L586.7247,468.9948 L576.8628,468.9948 L576.8628,475.7715 L572.1246,475.7715 L556.4193,482.9516 L556.4193,460.7141 L553.6959,460.7141 L553.6959,246.9308 L511.6033,246.9308 L511.6033,244.8048 L400.7455,244.8048 L400.7455,252.5659 L382.5436,252.5659 L382.5499,252.3081 z" stroke="Black" stroke-width="0" fill="#D1D1D1" fill-opacity="1.0" />
  <path d="M260.1632,249.7811 L284.1895,237.7828 L340.5798,237.7828 L340.5798,365.098 L338.6291,374.6732 L342.5872,373.7515 L342.4121,380.916 L343.4052,396.7135 L345.2852,396.7595 L344.2688,438.3477 L347.9884,438.4386 L347.7107,449.6082 L335.3794,455.4803 L335.0764,476.3101 L321.1081,482.9307 L321.1081,249.7811 z" stroke="Black" stroke-width="0" fill="#D1D1D1" fill-opacity="1.0" />
  <path d="M1.554312E-15,572.2942 L1.38863,572.2942 L1.38863,579.8954 L10.94114,579.8954 L34.23693,569.825 L96.43774,569.825 L96.43774,586.0172 L123.5921,586.0172 L123.5921,660.9162 L116.7896,669.5558 L116.7896,590.0582 L81.65415,590.0582 L81.65415,734.9831 L51.94233,762.1458 L51.94233,588.4635 L0,588.4635" stroke="Black" stroke-width="0" fill="#D1D1D1" fill-opacity="1.0" />
  <path d="M127.7105,578.7153 L149.8941,569.9301 L209.526,569.9301 L209.526,575.5087 L222.945,575.5087 L222.945,709.8691 L212.9448,717.6902 L212.9448,579.7783 L187.7118,579.7783 L187.7118,578.7153 z" stroke="#D1D1D1" stroke-width="0.24" fill-opacity="0" />
  <path d="M-1.310063E-14,572.2942 L1.388652,572.2942 L1.388652,579.8954 L10.94116,579.8954 L34.23697,569.825 L96.43777,569.825 L96.43777,586.0172 L123.5921,586.0172 L123.5921,660.9162 L116.7896,669.5558 L116.7896,590.0582 L81.65417,590.0582 L81.65417,734.9831 L51.94235,762.1458 L51.94235,588.4636 L7.105427E-15,588.4636" stroke="#D1D1D1" stroke-width="0.24" fill-opacity="0" />
  <path d="M274.8196,567.7104 L330.9807,544.2805 L398.8104,544.2805 L398.8104,685.6152 L344.9771,713.8718 L344.9771,568.419 z" stroke="#D1D1D1" stroke-width="0.24" fill-opacity="0" />
  <path d="M347.075,251.4411 L357.4387,246.2657 L392.6623,246.2657 L420.232,233.6517 L535.7514,233.6517 L535.7514,237.0589 L575.6282,237.0589 L575.6282,263.1973 L571.7587,266.2152 L571.7587,324.526 L575.6575,324.526 L575.6575,345.1236 L572.0674,347.3225 L572.0674,447.7853 L576.5323,447.7853 L576.5323,445.5244 L595.2094,445.5244 L595.2094,462.9895 L586.7248,462.9895 L586.7248,468.9948 L576.8628,468.9948 L576.8628,475.7715 L572.1247,475.7715 L556.4194,482.9517 L556.4194,460.7141 L553.6959,460.7141 L553.6959,246.9308 L511.6033,246.9308 L511.6033,244.8049 L400.7455,244.8049 L400.7455,252.5659 L382.5436,252.5659 L382.55,252.3081 z" stroke="#D1D1D1" stroke-width="0.24" fill-opacity="0" />
  <path d="M395.801,476.9591 L395.801,433.3177 L392.9308,433.3177 L392.9308,414.4517 L395.0731,412.652 L395.0731,364.4861 L391.0956,364.4861 L392.5291,281.6396 L381.8395,281.3784 L379.3476,369.2355 L383.5985,369.3394 L382.3914,418.7334 L378.1379,418.7334 L377.6386,439.1632 L382.598,439.2845 L381.5323,482.892 L382.0636,482.905 L382.0463,483.6135 z" stroke="#D1D1D1" stroke-width="0.24" fill-opacity="0" />
  <path d="M127.7105,578.7153 L149.8941,569.93 L209.5259,569.93 L209.5259,575.5087 L222.945,575.5087 L222.945,709.8691 L212.9447,717.6901 L212.9447,579.7783 L187.7118,579.7783 L187.7118,578.7153 z" stroke="Black" stroke-width="0" fill="#D1D1D1" fill-opacity="1.0" />
  <path d="M274.8196,567.7103 L330.9807,544.2805 L398.8103,544.2805 L398.8103,685.6151 L344.9771,713.8718 L344.9771,568.419 z" stroke="Black" stroke-width="0" fill="#D1D1D1" fill-opacity="1.0" />
  <path d="M397.8346,502.303 C398.0764,502.1057 398.0764,501.6078 397.8346,501.4104 C397.6372,501.1686 397.1394,501.1686 396.942,501.4104 C396.7002,501.6078 396.7002,502.1057 396.942,502.303 C397.1394,502.5448 397.6372,502.5448 397.8346,502.303 z" stroke="#000000" stroke-width="0.24" fill-opacity="0" />
  <path d="M385.1191,500.2335 C386.209,497.5587 386.7333,496.2101 388.0705,494.4309 C389.4077,492.6518 391.5577,490.4419 394.4698,489.7962 C397.3818,489.1505 401.0559,490.0688 402.9912,491.7264 C404.9265,493.3841 405.123,495.781 406.7442,498.2816 C408.3653,500.7822 411.411,503.3864 411.393,505.8442 C411.375,508.3021 408.2933,510.6135 405.2578,512.3381 C402.2222,514.0627 399.2329,515.2005 397.259,514.3382 C395.2851,513.4758 394.3265,510.6134 391.7391,509.7088 C389.1516,508.8042 384.9352,509.8574 383.6546,508.3835 C382.374,506.9095 384.0293,502.9083 385.1191,500.2335 z" stroke="#000000" stroke-width="0.24" fill-opacity="0" />
  <path d="M385.038,494.7567 C386.3624,492.7763 389.6283,492.456 392.4503,491.4034 C395.1425,490.3992 397.4307,488.7285 399.7247,488.6978 C404.2892,488.6366 408.8767,495.0679 409.4152,500.7217 C409.8768,505.5684 407.3629,509.8436 403.504,512.5668 C400.8739,514.4229 397.6189,515.558 394.7921,514.9155 C391.3334,514.1293 388.5156,510.6819 386.7399,507.3629 C385.6815,505.3846 384.9933,503.4519 384.5694,501.1508 C384.1564,498.9089 383.9944,496.3173 385.038,494.7567 z" stroke="#000000" stroke-width="0.24" fill-opacity="0" />
  <path d="M12.82641,571.5654 C13.06827,571.3681 13.06827,570.8702 12.82641,570.6729 C12.62908,570.431 12.1312,570.431 11.93386,570.6729 C11.692,570.8702 11.692,571.3681 11.93386,571.5654 C12.1312,571.8073 12.62908,571.8073 12.82641,571.5654 z" stroke="#000000" stroke-width="0.24" fill-opacity="0" />
  <path d="M0.1109701,569.4959 C1.200786,566.8211 1.725118,565.4726 3.062303,563.6934 C4.399488,561.9142 6.549527,559.7044 9.461578,559.0587 C12.37363,558.4129 16.0477,559.3312 17.983,560.9889 C19.9183,562.6465 20.11485,565.0435 21.73599,567.5441 C23.35713,570.0446 26.40287,572.6489 26.38486,575.1067 C26.36685,577.5645 23.28509,579.8759 20.24957,581.6005 C17.21404,583.3251 14.22476,584.463 12.25084,583.6006 C10.27692,582.7383 9.318377,579.8759 6.730892,578.9713 C4.143406,578.0667 -0.07301898,579.1199 -1.353582,577.6459 C-2.634145,576.1719 -0.9788455,572.1708 0.1109701,569.4959 z" stroke="#000000" stroke-width="0.24" fill-opacity="0" />
  <path d="M0.02985884,564.0191 C1.354231,562.0388 4.620162,561.7184 7.442178,560.6658 C10.13435,559.6617 12.42251,557.991 14.71651,557.9602 C19.28098,557.899 23.86854,564.3304 24.40701,569.9842 C24.8686,574.8308 22.3547,579.1061 18.49586,581.8293 C15.8657,583.6854 12.61073,584.8204 9.783898,584.1779 C6.325214,583.3917 3.507454,579.9444 1.731759,576.6254 C0.6733371,574.6471 -0.01485163,572.7144 -0.4387366,570.4133 C-0.8517286,568.1713 -1.013826,565.5798 0.02985884,564.0191 z" stroke="#000000" stroke-width="0.24" fill-opacity="0" />
  <path d="M269.7148,196.5676 C269.9566,196.3703 269.9566,195.8724 269.7148,195.6751 C269.5175,195.4332 269.0196,195.4332 268.8222,195.6751 C268.5804,195.8724 268.5804,196.3703 268.8222,196.5676 C269.0196,196.8095 269.5175,196.8095 269.7148,196.5676 z" stroke="#000000" stroke-width="0.24" fill-opacity="0" />
  <path d="M256.9994,194.4981 C258.0892,191.8233 258.6135,190.4748 259.9507,188.6956 C261.2879,186.9164 263.4379,184.7066 266.3499,184.0609 C269.262,183.4151 272.9361,184.3335 274.8714,185.9911 C276.8067,187.6487 277.0032,190.0457 278.6244,192.5462 C280.2455,195.0468 283.2912,197.6511 283.2732,200.1089 C283.2552,202.5667 280.1735,204.8781 277.1379,206.6027 C274.1024,208.3273 271.1131,209.4651 269.1392,208.6028 C267.1653,207.7405 266.2068,204.878 263.6193,203.9734 C261.0318,203.0688 256.8154,204.1221 255.5348,202.6481 C254.2542,201.1741 255.9095,197.173 256.9994,194.4981 z" stroke="#000000" stroke-width="0.24" fill-opacity="0" />
  <path d="M256.9182,189.0213 C258.2426,187.041 261.5085,186.7207 264.3306,185.668 C267.0227,184.6638 269.3109,182.9932 271.6049,182.9624 C276.1694,182.9012 280.7569,189.3326 281.2954,194.9864 C281.757,199.833 279.2431,204.1083 275.3842,206.8315 C272.7541,208.6876 269.4991,209.8227 266.6723,209.1801 C263.2136,208.3939 260.3958,204.9466 258.6201,201.6276 C257.5617,199.6493 256.8735,197.7165 256.4496,195.4155 C256.0367,193.1735 255.8746,190.582 256.9182,189.0213 z" stroke="#000000" stroke-width="0.24" fill-opacity="0" />
  <path d="M453.801,196.6492 C453.8102,194.4615 456.1478,192.5596 457.774,190.3222 C459.3254,188.1879 460.2295,185.7482 461.9699,184.561 C465.433,182.1987 472.2072,184.7946 475.4874,188.8494 C478.2993,192.3253 478.5437,196.8732 476.9713,200.9153 C475.8995,203.6704 473.9836,206.1904 471.4938,207.1326 C468.4474,208.2853 464.5416,207.0758 461.4987,205.4359 C459.6849,204.4584 458.1777,203.328 456.6859,201.7816 C455.2325,200.2749 453.7938,198.3733 453.801,196.6492 z" stroke="#000000" stroke-width="0.24" fill-opacity="0" />
  <path d="M467.5009,196.5676 C467.7427,196.3703 467.7427,195.8724 467.5009,195.6751 C467.3035,195.4332 466.8056,195.4332 466.6083,195.6751 C466.3664,195.8724 466.3664,196.3703 466.6083,196.5676 C466.8056,196.8095 467.3035,196.8095 467.5009,196.5676 z" stroke="#000000" stroke-width="0.24" fill-opacity="0" />
  <path d="M464.4134,184.3238 C461.3211,184.8031 459.9726,185.3274 458.1934,186.6646 C456.4142,188.0018 454.2044,190.1518 453.5587,193.0639 C452.9129,195.9759 453.8313,199.65 455.4889,201.5853 C457.1465,203.5206 459.5435,203.7172 462.0441,205.3383 C464.5446,206.9594 467.1489,210.0052 469.6067,209.9872 C472.0645,209.9692 474.3759,206.8874 476.1005,203.8519 C477.8251,200.8164 478.963,197.8271 478.5061,195.7165 C478.0493,193.6059 475.9979,192.374 475.5108,190.397 C475.0236,188.42 476.1007,185.698 474.2213,184.5541 C472.3418,183.4102 467.5057,183.8445 464.4134,184.3238 z" stroke="#000000" stroke-width="0.24" fill-opacity="0" />
  <path d="M82.38902,508.372 C82.63087,508.1747 82.63087,507.6768 82.38902,507.4795 C82.19168,507.2376 81.6938,507.2376 81.49647,507.4795 C81.25461,507.6768 81.25461,508.1747 81.49647,508.372 C81.6938,508.6139 82.19168,508.6139 82.38902,508.372 z" stroke="#000000" stroke-width="0.24" fill-opacity="0" />
  <path d="M69.67358,506.3026 C70.76339,503.6277 71.28772,502.2792 72.62491,500.5 C73.9621,498.7209 76.11213,496.511 79.02419,495.8653 C81.93623,495.2195 85.6103,496.1379 87.5456,497.7955 C89.48091,499.4532 89.67745,501.8501 91.29859,504.3507 C92.91973,506.8513 95.96547,509.4555 95.94746,511.9133 C95.92945,514.3711 92.84769,516.6825 89.81217,518.4072 C86.77665,520.1318 83.78736,521.2696 81.81345,520.4072 C79.83953,519.5449 78.88098,516.6824 76.2935,515.7778 C73.70601,514.8732 69.48959,515.9265 68.20902,514.4525 C66.92846,512.9786 68.58376,508.9774 69.67358,506.3026 z" stroke="#000000" stroke-width="0.24" fill-opacity="0" />
  <path d="M69.59246,500.8257 C70.91684,498.8454 74.18277,498.5251 77.00478,497.4725 C79.69695,496.4683 81.98512,494.7976 84.27911,494.7668 C88.84359,494.7056 93.43115,501.137 93.96961,506.7908 C94.43121,511.6374 91.9173,515.9127 88.05846,518.6359 C85.42831,520.492 82.17334,521.6271 79.3465,520.9845 C75.88782,520.1984 73.07006,516.751 71.29436,513.432 C70.23594,511.4537 69.54775,509.521 69.12387,507.2199 C68.71088,504.978 68.54878,502.3864 69.59246,500.8257 z" stroke="#000000" stroke-width="0.24" fill-opacity="0" />
  <path d="M537.1671,502.303 C537.409,502.1057 537.409,501.6078 537.1671,501.4104 C536.9698,501.1686 536.4719,501.1686 536.2745,501.4104 C536.0327,501.6078 536.0327,502.1057 536.2745,502.303 C536.4719,502.5448 536.9698,502.5448 537.1671,502.303 z" stroke="#000000" stroke-width="0.24" fill-opacity="0" />
  <path d="M524.4517,500.2335 C525.5415,497.5587 526.0658,496.2101 527.403,494.4309 C528.7402,492.6518 530.8903,490.4419 533.8023,489.7962 C536.7144,489.1505 540.3884,490.0688 542.3237,491.7264 C544.259,493.3841 544.4556,495.781 546.0767,498.2816 C547.6978,500.7822 550.7436,503.3864 550.7256,505.8442 C550.7076,508.3021 547.6258,510.6135 544.5903,512.3381 C541.5547,514.0627 538.5654,515.2005 536.5916,514.3382 C534.6176,513.4758 533.6591,510.6134 531.0716,509.7088 C528.4841,508.8042 524.2677,509.8574 522.9871,508.3835 C521.7065,506.9095 523.3619,502.9083 524.4517,500.2335 z" stroke="#000000" stroke-width="0.24" fill-opacity="0" />
  <path d="M524.3705,494.7567 C525.6949,492.7763 528.9609,492.456 531.7829,491.4034 C534.475,490.3992 536.7632,488.7285 539.0572,488.6978 C543.6217,488.6366 548.2092,495.0679 548.7477,500.7217 C549.2093,505.5684 546.6954,509.8436 542.8365,512.5668 C540.2064,514.4229 536.9514,515.558 534.1246,514.9155 C530.6659,514.1293 527.8481,510.6819 526.0724,507.3629 C525.014,505.3846 524.3259,503.4519 523.902,501.1508 C523.489,498.9089 523.3269,496.3173 524.3705,494.7567 z" stroke="#000000" stroke-width="0.24" fill-opacity="0" />
  <path d="M68.79285,571.647 C68.80206,569.4593 71.1396,567.5574 72.76585,565.32 C74.31728,563.1857 75.22134,560.746 76.96177,559.5588 C80.42477,557.1965 87.199,559.7924 90.47924,563.8472 C93.29118,567.3231 93.53556,571.871 91.96308,575.9131 C90.8913,578.6682 88.97546,581.1882 86.48559,582.1304 C83.43919,583.2831 79.53347,582.0735 76.49053,580.4337 C74.67676,579.4562 73.16952,578.3258 71.67776,576.7794 C70.22433,575.2727 68.78559,573.3712 68.79285,571.647 z" stroke="#000000" stroke-width="0.24" fill-opacity="0" />
  <path d="M82.49268,571.5654 C82.73454,571.3681 82.73454,570.8702 82.49268,570.6729 C82.29534,570.431 81.79746,570.431 81.60013,570.6729 C81.35827,570.8702 81.35827,571.3681 81.60013,571.5654 C81.79746,571.8073 82.29534,571.8073 82.49268,571.5654 z" stroke="#000000" stroke-width="0.24" fill-opacity="0" />
  <path d="M79.40522,559.3216 C76.31293,559.8009 74.96441,560.3253 73.18523,561.6624 C71.40606,562.9996 69.19622,565.1497 68.55048,568.0617 C67.90474,570.9738 68.8231,574.6478 70.48074,576.5831 C72.13837,578.5184 74.5353,578.715 77.03588,580.3361 C79.53646,581.9572 82.14069,585.003 84.59851,584.985 C87.05633,584.967 89.36774,581.8852 91.09235,578.8497 C92.81696,575.8141 93.95478,572.8249 93.49798,570.7143 C93.04118,568.6037 90.98975,567.3718 90.50259,565.3948 C90.01544,563.4178 91.09254,560.6958 89.21307,559.5519 C87.33359,558.408 82.49751,558.8423 79.40522,559.3216 z" stroke="#000000" stroke-width="0.24" fill-opacity="0" />
  <path d="M526.7307,580.1863 C526.9725,579.989 526.9725,579.4911 526.7307,579.2938 C526.5333,579.0519 526.0355,579.0519 525.8381,579.2938 C525.5963,579.4911 525.5963,579.989 525.8381,580.1863 C526.0355,580.4282 526.5333,580.4282 526.7307,580.1863 z" stroke="#000000" stroke-width="0.24" fill-opacity="0" />
  <path d="M514.0152,578.1169 C515.105,575.442 515.6293,574.0935 516.9666,572.3143 C518.3037,570.5352 520.4538,568.3253 523.3658,567.6796 C526.2779,567.0338 529.952,567.9522 531.8873,569.6099 C533.8226,571.2675 534.0191,573.6644 535.6402,576.165 C537.2614,578.6655 540.3071,581.2698 540.2891,583.7276 C540.2711,586.1854 537.1893,588.4968 534.1538,590.2214 C531.1183,591.946 528.129,593.0839 526.1551,592.2216 C524.1812,591.3593 523.2226,588.4968 520.6351,587.5922 C518.0477,586.6876 513.8312,587.7408 512.5507,586.2668 C511.2701,584.7928 512.9254,580.7917 514.0152,578.1169 z" stroke="#000000" stroke-width="0.24" fill-opacity="0" />
  <path d="M513.9341,572.6401 C515.2585,570.6597 518.5244,570.3394 521.3464,569.2868 C524.0386,568.2826 526.3268,566.6119 528.6207,566.5812 C533.1852,566.52 537.7728,572.9513 538.3113,578.6051 C538.7728,583.4517 536.259,587.727 532.4001,590.4502 C529.77,592.3063 526.515,593.4414 523.6881,592.7988 C520.2294,592.0126 517.4117,588.5653 515.636,585.2463 C514.5776,583.268 513.8894,581.3353 513.4655,579.0342 C513.0525,576.7923 512.8904,574.2007 513.9341,572.6401 z" stroke="#000000" stroke-width="0.24" fill-opacity="0" />
  <path d="M328.1683,502.303 C328.4102,502.1057 328.4102,501.6078 328.1683,501.4104 C327.971,501.1686 327.4731,501.1686 327.2758,501.4104 C327.0339,501.6078 327.0339,502.1057 327.2758,502.303 C327.4731,502.5448 327.971,502.5448 328.1683,502.303 z" stroke="#000000" stroke-width="0.24" fill-opacity="0" />
  <path d="M314.5092,505.5008 C313.9721,503.1797 315.9743,500.5797 317.1387,497.8019 C318.2495,495.1519 318.598,492.3403 320.1458,490.6469 C323.2258,487.2776 331.0544,488.3358 335.5446,491.8135 C339.3936,494.7947 340.7894,499.5538 340.1331,504.231 C339.6857,507.4189 338.285,510.5687 335.8816,512.1896 C332.9409,514.1727 328.499,513.867 324.864,512.8895 C322.6973,512.3069 320.8173,511.4855 318.8497,510.2194 C316.9326,508.9857 314.9324,507.3299 314.5092,505.5008 z" stroke="#000000" stroke-width="0.24" fill-opacity="0" />
  <path d="M319.375,494.5947 C321.8128,493.0457 323.0214,492.2502 325.142,491.5746 C327.2627,490.899 330.2953,490.3432 333.0431,491.5038 C335.7908,492.6643 338.2536,495.5412 338.8709,498.0135 C339.4881,500.4858 338.2598,502.5534 338.1327,505.5308 C338.0056,508.5082 338.9796,512.3953 337.5411,514.3883 C336.1026,516.3813 332.2516,516.4802 328.7783,516.1275 C325.3049,515.7748 322.2092,514.9706 321.0997,513.1242 C319.9903,511.2778 320.8671,508.3893 319.282,506.153 C317.697,503.9167 313.65,502.3327 313.46,500.3895 C313.27,498.4462 316.9371,496.1436 319.375,494.5947 z" stroke="#000000" stroke-width="0.24" fill-opacity="0" />
  <path d="M397.2995,581.593 C397.5413,581.3957 397.5413,580.8978 397.2995,580.7005 C397.1021,580.4586 396.6042,580.4586 396.4069,580.7005 C396.165,580.8978 396.165,581.3957 396.4069,581.593 C396.6042,581.8349 397.1021,581.8349 397.2995,581.593 z" stroke="#000000" stroke-width="0.24" fill-opacity="0" />
  <path d="M384.584,579.5236 C385.6738,576.8487 386.1982,575.5002 387.5353,573.721 C388.8725,571.9418 391.0226,569.732 393.9346,569.0862 C396.8467,568.4405 400.5208,569.3589 402.4561,571.0165 C404.3914,572.6741 404.5879,575.071 406.209,577.5717 C407.8302,580.0722 410.8759,582.6765 410.8579,585.1343 C410.8399,587.5921 407.7581,589.9035 404.7226,591.6281 C401.6871,593.3527 398.6978,594.4905 396.7239,593.6282 C394.75,592.7659 393.7914,589.9034 391.2039,588.9988 C388.6165,588.0942 384.4,589.1475 383.1195,587.6735 C381.8389,586.1995 383.4942,582.1984 384.584,579.5236 z" stroke="#000000" stroke-width="0.24" fill-opacity="0" />
  <path d="M384.5029,574.0468 C385.8273,572.0664 389.0932,571.7461 391.9152,570.6935 C394.6074,569.6893 396.8956,568.0186 399.1895,567.9878 C403.754,567.9266 408.3416,574.358 408.8801,580.0118 C409.3416,584.8584 406.8278,589.1337 402.9689,591.8569 C400.3387,593.713 397.0838,594.8481 394.257,594.2055 C390.7982,593.4193 387.9805,589.972 386.2048,586.653 C385.1464,584.6747 384.4582,582.7419 384.0343,580.4409 C383.6213,578.1989 383.4592,575.6074 384.5029,574.0468 z" stroke="#000000" stroke-width="0.24" fill-opacity="0" />
  <path d="M335.014,196.5676 C335.2559,196.3703 335.2559,195.8724 335.014,195.6751 C334.8167,195.4332 334.3188,195.4332 334.1215,195.6751 C333.8796,195.8724 333.8796,196.3703 334.1215,196.5676 C334.3188,196.8095 334.8167,196.8095 335.014,196.5676 z" stroke="#000000" stroke-width="0.24" fill-opacity="0" />
  <path d="M322.2986,194.4981 C323.3884,191.8233 323.9128,190.4748 325.2499,188.6956 C326.5871,186.9164 328.7372,184.7066 331.6492,184.0609 C334.5613,183.4151 338.2353,184.3335 340.1706,185.9911 C342.1059,187.6487 342.3025,190.0457 343.9236,192.5462 C345.5448,195.0468 348.5905,197.6511 348.5725,200.1089 C348.5545,202.5667 345.4727,204.8781 342.4372,206.6027 C339.4017,208.3273 336.4124,209.4651 334.4385,208.6028 C332.4646,207.7405 331.506,204.878 328.9185,203.9734 C326.3311,203.0688 322.1146,204.1221 320.834,202.6481 C319.5535,201.1741 321.2088,197.173 322.2986,194.4981 z" stroke="#000000" stroke-width="0.24" fill-opacity="0" />
  <path d="M322.2175,189.0213 C323.5419,187.041 326.8078,186.7207 329.6298,185.668 C332.322,184.6638 334.6101,182.9932 336.9041,182.9624 C341.4686,182.9012 346.0562,189.3326 346.5946,194.9864 C347.0562,199.833 344.5423,204.1083 340.6835,206.8315 C338.0533,208.6876 334.7984,209.8227 331.9715,209.1801 C328.5128,208.3939 325.6951,204.9466 323.9194,201.6276 C322.861,199.6493 322.1728,197.7165 321.7489,195.4155 C321.3359,193.1735 321.1738,190.582 322.2175,189.0213 z" stroke="#000000" stroke-width="0.24" fill-opacity="0" />
  <path d="M453.801,581.4374 C453.8102,579.2497 456.1478,577.3478 457.774,575.1104 C459.3254,572.9761 460.2295,570.5364 461.9699,569.3492 C465.433,566.9869 472.2072,569.5828 475.4874,573.6376 C478.2993,577.1135 478.5437,581.6614 476.9713,585.7035 C475.8995,588.4586 473.9836,590.9786 471.4938,591.9208 C468.4474,593.0734 464.5416,591.864 461.4987,590.2241 C459.6849,589.2466 458.1777,588.1162 456.6859,586.5698 C455.2325,585.0631 453.7938,583.1615 453.801,581.4374 z" stroke="#000000" stroke-width="0.24" fill-opacity="0" />
  <path d="M467.5009,581.3558 C467.7427,581.1585 467.7427,580.6606 467.5009,580.4633 C467.3035,580.2214 466.8056,580.2214 466.6083,580.4633 C466.3664,580.6606 466.3664,581.1585 466.6083,581.3558 C466.8056,581.5977 467.3035,581.5977 467.5009,581.3558 z" stroke="#000000" stroke-width="0.24" fill-opacity="0" />
  <path d="M464.4134,569.112 C461.3211,569.5913 459.9726,570.1156 458.1934,571.4528 C456.4142,572.79 454.2044,574.9401 453.5587,577.8521 C452.9129,580.7642 453.8313,584.4382 455.4889,586.3735 C457.1465,588.3088 459.5435,588.5054 462.0441,590.1265 C464.5446,591.7476 467.1489,594.7934 469.6067,594.7754 C472.0645,594.7574 474.3759,591.6756 476.1005,588.6401 C477.8251,585.6046 478.963,582.6152 478.5061,580.5047 C478.0493,578.3941 475.9979,577.1622 475.5108,575.1852 C475.0236,573.2083 476.1007,570.4862 474.2213,569.3423 C472.3418,568.1984 467.5057,568.6327 464.4134,569.112 z" stroke="#000000" stroke-width="0.24" fill-opacity="0" />
  <path d="M397.8346,196.5676 C398.0764,196.3703 398.0764,195.8724 397.8346,195.6751 C397.6372,195.4332 397.1394,195.4332 396.942,195.6751 C396.7002,195.8724 396.7002,196.3703 396.942,196.5676 C397.1394,196.8095 397.6372,196.8095 397.8346,196.5676 z" stroke="#000000" stroke-width="0.24" fill-opacity="0" />
  <path d="M385.1191,194.4981 C386.209,191.8233 386.7333,190.4748 388.0705,188.6956 C389.4077,186.9164 391.5577,184.7066 394.4698,184.0609 C397.3818,183.4151 401.0559,184.3335 402.9912,185.9911 C404.9265,187.6487 405.123,190.0457 406.7442,192.5462 C408.3653,195.0468 411.411,197.6511 411.393,200.1089 C411.375,202.5667 408.2933,204.8781 405.2578,206.6027 C402.2222,208.3273 399.2329,209.4651 397.259,208.6028 C395.2851,207.7405 394.3265,204.878 391.7391,203.9734 C389.1516,203.0688 384.9352,204.1221 383.6546,202.6481 C382.374,201.1741 384.0293,197.173 385.1191,194.4981 z" stroke="#000000" stroke-width="0.24" fill-opacity="0" />
  <path d="M385.038,189.0213 C386.3624,187.041 389.6283,186.7207 392.4503,185.668 C395.1425,184.6638 397.4307,182.9932 399.7247,182.9624 C404.2892,182.9012 408.8767,189.3326 409.4152,194.9864 C409.8768,199.833 407.3629,204.1083 403.504,206.8315 C400.8739,208.6876 397.6189,209.8227 394.7921,209.1801 C391.3334,208.3939 388.5156,204.9466 386.7399,201.6276 C385.6815,199.6493 384.9933,197.7165 384.5694,195.4155 C384.1564,193.1735 383.9944,190.582 385.038,189.0213 z" stroke="#000000" stroke-width="0.24" fill-opacity="0" />
  <path d="M453.801,502.3846 C453.8102,500.1968 456.1478,498.2949 457.774,496.0576 C459.3254,493.9232 460.2295,491.4836 461.9699,490.2963 C465.433,487.934 472.2072,490.53 475.4874,494.5847 C478.2993,498.0606 478.5437,502.6086 476.9713,506.6506 C475.8995,509.4057 473.9836,511.9258 471.4938,512.8679 C468.4474,514.0206 464.5416,512.8111 461.4987,511.1712 C459.6849,510.1938 458.1777,509.0634 456.6859,507.5169 C455.2325,506.0103 453.7938,504.1087 453.801,502.3846 z" stroke="#000000" stroke-width="0.24" fill-opacity="0" />
  <path d="M467.5009,502.303 C467.7427,502.1057 467.7427,501.6078 467.5009,501.4104 C467.3035,501.1686 466.8056,501.1686 466.6083,501.4104 C466.3664,501.6078 466.3664,502.1057 466.6083,502.303 C466.8056,502.5448 467.3035,502.5448 467.5009,502.303 z" stroke="#000000" stroke-width="0.24" fill-opacity="0" />
  <path d="M464.4134,490.0591 C461.3211,490.5385 459.9726,491.0628 458.1934,492.4 C456.4142,493.7372 454.2044,495.8872 453.5587,498.7992 C452.9129,501.7113 453.8313,505.3853 455.4889,507.3206 C457.1465,509.256 459.5435,509.4525 462.0441,511.0736 C464.5446,512.6948 467.1489,515.7405 469.6067,515.7225 C472.0645,515.7045 474.3759,512.6227 476.1005,509.5872 C477.8251,506.5517 478.963,503.5624 478.5061,501.4518 C478.0493,499.3412 475.9979,498.1093 475.5108,496.1324 C475.0236,494.1554 476.1007,491.4333 474.2213,490.2895 C472.3418,489.1456 467.5057,489.5798 464.4134,490.0591 z" stroke="#000000" stroke-width="0.24" fill-opacity="0" />
  <path d="M12.72275,508.372 C12.96461,508.1747 12.96461,507.6768 12.72275,507.4795 C12.52542,507.2376 12.02754,507.2376 11.8302,507.4795 C11.58834,507.6768 11.58834,508.1747 11.8302,508.372 C12.02754,508.6139 12.52542,508.6139 12.72275,508.372 z" stroke="#000000" stroke-width="0.24" fill-opacity="0" />
  <path d="M-0.9363587,511.5699 C-1.473421,509.2488 0.5287148,506.6487 1.693127,503.871 C2.803963,501.221 3.152392,498.4094 4.700282,496.716 C7.780189,493.3467 15.60887,494.4049 20.09899,497.8826 C23.94807,500.8638 25.34382,505.6229 24.68749,510.3 C24.24014,513.488 22.83947,516.6378 20.436,518.2587 C17.4953,520.2418 13.05342,519.9361 9.418404,518.9586 C7.251714,518.3759 5.371696,517.5546 3.404094,516.2885 C1.487056,515.0548 -0.5131212,513.399 -0.9363587,511.5699 z" stroke="#000000" stroke-width="0.24" fill-opacity="0" />
  <path d="M3.929417,500.6637 C6.36726,499.1147 7.575838,498.3193 9.696467,497.6436 C11.8171,496.968 14.84978,496.4122 17.59752,497.5728 C20.34526,498.7334 22.80807,501.6103 23.42532,504.0826 C24.04257,506.5549 22.81426,508.6225 22.68712,511.5999 C22.55998,514.5773 23.53401,518.4644 22.09554,520.4574 C20.65706,522.4504 16.80608,522.5493 13.33271,522.1965 C9.859343,521.8439 6.763586,521.0396 5.654142,519.1933 C4.544698,517.3469 5.421568,514.4584 3.836489,512.2221 C2.25141,509.9858 -1.795618,508.4018 -1.985577,506.4585 C-2.175536,504.5153 1.491573,502.2127 3.929417,500.6637 z" stroke="#000000" stroke-width="0.24" fill-opacity="0" />
  <path d="M320.2223,462.1359 L320.2223,384.4267 L321.1081,384.4267 L321.1081,462.1359" stroke="#000000" stroke-width="0.24" fill-opacity="0" />
  <path d="M260.1632,482.9307 L260.1632,249.7811 L321.1081,249.7811 L321.1081,482.9307 z M261.0491,482.0448 L320.2223,482.0448 L320.2223,250.6669 L261.0491,250.6669 z" stroke="Black" stroke-width="0" fill="#000000" fill-opacity="1.0" />
  <path d="M321.1081,383.5409 L321.1081,249.7811 L260.1632,249.7811 L260.1632,383.5409 L261.0491,383.5409 L261.0491,250.6669 L320.2223,250.6669 L320.2223,383.5409 z" stroke="#000000" stroke-width="0.24" fill-opacity="0" />
  <path d="M320.2223,482.9307 L321.1081,482.9307 L321.1081,462.911 L320.2223,462.911 z" stroke="#000000" stroke-width="0.24" fill-opacity="0" />
  <path d="M260.1632,462.911 L260.1633,462.0251 L321.1081,462.0251 L321.1081,462.911 z" stroke="#000000" stroke-width="0.24" fill-opacity="0" />
  <path d="M260.1632,383.5409 L321.1081,383.5409 L321.1081,384.4267 L260.1634,384.4267 z" stroke="#000000" stroke-width="0.24" fill-opacity="0" />
  <path d="M261.0491,482.9307 L260.1632,482.9307 L260.1632,462.911 L261.0491,462.911 z" stroke="#000000" stroke-width="0.24" fill-opacity="0" />
  <path d="M187.7118,579.7783 L212.9447,579.7783 L212.9447,670.5755 L187.7118,670.5755 z" stroke="#000000" stroke-width="0.24" fill-opacity="0" />
  <path d="M127.7105,578.7153 L187.7118,578.7153 L187.7118,717.6901 L127.7105,717.6901 z" stroke="#000000" stroke-width="0.24" fill-opacity="0" />
  <path d="M0,588.4635 L51.94233,588.4635 L51.94233,762.1458 L-5.329071E-15,762.1458" stroke="#000000" stroke-width="0.24" fill-opacity="0" />
  <path d="M343.8741,454.5012 L344.9368,454.5272 L348.4792,454.6137 L348.8741,438.4602 L380.4725,439.2325 L382.598,439.2844 L382.2032,455.4379 L381.5463,482.3179" stroke="#000000" stroke-width="0.24" fill-opacity="0" />
  <path d="M345.6344,310.3873 L347.075,251.4411 L364.4578,251.866 L382.5499,252.3081 L381.1093,311.2542 z" stroke="#000000" stroke-width="0.24" fill-opacity="0" />
  <path d="M344.2688,438.3477 L343.8741,454.5012 L342.5907,454.5074 L341.9032,482.6322 L381.8338,483.6083 L382.0463,483.6135 L382.0636,482.905 L381.5322,482.892 L381.5426,482.466 L381.5463,482.3179" stroke="#000000" stroke-width="0.24" fill-opacity="0" />
  <path d="M380.7648,311.2458 L379.3476,369.2355 L377.6386,439.1632" stroke="#000000" stroke-width="0.24" fill-opacity="0" />
  <path d="M367.2566,483.2518 L367.2229,484.6334 L357.8354,484.404 L357.8692,483.0224" stroke="#000000" stroke-width="0.24" fill-opacity="0" />
  <path d="M413.8163,375.4898 z" stroke="#000000" stroke-width="0.24" fill-opacity="0" />
  <path d="M423.7769,386.4835 L423.7092,386.4836 L423.6861,386.4836 L413.8166,375.4902 L423.6844,365.6368 L535.4291,365.5338 L535.6107,365.5336 L544.5624,375.3749 L544.5624,375.3749" stroke="#000000" stroke-width="0.24" fill-opacity="0" />
  <path d="M535.429,265.1977 L544.5624,256.0643" stroke="#000000" stroke-width="0.24" fill-opacity="0" />
  <path d="M413.8166,375.4902 z" stroke="#000000" stroke-width="0.24" fill-opacity="0" />
  <path d="M544.5625,375.3797 z" stroke="#000000" stroke-width="0.24" fill-opacity="0" />
  <path d="M425.4402,269.4996 L413.3165,257.3759" stroke="#000000" stroke-width="0.24" fill-opacity="0" />
  <path d="M535.429,386.3807 L535.429,386.3806 L535.6107,386.3805 L544.5625,375.3797" stroke="#000000" stroke-width="0.24" fill-opacity="0" />
  <path d="M538.1771,478.9562 L545.3005,471.8329 L553.1052,479.6375" stroke="#000000" stroke-width="0.24" fill-opacity="0" />
  <path d="M552.4239,464.7095 L545.3005,471.8329 L538.1771,464.7095" stroke="#000000" stroke-width="0.24" fill-opacity="0" />
  <path d="M4.767608,22.25217 L191.6239,22.25217 L191.6239,272.0482 L4.767608,272.0482 z" stroke="#000000" stroke-width="0.24" fill-opacity="0" />
  <path d="M186.1531,409.501 L193.2184,409.501 L193.2184,486.7664 L6.620758,486.7664 L6.620758,431.5262 L6.620758,301.6711 L177.4507,301.6711 L177.4507,326.2188 L193.2184,326.2188 L193.2184,381.0979 L169.0956,381.0979 L169.0956,409.501 L169.0956,431.5262 L6.620758,431.5262" stroke="#000000" stroke-width="0.24" fill-opacity="0" />
  <path d="M311.0789,21.40937 L260.7639,21.40937 L260.7639,151.1263 L289.1104,151.1263 L289.1104,140.4964 L311.0789,140.4964 z" stroke="#000000" stroke-width="0.24" fill-opacity="0" />
  <path d="M344.9771,687.1198 L344.9771,713.8718 L344.9771,714.5804" stroke="#000000" stroke-width="0.24" fill-opacity="0" />
  <path d="M193.2185,470.0793 L199.9507,470.0793 L199.9507,492.2585 L169.2867,492.2585 L169.2867,486.7664" stroke="#000000" stroke-width="0.24" fill-opacity="0" />
  <path d="M199.9507,496.1562 L191.0924,496.1562 L64.61052,496.1562" stroke="#000000" stroke-width="0.24" fill-opacity="0" />
  <path d="M612.368,251.8914 C612.7215,248.4044 608.7684,244.4513 605.2814,244.8048 L259.995,244.8048 L259.995,500.3707 L605.2814,500.3707 C608.7684,500.7242 612.7215,496.7711 612.368,493.2841" stroke="#5D5D5D" stroke-width="0.24" fill-opacity="0" />
  <path d="M603.5097,509.2289 L263.184,509.2289 C257.2559,509.8299 250.5357,503.1097 251.1367,497.1817 L251.1367,247.9938 C250.5357,242.0658 257.2559,235.3456 263.184,235.9466 L603.5097,235.9466 C607.6422,235.8367 612.6137,237.7121 616.0372,241.1356 C619.4606,244.5591 621.3361,249.5306 621.2263,253.6631" stroke="#5D5D5D" stroke-width="0.24" fill-opacity="0" />
  <path d="M621.2263,491.5124 C621.3361,495.6449 619.4606,500.6164 616.0372,504.0399 C612.6137,507.4633 607.6422,509.3388 603.5097,509.2289" stroke="#5D5D5D" stroke-width="0.24" fill-opacity="0" />
  <path d="M578.186,903.5212 C587.4289,853.6159 600.9951,804.3253 618.5901,756.7188 C619.0167,755.303 620.8062,754.1843 622.2657,754.4209" stroke="#5D5D5D" stroke-width="0.24" fill-opacity="0" />
  <path d="M678.3682,760.0206 C679.4874,760.1006 680.6742,760.8905 681.1734,761.9378 C698.483,808.058 711.6855,855.4869 720.6444,903.5212" stroke="#5D5D5D" stroke-width="0.24" fill-opacity="0" />
  <path d="M596.7842,617.6057 L612,624.8038" stroke="#5D5D5D" stroke-width="0.24" fill-opacity="0" />
  <path d="M612.7164,625.1428 C616.1413,626.7295 619.1976,629.6577 620.9258,633.1145" stroke="#5D5D5D" stroke-width="0.24" fill-opacity="0" />
  <path d="M621.8522,635.2767 C623.4247,639.5579 623.1247,644.8236 621.0762,648.8986 C589.4095,714.0987 553.6004,777.3929 514.0843,838.0488 C507.808,847.6591 502.1078,857.7098 497.0618,868.0881 C491.4924,879.5389 486.7114,891.4073 482.788,903.5212" stroke="#5D5D5D" stroke-width="0.24" fill-opacity="0" />
  <path d="M445.7642,903.5212 C454.2207,873.6205 467.396,844.697 484.4055,818.6923 C526.2975,754.3915 563.9342,687.0577 596.7842,617.6057 C604.7684,600.7284 612.4714,583.7269 619.8878,566.6152" stroke="#5D5D5D" stroke-width="0.24" fill-opacity="0" />
  <path d="M681.3006,566.6152 C691.5634,575.3904 699.1169,588.2753 701.7612,601.5168" stroke="#5D5D5D" stroke-width="0.24" fill-opacity="0" />
  <path d="M713.3201,650.5336 C718.3293,666.3795 728.6569,681.2173 741.7768,691.4178 C769.8607,736.0077 796.2856,781.6863 820.9399,828.2602 C832.33,852.4322 841.6031,877.7167 848.5419,903.5212" stroke="#5D5D5D" stroke-width="0.24" fill-opacity="0" />
  <path d="M601.8158,202.3098 C597.6092,204.4629 593.0697,205.4088 588.9545,205.3994 L258.2777,205.49 L258.2247,12.0251 C257.9766,9.584206 260.743,6.816321 263.184,7.063115 L588.9001,6.973858 C595.5121,6.796269 603.4673,9.794792 608.9464,15.27085 C614.4255,20.74691 617.4283,28.7005 617.2544,35.31255" stroke="#5D5D5D" stroke-width="0.24" fill-opacity="0" />
  <path d="M617.2932,177.0452 C617.6656,186.2482 611.58,197.691 601.8158,202.3098" stroke="#5D5D5D" stroke-width="0.24" fill-opacity="0" />
  <path d="M251.1911,205.4919 L251.1381,12.02705 C250.5355,6.099151 257.2538,-0.6228562 263.182,-0.02349899" stroke="#5D5D5D" stroke-width="0.24" fill-opacity="0" />
  <path d="M588.8983,-0.1127558 C597.1631,-0.3347421 607.1072,3.413412 613.9561,10.25848 C620.8049,17.10356 624.5585,27.04555 624.341,35.3106" stroke="#5D5D5D" stroke-width="0.24" fill-opacity="0" />
  <path d="M624.3798,177.0432 C624.6018,185.3082 620.8537,195.2522 614.0086,202.101 C607.1635,208.9498 597.2216,212.7034 588.9565,212.486 L258.2797,212.5766 C254.7927,212.9311 250.8385,208.9791 251.1911,205.4919" stroke="#5D5D5D" stroke-width="0.24" fill-opacity="0" />
  <path d="M217.7398,509.6793 L-4.884981E-14,509.6793" stroke="#5D5D5D" stroke-width="0.24" fill-opacity="0" />
  <path d="M-6.400233,509.6793 C-12.32829,510.2803 -19.04846,503.5601 -18.44748,497.632" stroke="#5D5D5D" stroke-width="0.24" fill-opacity="0" />
  <path d="M-18.44748,13.4898 C-19.04846,7.561736 -12.32829,0.84157 -6.400233,1.442552" stroke="#5D5D5D" stroke-width="0.24" fill-opacity="0" />
  <path d="M-8.881784E-16,1.442552 L217.7398,1.442552 C223.6679,0.84157 230.388,7.561736 229.7871,13.4898 L229.7871,497.632 C230.388,503.5601 223.6679,510.2803 217.7398,509.6793" stroke="#5D5D5D" stroke-width="0.24" fill-opacity="0" />
  <path d="M344.4043,365.1914 L327.6351,364.7816 L326.8645,396.3093 L343.6338,396.7191 L340.9333,507.2139 L251.1367,507.2139 L251.1367,237.9225 L347.5147,237.9225 z M343.022,363.7399 L346.0623,239.3398 L252.554,239.3398 L252.554,505.7965 L339.5502,505.7965 L342.1822,398.1014 L325.413,397.6916 L326.2528,363.3301 z" stroke="Black" stroke-width="0" fill="#FF0000" fill-opacity="1.0" />
  <path d="M583.3931,538.259 L583.3931,524.0857 L585.6891,524.0857 L585.6891,538.259 z" stroke="Black" stroke-width="0" fill="#000000" fill-opacity="1.0" />
  <text x="214.443669328065" y="414.429482463165" font-family="Arial" font-size="5.14935pt">Post Office Pl</text>
  <text x="446.025569522429" y="226.176874325852" font-family="Arial" font-size="5.14935pt">Post Office Ln</text>
  <text x="446.025569522429" y="536.792202453076" font-family="Arial" font-size="5.14935pt">Franklin Street</text>
  <text x="268.485724397533" y="374.969589604494" font-family="Arial" font-size="5.06847pt">65.80</text>
  <text x="281.937872673174" y="260.06459379984" font-family="Arial" font-size="5.06847pt">17.25</text>
  <text x="327.333069594132" y="260.06459379984" font-family="Arial" font-size="5.06847pt">7.30</text>
  <text x="268.485724397533" y="237.558570811016" font-family="Arial" font-size="5.06847pt">3.35</text>
  <text x="268.485724397533" y="501.771845393593" font-family="Arial" font-size="5.06847pt">6.85</text>
  <text x="248.111630015" y="258.818483164871" font-family="Arial" font-size="5.06847pt">2.50</text>
  <text x="587.621200423136" y="528.637990444651" font-family="Arial" font-size="4.96063pt">N</text>
  <text x="240.703743292417" y="381.181916224361" font-family="Arial" font-size="5.06847pt">76.00</text>
  <text x="290.712007330921" y="229.29616690383" font-family="Arial" font-size="5.06847pt">27.20</text>
  <path d="M260.1633,482.9307 L321.1082,482.9307 L321.1082,249.7811 L260.1633,249.7811 z" stroke="#000000" stroke-width="0.24" fill-opacity="0" />
  <path d="M320.2223,482.9307 L320.2223,482.0449 L261.0491,482.0449 L261.0491,482.9307 z" stroke="#000000" stroke-width="0.24" fill-opacity="0" />
  <path d="M261.0491,482.0449 L320.2223,482.0449 L320.2223,250.6669 L261.0491,250.6669 z" stroke="#000000" stroke-width="0.24" fill-opacity="0" />
  <path d="M90.67493,679.6152 L121.6009,679.6152 L121.6009,765.8416 L90.67493,765.8416 z" stroke="#000000" stroke-width="0.24" fill-opacity="0" />
  <path d="M212.9448,670.5755 L212.9448,717.6902 L187.7118,717.6902" stroke="#000000" stroke-width="0.24" fill-opacity="0" />
  <path d="M116.7896,669.5558 L116.7896,590.0582 L81.65417,590.0582 L81.65417,669.5558 z" stroke="#000000" stroke-width="0.24" fill-opacity="0" />
  <path d="M511.6033,244.8049 L501.8329,257.3759 L511.6033,269.4996" stroke="#000000" stroke-width="0.24" fill-opacity="0" />
  <path d="M423.796,477.717 L534.1818,477.612" stroke="#000000" stroke-width="0.24" fill-opacity="0" />
  <path d="M535.429,386.011 L514.1691,421.909 L535.429,457.8069" stroke="#000000" stroke-width="0.24" fill-opacity="0" />
  <path d="M423.777,457.8069 L445.0368,421.909 L423.777,386.011" stroke="#000000" stroke-width="0.24" fill-opacity="0" />
  <path d="M400.7455,324.6427 L413.3166,313.4264 L425.4402,324.6427" stroke="#000000" stroke-width="0.24" fill-opacity="0" />
  <path d="M184.5373,272.0482 L184.5373,282.6782 L54.37394,282.6782 L54.37394,272.0485" stroke="#000000" stroke-width="0.24" fill-opacity="0" />
  <path d="M125.2832,486.7664 L125.2832,492.2585 L152.6703,492.2585 L152.6703,486.7664" stroke="#000000" stroke-width="0.24" fill-opacity="0" />
  <path d="M86.78011,486.7664 L86.78011,492.2585 L114.1672,492.2585 L114.1672,486.7664" stroke="#000000" stroke-width="0.24" fill-opacity="0" />
  <path d="M193.2184,426.0785 L199.5964,426.0785 L199.5964,453.3512 L193.2184,453.3512" stroke="#000000" stroke-width="0.24" fill-opacity="0" />
  <path d="M311.0789,150.4177 L311.0789,140.4964 L311.0789,21.40938 L439.4671,21.40938 L439.4671,151.1263 L418.2072,151.1263 L418.2072,156.4413 L407.5773,156.4413 L407.5773,150.4177 z" stroke="#000000" stroke-width="0.24" fill-opacity="0" />
  <path d="M220.9288,500.821 L-1.776357E-15,500.821" stroke="#5D5D5D" stroke-width="0.24" fill-opacity="0" />
  <path d="M0,10.30085 L220.9288,10.30085 L220.9288,500.821" stroke="#5D5D5D" stroke-width="0.24" fill-opacity="0" />
  <path d="M343.022,363.7399 L326.2528,363.3301 L325.4131,397.6916 L342.1823,398.1014 L339.5502,505.7966 L252.5541,505.7966 L252.5541,239.3399 L346.0623,239.3399 z" stroke="#FF0000" stroke-width="0.24" fill-opacity="0" />
  <path d="M344.4043,365.1914 L327.6351,364.7816 L326.8646,396.3093 L343.6338,396.7191 L340.9333,507.2139 L251.1367,507.2139 L251.1367,237.9225 L347.5147,237.9225 z" stroke="#FF0000" stroke-width="0.24" fill-opacity="0" />
  <path d="M583.3932,538.259 L585.6891,538.259 L585.6891,524.0858 L583.3932,524.0858 z" stroke="#000000" stroke-width="0.24" fill-opacity="0" />
  <path d="M261.0491,384.4268 L261.0491,462.0251" stroke="#000000" stroke-width="0.24" fill-opacity="0" />
  <path d="M321.1082,383.5409 L320.2224,383.5409" stroke="#000000" stroke-width="0.24" fill-opacity="0" />
  <path d="M260.1633,383.5409 L260.1633,462.0252" stroke="#000000" stroke-width="0.24" fill-opacity="0" />
  <path d="M451.4106,163.5613 L451.4106,153.7281" stroke="#000000" stroke-width="0.24" fill-opacity="0" />
  <path d="M574.4905,201.9464 L574.4905,153.733" stroke="#000000" stroke-width="0.24" fill-opacity="0" />
  <path d="M576.6165,18.79939 L576.6165,122.264 L441.8644,122.264" stroke="#000000" stroke-width="0.24" fill-opacity="0" />
  <path d="M473.0916,163.5613 L451.4106,163.5613" stroke="#000000" stroke-width="0.24" fill-opacity="0" />
  <path d="M490.4149,201.9464 L574.4905,201.9464" stroke="#000000" stroke-width="0.24" fill-opacity="0" />
  <path d="M451.4106,153.7281 L441.8644,153.7281" stroke="#000000" stroke-width="0.24" fill-opacity="0" />
  <path d="M483.0128,153.7281 L483.0128,163.5613" stroke="#000000" stroke-width="0.24" fill-opacity="0" />
  <path d="M441.8644,18.79939 L576.6165,18.79939" stroke="#000000" stroke-width="0.24" fill-opacity="0" />
  <path d="M490.4149,153.733 L490.4149,201.9464" stroke="#000000" stroke-width="0.24" fill-opacity="0" />
  <path d="M576.6165,122.264 L576.6165,153.7281 L483.0128,153.7281" stroke="#000000" stroke-width="0.24" fill-opacity="0" />
  <path d="M451.4106,153.7281 L473.0916,153.7281" stroke="#000000" stroke-width="0.24" fill-opacity="0" />
  <path d="M574.4905,153.733 L490.4149,153.733" stroke="#000000" stroke-width="0.24" fill-opacity="0" />
  <path d="M441.8644,153.7281 L441.8644,122.264" stroke="#000000" stroke-width="0.24" fill-opacity="0" />
  <path d="M473.0916,153.7281 L473.0916,163.5613" stroke="#000000" stroke-width="0.24" fill-opacity="0" />
  <path d="M483.0128,163.5613 L473.0916,163.5613" stroke="#000000" stroke-width="0.24" fill-opacity="0" />
  <path d="M473.0916,153.7281 L483.0128,153.7281" stroke="#000000" stroke-width="0.24" fill-opacity="0" />
  <path d="M441.8644,122.264 L441.8644,18.79939" stroke="#000000" stroke-width="0.24" fill-opacity="0" />
  <path d="M341.9032,482.6322 L350.6305,468.1143" stroke="#000000" stroke-width="0.24" fill-opacity="0" />
  <path d="M342.5907,454.5074 L350.6305,468.1143" stroke="#000000" stroke-width="0.24" fill-opacity="0" />
  <path d="M367.9486,485.3955 L357.0733,485.1297" stroke="#000000" stroke-width="0.24" fill-opacity="0" />
  <path d="M341.0653,380.8831 L326.8646,396.3093 L344.9312,396.7508" stroke="#000000" stroke-width="0.24" fill-opacity="0" />
  <path d="M341.0653,380.8831 L327.6351,364.7816" stroke="#000000" stroke-width="0.24" fill-opacity="0" />
  <path d="M365.5629,445.9572 L348.8742,438.4603" stroke="#000000" stroke-width="0.24" fill-opacity="0" />
  <path d="M350.6305,468.1143 L365.0128,468.4659" stroke="#000000" stroke-width="0.24" fill-opacity="0" />
  <path d="M344.9312,396.7508 L345.2852,396.7595" stroke="#000000" stroke-width="0.24" fill-opacity="0" />
  <path d="M383.5985,369.3394 L382.3914,418.7334" stroke="#000000" stroke-width="0.24" fill-opacity="0" />
  <path d="M327.6351,364.7816 L346.0558,365.2318" stroke="#000000" stroke-width="0.24" fill-opacity="0" />
  <path d="M365.1679,462.1107 L365.5629,445.9572" stroke="#000000" stroke-width="0.24" fill-opacity="0" />
  <path d="M342.6544,482.6506 L342.8636,482.6557" stroke="#000000" stroke-width="0.24" fill-opacity="0" />
  <path d="M357.0733,485.1297 L357.1253,483.0042" stroke="#000000" stroke-width="0.24" fill-opacity="0" />
  <path d="M365.5629,445.9572 L382.598,439.2845" stroke="#000000" stroke-width="0.24" fill-opacity="0" />
  <path d="M365.4969,310.8727 L362.3707,438.7901" stroke="#000000" stroke-width="0.24" fill-opacity="0" />
  <path d="M348.8741,438.4602 L347.1028,438.417" stroke="#000000" stroke-width="0.24" fill-opacity="0" />
  <path d="M344.2689,438.3477 L347.1028,438.417" stroke="#000000" stroke-width="0.24" fill-opacity="0" />
  <path d="M363.0172,310.8121 L364.4578,251.866" stroke="#000000" stroke-width="0.24" fill-opacity="0" />
  <path d="M365.0128,468.4659 L374.7899,468.7048" stroke="#000000" stroke-width="0.24" fill-opacity="0" />
  <path d="M344.2689,438.3477 L344.2948,437.285" stroke="#000000" stroke-width="0.24" fill-opacity="0" />
  <path d="M382.3914,418.7334 L380.9744,418.6988" stroke="#000000" stroke-width="0.24" fill-opacity="0" />
  <path d="M347.3951,310.4303 L344.2948,437.285" stroke="#000000" stroke-width="0.24" fill-opacity="0" />
  <path d="M345.6705,380.9956 L341.0653,380.8831" stroke="#000000" stroke-width="0.24" fill-opacity="0" />
  <path d="M327.6351,364.7816 L326.8646,396.3093" stroke="#000000" stroke-width="0.24" fill-opacity="0" />
  <path d="M379.3476,369.2355 L383.5985,369.3394" stroke="#000000" stroke-width="0.24" fill-opacity="0" />
  <path d="M365.1679,462.1107 L348.4792,454.6138" stroke="#000000" stroke-width="0.24" fill-opacity="0" />
  <path d="M383.5985,369.3394 L382.3914,418.7334" stroke="#000000" stroke-width="0.24" fill-opacity="0" />
  <path d="M374.7899,468.7048 L382.0463,483.6135" stroke="#000000" stroke-width="0.24" fill-opacity="0" />
  <path d="M368.0005,483.2699 L367.9486,485.3955" stroke="#000000" stroke-width="0.24" fill-opacity="0" />
  <path d="M378.1404,418.6295 L380.9744,418.6988" stroke="#000000" stroke-width="0.24" fill-opacity="0" />
  <path d="M348.8743,438.4603 z" stroke="#000000" stroke-width="0.24" fill-opacity="0" />
  <path d="M374.7899,468.7048 L382.2032,455.438" stroke="#000000" stroke-width="0.24" fill-opacity="0" />
  <path d="M365.1679,462.1107 L382.2031,455.4379" stroke="#000000" stroke-width="0.24" fill-opacity="0" />
  <path d="M535.5641,462.0964 L534.1818,460.7141" stroke="#000000" stroke-width="0.24" fill-opacity="0" />
  <path d="M556.4194,460.7141 L555.0369,462.0965" stroke="#000000" stroke-width="0.24" fill-opacity="0" />
  <path d="M425.4402,362.9795 L423.6867,362.9795" stroke="#000000" stroke-width="0.24" fill-opacity="0" />
  <path d="M400.7455,269.4996 L400.7455,281.6396" stroke="#000000" stroke-width="0.24" fill-opacity="0" />
  <path d="M511.6033,308.1309 L524.6037,308.1309" stroke="#000000" stroke-width="0.24" fill-opacity="0" />
  <path d="M535.429,386.011 L423.777,386.011" stroke="#000000" stroke-width="0.24" fill-opacity="0" />
  <path d="M425.4402,324.6427 L425.4402,347.9378" stroke="#000000" stroke-width="0.24" fill-opacity="0" />
  <path d="M511.6033,244.8049 L400.7455,244.8049" stroke="#000000" stroke-width="0.24" fill-opacity="0" />
  <path d="M553.6959,445.7216 L553.6959,424.4612" stroke="#000000" stroke-width="0.24" fill-opacity="0" />
  <path d="M544.5624,375.3749 L544.5624,256.0643" stroke="#000000" stroke-width="0.24" fill-opacity="0" />
  <path d="M538.1771,478.9563 L536.7531,480.3803" stroke="#000000" stroke-width="0.24" fill-opacity="0" />
  <path d="M400.7455,269.4996 L400.7455,252.1681" stroke="#000000" stroke-width="0.24" fill-opacity="0" />
  <path d="M511.6033,269.4996 L483.257,269.4996" stroke="#000000" stroke-width="0.24" fill-opacity="0" />
  <path d="M553.6959,332.5335 L553.6959,273.1512" stroke="#000000" stroke-width="0.24" fill-opacity="0" />
  <path d="M413.3166,257.3759 L501.8329,257.3759" stroke="#000000" stroke-width="0.24" fill-opacity="0" />
  <path d="M400.7455,324.6427 L425.4402,324.6427" stroke="#000000" stroke-width="0.24" fill-opacity="0" />
  <path d="M413.3166,313.4264 L413.3166,257.3759" stroke="#000000" stroke-width="0.24" fill-opacity="0" />
  <path d="M381.8296,281.6396 L400.7455,281.6396" stroke="#000000" stroke-width="0.24" fill-opacity="0" />
  <path d="M544.5624,460.7141 L544.5624,375.3799" stroke="#000000" stroke-width="0.24" fill-opacity="0" />
  <path d="M535.5643,481.5692 z" stroke="#000000" stroke-width="0.24" fill-opacity="0" />
  <path d="M423.777,386.011 L423.777,386.4835" stroke="#000000" stroke-width="0.24" fill-opacity="0" />
  <path d="M535.429,457.8069 L423.777,457.8069" stroke="#000000" stroke-width="0.24" fill-opacity="0" />
  <path d="M511.6033,269.4996 L511.6033,308.1309" stroke="#000000" stroke-width="0.24" fill-opacity="0" />
  <path d="M382.2069,266.9039 L400.7455,266.9039" stroke="#000000" stroke-width="0.24" fill-opacity="0" />
  <path d="M423.7771,457.8069 L423.777,457.7062" stroke="#000000" stroke-width="0.24" fill-opacity="0" />
  <path d="M556.4194,460.7141 L534.1818,460.7141" stroke="#000000" stroke-width="0.24" fill-opacity="0" />
  <path d="M556.4194,482.9517 L534.1818,482.9517 L534.1818,477.6119" stroke="#000000" stroke-width="0.24" fill-opacity="0" />
  <path d="M524.6037,343.8111 L524.6037,362.9795" stroke="#000000" stroke-width="0.24" fill-opacity="0" />
  <path d="M483.2568,324.6425 L483.2568,308.1309" stroke="#000000" stroke-width="0.24" fill-opacity="0" />
  <path d="M425.4402,347.9378 L425.4402,362.9795" stroke="#000000" stroke-width="0.24" fill-opacity="0" />
  <path d="M400.7455,244.8049 L413.3166,257.3759" stroke="#000000" stroke-width="0.24" fill-opacity="0" />
  <path d="M511.6033,265.1977 L535.429,265.1977" stroke="#000000" stroke-width="0.24" fill-opacity="0" />
  <path d="M423.796,477.717 z" stroke="#000000" stroke-width="0.24" fill-opacity="0" />
  <path d="M402.7585,362.9795 L402.8678,477.7369" stroke="#000000" stroke-width="0.24" fill-opacity="0" />
  <path d="M413.905,468.3754 L534.1818,468.2609" stroke="#000000" stroke-width="0.24" fill-opacity="0" />
  <path d="M544.5624,256.0643 L553.6959,246.9308" stroke="#000000" stroke-width="0.24" fill-opacity="0" />
  <path d="M553.6959,353.7939 L553.6959,332.5335" stroke="#000000" stroke-width="0.24" fill-opacity="0" />
  <path d="M553.6959,424.4612 L553.6959,353.7939" stroke="#000000" stroke-width="0.24" fill-opacity="0" />
  <path d="M511.6033,246.9308 z" stroke="#000000" stroke-width="0.24" fill-opacity="0" />
  <path d="M423.777,477.717 L402.8678,477.7369" stroke="#000000" stroke-width="0.24" fill-opacity="0" />
  <path d="M535.5641,462.0965 L538.1772,464.7095" stroke="#000000" stroke-width="0.24" fill-opacity="0" />
  <path d="M555.0369,462.0965 L552.424,464.7095" stroke="#000000" stroke-width="0.24" fill-opacity="0" />
  <path d="M402.8678,477.7369 L413.905,468.3754 L413.8047,362.9795" stroke="#000000" stroke-width="0.24" fill-opacity="0" />
  <path d="M511.6033,265.1978 L511.6033,246.9308" stroke="#000000" stroke-width="0.24" fill-opacity="0" />
  <path d="M534.1818,477.6119 L534.1818,460.7141" stroke="#000000" stroke-width="0.24" fill-opacity="0" />
  <path d="M511.6033,256.0643 L544.5624,256.0643" stroke="#000000" stroke-width="0.24" fill-opacity="0" />
  <path d="M535.429,365.5338 L535.429,265.1978" stroke="#000000" stroke-width="0.24" fill-opacity="0" />
  <path d="M483.257,269.4996 L425.4402,269.4996" stroke="#000000" stroke-width="0.24" fill-opacity="0" />
  <path d="M423.6892,365.6368 L423.6867,362.9795" stroke="#000000" stroke-width="0.24" fill-opacity="0" />
  <path d="M553.6959,246.9308 L535.429,246.9308" stroke="#000000" stroke-width="0.24" fill-opacity="0" />
  <path d="M400.7455,281.6396 L400.7455,324.6427" stroke="#000000" stroke-width="0.24" fill-opacity="0" />
  <path d="M511.6033,246.9308 L511.6033,244.8049" stroke="#000000" stroke-width="0.24" fill-opacity="0" />
  <path d="M483.2568,324.6427 z" stroke="#000000" stroke-width="0.24" fill-opacity="0" />
  <path d="M400.7455,347.9378 L400.7455,324.6427" stroke="#000000" stroke-width="0.24" fill-opacity="0" />
  <path d="M483.2568,362.9795 L425.4402,362.9795" stroke="#000000" stroke-width="0.24" fill-opacity="0" />
  <path d="M511.6033,269.4996 L511.6033,265.1978" stroke="#000000" stroke-width="0.24" fill-opacity="0" />
  <path d="M553.1052,479.6375 L553.8481,480.3805" stroke="#000000" stroke-width="0.24" fill-opacity="0" />
  <path d="M423.777,386.4835 L423.777,457.7062" stroke="#000000" stroke-width="0.24" fill-opacity="0" />
  <path d="M483.2568,308.1309 L483.2568,269.4996" stroke="#000000" stroke-width="0.24" fill-opacity="0" />
  <path d="M535.429,386.3806 L535.429,386.011" stroke="#000000" stroke-width="0.24" fill-opacity="0" />
  <path d="M425.4402,324.6427 L425.4402,269.4996" stroke="#000000" stroke-width="0.24" fill-opacity="0" />
  <path d="M445.0368,421.909 L514.1691,421.909" stroke="#000000" stroke-width="0.24" fill-opacity="0" />
  <path d="M483.2568,308.1309 L511.6033,308.1309" stroke="#000000" stroke-width="0.24" fill-opacity="0" />
  <path d="M483.2568,343.8111 L483.2568,324.6427" stroke="#000000" stroke-width="0.24" fill-opacity="0" />
  <path d="M400.7455,362.9795 L400.7455,347.9378" stroke="#000000" stroke-width="0.24" fill-opacity="0" />
  <path d="M535.5641,481.5693 L534.1818,482.9517" stroke="#000000" stroke-width="0.24" fill-opacity="0" />
  <path d="M553.8481,480.3805 L555.0369,481.5692" stroke="#000000" stroke-width="0.24" fill-opacity="0" />
  <path d="M556.4194,482.9517 L556.4194,460.7141" stroke="#000000" stroke-width="0.24" fill-opacity="0" />
  <path d="M555.0369,481.5692 L556.4194,482.9517" stroke="#000000" stroke-width="0.24" fill-opacity="0" />
  <path d="M553.6959,273.1512 L553.6959,246.9308" stroke="#000000" stroke-width="0.24" fill-opacity="0" />
  <path d="M553.6959,460.7141 L553.6959,445.7216" stroke="#000000" stroke-width="0.24" fill-opacity="0" />
  <path d="M535.429,457.8069 L535.429,386.3808" stroke="#000000" stroke-width="0.24" fill-opacity="0" />
  <path d="M536.7529,480.3805 L535.5641,481.5692" stroke="#000000" stroke-width="0.24" fill-opacity="0" />
  <path d="M382.5436,252.5659 L400.7455,252.5659" stroke="#000000" stroke-width="0.24" fill-opacity="0" />
  <path d="M483.2568,343.8111 L483.2568,362.9795" stroke="#000000" stroke-width="0.24" fill-opacity="0" />
  <path d="M423.777,457.7062 L423.777,457.8069" stroke="#000000" stroke-width="0.24" fill-opacity="0" />
  <path d="M400.7455,252.1681 L400.7455,244.8049" stroke="#000000" stroke-width="0.24" fill-opacity="0" />
  <path d="M535.429,246.9308 L511.6033,246.9308" stroke="#000000" stroke-width="0.24" fill-opacity="0" />
  <path d="M524.6037,308.1309 L524.6037,343.8111" stroke="#000000" stroke-width="0.24" fill-opacity="0" />
  <path d="M524.6037,362.9795 L483.2568,362.9795" stroke="#000000" stroke-width="0.24" fill-opacity="0" />
  <path d="M413.8163,375.4898 L544.5645,375.3773" stroke="#000000" stroke-width="0.24" fill-opacity="0" />
  <path d="M423.6867,362.9795 L400.7455,362.9795" stroke="#000000" stroke-width="0.24" fill-opacity="0" />
  <path d="M344.9771,687.1198 L319.1995,687.1198" stroke="#000000" stroke-width="0.24" fill-opacity="0" />
  <path d="M240.0846,687.1198 L274.111,687.1198" stroke="#000000" stroke-width="0.24" fill-opacity="0" />
  <path d="M75.71774,486.7664 L75.71774,492.2585" stroke="#000000" stroke-width="0.24" fill-opacity="0" />
  <path d="M64.61055,496.1562 L64.61055,492.2585" stroke="#000000" stroke-width="0.24" fill-opacity="0" />
  <path d="M34.34762,492.2585 L34.34762,486.7664" stroke="#000000" stroke-width="0.24" fill-opacity="0" />
  <path d="M64.61066,492.2585 L50.78455,492.2585" stroke="#000000" stroke-width="0.24" fill-opacity="0" />
  <path d="M319.1995,687.1198 L319.1995,714.5804" stroke="#000000" stroke-width="0.24" fill-opacity="0" />
  <path d="M75.71774,492.2585 L64.61066,492.2585" stroke="#000000" stroke-width="0.24" fill-opacity="0" />
  <path d="M319.1995,718.3009 L240.0846,718.3009" stroke="#000000" stroke-width="0.24" fill-opacity="0" />
  <path d="M169.0956,409.5011 L169.2726,409.5011" stroke="#000000" stroke-width="0.24" fill-opacity="0" />
  <path d="M50.78474,492.2585 L34.34762,492.2585" stroke="#000000" stroke-width="0.24" fill-opacity="0" />
  <path d="M186.1531,381.0979 L186.1531,409.5011" stroke="#000000" stroke-width="0.24" fill-opacity="0" />
  <path d="M240.0846,718.3009 L240.0846,687.1198" stroke="#000000" stroke-width="0.24" fill-opacity="0" />
  <path d="M274.1109,687.1198 L274.1109,567.7104" stroke="#000000" stroke-width="0.24" fill-opacity="0" />
  <path d="M344.9771,714.5804 L319.1995,714.5804" stroke="#000000" stroke-width="0.24" fill-opacity="0" />
  <path d="M274.1109,567.7104 L344.9771,567.7104 L344.9771,687.1198" stroke="#000000" stroke-width="0.24" fill-opacity="0" />
  <path d="M274.111,687.1198 L319.1995,687.1198" stroke="#000000" stroke-width="0.24" fill-opacity="0" />
  <path d="M319.1995,714.5804 L319.1995,718.3009" stroke="#000000" stroke-width="0.24" fill-opacity="0" />
  <path d="M50.78455,492.2585 L50.78455,486.7664" stroke="#000000" stroke-width="0.24" fill-opacity="0" />
  <path d="M169.2726,409.5011 L186.1532,409.5011" stroke="#000000" stroke-width="0.24" fill-opacity="0" />
  <path d="M199.9507,459.0578 L199.9507,496.1562" stroke="#000000" stroke-width="0.24" fill-opacity="0" />
  <path d="M193.2186,459.0578 L199.9507,459.0578" stroke="#000000" stroke-width="0.24" fill-opacity="0" />
  <path d="M1.421085E-14,568.9587 L217.1363,566.7318" stroke="#5D5D5D" stroke-width="0.24" fill-opacity="0" />
  <path d="M344.9771,567.7104 L344.9771,568.419" stroke="#5D5D5D" stroke-width="0.24" fill-opacity="0" />
  <path d="M274.1109,567.7104 L274.8196,567.7104" stroke="#5D5D5D" stroke-width="0.24" fill-opacity="0" />
  <path d="M344.2684,567.7104 L344.9771,567.7104" stroke="#5D5D5D" stroke-width="0.24" fill-opacity="0" />
  <path d="M274.1109,568.419 L274.1109,567.7104" stroke="#5D5D5D" stroke-width="0.24" fill-opacity="0" />
  <path d="M583.3932,552.4322 L583.3932,524.0858" stroke="#000000" stroke-width="0.24" fill-opacity="0" />
  <path d="M569.22,538.259 L597.5664,538.259" stroke="#000000" stroke-width="0.24" fill-opacity="0" />
  <path d="M261.4034,249.7811 L270.3999,249.7811" stroke="#000000" stroke-width="0.24" fill-opacity="0" />
  <path d="M261.4034,482.9307 L270.3999,482.9307" stroke="#000000" stroke-width="0.24" fill-opacity="0" />
  <path d="M269.1597,249.7811 L269.1597,482.9307" stroke="#000000" stroke-width="0.24" fill-opacity="0" />
  <path d="M259.995,259.8043 L259.995,261.9788" stroke="#000000" stroke-width="0.24" fill-opacity="0" />
  <path d="M321.1082,259.8043 L321.1082,261.9788" stroke="#000000" stroke-width="0.24" fill-opacity="0" />
  <path d="M259.995,260.7386 L321.1082,260.7386" stroke="#000000" stroke-width="0.24" fill-opacity="0" />
  <path d="M321.1082,259.4984 z" stroke="#000000" stroke-width="0.24" fill-opacity="0" />
  <path d="M346.9571,259.4984 z" stroke="#000000" stroke-width="0.24" fill-opacity="0" />
  <path d="M321.1082,260.7386 L346.9571,260.7386" stroke="#000000" stroke-width="0.24" fill-opacity="0" />
  <path d="M267.9196,249.7811 z" stroke="#000000" stroke-width="0.24" fill-opacity="0" />
  <path d="M270.3999,237.9225 z" stroke="#000000" stroke-width="0.24" fill-opacity="0" />
  <path d="M269.1597,249.7811 L269.1597,223.782" stroke="#000000" stroke-width="0.24" fill-opacity="0" />
  <path d="M267.9196,482.9307 z" stroke="#000000" stroke-width="0.24" fill-opacity="0" />
  <path d="M270.3999,507.2139 z" stroke="#000000" stroke-width="0.24" fill-opacity="0" />
  <path d="M269.1597,482.9307 L269.1597,507.2139" stroke="#000000" stroke-width="0.24" fill-opacity="0" />
  <path d="M259.995,259.4984 z" stroke="#000000" stroke-width="0.24" fill-opacity="0" />
  <path d="M251.1367,259.4984 z" stroke="#000000" stroke-width="0.24" fill-opacity="0" />
  <path d="M259.995,260.7386 L251.1367,260.7386" stroke="#000000" stroke-width="0.24" fill-opacity="0" />
  <path d="M249.8966,237.9225 L240.1376,237.9225" stroke="#BF3F3F" stroke-width="0.24" fill-opacity="0" />
  <path d="M249.8966,507.2139 L240.1376,507.2139" stroke="#BF3F3F" stroke-width="0.24" fill-opacity="0" />
  <path d="M241.3777,237.9225 L241.3777,507.2139" stroke="#BF3F3F" stroke-width="0.24" fill-opacity="0" />
  <path d="M251.1367,236.6824 L251.1367,228.73" stroke="#BF3F3F" stroke-width="0.24" fill-opacity="0" />
  <path d="M347.5147,236.6824 L347.5147,228.73" stroke="#BF3F3F" stroke-width="0.24" fill-opacity="0" />
  <path d="M251.1367,229.9702 L347.5147,229.9702" stroke="#BF3F3F" stroke-width="0.24" fill-opacity="0" />
  <path d="M269.7148,196.5676 C269.9566,196.3703 269.9566,195.8724 269.7148,195.6751 C269.5175,195.4332 269.0196,195.4332 268.8222,195.6751 C268.5804,195.8724 268.5804,196.3703 268.8222,196.5676 C269.0196,196.8095 269.5175,196.8095 269.7148,196.5676 z" stroke="#000000" stroke-width="0.24" fill-opacity="0" />
  <path d="M256.9994,194.4981 C258.0892,191.8233 258.6135,190.4748 259.9507,188.6956 C261.2879,186.9164 263.4379,184.7066 266.3499,184.0609 C269.262,183.4151 272.9361,184.3335 274.8714,185.9911 C276.8067,187.6487 277.0032,190.0457 278.6244,192.5462 C280.2455,195.0468 283.2912,197.6511 283.2732,200.1089 C283.2552,202.5667 280.1735,204.8781 277.1379,206.6027 C274.1024,208.3273 271.1131,209.4651 269.1392,208.6028 C267.1653,207.7405 266.2068,204.878 263.6193,203.9734 C261.0318,203.0688 256.8154,204.1221 255.5348,202.6481 C254.2542,201.1741 255.9095,197.173 256.9994,194.4981 z" stroke="#000000" stroke-width="0.24" fill-opacity="0" />
  <path d="M256.9182,189.0213 C258.2426,187.041 261.5085,186.7207 264.3306,185.668 C267.0227,184.6638 269.3109,182.9932 271.6049,182.9624 C276.1694,182.9012 280.7569,189.3326 281.2954,194.9864 C281.757,199.833 279.2431,204.1083 275.3842,206.8315 C272.7541,208.6876 269.4991,209.8227 266.6723,209.1801 C263.2136,208.3939 260.3958,204.9466 258.6201,201.6276 C257.5617,199.6493 256.8735,197.7165 256.4496,195.4155 C256.0367,193.1735 255.8746,190.582 256.9182,189.0213 z" stroke="#000000" stroke-width="0.24" fill-opacity="0" />
  <path d="M335.014,196.5676 C335.2559,196.3703 335.2559,195.8724 335.014,195.6751 C334.8167,195.4332 334.3188,195.4332 334.1215,195.6751 C333.8796,195.8724 333.8796,196.3703 334.1215,196.5676 C334.3188,196.8095 334.8167,196.8095 335.014,196.5676 z" stroke="#000000" stroke-width="0.24" fill-opacity="0" />
  <path d="M322.2986,194.4981 C323.3884,191.8233 323.9128,190.4748 325.2499,188.6956 C326.5871,186.9164 328.7372,184.7066 331.6492,184.0609 C334.5613,183.4151 338.2353,184.3335 340.1706,185.9911 C342.1059,187.6487 342.3025,190.0457 343.9236,192.5462 C345.5448,195.0468 348.5905,197.6511 348.5725,200.1089 C348.5545,202.5667 345.4727,204.8781 342.4372,206.6027 C339.4017,208.3273 336.4124,209.4651 334.4385,208.6028 C332.4646,207.7405 331.506,204.878 328.9185,203.9734 C326.3311,203.0688 322.1146,204.1221 320.834,202.6481 C319.5535,201.1741 321.2088,197.173 322.2986,194.4981 z" stroke="#000000" stroke-width="0.24" fill-opacity="0" />
  <path d="M322.2175,189.0213 C323.5419,187.041 326.8078,186.7207 329.6298,185.668 C332.322,184.6638 334.6101,182.9932 336.9041,182.9624 C341.4686,182.9012 346.0562,189.3326 346.5946,194.9864 C347.0562,199.833 344.5423,204.1083 340.6835,206.8315 C338.0533,208.6876 334.7984,209.8227 331.9715,209.1801 C328.5128,208.3939 325.6951,204.9466 323.9194,201.6276 C322.861,199.6493 322.1728,197.7165 321.7489,195.4155 C321.3359,193.1735 321.1738,190.582 322.2175,189.0213 z" stroke="#000000" stroke-width="0.24" fill-opacity="0" />
  <path d="M397.8346,196.5676 C398.0764,196.3703 398.0764,195.8724 397.8346,195.6751 C397.6372,195.4332 397.1394,195.4332 396.942,195.6751 C396.7002,195.8724 396.7002,196.3703 396.942,196.5676 C397.1394,196.8095 397.6372,196.8095 397.8346,196.5676 z" stroke="#000000" stroke-width="0.24" fill-opacity="0" />
  <path d="M385.1191,194.4981 C386.209,191.8233 386.7333,190.4748 388.0705,188.6956 C389.4077,186.9164 391.5577,184.7066 394.4698,184.0609 C397.3818,183.4151 401.0559,184.3335 402.9912,185.9911 C404.9265,187.6487 405.123,190.0457 406.7442,192.5462 C408.3653,195.0468 411.411,197.6511 411.393,200.1089 C411.375,202.5667 408.2933,204.8781 405.2578,206.6027 C402.2222,208.3273 399.2329,209.4651 397.259,208.6028 C395.2851,207.7405 394.3265,204.878 391.7391,203.9734 C389.1516,203.0688 384.9352,204.1221 383.6546,202.6481 C382.374,201.1741 384.0293,197.173 385.1191,194.4981 z" stroke="#000000" stroke-width="0.24" fill-opacity="0" />
  <path d="M385.038,189.0213 C386.3624,187.041 389.6283,186.7207 392.4503,185.668 C395.1425,184.6638 397.4307,182.9932 399.7247,182.9624 C404.2892,182.9012 408.8767,189.3326 409.4152,194.9864 C409.8768,199.833 407.3629,204.1083 403.504,206.8315 C400.8739,208.6876 397.6189,209.8227 394.7921,209.1801 C391.3334,208.3939 388.5156,204.9466 386.7399,201.6276 C385.6815,199.6493 384.9933,197.7165 384.5694,195.4155 C384.1564,193.1735 383.9944,190.582 385.038,189.0213 z" stroke="#000000" stroke-width="0.24" fill-opacity="0" />
  <path d="M453.801,196.6492 C453.8102,194.4615 456.1478,192.5596 457.774,190.3222 C459.3254,188.1879 460.2295,185.7482 461.9699,184.561 C465.433,182.1987 472.2072,184.7946 475.4874,188.8494 C478.2993,192.3253 478.5437,196.8732 476.9713,200.9153 C475.8995,203.6704 473.9836,206.1904 471.4938,207.1326 C468.4474,208.2853 464.5416,207.0758 461.4987,205.4359 C459.6849,204.4584 458.1777,203.328 456.6859,201.7816 C455.2325,200.2749 453.7938,198.3733 453.801,196.6492 z" stroke="#000000" stroke-width="0.24" fill-opacity="0" />
  <path d="M467.5009,196.5676 C467.7427,196.3703 467.7427,195.8724 467.5009,195.6751 C467.3035,195.4332 466.8056,195.4332 466.6083,195.6751 C466.3664,195.8724 466.3664,196.3703 466.6083,196.5676 C466.8056,196.8095 467.3035,196.8095 467.5009,196.5676 z" stroke="#000000" stroke-width="0.24" fill-opacity="0" />
  <path d="M464.4134,184.3238 C461.3211,184.8031 459.9726,185.3274 458.1934,186.6646 C456.4142,188.0018 454.2044,190.1518 453.5587,193.0639 C452.9129,195.9759 453.8313,199.65 455.4889,201.5853 C457.1465,203.5206 459.5435,203.7172 462.0441,205.3383 C464.5446,206.9594 467.1489,210.0052 469.6067,209.9872 C472.0645,209.9692 474.3759,206.8874 476.1005,203.8519 C477.8251,200.8164 478.963,197.8271 478.5061,195.7165 C478.0493,193.6059 475.9979,192.374 475.5108,190.397 C475.0236,188.42 476.1007,185.698 474.2213,184.5541 C472.3418,183.4102 467.5057,183.8445 464.4134,184.3238 z" stroke="#000000" stroke-width="0.24" fill-opacity="0" />
  <path d="M82.38902,508.372 C82.63087,508.1747 82.63087,507.6768 82.38902,507.4795 C82.19168,507.2376 81.6938,507.2376 81.49647,507.4795 C81.25461,507.6768 81.25461,508.1747 81.49647,508.372 C81.6938,508.6139 82.19168,508.6139 82.38902,508.372 z" stroke="#000000" stroke-width="0.24" fill-opacity="0" />
  <path d="M69.67358,506.3026 C70.76339,503.6277 71.28772,502.2792 72.62491,500.5 C73.9621,498.7209 76.11213,496.511 79.02419,495.8653 C81.93623,495.2195 85.6103,496.1379 87.5456,497.7955 C89.48091,499.4532 89.67745,501.8501 91.29859,504.3507 C92.91973,506.8513 95.96547,509.4555 95.94746,511.9133 C95.92945,514.3711 92.84769,516.6825 89.81217,518.4072 C86.77665,520.1318 83.78736,521.2696 81.81345,520.4072 C79.83953,519.5449 78.88098,516.6824 76.2935,515.7778 C73.70601,514.8732 69.48959,515.9265 68.20902,514.4525 C66.92846,512.9786 68.58376,508.9774 69.67358,506.3026 z" stroke="#000000" stroke-width="0.24" fill-opacity="0" />
  <path d="M69.59246,500.8257 C70.91684,498.8454 74.18277,498.5251 77.00478,497.4725 C79.69695,496.4683 81.98512,494.7976 84.27911,494.7668 C88.84359,494.7056 93.43115,501.137 93.96961,506.7908 C94.43121,511.6374 91.9173,515.9127 88.05846,518.6359 C85.42831,520.492 82.17334,521.6271 79.3465,520.9845 C75.88782,520.1984 73.07006,516.751 71.29436,513.432 C70.23594,511.4537 69.54775,509.521 69.12387,507.2199 C68.71088,504.978 68.54878,502.3864 69.59246,500.8257 z" stroke="#000000" stroke-width="0.24" fill-opacity="0" />
  <path d="M397.2995,581.593 C397.5413,581.3957 397.5413,580.8978 397.2995,580.7005 C397.1021,580.4586 396.6042,580.4586 396.4069,580.7005 C396.165,580.8978 396.165,581.3957 396.4069,581.593 C396.6042,581.8349 397.1021,581.8349 397.2995,581.593 z" stroke="#000000" stroke-width="0.24" fill-opacity="0" />
  <path d="M384.584,579.5236 C385.6738,576.8487 386.1982,575.5002 387.5353,573.721 C388.8725,571.9418 391.0226,569.732 393.9346,569.0862 C396.8467,568.4405 400.5208,569.3589 402.4561,571.0165 C404.3914,572.6741 404.5879,575.071 406.209,577.5717 C407.8302,580.0722 410.8759,582.6765 410.8579,585.1343 C410.8399,587.5921 407.7581,589.9035 404.7226,591.6281 C401.6871,593.3527 398.6978,594.4905 396.7239,593.6282 C394.75,592.7659 393.7914,589.9034 391.2039,588.9988 C388.6165,588.0942 384.4,589.1475 383.1195,587.6735 C381.8389,586.1995 383.4942,582.1984 384.584,579.5236 z" stroke="#000000" stroke-width="0.24" fill-opacity="0" />
  <path d="M384.5029,574.0468 C385.8273,572.0664 389.0932,571.7461 391.9152,570.6935 C394.6074,569.6893 396.8956,568.0186 399.1895,567.9878 C403.754,567.9266 408.3416,574.358 408.8801,580.0118 C409.3416,584.8584 406.8278,589.1337 402.9689,591.8569 C400.3387,593.713 397.0838,594.8481 394.257,594.2055 C390.7982,593.4193 387.9805,589.972 386.2048,586.653 C385.1464,584.6747 384.4582,582.7419 384.0343,580.4409 C383.6213,578.1989 383.4592,575.6074 384.5029,574.0468 z" stroke="#000000" stroke-width="0.24" fill-opacity="0" />
  <path d="M453.801,581.4374 C453.8102,579.2497 456.1478,577.3478 457.774,575.1104 C459.3254,572.9761 460.2295,570.5364 461.9699,569.3492 C465.433,566.9869 472.2072,569.5828 475.4874,573.6376 C478.2993,577.1135 478.5437,581.6614 476.9713,585.7035 C475.8995,588.4586 473.9836,590.9786 471.4938,591.9208 C468.4474,593.0734 464.5416,591.864 461.4987,590.2241 C459.6849,589.2466 458.1777,588.1162 456.6859,586.5698 C455.2325,585.0631 453.7938,583.1615 453.801,581.4374 z" stroke="#000000" stroke-width="0.24" fill-opacity="0" />
  <path d="M467.5009,581.3558 C467.7427,581.1585 467.7427,580.6606 467.5009,580.4633 C467.3035,580.2214 466.8056,580.2214 466.6083,580.4633 C466.3664,580.6606 466.3664,581.1585 466.6083,581.3558 C466.8056,581.5977 467.3035,581.5977 467.5009,581.3558 z" stroke="#000000" stroke-width="0.24" fill-opacity="0" />
  <path d="M464.4134,569.112 C461.3211,569.5913 459.9726,570.1156 458.1934,571.4528 C456.4142,572.79 454.2044,574.9401 453.5587,577.8521 C452.9129,580.7642 453.8313,584.4382 455.4889,586.3735 C457.1465,588.3088 459.5435,588.5054 462.0441,590.1265 C464.5446,591.7476 467.1489,594.7934 469.6067,594.7754 C472.0645,594.7574 474.3759,591.6756 476.1005,588.6401 C477.8251,585.6046 478.963,582.6152 478.5061,580.5047 C478.0493,578.3941 475.9979,577.1622 475.5108,575.1852 C475.0236,573.2083 476.1007,570.4862 474.2213,569.3423 C472.3418,568.1984 467.5057,568.6327 464.4134,569.112 z" stroke="#000000" stroke-width="0.24" fill-opacity="0" />
  <path d="M526.7307,580.1863 C526.9725,579.989 526.9725,579.4911 526.7307,579.2938 C526.5333,579.0519 526.0355,579.0519 525.8381,579.2938 C525.5963,579.4911 525.5963,579.989 525.8381,580.1863 C526.0355,580.4282 526.5333,580.4282 526.7307,580.1863 z" stroke="#000000" stroke-width="0.24" fill-opacity="0" />
  <path d="M514.0152,578.1169 C515.105,575.442 515.6293,574.0935 516.9666,572.3143 C518.3037,570.5352 520.4538,568.3253 523.3658,567.6796 C526.2779,567.0338 529.952,567.9522 531.8873,569.6099 C533.8226,571.2675 534.0191,573.6644 535.6402,576.165 C537.2614,578.6655 540.3071,581.2698 540.2891,583.7276 C540.2711,586.1854 537.1893,588.4968 534.1538,590.2214 C531.1183,591.946 528.129,593.0839 526.1551,592.2216 C524.1812,591.3593 523.2226,588.4968 520.6351,587.5922 C518.0477,586.6876 513.8312,587.7408 512.5507,586.2668 C511.2701,584.7928 512.9254,580.7917 514.0152,578.1169 z" stroke="#000000" stroke-width="0.24" fill-opacity="0" />
  <path d="M513.9341,572.6401 C515.2585,570.6597 518.5244,570.3394 521.3464,569.2868 C524.0386,568.2826 526.3268,566.6119 528.6207,566.5812 C533.1852,566.52 537.7728,572.9513 538.3113,578.6051 C538.7728,583.4517 536.259,587.727 532.4001,590.4502 C529.77,592.3063 526.515,593.4414 523.6881,592.7988 C520.2294,592.0126 517.4117,588.5653 515.636,585.2463 C514.5776,583.268 513.8894,581.3353 513.4655,579.0342 C513.0525,576.7923 512.8904,574.2007 513.9341,572.6401 z" stroke="#000000" stroke-width="0.24" fill-opacity="0" />
  <path d="M537.1671,502.303 C537.409,502.1057 537.409,501.6078 537.1671,501.4104 C536.9698,501.1686 536.4719,501.1686 536.2745,501.4104 C536.0327,501.6078 536.0327,502.1057 536.2745,502.303 C536.4719,502.5448 536.9698,502.5448 537.1671,502.303 z" stroke="#000000" stroke-width="0.24" fill-opacity="0" />
  <path d="M524.4517,500.2335 C525.5415,497.5587 526.0658,496.2101 527.403,494.4309 C528.7402,492.6518 530.8903,490.4419 533.8023,489.7962 C536.7144,489.1505 540.3884,490.0688 542.3237,491.7264 C544.259,493.3841 544.4556,495.781 546.0767,498.2816 C547.6978,500.7822 550.7436,503.3864 550.7256,505.8442 C550.7076,508.3021 547.6258,510.6135 544.5903,512.3381 C541.5547,514.0627 538.5654,515.2005 536.5916,514.3382 C534.6176,513.4758 533.6591,510.6134 531.0716,509.7088 C528.4841,508.8042 524.2677,509.8574 522.9871,508.3835 C521.7065,506.9095 523.3619,502.9083 524.4517,500.2335 z" stroke="#000000" stroke-width="0.24" fill-opacity="0" />
  <path d="M524.3705,494.7567 C525.6949,492.7763 528.9609,492.456 531.7829,491.4034 C534.475,490.3992 536.7632,488.7285 539.0572,488.6978 C543.6217,488.6366 548.2092,495.0679 548.7477,500.7217 C549.2093,505.5684 546.6954,509.8436 542.8365,512.5668 C540.2064,514.4229 536.9514,515.558 534.1246,514.9155 C530.6659,514.1293 527.8481,510.6819 526.0724,507.3629 C525.014,505.3846 524.3259,503.4519 523.902,501.1508 C523.489,498.9089 523.3269,496.3173 524.3705,494.7567 z" stroke="#000000" stroke-width="0.24" fill-opacity="0" />
  <path d="M453.801,502.3846 C453.8102,500.1968 456.1478,498.2949 457.774,496.0576 C459.3254,493.9232 460.2295,491.4836 461.9699,490.2963 C465.433,487.934 472.2072,490.53 475.4874,494.5847 C478.2993,498.0606 478.5437,502.6086 476.9713,506.6506 C475.8995,509.4057 473.9836,511.9258 471.4938,512.8679 C468.4474,514.0206 464.5416,512.8111 461.4987,511.1712 C459.6849,510.1938 458.1777,509.0634 456.6859,507.5169 C455.2325,506.0103 453.7938,504.1087 453.801,502.3846 z" stroke="#000000" stroke-width="0.24" fill-opacity="0" />
  <path d="M467.5009,502.303 C467.7427,502.1057 467.7427,501.6078 467.5009,501.4104 C467.3035,501.1686 466.8056,501.1686 466.6083,501.4104 C466.3664,501.6078 466.3664,502.1057 466.6083,502.303 C466.8056,502.5448 467.3035,502.5448 467.5009,502.303 z" stroke="#000000" stroke-width="0.24" fill-opacity="0" />
  <path d="M464.4134,490.0591 C461.3211,490.5385 459.9726,491.0628 458.1934,492.4 C456.4142,493.7372 454.2044,495.8872 453.5587,498.7992 C452.9129,501.7113 453.8313,505.3853 455.4889,507.3206 C457.1465,509.256 459.5435,509.4525 462.0441,511.0736 C464.5446,512.6948 467.1489,515.7405 469.6067,515.7225 C472.0645,515.7045 474.3759,512.6227 476.1005,509.5872 C477.8251,506.5517 478.963,503.5624 478.5061,501.4518 C478.0493,499.3412 475.9979,498.1093 475.5108,496.1324 C475.0236,494.1554 476.1007,491.4333 474.2213,490.2895 C472.3418,489.1456 467.5057,489.5798 464.4134,490.0591 z" stroke="#000000" stroke-width="0.24" fill-opacity="0" />
  <path d="M397.8346,502.303 C398.0764,502.1057 398.0764,501.6078 397.8346,501.4104 C397.6372,501.1686 397.1394,501.1686 396.942,501.4104 C396.7002,501.6078 396.7002,502.1057 396.942,502.303 C397.1394,502.5448 397.6372,502.5448 397.8346,502.303 z" stroke="#000000" stroke-width="0.24" fill-opacity="0" />
  <path d="M385.1191,500.2335 C386.209,497.5587 386.7333,496.2101 388.0705,494.4309 C389.4077,492.6518 391.5577,490.4419 394.4698,489.7962 C397.3818,489.1505 401.0559,490.0688 402.9912,491.7264 C404.9265,493.3841 405.123,495.781 406.7442,498.2816 C408.3653,500.7822 411.411,503.3864 411.393,505.8442 C411.375,508.3021 408.2933,510.6135 405.2578,512.3381 C402.2222,514.0627 399.2329,515.2005 397.259,514.3382 C395.2851,513.4758 394.3265,510.6134 391.7391,509.7088 C389.1516,508.8042 384.9352,509.8574 383.6546,508.3835 C382.374,506.9095 384.0293,502.9083 385.1191,500.2335 z" stroke="#000000" stroke-width="0.24" fill-opacity="0" />
  <path d="M385.038,494.7567 C386.3624,492.7763 389.6283,492.456 392.4503,491.4034 C395.1425,490.3992 397.4307,488.7285 399.7247,488.6978 C404.2892,488.6366 408.8767,495.0679 409.4152,500.7217 C409.8768,505.5684 407.3629,509.8436 403.504,512.5668 C400.8739,514.4229 397.6189,515.558 394.7921,514.9155 C391.3334,514.1293 388.5156,510.6819 386.7399,507.3629 C385.6815,505.3846 384.9933,503.4519 384.5694,501.1508 C384.1564,498.9089 383.9944,496.3173 385.038,494.7567 z" stroke="#000000" stroke-width="0.24" fill-opacity="0" />
  <path d="M209.9774,559.7181 C211.8011,559.6746 213.7563,560.4669 215.0353,561.7678 C216.3308,563.0168 217.1414,564.9282 217.1363,566.7317 L217.1367,566.8044 L217.1367,760.6463 L233.0816,760.6463 L233.0816,566.5682 L233.0816,566.4955 C232.7366,563.0302 236.6268,559.0999 240.0955,559.4092 L523.2741,556.5049 C529.0002,556.2871 535.3232,559.677 538.311,564.5667 C541.5657,569.2828 542.0954,576.4376 539.5707,581.5817 L443.4534,792" stroke="#5D5D5D" stroke-width="0.24" fill-opacity="0" />
  <path d="M0,561.8717 L209.9774,559.7181" stroke="#5D5D5D" stroke-width="0.24" fill-opacity="0" />
  <path d="M435.6624,792 L533.1245,578.6373 C534.6393,575.5508 534.3215,571.2579 532.3687,568.4282 C530.576,565.4944 526.7822,563.4605 523.3466,563.5912 L233.0816,566.5682" stroke="#5D5D5D" stroke-width="0.24" fill-opacity="0" />
  <path d="M68.79285,571.647 C68.80206,569.4593 71.1396,567.5574 72.76585,565.32 C74.31728,563.1857 75.22134,560.746 76.96177,559.5588 C80.42477,557.1965 87.199,559.7924 90.47924,563.8472 C93.29118,567.3231 93.53556,571.871 91.96308,575.9131 C90.8913,578.6682 88.97546,581.1882 86.48559,582.1304 C83.43919,583.2831 79.53347,582.0735 76.49053,580.4337 C74.67676,579.4562 73.16952,578.3258 71.67776,576.7794 C70.22433,575.2727 68.78559,573.3712 68.79285,571.647 z" stroke="#000000" stroke-width="0.24" fill-opacity="0" />
  <path d="M82.49268,571.5654 C82.73454,571.3681 82.73454,570.8702 82.49268,570.6729 C82.29534,570.431 81.79746,570.431 81.60013,570.6729 C81.35827,570.8702 81.35827,571.3681 81.60013,571.5654 C81.79746,571.8073 82.29534,571.8073 82.49268,571.5654 z" stroke="#000000" stroke-width="0.24" fill-opacity="0" />
  <path d="M79.40522,559.3216 C76.31293,559.8009 74.96441,560.3253 73.18523,561.6624 C71.40606,562.9996 69.19622,565.1497 68.55048,568.0617 C67.90474,570.9738 68.8231,574.6478 70.48074,576.5831 C72.13837,578.5184 74.5353,578.715 77.03588,580.3361 C79.53646,581.9572 82.14069,585.003 84.59851,584.985 C87.05633,584.967 89.36774,581.8852 91.09235,578.8497 C92.81696,575.8141 93.95478,572.8249 93.49798,570.7143 C93.04118,568.6037 90.98975,567.3718 90.50259,565.3948 C90.01544,563.4178 91.09254,560.6958 89.21307,559.5519 C87.33359,558.408 82.49751,558.8423 79.40522,559.3216 z" stroke="#000000" stroke-width="0.24" fill-opacity="0" />
  <path d="M12.82641,571.5654 C13.06827,571.3681 13.06827,570.8702 12.82641,570.6729 C12.62908,570.431 12.1312,570.431 11.93386,570.6729 C11.692,570.8702 11.692,571.3681 11.93386,571.5654 C12.1312,571.8073 12.62908,571.8073 12.82641,571.5654 z" stroke="#000000" stroke-width="0.24" fill-opacity="0" />
  <path d="M0.1109701,569.4959 C1.200786,566.8211 1.725118,565.4726 3.062303,563.6934 C4.399488,561.9142 6.549527,559.7044 9.461578,559.0587 C12.37363,558.4129 16.0477,559.3312 17.983,560.9889 C19.9183,562.6465 20.11485,565.0435 21.73599,567.5441 C23.35713,570.0446 26.40287,572.6489 26.38486,575.1067 C26.36685,577.5645 23.28509,579.8759 20.24957,581.6005 C17.21404,583.3251 14.22476,584.463 12.25084,583.6006 C10.27692,582.7383 9.318377,579.8759 6.730892,578.9713 C4.143406,578.0667 -0.07301898,579.1199 -1.353582,577.6459 C-2.634145,576.1719 -0.9788455,572.1708 0.1109701,569.4959 z" stroke="#000000" stroke-width="0.24" fill-opacity="0" />
  <path d="M0.02985884,564.0191 C1.354231,562.0388 4.620162,561.7184 7.442178,560.6658 C10.13435,559.6617 12.42251,557.991 14.71651,557.9602 C19.28098,557.899 23.86854,564.3304 24.40701,569.9842 C24.8686,574.8308 22.3547,579.1061 18.49586,581.8293 C15.8657,583.6854 12.61073,584.8204 9.783898,584.1779 C6.325214,583.3917 3.507454,579.9444 1.731759,576.6254 C0.6733371,574.6471 -0.01485163,572.7144 -0.4387366,570.4133 C-0.8517286,568.1713 -1.013826,565.5798 0.02985884,564.0191 z" stroke="#000000" stroke-width="0.24" fill-opacity="0" />
</svg>